<svg xmlns="http://www.w3.org/2000/svg" version="1.1" xmlns:xlink="http://www.w3.org/1999/xlink" xmlns:svgjs="http://svgjs.com/svgjs" width="1000" height="1000"><rect width="1000" height="1000" rx="200" ry="200" fill="#ffffff"></rect><g transform="matrix(33.333333333333336,0,0,33.333333333333336,100,100)"><svg xmlns="http://www.w3.org/2000/svg" version="1.1" xmlns:xlink="http://www.w3.org/1999/xlink" xmlns:svgjs="http://svgjs.com/svgjs" width="24" height="24"><svg xmlns="http://www.w3.org/2000/svg" width="24" height="24" viewBox="0 0 24 24" fill="none" stroke="currentColor" stroke-width="2" stroke-linecap="round" stroke-linejoin="round" class="icon icon-tabler icons-tabler-outline icon-tabler-sticker-2"><path stroke="none" d="M0 0h24v24H0z" fill="none"></path><path d="M6 4h12a2 2 0 0 1 2 2v7h-5a2 2 0 0 0 -2 2v5h-7a2 2 0 0 1 -2 -2v-12a2 2 0 0 1 2 -2z"></path><path d="M20 13v.172a2 2 0 0 1 -.586 1.414l-4.828 4.828a2 2 0 0 1 -1.414 .586h-.172"></path></svg></svg></g></svg>