<svg version="1.0" xmlns="http://www.w3.org/2000/svg" width="933.333" height="933.333" viewBox="0 0 700 700">
    <path d="M195.5 141.6c-3.8.8-11.3 3.6-16.5 6.1-8 3.8-10.9 5.9-18.1 13.2-7.2 7.2-9.4 10.2-13.2 18.1-8.2 16.7-7.7 6.4-7.7 171s-.5 154.3 7.7 171c3.8 7.9 6 10.9 13.2 18.1 7.2 7.3 10.1 9.4 18.1 13.2 16.7 8.1 12.9 7.8 118.5 7.5l93-.3 8-2.8c17.1-6 16.7-5.6 84.6-73.6 68-67.9 67.6-67.5 73.6-84.6l2.8-8 .3-93c.3-105.5.5-101.9-7.4-118.3-7.2-14.9-20.5-27.4-35.9-33.9-12.9-5.4-8.3-5.3-167.2-5.2-125.2.1-147.8.3-153.8 1.5zm303.3 47c4.9 2 10 7 12.3 11.9 1.8 3.8 1.9 8 1.9 76.7V350h-49.5c-56.8 0-59 .2-74.5 7.7-8 3.8-10.9 5.9-18.1 13.2-7.2 7.2-9.4 10.2-13.2 18.1-7.5 15.3-7.7 17.5-7.7 74.5V513h-72.7c-81.3 0-76.9.3-84-7.1-6.8-7.2-6.3 4.2-6.3-155.9s-.5-148.7 6.3-155.9c1.8-1.8 5-4.2 7.2-5.2 3.8-1.8 9.9-1.9 149.3-1.9 129 0 145.7.2 149 1.6zM450.5 450l-53 53-.3-43.2c-.2-29.5.1-44.5.8-47.1 1.4-4.9 7.4-11.5 12.5-13.8 3.7-1.7 7.6-1.9 48.5-1.9h44.5l-53 53z"/>
</svg>
