<?xml version="1.0" standalone="no"?>
<!DOCTYPE svg PUBLIC "-//W3C//DTD SVG 20010904//EN"
 "http://www.w3.org/TR/2001/REC-SVG-20010904/DTD/svg10.dtd">
<svg version="1.0" xmlns="http://www.w3.org/2000/svg"
 width="700.000000pt" height="700.000000pt" viewBox="0 0 700.000000 700.000000"
 preserveAspectRatio="xMidYMid meet">
<metadata>
Created by potrace 1.14, written by Peter Selinger 2001-2017
</metadata>
<g transform="translate(0.000000,700.000000) scale(0.100000,-0.100000)"
fill="#000000" stroke="none">
<path d="M1955 5584 c-38 -8 -113 -36 -165 -61 -80 -38 -109 -59 -181 -132
-72 -72 -94 -102 -132 -181 -82 -167 -77 -64 -77 -1710 0 -1646 -5 -1543 77
-1710 38 -79 60 -109 132 -181 72 -73 101 -94 181 -132 167 -81 129 -78 1185
-75 l930 3 80 28 c171 60 167 56 846 736 680 679 676 675 736 846 l28 80 3
930 c3 1055 5 1019 -74 1183 -72 149 -205 274 -359 339 -129 54 -83 53 -1672
52 -1252 -1 -1478 -3 -1538 -15z m3033 -470 c49 -20 100 -70 123 -119 18 -38
19 -80 19 -767 l0 -728 -495 0 c-568 0 -590 -2 -745 -77 -80 -38 -109 -59
-181 -132 -72 -72 -94 -102 -132 -181 -75 -153 -77 -175 -77 -745 l0 -495
-727 0 c-813 0 -769 -3 -840 71 -68 72 -63 -42 -63 1559 0 1601 -5 1487 63
1559 18 18 50 42 72 52 38 18 99 19 1493 19 1290 0 1457 -2 1490 -16z m-483
-2614 l-530 -530 -3 432 c-2 295 1 445 8 471 14 49 74 115 125 138 37 17 76
19 485 19 l445 0 -530 -530z"/>
</g>
</svg>
