<svg width="700" height="1000" viewBox="0 0 18.519 26.455" xmlns="http://www.w3.org/2000/svg">
    <path style="fill:#000;stroke-width:.20960318;stroke-dasharray:none" d="M9.131.043h.265v6.753h-.265zM9.092 14.528h.265v11.944h-.265z"/>
    <path style="fill:#030303;fill-opacity:1;stroke:none;stroke-width:.235727;stroke-opacity:1" transform="matrix(.89064 -.45471 .5467 .83733 0 0)" d="M-.398 8.716h.257v8.508h-.257z"/>
    <path style="fill:none;stroke:#000;stroke-width:.224868;stroke-linecap:round;stroke-linejoin:round;stroke-miterlimit:100;stroke-dasharray:none" d="M12.812 17.252H5.484s-1.347.091-1.391 1.38c-.044 1.289 1.38 1.423 1.38 1.423h7.376s1.343-.067 1.343-1.402c0-1.334-1.38-1.401-1.38-1.401z"/>
    <path style="fill:none;stroke:#000;stroke-width:.215899;stroke-linecap:round;stroke-linejoin:round;stroke-miterlimit:100;stroke-dasharray:.647697,.647697;stroke-dashoffset:0" d="M4.082 18.682h-2.1v-8.125h4.922"/>
    <path style="fill:none;fill-opacity:1;stroke:#020202;stroke-width:.264583;stroke-linecap:round;stroke-linejoin:round;stroke-miterlimit:20;stroke-dasharray:none;stroke-dashoffset:0;stroke-opacity:1;paint-order:normal" d="m8.552 6.17 1.42 1.422M8.53 7.613l1.421-1.421"/>
</svg>
