<?xml version="1.0" encoding="UTF-8" standalone="no"?>
<svg
   width="24"
   height="24"
   viewBox="0 0 24 24"
   fill="none"
   stroke="currentColor"
   stroke-width="2"
   stroke-linecap="round"
   stroke-linejoin="round"
   class="icon icon-tabler icons-tabler-outline icon-tabler-fountain"
   version="1.1"
   id="svg6"
   sodipodi:docname="swb_fountain.svg"
   inkscape:version="1.4.3 (0d15f75042, 2025-12-25)"
   xmlns:inkscape="http://www.inkscape.org/namespaces/inkscape"
   xmlns:sodipodi="http://sodipodi.sourceforge.net/DTD/sodipodi-0.dtd"
   xmlns="http://www.w3.org/2000/svg"
   xmlns:svg="http://www.w3.org/2000/svg">
  <defs
     id="defs6" />
  <sodipodi:namedview
     id="namedview6"
     pagecolor="#ffffff"
     bordercolor="#000000"
     borderopacity="0.25"
     inkscape:showpageshadow="2"
     inkscape:pageopacity="0.0"
     inkscape:pagecheckerboard="0"
     inkscape:deskcolor="#d1d1d1"
     inkscape:zoom="33.291667"
     inkscape:cx="11.984981"
     inkscape:cy="12"
     inkscape:window-width="1920"
     inkscape:window-height="1008"
     inkscape:window-x="0"
     inkscape:window-y="0"
     inkscape:window-maximized="1"
     inkscape:current-layer="svg6" />
  <path
     stroke="none"
     d="M0 0h24v24H0z"
     fill="none"
     id="path1" />
  <path
     d="M9 16v-5a2 2 0 1 0 -4 0"
     id="path2"
     style="fill:none;stroke:#000000;stroke-opacity:1" />
  <path
     d="M15 16v-5a2 2 0 1 1 4 0"
     id="path3"
     style="fill:none;stroke:#000000;stroke-opacity:1" />
  <path
     d="M12 16v-10a3 3 0 0 1 6 0"
     id="path4"
     style="fill:none;stroke:#000000;stroke-opacity:1" />
  <path
     d="M6 6a3 3 0 0 1 6 0"
     id="path5"
     style="fill:none;stroke:#000000;stroke-opacity:1" />
  <path
     d="M3 16h18v2a3 3 0 0 1 -3 3h-12a3 3 0 0 1 -3 -3v-2"
     id="path6"
     style="fill:none;stroke:#000000;stroke-opacity:1" />
</svg>
