<svg xmlns="http://www.w3.org/2000/svg" id="Calque_2" data-name="Calque 2" viewBox="0 0 85.6 82.73">
    <defs>
        <style>
            .cls-1 {

            }
        </style>
    </defs>
    <g id="Calque_1-2" data-name="Calque 1">
        <g>
            <path class="cls-1"
                d="m85.58,55.96c-.16-3.53-1.56-6.44-4.47-8.54-1.75-1.26-3.69-2.11-5.74-2.72-4.48-1.32-9.06-1.49-13.68-1.22-.66.04-1.32.1-2.04.16,0,.3,0,.49,0,.69.09,4.12-1.47,7.6-4.27,10.53-.86.91-1.95,1.61-2.97,2.36-.39.29-.47.52-.25.95.47.89.89,1.81,1.33,2.72,1.09,2.25,2.01,4.57,2.43,7.05.37,2.2.63,4.43,1.01,6.63.33,1.89.87,3.73,1.91,5.37,1.25,1.97,3.04,2.91,5.38,2.79,1.74-.09,3.33-.66,4.83-1.49,6.17-3.42,10.77-8.36,13.96-14.61,1.7-3.33,2.76-6.86,2.59-10.66Z" />
            <path class="cls-1"
                d="m31.69,21.52c1.3,3.43,3.1,6.6,5.07,9.74.4-.19.72-.36,1.06-.51,4.35-1.89,8.71-2.23,13.08-.09.44.22.91.39,1.35.6.45.22.73.1,1.02-.31.82-1.16,1.66-2.3,2.54-3.41,2.22-2.79,4.96-4.99,7.87-7.02,2.09-1.45,4.05-3.08,5.41-5.29,1.5-2.43,1.36-4.75-.39-7.01-1.13-1.45-2.52-2.6-4.09-3.51C57.48.61,49.81-.81,41.68.43c-2.71.41-5.2,1.49-7.42,3.13-3.29,2.43-4.48,5.8-4.38,9.76.07,2.85.8,5.56,1.81,8.21Z" />
            <path class="cls-1"
                d="m37.13,57.15c-.5-.38-1.03-.71-1.55-1.04-3.08-1.98-5.13-4.75-6.09-8.27-.34-1.25-.42-2.57-.64-3.95-.58,0-1.23.04-1.87,0-1.82-.12-3.65-.23-5.46-.42-2.78-.3-5.36-1.35-7.96-2.3-2.46-.9-4.95-1.61-7.61-1.44-.64.04-1.3.11-1.89.33-1.83.68-2.89,2.09-3.46,3.9-.69,2.22-.68,4.51-.47,6.78.46,4.94,2.08,9.51,4.59,13.77,2.13,3.62,4.76,6.81,8.38,9.04,2.4,1.48,4.98,2.33,7.85,1.92,2.65-.38,4.88-1.63,6.83-3.39,4.4-3.98,7.34-8.94,9.56-14.38.06-.14-.07-.44-.21-.55Z" />
            <path class="cls-1"
                d="m54.71,40.21c-2.62-6.18-10.05-8.83-15.66-5.58-4.38,2.54-6.57,7.21-5.75,11.86.76,4.3,5.1,9.47,11.28,8.93,1.68.21,3.41-.25,5.1-1.15,5.03-2.69,7.25-8.82,5.03-14.06Z" />
        </g>
    </g>
</svg>