<svg xmlns="http://www.w3.org/2000/svg" id="Calque_2" data-name="Calque 2" viewBox="0 0 70.96 88.93">
    <defs>
        <style>
            .cls-1 {

            }
        </style>
    </defs>
    <g id="Calque_1-2" data-name="Calque 1">
        <g>
            <path class="cls-1"
                d="m35.4,32.51c-12.21.03-21.97,9.94-21.88,22.18.08,12,9.94,21.98,22.44,21.76,11.86-.27,21.67-9.97,21.48-22.35-.19-12.04-9.98-21.63-22.03-21.59Zm16.36,15.94c.37,1.14.57,2.36.68,3.56.22,2.46.32,4.93-.25,7.37-.96,4.12-3.09,7.5-6.42,10.09-3.35,2.6-7.17,3.81-11.41,3.52-4.24-.28-7.92-1.92-10.93-4.95-3.82-3.84-5.43-8.48-4.99-13.86.03-.41.1-.81.16-1.2,1.41.73,2.72,1.52,4.11,2.12,4.01,1.74,8.06,1.66,12.12.14,3.09-1.16,5.8-2.98,8.47-4.87,1.46-1.03,2.95-2.01,4.44-3.01.2-.14.43-.24.66-.34,1.69-.74,2.82-.33,3.38,1.42Z" />
            <path class="cls-1"
                d="m70.95,54.58c0-6.67,0-13.34,0-20.01,0-9.98,0-19.96,0-29.94,0-.43,0-.87-.09-1.29C70.42,1.29,68.73,0,66.49,0c-10.57,0-21.14,0-31.71,0C24.72,0,14.65,0,4.58,0,1.72,0,0,1.72,0,4.56c0,1.97,0,3.95,0,5.92,0,11.55,0,23.1,0,34.65,0,3.56,0,7.11,0,10.67,0,7.47,0,14.95,0,22.42,0,.78,0,1.56,0,2.33,0,1.93-.04,3.87.04,5.8.02.53.33,1.09.65,1.54.67.94,1.7,1.03,2.76,1.03,11.48,0,22.95,0,34.43,0,10.01,0,20.01,0,30.02,0,1.9,0,3.04-1.16,3.04-3.04,0-2.26,0-4.52,0-6.79,0-8.17,0-16.34,0-24.51Zm-8-25.55v50.94c0,.57-.46,1.03-1.03,1.03H8.99c-.57,0-1.03-.46-1.03-1.03V29.03c0-.57.46-1.03,1.03-1.03h52.94c.57,0,1.03.46,1.03,1.03Zm-3.53-21.99c2.52.08,4.59,2.23,4.57,4.74-.02,2.54-2.2,4.66-4.74,4.63-2.55-.03-4.66-2.2-4.61-4.74.05-2.61,2.22-4.71,4.78-4.63Zm-14.09,0c2.52,0,4.58,2.11,4.6,4.68.01,2.55-2.06,4.65-4.6,4.67-2.57.02-4.71-2.07-4.73-4.62-.02-2.59,2.12-4.73,4.73-4.73Zm-38.24,1.52h18.34c0,.69,0,1.38,0,2.06,0,1.26-.02,2.51,0,3.76,0,.43-.15.52-.54.51-2.22-.03-4.44-.07-6.66-.07-3.5,0-6.99.04-10.49.07-.2,0-.4,0-.65,0v-6.34Z" />
        </g>
    </g>
</svg>