<svg xmlns="http://www.w3.org/2000/svg" id="Calque_2" data-name="Calque 2"
    viewBox="0 0 120.58 74.02">
    <defs>
        <style>
            .cls-1 {

            }
        </style>
    </defs>
    <g id="Calque_1-2" data-name="Calque 1">
        <path class="cls-1"
            d="m120.48,3.72c-.14-1.85-1.99-3.84-4.49-3.71-.38.02-.77.02-1.15.02-36.08,0-72.16,0-108.25,0-.88,0-1.77-.03-2.65.01C2.04.14.21,1.88.13,3.8c-.05-.1-.09-.17-.13-.24v66.89l.23-.48c-.2.67.04,1.27.37,1.83.79,1.31,1.92,2.15,3.48,2.18,2.6.05,5.2.02,7.8.02,24.07,0,48.14,0,72.2,0,10.32,0,20.64,0,30.95,0,.66,0,1.33.05,1.96-.06,1.89-.34,3.26-1.83,3.52-3.74.01-.1.04-.19.06-.28V3.8s-.1-.05-.11-.08Zm-39.87,61.61h-7.57c1.5-.99,1.94-2.43,2.08-4.06h-14.09s-.02-.04-.03-.06c.09-.07.17-.14.26-.2.92-.67,1.87-1.3,2.76-2,1.35-1.06,2.56-2.26,3.64-3.59,1.17-1.42,2.17-2.95,2.99-4.6.89-1.8,1.55-3.68,1.87-5.67.19-1.2.28-2.41.4-3.62,0-.06-.11-.18-.19-.2-.14-.03-.29,0-.44,0-18.44,0-36.87,0-55.31,0h-.73c.1,1.07.14,2.07.3,3.06.38,2.32,1.06,4.55,2.14,6.65,1.25,2.43,2.86,4.59,4.81,6.5,1.35,1.32,2.87,2.43,4.44,3.48.09.06.18.12.25.24h-14.05c.08,1.64.55,3.05,1.92,4.08-.08,0-.16.03-.23.03-2.29,0-4.57,0-6.86.01-.19,0-.28-.04-.25-.24,0-.08,0-.16,0-.24V8.68h71.9v56.64Zm25.06-48.23c0-.73,0-.73.73-.73,1.94,0,3.88,0,5.83,0,.17,0,.25.02.25.22,0,2.13,0,4.26,0,6.39,0,.06-.01.11-.02.21-.28,0-.54,0-.79,0-1.9,0-3.81,0-5.71,0-.19,0-.3-.02-.3-.26.02-1.94.02-3.88.02-5.83Zm-8.7-.48c0-.19.05-.25.25-.25,2.12,0,4.24,0,6.36,0,.18,0,.21.06.21.22,0,1.07,0,2.14,0,3.21,0,0,0,0,0,0,0,1.02,0,2.04,0,3.06,0,.25-.06.33-.33.33-2.07,0-4.14,0-6.21,0-.21,0-.29-.05-.29-.28.01-2.1.02-4.2.01-6.3Zm6.42,15.04c-2.05,0-4.1,0-6.15,0-.2,0-.27-.06-.27-.27,0-2.11,0-4.22,0-6.32,0-.21.08-.24.26-.24,1.06,0,2.12,0,3.18,0h0c1.04,0,2.08,0,3.12,0,.21,0,.26.06.25.26,0,2.05,0,4.1,0,6.15,0,.4,0,.41-.39.41Zm.37,1.63v6.78h-6.77c0-.08-.01-.16-.01-.24,0-2.1,0-4.2-.01-6.3,0-.24.11-.25.29-.25,1.95,0,3.9,0,5.86,0,.2,0,.41,0,.64,0Zm-15.49-16.66c0-.15,0-.26.21-.26,2.19,0,4.37,0,6.61,0,0,.19,0,.36,0,.52,0,1.96,0,3.92,0,5.89,0,.4,0,.41-.42.41-2.05,0-4.1,0-6.15.01-.2,0-.27-.06-.27-.27,0-2.1.01-4.2.01-6.3Zm0,8.47c0-.21.07-.26.27-.26,2.15,0,4.3,0,6.44,0,.02,0,.04,0,.11.03,0,.16,0,.31,0,.47,0,1.98,0,3.96.01,5.94,0,.3-.08.39-.39.39-2.06-.01-4.12,0-6.18,0-.21,0-.27-.07-.27-.27,0-2.1,0-4.2,0-6.3Zm0,14.77c0-2.11,0-4.22,0-6.32,0-.25.11-.26.31-.26,2.01,0,4.02,0,6.03.02.49,0,.49.01.49.52,0,2.01,0,4.02,0,6.03,0,.07,0,.13,0,.23h-6.81c0-.08-.02-.14-.02-.21Zm11.93,23.24c-4.08,0-7.43-3.22-7.45-7.4-.02-4.23,3.38-7.5,7.44-7.46,4.13-.02,7.43,3.26,7.44,7.42.01,4.16-3.35,7.44-7.44,7.44Zm12.26-23.03h-6.75c0-.08-.03-.15-.03-.23,0-2.11,0-4.22-.01-6.33,0-.23.11-.23.28-.23,2,0,4,0,6,0,.16,0,.33,0,.51,0v6.79Zm.01-8.55s-.01.06-.03.14c-.19,0-.36,0-.54,0-1.97,0-3.94,0-5.91,0-.27,0-.32-.08-.32-.34.01-2.09,0-4.18,0-6.26,0-.19.07-.23.24-.23,2.12,0,4.23,0,6.35,0,.14,0,.22.02.22.19,0,2.17,0,4.33,0,6.5Z" />
    </g>
</svg>