<?xml version="1.0" encoding="UTF-8" standalone="no"?>
<svg
   width="1000"
   height="1000"
   data-name="Calque 2"
   version="1.1"
   id="svg1"
   sodipodi:docname="swb_chauffage.svg"
   inkscape:version="1.4 (86a8ad7, 2024-10-11)"
   viewBox="-15 -2 90 90"
   xmlns:inkscape="http://www.inkscape.org/namespaces/inkscape"
   xmlns:sodipodi="http://sodipodi.sourceforge.net/DTD/sodipodi-0.dtd"
   xmlns="http://www.w3.org/2000/svg"
   xmlns:svg="http://www.w3.org/2000/svg">
  <sodipodi:namedview
     id="namedview1"
     pagecolor="#ffffff"
     bordercolor="#000000"
     borderopacity="0.25"
     inkscape:showpageshadow="2"
     inkscape:pageopacity="0.0"
     inkscape:pagecheckerboard="0"
     inkscape:deskcolor="#d1d1d1"
     inkscape:zoom="0.29540529"
     inkscape:cx="-133.7146"
     inkscape:cy="242.04035"
     inkscape:window-width="1920"
     inkscape:window-height="1009"
     inkscape:window-x="1912"
     inkscape:window-y="-8"
     inkscape:window-maximized="1"
     inkscape:current-layer="svg1" />
  <defs
     id="defs1">
    <style
       id="style1">.cls-1 {

            }</style>
  </defs>
  <path
     class="cls-1"
     d="m 65.53,40.38 c -0.16,-1.21 -1.29,-1.92 -2.61,-2.18 -0.41,-0.08 -0.83,-0.07 -1.3,-0.11 -0.03,-0.37 -0.06,-0.68 -0.08,-1 -0.16,-2.66 -2.78,-4.53 -5.6,-3.96 -2.37,0.48 -3.69,2.13 -3.69,4.71 -0.01,12.62 0,25.24 0,37.86 0,0.46 0.04,0.94 0.14,1.39 0.4,1.83 2.2,3.24 4.2,3.32 2.97,0.11 4.96,-1.73 4.96,-4.65 0,-8.9 0,-17.81 0,-26.71 0,-0.42 0,-0.85 0,-1.33 1.9,0.03 3.56,-0.49 3.92,-2.2 0.35,-1.66 0.27,-3.44 0.06,-5.13 z"
     id="svg_2"
     style="fill:#000000;fill-opacity:1;stroke:none" />
  <path
     class="cls-1"
     d="m 43.7,33.01 c -2.27,-0.18 -4.38,1.37 -4.83,3.57 -0.08,0.42 -0.11,0.86 -0.11,1.29 0,12.59 0,25.18 -0.01,37.77 0,1.74 0.59,3.21 2.22,4.15 1.5,0.86 3.09,0.93 4.65,0.15 1.65,-0.82 2.45,-2.16 2.45,-3.89 0,-6.42 0,-12.84 0,-19.26 0,-6.49 0.02,-12.99 -0.01,-19.48 C 48.05,35 46.19,33.23 43.7,33.02 v 0.01 z"
     id="svg_3"
     style="fill:#000000;fill-opacity:1;stroke:none" />
  <path
     class="cls-1"
     d="M 7.26,35.84 C 6.53,33.91 4.37,32.75 2.29,33.07 c -2.38,0.37 -3.98,2.03 -3.98,4.26 -0.02,6.46 0,12.92 0,19.37 0,6.35 -0.03,12.7 0.02,19.05 0,0.83 0.18,1.74 0.58,2.48 0.93,1.74 3.14,2.58 5.14,2.11 2.22,-0.52 3.56,-2.23 3.57,-4.62 0,-12.66 0,-25.32 -0.01,-37.99 0,-0.64 -0.09,-1.31 -0.32,-1.91 l -0.02,0.02 z"
     id="svg_4"
     style="fill:#000000;fill-opacity:1;stroke:none;stroke-opacity:1" />
  <path
     class="cls-1"
     d="m 20.71,35.74 c -0.79,-1.93 -2.9,-3 -5.04,-2.65 -2.29,0.38 -3.88,2.05 -3.88,4.22 -0.02,6.49 0,12.99 0,19.47 0,6.35 0,12.7 0,19.05 0,2.73 1.93,4.59 4.71,4.58 2.64,0 4.61,-1.94 4.62,-4.6 0,-12.7 0,-25.39 -0.02,-38.09 0,-0.67 -0.12,-1.38 -0.38,-2 l -0.01,0.01 z"
     id="svg_5"
     style="fill:#000000;fill-opacity:1;stroke:none" />
  <path
     class="cls-1"
     d="m 34.59,37.64 c 0,-2.68 -2.02,-4.65 -4.72,-4.63 -2.62,0.03 -4.61,1.98 -4.61,4.62 -0.01,12.77 -0.03,25.54 0.02,38.31 0,0.85 0.32,1.8 0.78,2.54 1.05,1.67 3.19,2.32 5.17,1.77 2.08,-0.57 3.34,-2.17 3.35,-4.31 0.01,-6.42 0,-12.84 0,-19.26 0,-6.35 0,-12.7 0,-19.05 v 0.01 z"
     id="svg_6"
     style="fill:#000000;fill-opacity:1;stroke:none;stroke-opacity:1" />
  <path
     class="cls-1"
     d="M 28.28,21.3 C 28.23,19.54 27.55,18 26.41,16.62 25.82,15.9 25.23,15.19 24.68,14.45 23.69,13.11 23.73,11.73 24.74,10.43 25.28,9.73 25.95,9.12 26.57,8.48 27.22,7.81 27.25,7.1 26.62,6.45 25.97,5.78 25.16,5.64 24.33,6.19 c -4.02,2.6 -4.79,7.21 -1.8,10.78 0.66,0.8 1.35,1.6 1.85,2.48 1.14,2.02 0.39,4.35 -1.71,5.54 -0.29,0.17 -0.63,0.28 -0.93,0.46 -0.8,0.49 -1.07,1.55 -0.58,2.3 0.54,0.82 1.28,0.76 2.12,0.42 2.96,-1.21 5.02,-4.02 4.99,-6.86 v 0.01 z"
     id="svg_7"
     style="fill:#000000;fill-opacity:1;stroke:none" />
  <path
     class="cls-1"
     d="m 15.27,26.08 c 2.81,-2.9 2.68,-6.38 -0.23,-9.91 -2.87,-3.49 -2.82,-4.36 0.41,-7.56 0.79,-0.79 0.85,-1.5 0.17,-2.19 -0.67,-0.69 -1.73,-0.78 -2.46,-0.05 -0.93,0.91 -1.84,1.88 -2.52,2.94 -1.54,2.45 -1.36,4.88 0.51,7.17 0.57,0.69 1.22,1.32 1.68,2.07 0.51,0.82 0.86,1.74 1.07,2.17 0.02,1.94 -0.56,3.11 -1.78,3.97 -0.37,0.25 -0.79,0.45 -1.19,0.67 -0.92,0.51 -1.26,1.49 -0.78,2.31 0.53,0.89 1.37,0.94 2.18,0.46 1.04,-0.61 2.14,-1.22 2.95,-2.05 v 0.01 z"
     id="svg_8"
     style="fill:#000000;fill-opacity:1;stroke:none" />
  <path
     class="cls-1"
     d="m 37.71,17.07 c -0.67,-0.92 -1.43,-1.8 -2.1,-2.72 -0.93,-1.28 -0.86,-2.6 0.06,-3.84 C 36.22,9.77 37,9.19 37.52,8.44 37.81,8.02 38.04,7.32 37.85,6.91 37.61,6.41 36.93,6.09 36.4,5.65 c -0.59,0.32 -1.05,0.47 -1.34,0.77 -0.72,0.7 -1.44,1.42 -2.02,2.23 -2.07,2.86 -1.93,5.43 0.33,8.16 0.64,0.77 1.3,1.53 1.84,2.36 0.89,1.37 1,2.85 0.07,4.2 -0.52,0.74 -1.36,1.36 -2.17,1.86 -1.02,0.62 -1.48,1.5 -1.02,2.44 0.42,0.84 1.18,0.96 2.48,0.37 4.62,-2.09 6.03,-6.99 3.13,-10.95 l 0.02,-0.02 z"
     id="svg_9"
     style="fill:#000000;fill-opacity:1;stroke:none" />
  <path
     class="cls-1"
     d="M 47.96,16.11 C 45.11,12.74 45.21,11.77 48.38,8.63 49.21,7.81 49.25,7.07 48.5,6.36 47.8,5.69 46.77,5.64 46.04,6.41 45.1,7.4 44.14,8.43 43.45,9.57 c -1.32,2.19 -1.2,4.43 0.37,6.51 0.59,0.8 1.28,1.53 1.89,2.32 2.05,2.67 1.38,5.25 -1.68,6.89 -0.56,0.3 -0.91,0.94 -1.13,1.17 0.04,1.59 0.98,2.2 2.13,1.75 1.8,-0.7 3.28,-1.81 4.2,-3.43 1.82,-3.17 1.02,-5.99 -1.27,-8.7 v 0.01 z"
     id="svg_10"
     style="fill:#000000;fill-opacity:1;stroke:none" />
</svg>
