<?xml version="1.0" encoding="UTF-8" standalone="no"?>
<svg
   width="1000"
   height="1000"
   viewBox="0 0 24 24"
   fill="none"
   stroke="currentColor"
   stroke-width="2"
   stroke-linecap="round"
   stroke-linejoin="round"
   class="icon icon-tabler icons-tabler-outline icon-tabler-propeller"
   version="1.1"
   id="svg8"
   sodipodi:docname="swb_ventil2.svg"
   inkscape:version="1.2.2 (b0a8486541, 2022-12-01)"
   xmlns:inkscape="http://www.inkscape.org/namespaces/inkscape"
   xmlns:sodipodi="http://sodipodi.sourceforge.net/DTD/sodipodi-0.dtd"
   xmlns="http://www.w3.org/2000/svg"
   xmlns:svg="http://www.w3.org/2000/svg">
  <defs
     id="defs12" />
  <sodipodi:namedview
     id="namedview10"
     pagecolor="#ffffff"
     bordercolor="#000000"
     borderopacity="0.25"
     inkscape:showpageshadow="2"
     inkscape:pageopacity="0.0"
     inkscape:pagecheckerboard="0"
     inkscape:deskcolor="#d1d1d1"
     showgrid="false"
     inkscape:zoom="0.868"
     inkscape:cx="426.84332"
     inkscape:cy="500.57604"
     inkscape:window-width="1862"
     inkscape:window-height="1011"
     inkscape:window-x="1978"
     inkscape:window-y="32"
     inkscape:window-maximized="1"
     inkscape:current-layer="svg8" />
  <path
     d="M0 0h24v24H0Z"
     stroke="none"
     id="path2" />
  <path
     d="M14.167 10.5c.722-1.538 1.156-3.043 1.303-4.514C15.69 4.356 14.708 3 12 3S8.31 4.357 8.53 5.986c.147 1.471.581 2.976 1.303 4.514M13.169 16.751c.97 1.395 2.057 2.523 3.257 3.386 1.3 1 2.967.833 4.321-1.512 1.354-2.345.67-3.874-.85-4.498-1.348-.608-2.868-.985-4.562-1.128M8.664 13c-1.693.143-3.213.52-4.56 1.128-1.522.623-2.206 2.153-.852 4.498s3.02 2.517 4.321 1.512c1.2-.863 2.287-1.991 3.258-3.386"
     id="path4" />
  <circle
     style="display:inline;fill:none;fill-opacity:0;stroke:#000000;stroke-width:1.92;stroke-linecap:round;stroke-linejoin:round;stroke-opacity:1;paint-order:markers stroke fill"
     cx="12.016"
     cy="13.05"
     r="2.972"
     id="circle6" />
</svg>
