<svg id="Calque_2" data-name="Calque 2" viewBox="-4 -12 98 98" version="1.1" width="1000" height="1000" xmlns="http://www.w3.org/2000/svg">
    <defs id="defs1">
        <style id="style1">
            
        </style>
    </defs>
    <path class="cls-1" d="M78.23 47.04c.04-.74 0-1.49 0-2.23 0-.85-.05-1.71 0-2.55.35-5.06-1.99-8.77-5.83-11.75-3.64-2.83-7.83-4.51-12.22-5.63-9.47-2.4-19.01-2.57-28.54-.37-5.92 1.37-11.5 3.54-15.88 7.99-2.37 2.41-3.7 5.26-3.59 8.74.08 2.6.07 5.22-.02 7.82-.02.66-.31 1.44-.75 1.92-2.78 3.02-3.01 6.88-.52 10.17 2.54 3.35 5.93 5.61 9.64 7.43 6.2 3.05 12.85 4.42 19.67 4.93 9.95.74 19.64-.42 28.84-4.54 3.92-1.76 7.47-4.07 10.22-7.45 2.39-2.95 2.79-6.69.49-9.39-1.38-1.62-1.61-3.2-1.51-5.08zm-57.81 10.3c-.17.1-.35.2-.52.3-.94-1.28-1.93-2.53-2.77-3.88-.15-.24.25-1.19.49-1.23.59-.09 1.46-.07 1.83.3 1.25 1.27 1.27 2.89.97 4.5zm12.97 6.04c-1.35-.35-2.44-.57-3.46-.95-.33-.12-.67-.64-.72-1.01-.25-1.87.86-3.9 2.1-3.99 1.24-.09 2.31 1.55 2.32 3.63 0 .67-.13 1.34-.24 2.32zm11.45 1.19c-.77.03-1.99.25-1.92-1.63.08-1.98 1.04-3.76 2.24-3.8 1.25-.04 2.26 1.61 2.26 3.71 0 1.68-.03 1.72-2.58 1.72zm15.6-2.12c-1.04.35-2.12.57-3.27.87-.65-1.94-.54-3.53.4-5 .78-1.22 2.14-1.3 2.8-.03.51.98.62 2.19.79 3.32.04.25-.4.74-.71.84zm12.57-8.09c-.83 1.13-1.73 2.2-2.82 3.55-.65-2.11-.46-3.72.71-5 .37-.4 1.45-.48 2.05-.26.93.35.47 1.16.06 1.71zm-.69-9.6c-2.48 3.19-5.91 5.04-9.62 6.27-12.01 3.98-24.05 4.04-35.93-.43-2.76-1.04-5.39-2.81-7.64-4.75-3.6-3.12-3.46-7.21-.05-10.57 3.49-3.43 7.86-5.29 12.52-6.29 4.45-.95 9-1.41 13.5-2.09.02.14.05.28.07.42 6.92.03 13.67.95 20.03 3.87 2.73 1.25 5.26 2.81 7.12 5.24 2.11 2.75 2.13 5.59 0 8.34z" id="path1" style="fill:#000;fill-opacity:1;stroke:none"/>
    <path class="cls-1" d="M26.49 24.48c-.52-.9-1.07-1.58-1.31-2.35-.46-1.49-.97-3.03-1.02-4.56-.03-.86.82-1.75 1.27-2.63.86.45 1.98.7 2.52 1.4.74.96 1.2 2.22 1.49 3.42.27 1.11.15 2.31.2 3.47.12.08.24.16.35.24.63-.81 1.39-1.55 1.86-2.44 2.14-4.05.95-9.23-2.88-12.49-2.21-1.88-4.53-3.62-6.75-5.38-1.02 2.79-2.19 5.63-3.11 8.55-1.13 3.61-.28 6.94 2.05 9.86 1.29 1.62 2.98 2.64 5.33 2.91z" id="path2" style="stroke:none;stroke-opacity:1;fill:#000;fill-opacity:1"/>
    <path class="cls-1" d="M43.43 21.53c-.26-1-.56-1.95-.74-2.92-.39-2.2-.18-4.29 1.72-5.78.34-.26 1.22-.26 1.56 0 2.05 1.53 2.35 3.66 1.76 6-.23.9-.52 1.79-.78 2.68.13.1.26.2.38.3.88-.7 1.93-1.27 2.63-2.13 2.53-3.14 3.03-6.79 1.26-10.31-1.66-3.31-3.95-6.29-5.92-9.35-1.69 2.32-3.31 4.54-4.93 6.77-1.91 2.64-2.54 5.57-1.99 8.77.5 2.95 2.61 5.49 5.04 5.99z" id="path3" style="stroke:none;stroke-opacity:1;fill:#000;fill-opacity:1"/>
    <path class="cls-1" d="M60.77 23.57c0-1.07-.11-1.83.02-2.53.26-1.4.39-2.93 1.09-4.09.55-.92 1.87-1.39 2.84-2.06.52.82 1.17 1.59 1.52 2.48.23.58.21 1.4 0 2-.6 1.7-1.35 3.34-2.04 4.99 5.7-.37 8.52-7.95 7.15-12.08-1.02-3.07-2.1-6.11-3.15-9.17-1.73 1.38-3.42 2.83-5.21 4.14-3.7 2.7-5.69 6.21-5.37 10.86.15 2.21 1.19 3.93 3.15 5.48z" id="path4" style="stroke:none;stroke-opacity:1;fill:#000;fill-opacity:1"/>
    <path class="cls-1" d="M12.76 31.71c.08-.01.13-.14.24-.27-1.09-.84-2.2-1.64-3.24-2.51-1.24-1.03-1.94-2.35-1.98-4.01-.03-1.09.32-1.54 1.48-1.42 1.95.2 3.21 1.31 4.16 2.87.65 1.08 1.18 2.23 1.85 3.51.21-.49.38-.8.48-1.13 1.42-4.89-1.69-10.67-6.8-12.31-2.91-.93-5.93-1.5-8.93-2.24.23 2.94.33 5.85.71 8.73.69 5.23 6.79 9.61 12.05 8.78z" id="path5" style="stroke:none;stroke-opacity:1;fill:#000;fill-opacity:1"/>
    <path class="cls-1" d="M82.13 16.21c-3.81 1.14-6.42 3.68-7.47 7.58-.53 1.96-.6 3.97.48 6.05.78-1.47 1.37-2.72 2.09-3.89.87-1.44 2.21-2.22 3.88-2.48 1.06-.17 1.43.23 1.48 1.26.08 1.62-.54 2.92-1.7 3.95-1.1.98-2.3 1.84-3.46 2.76.04.15.08.29.11.44 1.07-.12 2.18-.1 3.22-.37 4.64-1.18 8.23-3.58 8.93-8.73.37-2.75.35-5.56.51-8.41-2.73.61-5.46 1.06-8.08 1.85z" id="path6" style="stroke:none;stroke-opacity:1;fill:#000;fill-opacity:1"/>
</svg>
