<?xml version="1.0" encoding="UTF-8" standalone="no"?>
<svg
   width="1000"
   height="1000"
   viewBox="0 0 24 24"
   fill="none"
   stroke="currentColor"
   stroke-width="2"
   stroke-linecap="round"
   stroke-linejoin="round"
   class="icon icon-tabler icons-tabler-outline icon-tabler-battery-eco"
   version="1.1"
   id="svg4"
   sodipodi:docname="swb_alim_eco.svg"
   inkscape:version="1.4 (86a8ad7, 2024-10-11)"
   xmlns:inkscape="http://www.inkscape.org/namespaces/inkscape"
   xmlns:sodipodi="http://sodipodi.sourceforge.net/DTD/sodipodi-0.dtd"
   xmlns="http://www.w3.org/2000/svg"
   xmlns:svg="http://www.w3.org/2000/svg">
  <defs
     id="defs4" />
  <sodipodi:namedview
     id="namedview4"
     pagecolor="#ffffff"
     bordercolor="#000000"
     borderopacity="0.25"
     inkscape:showpageshadow="2"
     inkscape:pageopacity="0.0"
     inkscape:pagecheckerboard="0"
     inkscape:deskcolor="#d1d1d1"
     inkscape:zoom="0.26269531"
     inkscape:cx="-1006.8699"
     inkscape:cy="-504.38662"
     inkscape:window-width="1920"
     inkscape:window-height="1009"
     inkscape:window-x="1912"
     inkscape:window-y="-8"
     inkscape:window-maximized="1"
     inkscape:current-layer="svg4" />
  <path
     stroke="none"
     d="M 0,0 H 24 V 24 H 0 Z"
     fill="none"
     id="path1" />
  <path
     d="M 4,9 A 2,2 0 0 1 6,7 h 11 a 2,2 0 0 1 2,2 v 0.5 a 0.5,0.5 0 0 0 0.5,0.5 0.5,0.5 0 0 1 0.5,0.5 v 3 A 0.5,0.5 0 0 1 19.5,14 0.5,0.5 0 0 0 19,14.5 V 15 a 2,2 0 0 1 -2,2 h -5.5"
     id="path2"
     style="fill:none;fill-opacity:1;stroke:#000000;stroke-opacity:1" />
  <path
     d="M 3,16.143 C 3,13.303 5.09,11 7.667,11 H 10 v 0.857 C 10,14.697 7.91,17 5.333,17 H 3 Z"
     id="path3"
     style="stroke:#000000;stroke-opacity:1;fill:none" />
  <path
     d="M 3,20 V 17"
     id="path4" />
</svg>
