<?xml version="1.0"?>
<svg width="24" height="24" xmlns="http://www.w3.org/2000/svg" xmlns:svg="http://www.w3.org/2000/svg" class="icon icon-tabler icons-tabler-outline icon-tabler-wash-machine" stroke-linejoin="round" stroke-width="2">
 <g class="layer">
  <title>Layer 1</title>
  <path d="m0,0l24,0l0,24l-24,0l0,-24z" fill="#000000" fill-opacity="0" id="svg_1" stroke="#000000" stroke-opacity="0"/>
  <path d="m4.18,3m0,2a2.27,2 0 0 1 2.27,-2l11.35,0a2.27,2 0 0 1 2.27,2l0,14a2.27,2 0 0 1 -2.27,2l-11.35,0a2.27,2 0 0 1 -2.27,-2l0,-14z" fill="#000000" fill-opacity="0" id="svg_2" stroke="#000000"/>
  <path d="m8,6l0.01,0" fill="#000000" fill-opacity="0" id="svg_4" stroke="#000000" transform="matrix(1 0 0 1 0 0)"/>
  <path d="m11,6l0.01,0" fill="#000000" fill-opacity="0" id="svg_5" stroke="#000000" transform="matrix(1 0 0 1 0 0)"/>
  <line fill="none" fill-opacity="0" id="svg_13" stroke="#000000" transform="matrix(1 0 0 1 0 0)" x1="9.28" x2="15.14" y1="4.57" y2="4.57"/>
  <line fill="none" fill-opacity="0" id="svg_18" stroke="#000000" x1="4.12" x2="19.79" y1="14.45" y2="14.45"/>
  <line fill="none" fill-opacity="0" id="svg_19" stroke="#000000" transform="matrix(1 0 0 1 0 0)" x1="6.28" x2="8.73" y1="17.33" y2="17.33"/>
  <line fill="none" fill-opacity="0" id="svg_20" stroke="#000000" x1="15.45" x2="17.9" y1="17.38" y2="17.38"/>
  <line fill="none" fill-opacity="0" id="svg_21" stroke="#000000" x1="9.92" x2="14.36" y1="17.3" y2="17.3"/>
  <line fill="none" fill-opacity="0" id="svg_22" stroke="#000000" x1="9.92" x2="14.36" y1="17.35" y2="17.35"/>
  <line fill="none" fill-opacity="0" id="svg_23" stroke="#000000" x1="9.92" x2="14.36" y1="17.39" y2="17.39"/>
  <line fill="none" fill-opacity="0" id="svg_24" stroke="#000000" x1="9.92" x2="14.36" y1="17.44" y2="17.44"/>
  <line fill="none" fill-opacity="0" id="svg_25" stroke="#000000" x1="9.92" x2="14.36" y1="17.48" y2="17.48"/>
  <line fill="none" fill-opacity="0" id="svg_26" stroke="#000000" x1="9.92" x2="14.36" y1="17.53" y2="17.53"/>
  <line fill="none" fill-opacity="0" id="svg_27" stroke="#000000" x1="9.92" x2="14.36" y1="17.57" y2="17.57"/>
  <line fill="none" fill-opacity="0" id="svg_28" stroke="#000000" x1="9.92" x2="14.36" y1="17.62" y2="17.62"/>
  <line fill="none" fill-opacity="0" id="svg_29" stroke="#000000" x1="9.92" x2="14.36" y1="17.66" y2="17.66"/>
  <line fill="none" fill-opacity="0" id="svg_30" stroke="#000000" x1="9.92" x2="14.36" y1="17.71" y2="17.71"/>
  <line fill="none" fill-opacity="0" id="svg_31" stroke="#000000" x1="9.92" x2="14.36" y1="17.75" y2="17.75"/>
  <line fill="none" fill-opacity="0" id="svg_32" stroke="#000000" x1="9.92" x2="14.36" y1="17.8" y2="17.8"/>
  <line fill="none" fill-opacity="0" id="svg_33" stroke="#000000" x1="9.92" x2="14.36" y1="17.84" y2="17.84"/>
  <line fill="none" fill-opacity="0" id="svg_34" stroke="#000000" x1="9.92" x2="14.36" y1="17.89" y2="17.89"/>
  <line fill="none" fill-opacity="0" id="svg_35" stroke="#000000" x1="9.92" x2="14.36" y1="17.93" y2="17.93"/>
  <line fill="none" fill-opacity="0" id="svg_36" stroke="#000000" x1="9.92" x2="14.36" y1="17.98" y2="17.98"/>
  <line fill="none" fill-opacity="0" id="svg_37" stroke="#000000" x1="9.92" x2="14.36" y1="18.03" y2="18.03"/>
  <line fill="none" fill-opacity="0" id="svg_38" stroke="#000000" x1="9.92" x2="14.36" y1="18.07" y2="18.07"/>
  <line fill="none" fill-opacity="0" id="svg_39" stroke="#000000" x1="9.92" x2="14.36" y1="18.12" y2="18.12"/>
  <line fill="none" fill-opacity="0" id="svg_40" stroke="#000000" x1="9.92" x2="14.36" y1="18.16" y2="18.16"/>
  <line fill="none" fill-opacity="0" id="svg_41" stroke="#000000" x1="9.92" x2="14.36" y1="18.21" y2="18.21"/>
  <line fill="none" fill-opacity="0" id="svg_42" stroke="#000000" x1="9.92" x2="14.36" y1="18.25" y2="18.25"/>
  <line fill="none" fill-opacity="0" id="svg_43" stroke="#000000" x1="9.92" x2="14.36" y1="18.3" y2="18.3"/>
  <line fill="none" fill-opacity="0" id="svg_44" stroke="#000000" x1="9.92" x2="14.36" y1="18.25" y2="18.25"/>
  <line fill="none" fill-opacity="0" id="svg_45" stroke="#000000" x1="9.92" x2="14.36" y1="18.21" y2="18.21"/>
  <line fill="none" fill-opacity="0" id="svg_46" stroke="#000000" x1="9.92" x2="14.36" y1="18.16" y2="18.16"/>
  <line fill="none" fill-opacity="0" id="svg_47" stroke="#000000" x1="9.92" x2="14.36" y1="18.12" y2="18.12"/>
  <line fill="none" fill-opacity="0" id="svg_48" stroke="#000000" x1="9.92" x2="14.36" y1="18.07" y2="18.07"/>
  <line fill="none" fill-opacity="0" id="svg_49" stroke="#000000" x1="9.92" x2="14.36" y1="18.03" y2="18.03"/>
  <line fill="none" fill-opacity="0" id="svg_50" stroke="#000000" x1="9.92" x2="14.36" y1="17.98" y2="17.98"/>
  <line fill="none" fill-opacity="0" id="svg_51" stroke="#000000" x1="9.92" x2="14.36" y1="17.93" y2="17.93"/>
  <line fill="none" fill-opacity="0" id="svg_52" stroke="#000000" x1="9.92" x2="14.36" y1="17.89" y2="17.89"/>
  <line fill="none" fill-opacity="0" id="svg_53" stroke="#000000" x1="9.92" x2="14.36" y1="17.84" y2="17.84"/>
  <line fill="none" fill-opacity="0" id="svg_54" stroke="#000000" transform="matrix(1 0 0 1 0 0)" x1="9.92" x2="14.36" y1="17.8" y2="17.8"/>
  <path d="m12.17,9.37c0.54,-0.79 0,-1.88 -0.27,-2.14c0,0.81 -0.47,1.27 -0.8,1.61c-0.33,0.34 -0.54,0.87 -0.54,1.34a1.61,1.61 0 1 0 3.21,0c0,-0.41 -0.28,-1.06 -0.54,-1.34c-0.48,0.8 -0.75,0.8 -1.07,0.54z" fill="#000000" fill-opacity="0" id="svg_55" stroke="#000000" stroke-width="0.8"/>
 </g>
</svg>