<?xml version="1.0" encoding="UTF-8" standalone="no"?>
<svg
   width="1000"
   height="1000"
   viewBox="0 0 24 24"
   fill="currentColor"
   class="icon icon-tabler icons-tabler-filled icon-tabler-droplet-half-2"
   version="1.1"
   id="svg2"
   sodipodi:docname="swb_eau.svg"
   inkscape:version="1.4.3 (0d15f75042, 2025-12-25)"
   xmlns:inkscape="http://www.inkscape.org/namespaces/inkscape"
   xmlns:sodipodi="http://sodipodi.sourceforge.net/DTD/sodipodi-0.dtd"
   xmlns="http://www.w3.org/2000/svg"
   xmlns:svg="http://www.w3.org/2000/svg">
  <defs
     id="defs2" />
  <sodipodi:namedview
     id="namedview2"
     pagecolor="#ffffff"
     bordercolor="#000000"
     borderopacity="0.25"
     inkscape:showpageshadow="2"
     inkscape:pageopacity="0.0"
     inkscape:pagecheckerboard="0"
     inkscape:deskcolor="#d1d1d1"
     inkscape:zoom="0.799"
     inkscape:cx="499.37422"
     inkscape:cy="500"
     inkscape:window-width="1920"
     inkscape:window-height="1008"
     inkscape:window-x="0"
     inkscape:window-y="0"
     inkscape:window-maximized="1"
     inkscape:current-layer="svg2" />
  <path
     d="m13.905 2.923.098.135 4.92 7.306a7.566 7.566 0 0 1 1.043 3.167l.024.326c.007.047.01.094.01.143l-.002.06c.056 2.3-.944 4.582-2.87 6.14-2.969 2.402-7.286 2.402-10.255 0-1.904-1.54-2.904-3.787-2.865-6.071a1.052 1.052 0 0 1 .013-.333 7.66 7.66 0 0 1 .913-3.176l.172-.302 4.893-7.26c.185-.275.426-.509.709-.686 1.055-.66 2.446-.413 3.197.55zm-2.06 1.107-.077.038-.041.03-.037.036-.033.042-4.863 7.214A5.607 5.607 0 0 0 6.143 13h11.723a5.444 5.444 0 0 0-.49-1.313l-.141-.251-4.891-7.261a.428.428 0 0 0-.5-.145z"
     id="path2"
     style="fill:#000000;fill-opacity:1;stroke:none;stroke-opacity:1;stroke-width:0;stroke-dasharray:none" />
</svg>
