<svg xmlns="http://www.w3.org/2000/svg" id="Calque_2" data-name="Calque 2"
    viewBox="0 0 106.34 106.34">
    <defs>
        <style>
            .cls-1 {

            }
        </style>
    </defs>
    <g id="Calque_1-2" data-name="Calque 1">
        <g>
            <path class="cls-1"
                d="m43.78,38.81c.93,2.29,1.84,4.58,2.76,6.88.05.13.12.26.18.4,3.23-2.61,6.75-3.08,10.58-1.51,3.71-14.86,7.42-29.7,11.13-44.55-.02,0-.04-.02-.06-.03-.07.09-.14.17-.2.26-8.11,12.62-16.22,25.24-24.34,37.85-.16.24-.16.43-.06.69Z" />
            <path class="cls-1"
                d="m106.03,68.2c-12.6-8.1-25.19-16.19-37.78-24.29-.25-.16-.46-.17-.73-.06-2.12.86-4.25,1.71-6.38,2.56-.28.11-.56.23-.87.36,2.68,3.23,3.21,6.76,1.65,10.63,14.82,3.7,29.61,7.4,44.4,11.09,0-.02.02-.04.03-.07-.1-.08-.21-.16-.31-.23Z" />
            <path class="cls-1"
                d="m38.73,62.57c2.25-.91,4.5-1.81,6.75-2.71.13-.05.26-.11.4-.18-2.6-3.29-3.05-6.81-1.41-10.66-14.84-3.71-29.66-7.41-44.47-11.12.09.17.21.25.33.33,4.18,2.69,8.36,5.38,12.55,8.06,8.4,5.4,16.8,10.8,25.2,16.21.22.14.4.16.65.06Z" />
            <path class="cls-1"
                d="m62.51,67.59c-.91-2.25-1.81-4.5-2.71-6.75-.05-.12-.11-.23-.17-.36-3.26,2.66-6.81,3.17-10.69,1.54-3.69,14.78-7.38,29.54-11.07,44.3.03,0,.06.02.09.03.07-.09.14-.19.2-.28,8.1-12.59,16.19-25.19,24.29-37.78.16-.24.16-.43.06-.69Z" />
            <path class="cls-1"
                d="m46.37,53.29c-.01,3.73,3.02,6.78,6.76,6.8,3.71.02,6.77-3.01,6.78-6.72.01-3.78-2.98-6.82-6.71-6.83-3.79-.01-6.82,2.99-6.84,6.76Z" />
            <path class="cls-1"
                d="m12.27,30.35c.28.13.57.2.86.2.75,0,1.46-.42,1.8-1.14,3.44-7.18,9.8-12.57,17.44-14.78,4.78-1.39,9.84-1.48,14.63-.27,1.07.27,2.16-.38,2.43-1.45s-.38-2.16-1.45-2.43c-5.48-1.38-11.27-1.28-16.73.31-8.73,2.54-15.99,8.69-19.93,16.9-.48,1-.06,2.19.94,2.67Z" />
            <path class="cls-1"
                d="m47.22,22.76c.32-1.06-.28-2.17-1.34-2.49-3.26-.98-6.62-1.19-10.01-.61-7.31,1.24-13.46,6.04-16.46,12.84-.45,1.01.01,2.19,1.02,2.64.26.12.54.17.81.17.77,0,1.5-.45,1.83-1.19,2.45-5.56,7.48-9.49,13.47-10.5,2.77-.47,5.52-.3,8.18.5,1.06.32,2.17-.28,2.49-1.34Z" />
            <path class="cls-1"
                d="m96.46,77.64c-1.04-.37-2.19.17-2.56,1.21-2.69,7.49-8.47,13.5-15.84,16.48-4.61,1.87-9.64,2.48-14.53,1.76-1.08-.17-2.11.6-2.27,1.69-.16,1.09.6,2.11,1.69,2.27,1.52.22,3.05.33,4.59.33,4.1,0,8.19-.79,12.02-2.35,8.42-3.41,15.02-10.28,18.1-18.84.37-1.04-.17-2.18-1.21-2.56Z" />
            <path class="cls-1"
                d="m64.05,91.09c1.38.26,2.76.4,4.14.4,1.97,0,3.94-.27,5.88-.81,7.15-1.98,12.78-7.38,15.06-14.45.34-1.05-.24-2.18-1.29-2.52-1.05-.34-2.18.24-2.52,1.29-1.87,5.78-6.48,10.2-12.33,11.82-2.71.75-5.46.86-8.19.34-1.09-.21-2.13.5-2.34,1.59-.21,1.08.5,2.13,1.59,2.34Z" />
        </g>
    </g>
</svg>