<?xml version="1.0" encoding="UTF-8" standalone="no"?>
<svg
   id="Calque_2"
   data-name="Calque 2"
   viewBox="0 0 64 64.000003"
   version="1.1"
   sodipodi:docname="swb_eclext.svg"
   width="64"
   height="64"
   inkscape:version="1.4 (86a8ad7, 2024-10-11)"
   xmlns:inkscape="http://www.inkscape.org/namespaces/inkscape"
   xmlns:sodipodi="http://sodipodi.sourceforge.net/DTD/sodipodi-0.dtd"
   xmlns="http://www.w3.org/2000/svg"
   xmlns:svg="http://www.w3.org/2000/svg">
  <sodipodi:namedview
     id="namedview57180"
     pagecolor="#ffffff"
     bordercolor="#000000"
     borderopacity="0.25"
     inkscape:showpageshadow="2"
     inkscape:pageopacity="0.0"
     inkscape:pagecheckerboard="0"
     inkscape:deskcolor="#d1d1d1"
     showgrid="false"
     showguides="false"
     inkscape:zoom="3.3920688"
     inkscape:cx="-7.0753281"
     inkscape:cy="33.165601"
     inkscape:window-width="1920"
     inkscape:window-height="1017"
     inkscape:window-x="-8"
     inkscape:window-y="-8"
     inkscape:window-maximized="1"
     inkscape:current-layer="Calque_2" />
  <defs
     id="defs57160">
    <style
       id="style57158">
            .cls-1 {

            }
        </style>
  </defs>
  <g
     id="g1"
     transform="matrix(2.7056526,0,0,2.7056526,-0.36884281,-0.2109203)">
    <path
       id="path57299"
       style="color:#000000;fill:#000000;stroke-linecap:square;-inkscape-stroke:none"
       d="M 9.0898438,0.49804688 C 7.5409472,0.47945916 5.9731142,1.0319017 4.7929688,2.1835938 3.6128234,3.3352857 2.8613281,5.0769793 2.8613281,7.2480469 V 22.3125 v 1 h 2 v -1 -15.0644531 c 0,-1.7247902 0.5523045,-2.8756971 1.328125,-3.6328125 C 6.9652737,2.8581188 8.005395,2.4853375 9.0644531,2.4980469 10.767696,2.518487 12.462574,3.4394297 13.0625,5.5195312 10.764399,5.9351876 8.7066694,7.6302868 7.7070312,10.255859 a 1.0001,1.0001 0 0 0 0.9335938,1.355469 h 11.423828 a 1.0001,1.0001 0 0 0 0.894531,-1.449219 C 19.573558,7.4059307 17.372019,5.8265301 15.099609,5.4882812 14.375111,2.3362442 11.729627,0.52972589 9.0898438,0.49804688 Z M 14.033203,7.421875 c 1.43037,-0.046857 2.948796,0.619661 4.189453,2.1894531 H 10.546875 C 11.49675,8.3297834 12.685219,7.4660332 14.033203,7.421875 Z" />
    <path
       id="path59877"
       style="fill:#000000;fill-opacity:1;stroke:none;stroke-width:3.96912;stroke-linecap:round;stroke-linejoin:round;stroke-dasharray:none"
       d="M 11.636719,12.484375 A 2.7424681,2.7424681 0 0 0 14.3125,14.65625 2.7424681,2.7424681 0 0 0 16.988281,12.484375 Z" />
  </g>
</svg>
