<svg xmlns="http://www.w3.org/2000/svg" id="Calque_2" data-name="Calque 2"
    viewBox="0 0 127.46 95.46">
    <defs>
        <style>
            .cls-1 {

            }
        </style>
    </defs>
    <g id="Calque_1-2" data-name="Calque 1">
        <g>
            <path class="cls-1"
                d="m110.82,50.14c-12.71-10.45-25.41-20.92-38.1-31.39-.3-.25-.62-.48-.99-.77-2.85,2.35-5.67,4.67-8.49,6.99-10.15,8.37-20.3,16.75-30.47,25.1-.63.52-.85,1.04-.85,1.84.02,10.4.02,20.81.02,31.21,0,3.38.8,4.54,3.91,5.66h11.54v4.51H9.13c.03-6.14,0-12.27,0-18.41,0-.19.02-.37.04-.6h.69c.62,0,1.14-.24,1.57-.67,1.16-1.16,2.31-2.31,3.47-3.46.73-.73,1.08-1.6,1.08-2.63v-4.26c0-1.66-.61-2.4-2.3-2.69v-5.64h-2.29v5.66h-6.83v-5.65h-2.31v5.65c-1.5.17-2.23.98-2.24,2.44,0,1.49.02,2.98,0,4.47-.02,1.06.37,1.93,1.11,2.66.81.8,1.6,1.61,2.41,2.41.91.91,1.7,2.04,3.31,1.65v.75c0,5.78-.01,11.57,0,17.35,0,1.03-.02,2.07-.02,3.11h42.72v-6.66h13.29c.02-1.59.05-3.19.05-4.78,0-6.77,0-13.55,0-20.32v-1.38h17.73v1.28c0,7.93,0,15.87,0,23.8,0,.47.04.94.05,1.41h26.99c3.11-1.13,3.91-2.29,3.91-5.66,0-10.4,0-20.81.01-31.21,0-.73-.15-1.27-.76-1.77Z" />
            <path class="cls-1"
                d="m125.92,42.63c-4.49-3.78-9.01-7.52-13.54-11.25-.58-.48-.83-.97-.82-1.74.03-8.77.02-17.54.02-26.31,0-2.41-.68-3.08-3.13-3.08-3.88,0-7.76,0-11.63,0-2.21,0-2.92.72-2.92,2.93,0,3.81,0,7.61,0,11.42v1.25c-.4-.28-.66-.43-.9-.63-4.81-4.02-9.65-8.01-14.42-12.08-1.83-1.56-3.73-2.85-6.17-3.15h-1.31c-2.72.27-4.68,1.9-6.67,3.56-15.66,13.08-31.35,26.13-47.01,39.2-.54.45-.92,1.08-1.38,1.63v1.31c1.44,1.75,2.88,3.51,4.34,5.26,1.33,1.59,2.49,1.68,4.09.35,15.35-12.79,30.69-25.59,46.04-38.39.39-.32.78-.64,1.24-1.02.35.28.69.54,1.01.82,15.37,12.82,30.75,25.64,46.12,38.45,1.82,1.52,2.89,1.44,4.39-.38,1.4-1.69,2.8-3.39,4.2-5.09v-1.31c-.51-.59-.95-1.27-1.55-1.77Z" />
        </g>
    </g>
</svg>