<?xml version="1.0" encoding="UTF-8" standalone="no"?>
<svg
   width="64"
   height="64"
   viewBox="0 0 64 64"
   fill="none"
   stroke="currentColor"
   stroke-width="2"
   stroke-linecap="round"
   stroke-linejoin="round"
   class="icon icon-tabler icons-tabler-outline icon-tabler-pool"
   version="1.1"
   id="svg10388"
   sodipodi:docname="swb_pool.svg"
   inkscape:version="1.4 (86a8ad7, 2024-10-11)"
   xmlns:inkscape="http://www.inkscape.org/namespaces/inkscape"
   xmlns:sodipodi="http://sodipodi.sourceforge.net/DTD/sodipodi-0.dtd"
   xmlns="http://www.w3.org/2000/svg"
   xmlns:svg="http://www.w3.org/2000/svg">
  <defs
     id="defs10392" />
  <sodipodi:namedview
     id="namedview10390"
     pagecolor="#ffffff"
     bordercolor="#000000"
     borderopacity="0.25"
     inkscape:showpageshadow="2"
     inkscape:pageopacity="0.0"
     inkscape:pagecheckerboard="0"
     inkscape:deskcolor="#d1d1d1"
     showgrid="false"
     inkscape:zoom="3.1782977"
     inkscape:cx="-14.473156"
     inkscape:cy="63.084084"
     inkscape:window-width="1920"
     inkscape:window-height="1017"
     inkscape:window-x="-8"
     inkscape:window-y="-8"
     inkscape:window-maximized="1"
     inkscape:current-layer="svg10388" />
  <g
     id="g1"
     transform="translate(0.0882097,0.43084497)">
    <path
       id="path10382"
       style="color:#000000;fill:#000000;stroke:none;stroke-width:5.43701;-inkscape-stroke:none"
       d="m 25.981377,4.4846698 c -1.991385,-0.041406 -4.036523,0.6132155 -5.61754,2.0654284 -1.581017,1.4522127 -2.564529,3.7076468 -2.564529,6.2546898 v 22.480779 c 1.903783,1.286832 3.670119,1.831806 5.383918,1.831806 0.01753,0 0.03554,-0.0052 0.05309,-0.0054 l 7.86e-4,-9.337413 h 0.520339 16.311044 0.812366 l -7.86e-4,9.300246 c 0.255947,0.02447 0.511101,0.04249 0.76458,0.04249 1.466338,0 3.011693,-0.411903 4.672434,-1.343323 V 12.804788 c 0,-1.262131 0.365672,-1.835653 0.812366,-2.245954 0.446695,-0.410301 1.103005,-0.652083 1.821188,-0.63715 1.43637,0.029865 2.779774,0.611347 2.803461,3.137964 0.01468,1.501421 1.243635,2.706694 2.745056,2.691959 1.50142,-0.01459 2.706692,-1.243636 2.691958,-2.745054 -0.04776,-5.0946268 -4.140895,-8.4390704 -8.123663,-8.5218832 -1.991383,-0.041406 -4.036527,0.6132155 -5.61754,2.0654284 -1.581021,1.4522127 -2.56984,3.7076468 -2.56984,6.2546898 l 7.86e-4,9.532849 H 40.06849 23.757447 23.237108 l -7.86e-4,-9.532849 c -1.04e-4,-1.262131 0.360363,-1.835653 0.807057,-2.245954 0.446692,-0.410301 1.108313,-0.652083 1.826497,-0.63715 1.436362,0.029866 2.779772,0.611347 2.803461,3.137964 0.01468,1.499328 1.240392,2.703744 2.739744,2.691959 1.501421,-0.0146 2.706695,-1.243635 2.691961,-2.745054 -0.04776,-5.0946268 -4.140893,-8.4390704 -8.123665,-8.5218832 z"
       sodipodi:nodetypes="ssscsccccccscssscccsssccccssscccs" />
    <path
       style="color:#000000;fill:#000000;stroke:none;stroke-width:5.43701;stroke-linejoin:round;-inkscape-stroke:none"
       d="m 12.27203,38.089027 c -2.9704524,2.556555 -5.5386481,3.509405 -7.948447,3.387516 a 2.7185071,2.7185071 0 0 0 -2.8512467,2.575149 2.7185071,2.7185071 0 0 0 2.5751484,2.851247 c 3.4446883,0.174229 6.7845653,-1.278846 9.9607793,-3.552113 2.888575,2.137415 5.953238,3.56804 9.174962,3.56804 3.230971,0 6.336089,-1.424367 9.307702,-3.557422 2.883812,2.129581 5.938307,3.557422 9.153722,3.557422 3.223886,0 6.325904,-1.417204 9.291773,-3.541491 2.706024,2.003085 5.562713,3.395094 8.580288,3.530873 a 2.7185071,2.7185071 0 0 0 2.835319,-2.596387 2.7185071,2.7185071 0 0 0 -2.591077,-2.835318 c -2.162181,-0.0973 -4.437158,-1.076336 -6.971487,-3.350348 a 2.718779,2.718779 0 0 0 -3.589277,-0.03716 c -2.808941,2.417546 -5.274214,3.392824 -7.555539,3.392824 -2.281325,0 -4.650947,-0.959037 -7.321916,-3.355657 a 2.718779,2.718779 0 0 0 -3.583971,-0.03716 c -2.808938,2.417547 -5.274212,3.392825 -7.555537,3.392825 -2.281325,0 -4.650947,-0.959038 -7.321917,-3.355657 A 2.718779,2.718779 0 0 0 12.27203,38.08905 Z"
       id="path10874-6" />
    <path
       style="color:#000000;fill:#000000;stroke:none;stroke-width:5.43701;stroke-linejoin:round;-inkscape-stroke:none"
       d="m 12.27203,49.825646 c -2.9704524,2.556555 -5.5386481,3.509405 -7.948447,3.387516 a 2.7185071,2.7185071 0 0 0 -2.8512467,2.575149 2.7185071,2.7185071 0 0 0 2.5751484,2.851247 c 3.4446883,0.174229 6.7845653,-1.278846 9.9607793,-3.552113 2.888575,2.137415 5.953238,3.56804 9.174962,3.56804 3.230972,0 6.336089,-1.424367 9.307702,-3.557422 2.883812,2.129581 5.938307,3.557422 9.153722,3.557422 3.223886,0 6.325904,-1.417204 9.291773,-3.541491 2.706024,2.003085 5.562713,3.395094 8.580288,3.530873 A 2.7185071,2.7185071 0 0 0 62.35203,56.04848 2.7185071,2.7185071 0 0 0 59.760953,53.213162 c -2.162181,-0.0973 -4.437158,-1.076336 -6.971487,-3.350348 a 2.718779,2.718779 0 0 0 -3.589277,-0.03716 c -2.808941,2.417546 -5.274214,3.392824 -7.555539,3.392824 -2.281325,0 -4.650947,-0.959037 -7.321916,-3.355657 a 2.718779,2.718779 0 0 0 -3.583971,-0.03716 c -2.808938,2.417547 -5.274212,3.392825 -7.555537,3.392825 -2.281325,0 -4.650947,-0.959038 -7.321917,-3.355657 a 2.718779,2.718779 0 0 0 -3.589279,-0.03716 z"
       id="path10874-6-3" />
  </g>
</svg>
