<svg width="1000" height="1000" class="icon icon-tabler icons-tabler-outline icon-tabler-car" stroke-linejoin="round" stroke-width="2" viewBox="0 0 24 24" xmlns="http://www.w3.org/2000/svg">
    <path d="m6.53 3.69 6.35 6.35-1.59 1.59a4.5 4.5 0 1 1-6.36-6.36l1.59-1.59ZM2.04 14.52l2.71-2.71" stroke="#000" style="fill:none;stroke:#000;stroke-opacity:1"/>
    <path d="M10.56 2.14 7.85 4.85" stroke="#000" style="stroke:#000;stroke-opacity:1;fill:none"/>
    <path d="m14.43 6.01-2.71 2.71" stroke="#000" style="fill:none"/>
    <path d="M12.39 20.874h-1.152v-3.453l1.152-2.878h5.18l2.303 2.878h.575a1.151 1.151 0 0 1 1.151 1.151v2.302h-1.15m-2.303 0h-3.454m-3.454-3.453h8.635m-3.454 0v-2.878" style="fill:none;stroke:#000;stroke-width:1.1512;stroke-opacity:1;fill-opacity:1"/>
    <path d="M12.39 20.874a1.151 1.151 0 1 0 2.302 0 1.151 1.151 0 0 0-2.302 0" style="fill:none;stroke:#000;stroke-width:1.151208;stroke-opacity:1;fill-opacity:1;stroke-dasharray:none"/>
    <path d="M18.146 20.874a1.151 1.151 0 1 0 2.302 0 1.151 1.151 0 0 0-2.302 0" style="fill:none;stroke:#000;stroke-width:1.1512;stroke-opacity:1;fill-opacity:1"/>
</svg>
