<svg xmlns="http://www.w3.org/2000/svg" id="Calque_2" data-name="Calque 2" viewBox="0 0 63.81 85.37">
    <defs>
        <style>
            .cls-1 {

            }
        </style>
    </defs>
    <g id="Calque_1-2" data-name="Calque 1">
        <g>
            <path class="cls-1"
                d="m63.61,39.63c-.17-1.38-1.37-2.19-2.77-2.49-.43-.09-.88-.08-1.38-.12-.03-.42-.06-.78-.08-1.14-.17-3.04-2.95-5.17-5.93-4.52-2.51.55-3.91,2.43-3.91,5.37-.01,14.4,0,28.8,0,43.2,0,.53.04,1.07.15,1.59.42,2.09,2.33,3.7,4.45,3.79,3.15.13,5.25-1.97,5.26-5.31,0-10.16,0-20.32,0-30.48,0-.48,0-.97,0-1.52,2.01.03,3.77-.56,4.15-2.51.37-1.89.29-3.93.06-5.85Z" />
            <path class="cls-1"
                d="m42.39,31.22c-2.4-.21-4.64,1.56-5.12,4.07-.09.48-.12.98-.12,1.47,0,14.36,0,28.73-.01,43.09,0,1.99.62,3.66,2.35,4.73,1.59.98,3.27,1.06,4.93.17,1.75-.94,2.6-2.46,2.6-4.44,0-7.33,0-14.65,0-21.98,0-7.41.02-14.82-.01-22.23-.01-2.64-1.98-4.66-4.62-4.89Z" />
            <path class="cls-1"
                d="m9.51,34.44c-.77-2.2-3.06-3.52-5.27-3.16C1.72,31.7.02,33.6.02,36.14c-.02,7.37,0,14.74,0,22.1,0,7.24-.03,14.49.02,21.73,0,.95.19,1.99.61,2.83.99,1.99,3.33,2.94,5.45,2.41,2.35-.59,3.77-2.54,3.78-5.27,0-14.45,0-28.89-.01-43.34,0-.73-.1-1.49-.34-2.18Z" />
            <path class="cls-1"
                d="m21.85,34.33c-.84-2.2-3.07-3.42-5.34-3.02-2.43.43-4.11,2.34-4.11,4.82-.02,7.41,0,14.82,0,22.22,0,7.24,0,14.49,0,21.73,0,3.12,2.04,5.24,4.99,5.23,2.8,0,4.88-2.21,4.89-5.25,0-14.49,0-28.97-.02-43.46,0-.76-.13-1.57-.4-2.28Z" />
            <path class="cls-1"
                d="m34.65,36.5c0-3.06-2.14-5.3-5-5.28-2.78.03-4.88,2.26-4.88,5.27-.01,14.57-.03,29.14.02,43.71,0,.97.34,2.05.83,2.9,1.11,1.9,3.38,2.65,5.48,2.02,2.2-.65,3.54-2.48,3.55-4.92.01-7.33,0-14.65,0-21.98,0-7.24,0-14.49,0-21.73Z" />
            <path class="cls-1"
                d="m27.96,17.86c-.05-2.01-.77-3.76-1.98-5.34-.62-.82-1.25-1.63-1.83-2.48-1.05-1.53-1.01-3.1.06-4.59.57-.8,1.28-1.49,1.94-2.22.69-.77.72-1.58.05-2.32-.69-.76-1.55-.92-2.43-.3-4.26,2.97-5.07,8.23-1.91,12.3.7.91,1.43,1.82,1.96,2.83,1.21,2.3.41,4.96-1.81,6.32-.31.19-.67.32-.98.52-.85.56-1.13,1.77-.61,2.62.57.93,1.36.87,2.25.48,3.14-1.38,5.32-4.59,5.29-7.83Z" />
            <path class="cls-1"
                d="m14.18,23.31c2.98-3.31,2.84-7.28-.24-11.31-3.04-3.98-2.99-4.97.43-8.63.84-.9.9-1.71.18-2.5-.71-.79-1.83-.89-2.61-.06-.98,1.04-1.95,2.14-2.67,3.36-1.63,2.8-1.44,5.57.54,8.18.6.79,1.29,1.51,1.78,2.36.54.94.91,1.98,1.13,2.48.02,2.21-.59,3.55-1.89,4.53-.39.29-.84.51-1.26.76-.97.58-1.34,1.7-.83,2.64.56,1.02,1.45,1.07,2.31.52,1.1-.7,2.27-1.39,3.13-2.34Z" />
            <path class="cls-1"
                d="m37.96,13.03c-.71-1.05-1.51-2.05-2.23-3.1-.99-1.46-.91-2.97.06-4.38.58-.84,1.41-1.51,1.96-2.36.31-.48.55-1.28.35-1.74-.25-.57-.97-.94-1.54-1.44-.62.37-1.11.54-1.42.88-.76.8-1.53,1.62-2.14,2.54-2.19,3.26-2.04,6.2.35,9.31.68.88,1.38,1.75,1.95,2.69.94,1.56,1.06,3.25.07,4.79-.55.85-1.44,1.55-2.3,2.12-1.08.71-1.57,1.71-1.08,2.78.44.96,1.25,1.09,2.63.42,4.89-2.39,6.39-7.97,3.32-12.49Z" />
            <path class="cls-1"
                d="m48.81,11.93c-3.02-3.85-2.91-4.95.45-8.53.88-.94.92-1.78.13-2.59-.74-.76-1.83-.82-2.61.06-1,1.13-2.01,2.3-2.74,3.61-1.4,2.5-1.27,5.05.39,7.43.63.91,1.36,1.75,2,2.65,2.17,3.05,1.46,5.99-1.78,7.86-.59.34-.96,1.07-1.2,1.34.04,1.81,1.04,2.51,2.26,2,1.91-.8,3.47-2.06,4.45-3.91,1.93-3.62,1.08-6.84-1.35-9.93Z" />
        </g>
    </g>
</svg>