<?xml version="1.0" encoding="utf-8"?>
<!-- Svg Vector Icons : http://www.onlinewebfonts.com/icon -->
<!DOCTYPE svg PUBLIC "-//W3C//DTD SVG 1.1//EN" "http://www.w3.org/Graphics/SVG/1.1/DTD/svg11.dtd">
<svg version="1.1" xmlns="http://www.w3.org/2000/svg" xmlns:xlink="http://www.w3.org/1999/xlink" x="0px" y="0px" viewBox="0 0 256 256" enable-background="new 0 0 256 256" xml:space="preserve">
<metadata> Svg Vector Icons : http://www.onlinewebfonts.com/icon </metadata>
<g><g><path fill="#000000" d="M205,85.4c-4.1-9.2-6.3-19.2-9.2-33.4c-9.6,10.6-14.4,28.6-16.3,46.1c-1.7,3.2-3.8,5.8-6.3,7.8c-17.1-16.9-26.9-22.5-28-73.9c2.4-18.4,3.9-16.9,6.6-22.1C110.3,19.6,83,47.1,80.1,89.5c-1.9,28.4,10.9,52.3,29.8,72c0.9,0.5,1.7,0.9,2.6,1.4c-1.3,0.5-2.7,0.9-4.2,1.3C83.7,169.9,53,153.4,47.9,82c-11.3,8.1-21.2,48.1-21.2,67.4c0,53.3,45.4,96.6,101.3,96.6c56,0,101.3-43.3,101.3-96.6C229.3,124.8,220.5,102.4,205,85.4z"/></g></g>
</svg>