<svg xmlns="http://www.w3.org/2000/svg" id="Calque_2" data-name="Calque 2" viewBox="0 0 82.38 60.53">
    <defs>
        <style>
            .cls-1 {

            }
        </style>
    </defs>
    <g id="Calque_1-2" data-name="Calque 1">
        <path class="cls-1"
            d="m7.7,21.51c-.71-.19-1.38-.36-2.04-.55-1.27-.36-2.56-.68-3.81-1.11-1.19-.41-2.01-1.72-1.83-2.77.25-1.44,1.34-2.42,2.76-2.44,1.37-.02,2.75.02,4.12,0,1.28-.02,2.38.37,3.25,1.32.24.27.47.55.75.89.15-.22.23-.31.28-.42,1.55-3.17,3.07-6.35,4.67-9.5.51-1.02,1.23-1.93,1.83-2.9.84-1.36,2.08-2.13,3.6-2.53,2.24-.59,4.51-.87,6.82-1.07C34.32-.08,40.53-.05,46.75.08c3.25.06,6.5.28,9.74.58,1.84.17,3.7.47,5.45,1.15,1,.39,1.82.99,2.45,1.87,2.53,3.51,4.34,7.41,6.12,11.33.24.54.49,1.07.74,1.6.02.04.06.08.1.12.45-.41.88-.82,1.34-1.21.69-.58,1.49-.87,2.39-.87,1.46,0,2.91,0,4.37-.01,1.55-.01,2.67,1.03,2.92,2.63.11.68-.58,2.01-1.28,2.29-1.09.43-2.22.76-3.34,1.1-1.01.31-2.03.57-3.13.87.24.29.45.55.67.81.95,1.09,1.89,2.17,2.85,3.25,1.84,2.07,2.75,4.45,2.74,7.25-.04,8-.02,16.01-.02,24.01,0,.46.01.92.02,1.37.03,1.22-.72,2.1-1.93,2.25-.36.04-.72.07-1.08.07-2.54,0-5.07,0-7.61,0-.34,0-.69-.03-1.03-.08-1.13-.16-1.85-.94-1.87-2.1-.03-1.41-.04-2.82-.01-4.22,0-.46-.14-.53-.56-.52-1.64.03-3.27,0-4.91,0-15.27,0-30.54,0-45.82,0-.33,0-.65,0-1.04,0-.01.18-.03.33-.03.49-.02,1.47-.01,2.95-.07,4.42-.04,1.01-.78,1.77-1.79,1.91-.42.06-.85.08-1.27.09-2.49,0-4.98,0-7.46,0-.36,0-.72-.03-1.08-.08-1.13-.15-1.88-.93-1.89-2.08-.03-3.11-.02-6.22-.02-9.33,0-5.33.03-10.67,0-16-.02-2.89.9-5.38,2.82-7.52,1.11-1.24,2.2-2.51,3.3-3.76.04-.05.06-.11.14-.25Zm60.91-1.57c-.04-.17-.04-.22-.06-.26-1.53-3.07-3.04-6.15-4.62-9.19-.83-1.59-1.79-3.11-2.71-4.65-.12-.21-.35-.41-.57-.49-.51-.2-1.05-.38-1.59-.48-3.97-.77-8-.89-12.02-.97-6.49-.12-12.99-.17-19.47.4-1.7.15-3.39.49-5.08.77-.83.14-1.4.64-1.81,1.37-.39.7-.84,1.37-1.2,2.08-1.89,3.69-3.76,7.4-5.63,11.1-.04.08-.05.17-.1.34,18.31-1.99,36.55-1.99,54.86,0Zm.48,17.91c1.24.1,2.46-.12,3.62-.69,2.04-.98,3.13-2.74,3.01-4.9-.11-1.99-1.52-3.88-3.5-4.48-2.54-.77-4.76-.09-6.57,1.8-1.33,1.38-1.82,3.09-1.72,5,.04.81.29,1.47.9,1.99.36.3.75.58,1.17.8.96.5,2,.55,3.1.48Zm-55.69,0c1.12.07,2.27-.03,3.31-.66.79-.48,1.51-1.07,1.63-2.03.1-.76.13-1.56-.02-2.3-.67-3.56-3.74-5.77-7.31-5.31-2.2.28-3.96,2.04-4.35,4.22-.38,2.12.62,4.07,2.61,5.2,1.27.72,2.63.96,4.12.88Zm27.79,2.14h0c-1.93.01-3.86.01-5.79.01-.93,0-1.87-.02-2.8,0-.63.02-.87.3-.87.93,0,1.05,0,2.09,0,3.14,0,.78.19.98.97,1.03.13,0,.26.01.39.01,5.45,0,10.9,0,16.35,0,.23,0,.49.01.67-.09.2-.11.44-.35.45-.54.05-1.16.07-2.32.04-3.48-.02-.8-.28-1.01-1.06-1.01-2.78,0-5.56,0-8.35,0Z" />
    </g>
</svg>