<svg xmlns="http://www.w3.org/2000/svg" id="Calque_2" data-name="Calque 2" viewBox="0 0 34.86 65.06">
    <defs>
        <style>
            .cls-1 {

            }
        </style>
    </defs>
    <g id="Calque_1-2" data-name="Calque 1">
        <path class="cls-1"
            d="m34.86,18.22l-.03,9.29c0,2.25-.78,4.14-2.37,5.73-2.54,2.5-5.05,5.02-7.59,7.52-.94.93-2.08,1.48-3.43,1.45h-1.48c-.05.5-.09.91-.09,1.3-.06,11.71-.05,9.84-.11,21.55l-4.99-.02c0-11.62.05-9.71.09-21.34v-1.64c-3.51.86-5.22-1.63-7.2-3.62-1.76-1.75-3.48-3.5-5.24-5.27C.8,31.59-.05,29.71,0,27.37c.05-3.25.02-6.5.05-9.75.01-3.18,1.61-4.97,4.88-5.31l.04-12.32,5.06.02-.04,12.3,14.89.05.04-12.34,4.99.02-.04,12.3c3.66.64,5.01,2.26,4.97,5.88Z" />
    </g>
</svg>