<svg xmlns="http://www.w3.org/2000/svg" id="Calque_2" data-name="Calque 2" viewBox="0 0 82.96 94.41">
    <defs>
        <style>
            .cls-1 {

            }
        </style>
    </defs>
    <g id="Calque_1-2" data-name="Calque 1">
        <g>
            <path class="cls-1"
                d="m38.52,54.27c-.66-.42-.82-.86-.81-1.57.02-7.1.01-14.2.01-21.3h-.01c0-7.02.03-14.04-.01-21.06-.03-4.41-2.46-8.14-6.47-9.54-1.68-.59-3.56-.64-5.37-.77-6.77-.46-11.5,4.65-11.42,11.28.18,13.43.03,26.86.09,40.3,0,1.55-.43,2.41-1.76,3.27-9.19,5.93-12.44,17.29-7.79,26.78,4.9,9.98,16.87,15.12,28.01,11.71,8.98-2.75,14.88-8.72,16.09-18.22,1.16-9.13-2.91-16.02-10.57-20.87Zm-.12,29.66c-6.68,6.17-17.26,6.27-24.2.38-8.87-7.52-6.8-21.02,4.07-25.89,1.69-.76,2.04-1.6,2.03-3.28-.06-14.52-.02-29.05-.05-43.57,0-2.21.67-4.05,2.67-5.09,2.14-1.11,4.41-1.11,6.53.09,1.77,1,2.5,2.67,2.5,4.7-.01,7.51,0,15.01,0,22.52s.02,14.85-.02,22.27c0,1.06.24,1.59,1.31,2.03,4.71,1.92,8.14,5.22,9.62,10.15,1.84,6.11.17,11.42-4.46,15.7Z" />
            <path class="cls-1"
                d="m2.11,23.76c1.22.04,2.43,0,3.65,0,1.22,0,2.44.03,3.65,0,1.35-.04,2.13-.84,2.13-2.14,0-1.3-.75-2.14-2.1-2.16-2.43-.05-4.87-.04-7.3,0-1.35.02-2.12.84-2.13,2.14,0,1.29.76,2.12,2.1,2.16Z" />
            <path class="cls-1"
                d="m42.85,23.76c1.18.03,2.35,0,3.53,0,1.14,0,2.27,0,3.41,0,.08,0,.16,0,.24,0,1.37-.07,2.15-.82,2.17-2.1.02-1.35-.77-2.19-2.18-2.21-2.39-.03-4.79-.03-7.18,0-1.41.02-2.2.87-2.17,2.22.03,1.29.8,2.05,2.18,2.08Z" />
            <path class="cls-1"
                d="m2,32.47c2.5.05,5.01.05,7.52,0,1.32-.03,2.05-.91,2.02-2.22-.03-1.29-.8-2.04-2.17-2.07-1.17-.03-2.34,0-3.52,0-1.17,0-2.34,0-3.52,0-.08,0-.16,0-.24,0C.75,28.25,0,29.03,0,30.34c0,1.22.75,2.11,2,2.13Z" />
            <path class="cls-1"
                d="m50.05,28.18c-1.21-.03-2.42,0-3.64,0-1.17,0-2.34-.02-3.52,0-1.45.03-2.22.78-2.22,2.13,0,1.35.76,2.15,2.21,2.17,2.38.03,4.77.03,7.15,0,1.4-.02,2.2-.88,2.17-2.21-.03-1.29-.8-2.06-2.16-2.09Z" />
            <path class="cls-1"
                d="m2.18,15.03c2.39.03,4.79.03,7.18,0,1.39-.02,2.16-.78,2.18-2.07.02-1.35-.75-2.17-2.18-2.22-1.18-.04-2.35,0-3.53,0h0c-1.22,0-2.44-.03-3.65.01C.75,10.79-.02,11.6,0,12.95c.03,1.3.79,2.07,2.18,2.08Z" />
            <path class="cls-1"
                d="m50.13,10.75c-2.47-.05-4.95-.05-7.42,0-1.33.03-2.06.9-2.04,2.22.03,1.25.77,2.02,2.07,2.06,1.22.03,2.43,0,3.65,0,1.22,0,2.44.02,3.65,0,1.38-.03,2.15-.8,2.17-2.09.02-1.29-.74-2.17-2.08-2.19Z" />
            <path class="cls-1"
                d="m50.08,36.9c-1.22-.03-2.43,0-3.65,0h0c-1.22,0-2.43-.02-3.65.01-1.33.04-2.06.77-2.1,2.02-.05,1.33.66,2.21,2,2.25,2.51.06,5.03.06,7.54,0,1.33-.03,2.04-.93,1.98-2.26-.05-1.25-.79-1.97-2.12-2.01Z" />
            <path class="cls-1"
                d="m9.43,41.18c1.37-.02,2.12-.85,2.11-2.15,0-1.31-.76-2.09-2.13-2.12-1.22-.03-2.43,0-3.65,0-1.14,0-2.27,0-3.41,0-.04,0-.08,0-.12,0-1.47.05-2.23.78-2.23,2.15,0,1.31.74,2.11,2.12,2.13,2.43.05,4.87.05,7.3,0Z" />
            <path class="cls-1"
                d="m30.94,60.33q-1.94-.64-1.94-2.71v-8.15c0-3.04-.01-6.08,0-9.12,0-.96-.27-1.76-1.14-2.26-2.28-1.3-4.64.06-4.64,2.66,0,5.92-.02,11.84.02,17.76,0,.94-.29,1.35-1.18,1.6-1.08.31-2.16.72-3.17,1.23-8.21,4.18-9.77,14.29-3.16,20.4,6.03,5.58,16.09,5.17,21.63-.89,4.12-4.5,4.33-11.05.52-15.81-1.83-2.29-4.18-3.79-6.95-4.7Z" />
            <path class="cls-1"
                d="m82.12,56.59c-.71-2.11-1.77-4.04-3.1-5.82-.26-.35-.54-.68-.82-1.02.03,2.61-1,4.6-3.3,5.94.09-.83.2-1.59.25-2.37.14-1.94.15-3.88-.1-5.82-.29-2.28-.93-4.44-2.06-6.45-1.49-2.63-3.67-4.53-6.32-5.94-.04-.02-.09-.02-.17-.03.33.71.49,1.43.56,2.17.13,1.46-.19,2.84-.78,4.17-.79,1.78-1.95,3.31-3.18,4.79-1.1,1.34-2.27,2.63-3.39,3.96-1.37,1.62-2.54,3.36-3.34,5.34-1.13,2.83-1.32,5.7-.38,8.62.84,2.62,2.37,4.83,4.2,6.85,1.28,1.41,2.7,2.69,4.19,3.88.49.39.99.77,1.49,1.16-.04-.1-.11-.18-.18-.25-1.04-1.02-1.97-2.13-2.69-3.41-1.18-2.09-1.6-4.29-1.05-6.65.35-1.51,1.08-2.84,1.93-4.12.03-.04.08-.07.17-.15-.06,1.54.61,2.61,1.91,3.4-.3-2.18-.58-4.31.04-6.49.31.47.4,1.01.96,1.32-.64-3.36.73-5.72,3.53-7.47-.05.16-.07.26-.1.35-.5,1.51-.45,3,.24,4.45.25.53.51,1.05.77,1.56.7,1.39,1.09,2.84.98,4.41,0,.1,0,.21,0,.31.39-1.02.83-2.01.84-3.16.07.05.11.07.13.1,1.03,1.25,1.94,2.58,2.56,4.1.92,2.26.97,4.53,0,6.79-.71,1.64-1.76,3.05-3.03,4.3-.14.14-.28.28-.42.42,3.73-2.57,6.69-5.85,9.02-9.72.04.03.09.05.13.08-.36.87-.72,1.74-1.05,2.54-.02.03,0,0,.03-.04,1.39-1.84,2.17-3.92,2.33-6.22.14-2.02-.16-4-.81-5.92Z" />
        </g>
    </g>
</svg>