<?xml version="1.0" encoding="UTF-8" standalone="no"?>
<svg
   id="Calque_2"
   data-name="Calque 2"
   viewBox="-9 -35 165 165"
   version="1.1"
   sodipodi:docname="swb_portail.svg"
   width="1000"
   height="1000"
   inkscape:version="1.4 (86a8ad7, 2024-10-11)"
   xmlns:inkscape="http://www.inkscape.org/namespaces/inkscape"
   xmlns:sodipodi="http://sodipodi.sourceforge.net/DTD/sodipodi-0.dtd"
   xmlns="http://www.w3.org/2000/svg"
   xmlns:svg="http://www.w3.org/2000/svg">
  <sodipodi:namedview
     id="namedview13"
     pagecolor="#ffffff"
     bordercolor="#000000"
     borderopacity="0.25"
     inkscape:showpageshadow="2"
     inkscape:pageopacity="0.0"
     inkscape:pagecheckerboard="0"
     inkscape:deskcolor="#d1d1d1"
     inkscape:zoom="0.81010104"
     inkscape:cx="485.74188"
     inkscape:cy="570.91644"
     inkscape:window-width="1920"
     inkscape:window-height="1009"
     inkscape:window-x="1912"
     inkscape:window-y="-8"
     inkscape:window-maximized="1"
     inkscape:current-layer="Calque_2" />
  <defs
     id="defs1">
    <style
       id="style1">
            .cls-1 {

            }
        </style>
  </defs>
  <path
     class="cls-1"
     d="m 33.02,32.75 c 0,0.44 0,0.87 0,1.44 0.52,-0.19 0.94,-0.31 1.34,-0.49 3.51,-1.54 7,-3.09 10.51,-4.62 9.88,-4.29 19.76,-8.57 29.63,-12.88 0.29,-0.13 0.61,-0.59 0.61,-0.9 0.02,-4.52 -0.01,-9.03 -0.03,-13.55 0,-0.52 0,-1.04 0,-1.71 C 74.62,0.23 74.27,0.35 73.94,0.52 70,2.59 66.06,4.66 62.12,6.73 52.71,11.66 43.3,16.59 33.87,21.5 c -0.65,0.34 -0.87,0.72 -0.86,1.44 0.04,3.27 0.02,6.54 0.02,9.81 z"
     id="path1"
     style="stroke:none;fill:#000000;fill-opacity:1" />
  <path
     class="cls-1"
     d="m 135.15,38.89 c 0.01,-0.84 -0.29,-1.18 -1.01,-1.49 -11.92,-5.18 -23.83,-10.38 -35.75,-15.57 -1.73,-0.76 -3.47,-1.5 -5.32,-2.29 0,6.74 0,13.28 -0.01,19.81 0,0.65 0.27,0.88 0.84,1.02 4.75,1.17 9.5,2.36 14.25,3.53 7.46,1.84 14.93,3.66 22.39,5.49 1.51,0.37 3.01,0.74 4.53,1.12 0.05,-0.21 0.08,-0.29 0.08,-0.38 0,-3.75 -0.05,-7.49 0,-11.24 z"
     id="path2"
     style="stroke:none;fill:#000000;fill-opacity:1" />
  <path
     class="cls-1"
     d="m 134.34,69.76 c -1.83,-0.16 -3.67,-0.35 -5.5,-0.56 -5.99,-0.69 -11.97,-1.39 -17.96,-2.09 -5.64,-0.65 -11.27,-1.29 -16.91,-1.93 -0.26,-0.03 -0.52,0 -0.8,0 -0.06,0.17 -0.1,0.23 -0.1,0.28 0.01,5.83 0.05,11.65 0,17.48 0,0.9 0.21,1.1 1.07,1.1 13.17,-0.02 26.34,0 39.52,0 0.47,0 0.93,0 1.37,0 0.06,-0.2 0.1,-0.29 0.1,-0.37 0,-4.34 -0.02,-8.68 0,-13.02 0,-0.61 -0.2,-0.83 -0.8,-0.88 z"
     id="path3"
     style="stroke:none;fill:#000000;fill-opacity:1" />
  <path
     class="cls-1"
     d="m 134.43,53.72 c -1.9,-0.47 -3.79,-0.95 -5.69,-1.42 -11.51,-2.83 -23.03,-5.67 -34.55,-8.5 -0.33,-0.08 -0.67,-0.1 -1.05,-0.15 -0.03,0.22 -0.06,0.33 -0.06,0.44 0,5.14 0.03,10.28 0.02,15.42 0,2.21 -0.04,2.26 2.18,2.52 5.48,0.65 10.97,1.26 16.46,1.88 4.98,0.57 9.97,1.14 14.95,1.71 2.77,0.32 5.54,0.62 8.37,0.94 0.02,-0.3 0.05,-0.56 0.05,-0.82 0,-3.74 0,-7.49 0.03,-11.23 0,-0.6 -0.31,-0.69 -0.72,-0.79 z"
     id="path4"
     style="stroke:none;fill:#000000;fill-opacity:1" />
  <path
     class="cls-1"
     d="m 133.09,20.86 c -0.25,-0.07 -0.47,-0.25 -0.71,-0.37 C 119.6,13.8 106.82,7.12 94.04,0.43 93.79,0.3 93.52,0.19 93.11,0 c 0,1.09 0,1.98 0,2.86 0,3.98 0.05,7.97 -0.05,11.95 -0.02,0.99 0.3,1.37 1.13,1.66 0.84,0.29 1.64,0.7 2.45,1.05 12.1,5.27 24.21,10.54 36.31,15.81 0.69,0.3 1.38,0.57 2.17,0.9 0,-3.41 -0.11,-6.65 0.04,-9.88 0.08,-1.76 -0.27,-2.98 -2.08,-3.49 z"
     id="path5"
     style="stroke:none;fill:#000000;fill-opacity:1" />
  <path
     class="cls-1"
     d="m 75.11,19.6 c -0.63,0.23 -1.13,0.4 -1.61,0.61 -6.45,2.81 -12.89,5.63 -19.34,8.44 -6.83,2.98 -13.66,5.95 -20.5,8.89 -0.57,0.24 -0.65,0.55 -0.64,1.07 0.02,3.63 0,7.26 0,10.88 0,0.26 0.03,0.52 0.05,0.93 0.4,-0.06 0.69,-0.09 0.97,-0.15 6.77,-1.67 13.54,-3.34 20.3,-5.01 6.28,-1.55 12.56,-3.09 18.85,-4.64 q 1.92,-0.47 1.92,-2.49 c 0,-5.71 0,-11.42 0,-17.13 0,-0.43 0,-0.86 0,-1.41 z"
     id="path7"
     style="stroke:none;fill:#000000;fill-opacity:1" />
  <path
     class="cls-1"
     d="m 74.38,65.19 c -6.84,0.79 -13.69,1.56 -20.54,2.34 -4.21,0.48 -8.42,0.94 -12.63,1.41 2.41,4.49 3.78,9.63 3.79,15.08 3.04,0 6.08,0 9.12,0 v 0 c 6.72,0 13.44,0 20.16,0.02 0.59,0 0.83,-0.1 0.83,-0.77 -0.03,-5.8 -0.02,-11.6 0,-17.39 0,-0.55 -0.16,-0.74 -0.72,-0.68 z"
     id="path8"
     style="stroke:none;fill:#000000;fill-opacity:1" />
  <path
     class="cls-1"
     d="m 74.41,43.71 c -3.66,0.89 -7.32,1.79 -10.98,2.69 -9.88,2.44 -19.75,4.88 -29.63,7.3 -0.6,0.15 -0.81,0.36 -0.8,1 0.03,1.46 0.03,2.92 0.02,4.39 2.41,1.94 4.54,4.22 6.31,6.77 0.47,-0.06 0.95,-0.12 1.42,-0.17 5.49,-0.62 10.98,-1.21 16.47,-1.83 5.69,-0.64 11.39,-1.29 17.08,-1.92 0.54,-0.06 0.78,-0.23 0.78,-0.82 0,-5.05 0.01,-10.11 0.02,-15.16 0,-0.76 0,-1.52 0,-2.33 -0.36,0.04 -0.53,0.04 -0.7,0.08 z"
     id="path9"
     style="stroke:none;fill:#000000;fill-opacity:1" />
  <path
     class="cls-1"
     d="m 29.72,14.92 c 0,-0.51 0.06,-1.02 -0.03,-1.51 -0.04,-0.22 -0.37,-0.55 -0.57,-0.56 -2.34,-0.04 -4.69,-0.03 -7.18,-0.03 0,0.42 0,0.71 0,1 0,12.28 0,24.55 -0.01,36.83 0,0.89 0,1.77 0,2.66 2.77,0.8 5.38,1.96 7.79,3.44 0,-13.94 0,-27.89 0.01,-41.83 z"
     id="path10"
     style="display:inline;fill:#000000;fill-opacity:1;stroke:none;stroke-opacity:1" />
  <path
     class="cls-1"
     d="m 29.9,73.02 c -0.12,-0.15 -0.31,-0.38 -0.56,-0.58 -3.96,-3.13 -8.95,-4.87 -14.07,-4.9 h -0.12 c -5.07,0 -10.03,1.68 -13.98,4.75 -0.55,0.42 -1.11,0.96 -1.16,1.73 -0.03,0.47 0.16,0.94 0.52,1.31 0.49,0.49 0.99,0.59 1.32,0.59 0.69,0 1.18,-0.4 1.44,-0.62 L 3.4,75.21 c 6.92,-5.33 16.58,-5.33 23.5,0 l 0.1,0.08 c 0.17,0.14 0.38,0.31 0.67,0.44 0.57,0.26 1.23,0.22 1.75,-0.11 0.55,-0.36 0.87,-0.99 0.87,-1.69 L 30.22,73.39 29.9,73.03 Z"
     id="path11"
     style="fill:#000000;fill-opacity:1;stroke:none" />
  <path
     class="cls-1"
     d="M 25.83,76.61 25.75,76.55 C 22.47,74.1 18.95,73.01 14.32,73 c -1.24,0 -3.19,0.36 -4.94,0.97 -1.86,0.64 -3.6,1.6 -5.16,2.85 -0.86,0.69 -1.02,1.76 -0.38,2.6 0.4,0.52 0.87,0.68 1.21,0.73 h 0.22 c 0.42,0.01 0.82,-0.13 1.21,-0.43 l 0.27,-0.21 c 2.45,-1.86 5.35,-2.84 8.41,-2.84 3.04,0 5.93,0.98 8.38,2.82 l 0.6,-0.8 -0.52,0.86 c 0.2,0.17 0.54,0.44 1.02,0.52 0.6,0.1 1.43,-0.08 1.84,-0.7 0.4,-0.6 0.34,-1.36 0.16,-1.82 -0.19,-0.51 -0.58,-0.78 -0.81,-0.94 z"
     id="path12"
     style="fill:#000000;fill-opacity:1;stroke:none" />
  <path
     class="cls-1"
     d="m 22.66,81.06 v 0 c -0.09,-0.08 -0.18,-0.15 -0.28,-0.22 -2.09,-1.53 -4.49,-2.36 -6.96,-2.39 -1.92,0 -3.39,0.27 -4.74,0.88 -0.85,0.38 -1.63,0.87 -2.41,1.35 L 7.75,81 c -0.48,0.29 -0.79,0.74 -0.88,1.25 -0.09,0.51 0.06,1.03 0.42,1.47 0.36,0.44 0.85,0.68 1.39,0.68 0.39,0 0.79,-0.13 1.14,-0.38 0.06,-0.05 0.13,-0.09 0.18,-0.14 l 0.1,-0.08 c 2.59,-1.81 5.33,-2.16 8.16,-1.06 0.55,0.21 1.11,0.57 1.66,0.92 0.2,0.12 0.39,0.25 0.59,0.37 1.17,0.71 2.1,0.26 2.59,-0.4 0.51,-0.7 0.58,-1.76 -0.43,-2.58 z"
     id="path13"
     style="fill:#000000;fill-opacity:1;stroke:none" />
  <circle
     class="cls-1"
     cx="15"
     cy="86.050003"
     r="2"
     id="circle13"
     style="fill:#000000;fill-opacity:1;stroke:none" />
  <rect
     style="display:inline;fill:none;fill-opacity:0;stroke:#000000;stroke-width:7.50799"
     id="rect1"
     width="0.1926939"
     height="64.147682"
     x="142.33846"
     y="16.332424" />
</svg>
