<svg xmlns="http://www.w3.org/2000/svg" id="Calque_2" data-name="Calque 2" viewBox="0 0 39.27 89.95">
    <defs>
        <style>
            .cls-1 {

            }
        </style>
    </defs>
    <g id="Calque_1-2" data-name="Calque 1">
        <g>
            <path class="cls-1"
                d="m22.49,80.41c.2,0,.4-.02.67-.03v-31.79c-1.1.08-2.1.22-3.11.22-1.02,0-2.03-.14-3.07-.22v31.82c1.88,0,3.69,0,5.5,0Z" />
            <path class="cls-1"
                d="m39.16,16.34c-3.11-2.99-6.35-5.82-10.36-7.59-1.21-.54-2.44-.81-3.79-.79-3.49.06-6.97.07-10.46,0-1.51-.03-2.88.33-4.22.95-3.42,1.58-6.28,3.94-9.01,6.48-.39.36-.78.72-1.32,1.22h39.27c-.05-.13-.06-.22-.1-.26Z" />
            <path class="cls-1"
                d="m18.98,44.56c.17.78.58,1.51.89,2.26.12,0,.25.02.37.03.3-.72.66-1.41.88-2.15,1.2-4.12,1.84-8.34,2.16-12.61.31-4.09.54-8.18.79-12.27.02-.3,0-.6,0-.94h-8.03c0,.37-.01.67,0,.98.24,5.65.49,11.3,1.37,16.89.42,2.62.99,5.22,1.56,7.82Z" />
            <path class="cls-1"
                d="m30.38,34.87c1.15-3.54,1.84-7.23,2.63-10.88.36-1.66.47-3.38.69-5.12h-7.4c-.45,9.13-.83,18.2-3.29,27.25.61-.48,1.1-.81,1.52-1.21,2.96-2.76,4.64-6.33,5.85-10.05Z" />
            <path class="cls-1"
                d="m6.44,18.87c.18,1.47.33,2.87.54,4.25.8,5.46,2.03,10.81,4.46,15.81,1.11,2.27,2.4,4.42,4.31,6.12.39.34.83.63,1.37,1.03-2.46-9.02-2.81-18.1-3.3-27.21h-7.38Z" />
            <path class="cls-1"
                d="m31.81,87.09c-2.94-2.32-6.19-3.77-10.06-3.52-1.33.09-2.67,0-4,0-.72,0-1.45-.03-2.15.08-4.25.72-7.44,3.23-10.48,6.29h29.7c-.95-1.06-1.94-2.02-3.02-2.86Z" />
            <path class="cls-1"
                d="m19.92,0c-3.24-.12-6.2,2.64-6.12,5.78h11.84C25.93,2.95,23.09.12,19.92,0Z" />
        </g>
    </g>
</svg>