<svg xmlns="http://www.w3.org/2000/svg" id="Calque_2" data-name="Calque 2" viewBox="0 0 84 84">
    <defs>
        <style>
            .cls-1 {

            }
        </style>
    </defs>
    <g id="Calque_1-2" data-name="Calque 1">
        <g>
            <path class="cls-1"
                d="m36.29,14.15v23.86c3.33.16,6,1.44,7.88,4.13.39.56.78.72,1.43.72,5.74-.03,11.49-.02,17.23-.01,2.39,0,4.27,1.49,4.77,3.73.08.35.1.72.16,1.09h2.11c.33-18.94-16.21-34.12-33.59-33.51Z" />
            <path class="cls-1"
                d="m63.4,45.18c-.36-.07-.74-.07-1.1-.07-6.08,0-12.16-.01-18.24.01-.78,0-1.22-.15-1.58-.96-1.5-3.3-5.37-4.7-8.67-3.26-3.27,1.43-4.84,5.16-3.59,8.5,1.27,3.37,4.99,5.15,8.39,3.98,2.16-.74,3.55-2.27,4.31-4.43h1.04c6.11,0,12.22,0,18.34,0,.31,0,.62.02.93-.02.97-.11,1.66-.82,1.72-1.76.06-1-.53-1.8-1.53-2Z" />
            <path class="cls-1"
                d="m42,0C18.8,0,0,18.8,0,42s18.8,42,42,42,42-18.8,42-42S65.2,0,42,0Zm23.92,65.92c-6.39,6.39-14.88,9.91-23.92,9.91s-17.53-3.52-23.92-9.91c-6.39-6.39-9.91-14.88-9.91-23.92s3.52-17.53,9.91-23.92c6.39-6.39,14.88-9.91,23.92-9.91s17.53,3.52,23.92,9.91c6.39,6.39,9.91,14.88,9.91,23.92s-3.52,17.53-9.91,23.92Z" />
        </g>
    </g>
</svg>