<?xml version="1.0" encoding="UTF-8" standalone="no"?>
<svg
   width="1000"
   height="1000"
   viewBox="-3 -2 68.965517 68.965517"
   fill="none"
   stroke="currentColor"
   stroke-width="2"
   stroke-linecap="round"
   stroke-linejoin="round"
   class="icon icon-tabler icons-tabler-outline icon-tabler-history"
   version="1.1"
   id="svg824"
   sodipodi:docname="swb_calendar-clock.svg"
   inkscape:version="1.4 (86a8ad7, 2024-10-11)"
   xmlns:inkscape="http://www.inkscape.org/namespaces/inkscape"
   xmlns:sodipodi="http://sodipodi.sourceforge.net/DTD/sodipodi-0.dtd"
   xmlns="http://www.w3.org/2000/svg"
   xmlns:svg="http://www.w3.org/2000/svg">
  <defs
     id="defs828" />
  <sodipodi:namedview
     id="namedview826"
     pagecolor="#ffffff"
     bordercolor="#000000"
     borderopacity="0.25"
     inkscape:showpageshadow="2"
     inkscape:pageopacity="0.0"
     inkscape:pagecheckerboard="0"
     inkscape:deskcolor="#d1d1d1"
     showgrid="false"
     inkscape:zoom="0.13623048"
     inkscape:cx="-1207.5124"
     inkscape:cy="11.010752"
     inkscape:window-width="1920"
     inkscape:window-height="1009"
     inkscape:window-x="1912"
     inkscape:window-y="-8"
     inkscape:window-maximized="1"
     inkscape:current-layer="svg824" />
  <g
     id="g1"
     transform="translate(0.0489454,0.04894485)">
    <path
       id="rect11981"
       style="fill:#000000;stroke:none;stroke-width:6.06873"
       d="m 18.669318,2.1113493 a 1.9969409,1.9969409 0 0 0 -1.996941,1.996941 V 8.6066077 H 5.7464055 C 4.3157866,8.6058217 3.1558366,9.7657717 3.1566226,11.196391 v 40.313245 c -7.873e-4,1.430616 1.1591632,2.590567 2.5897829,2.589782 H 25.320587 A 20.514377,20.514377 0 0 1 23.360049,48.919854 H 8.3361882 V 19.111349 H 49.949524 v 5.834812 a 20.514377,20.514377 0 0 1 5.179566,2.646986 V 11.196391 C 55.129876,9.7657709 53.969925,8.6058204 52.539308,8.6066077 H 41.613336 V 4.1082903 a 1.9969409,1.9969409 0 0 0 -1.996941,-1.996941 1.9969409,1.9969409 0 0 0 -1.996941,1.996941 V 8.6066077 H 20.666259 V 4.1082903 A 1.9969409,1.9969409 0 0 0 18.669318,2.1113493 Z M 12.766901,25.190578 v 6.261242 h 7.79015 v -6.261242 z m 12.486081,0 v 6.261242 h 2.152953 a 20.514377,20.514377 0 0 1 5.631996,-4.80514 V 25.190578 Z M 12.766901,36.147749 v 6.261244 h 7.79015 v -6.261244 z" />
    <path
       style="color:#000000;fill:#000000;fill-opacity:1;stroke:none;stroke-width:7.27901;stroke-opacity:1;-inkscape-stroke:none"
       d="m 43.309122,32.953821 a 1.7520577,1.7520577 0 0 0 -1.755779,1.748668 v 9.852265 a 1.7522329,1.7522329 0 0 0 0.504699,1.229753 l 4.712879,4.783965 a 1.7520577,1.7520577 0 0 0 2.480834,0.01411 1.7520577,1.7520577 0 0 0 0.01411,-2.473731 L 45.057764,43.836777 V 34.70246 a 1.7520577,1.7520577 0 0 0 -1.74867,-1.748668 z"
       id="path820" />
    <path
       style="color:#000000;fill:#000000;stroke:none;stroke-width:5.32518;-inkscape-stroke:none"
       d="m 43.308657,26.9171 c -9.609861,0 -17.43683,7.82697 -17.43683,17.436831 0,9.609857 7.826969,17.43683 17.43683,17.43683 9.609857,0 17.43683,-7.826973 17.43683,-17.43683 0,-9.609861 -7.826973,-17.436831 -17.43683,-17.436831 z m 0,3.437441 c 7.752079,0 13.999386,6.24731 13.999386,13.99939 0,7.752079 -6.247307,13.999386 -13.999386,13.999386 -7.75208,0 -13.99939,-6.247307 -13.99939,-13.999386 0,-7.75208 6.24731,-13.99939 13.99939,-13.99939 z"
       id="path999" />
  </g>
</svg>
