<svg xmlns="http://www.w3.org/2000/svg" id="Calque_2" data-name="Calque 2"
    viewBox="0 0 64.73 123.31">
    <defs>
        <style>
            .cls-1 {

            }
        </style>
    </defs>
    <g id="Calque_1-2" data-name="Calque 1">
        <g>
            <path class="cls-1"
                d="m64.71,43.73c0-.47-.04-.94-.07-1.42H0c0,3.64,0,7.12,0,10.6,0,18.37,0,36.74,0,55.11,0,2.13.38,4.27,2.09,5.63,1.69,1.34,1.95,2.86,1.79,4.69-.03.31,0,.63,0,.94.05,2.44,1.57,4.03,3.87,4.03,2.29,0,3.83-1.57,3.9-4.01.03-.88,0-1.75,0-2.66h41.47c0,1.18-.1,2.29.02,3.38.23,2.01,1.86,3.33,3.89,3.29,2.11-.04,3.67-1.47,3.78-3.55.07-1.2-.03-2.42.05-3.62.03-.43.23-1,.56-1.25,2.44-1.9,3.31-4.38,3.31-7.33-.03-21.28-.02-42.55-.02-63.83Zm-56.48,21.74c-.03.87-.57,1.45-1.5,1.43-.99-.03-1.47-.65-1.47-1.59,0-.85,0-1.69,0-2.54,0-.85,0-1.69,0-2.54.01-.9.56-1.58,1.42-1.43.59.1,1.46.83,1.51,1.34.18,1.76.09,3.55.04,5.33Z" />
            <path class="cls-1"
                d="m.09,37.28h64.56c.03-.52.07-.89.07-1.25,0-9.06.02-18.13,0-27.19C64.7,3.65,61.02.01,55.79,0c-15.62-.01-31.24-.01-46.85,0C3.45.01.01,3.5,0,9.03c0,8.92,0,17.85,0,26.77,0,.49.05.98.08,1.48Zm5.25-16.78c.15-.57.85-1.35,1.34-1.38.49-.03,1.43.73,1.47,1.21.18,1.92.14,3.88.07,5.81-.03.9-.71,1.57-1.57,1.33-.55-.15-1.16-.88-1.31-1.46-.22-.87-.06-1.84-.06-2.76,0-.93-.17-1.89.06-2.76Z" />
        </g>
    </g>
</svg>