<svg width="1000" height="1000" viewBox="-3 -2 68.966 68.966" fill="none" stroke="currentColor" stroke-width="2" stroke-linecap="round" stroke-linejoin="round" class="icon icon-tabler icons-tabler-outline icon-tabler-history" xmlns="http://www.w3.org/2000/svg">
    <g stroke="none">
        <path style="fill:#000;stroke:none;stroke-width:6.06873" d="M18.67 2.111a1.997 1.997 0 0 0-1.998 1.997v4.499H5.746c-1.43-.001-2.59 1.159-2.59 2.59V51.51c0 1.43 1.16 2.59 2.59 2.59h19.575a20.514 20.514 0 0 1-1.961-5.18H8.336V19.11H49.95v5.835a20.514 20.514 0 0 1 5.18 2.647V11.196c0-1.43-1.16-2.59-2.59-2.59H41.612V4.109a1.997 1.997 0 0 0-1.997-1.997 1.997 1.997 0 0 0-1.997 1.997v4.499H20.666V4.108a1.997 1.997 0 0 0-1.997-1.997Zm-5.903 23.08v6.26h7.79v-6.26zm12.486 0v6.26h2.153a20.514 20.514 0 0 1 5.632-4.804V25.19ZM12.767 36.148v6.261h7.79v-6.261z" transform="translate(.049 .049)"/>
        <path style="color:#000;fill:#000;fill-opacity:1;stroke:none;stroke-width:7.27901;stroke-opacity:1;-inkscape-stroke:none" d="M43.31 32.954a1.752 1.752 0 0 0-1.757 1.748v9.853a1.752 1.752 0 0 0 .505 1.23l4.713 4.783a1.752 1.752 0 0 0 2.48.015 1.752 1.752 0 0 0 .015-2.474l-4.208-4.272v-9.135a1.752 1.752 0 0 0-1.749-1.748z" transform="translate(.049 .049)"/>
        <path style="color:#000;fill:#000;stroke:none;stroke-width:5.32518;-inkscape-stroke:none" d="M43.309 26.917c-9.61 0-17.437 7.827-17.437 17.437 0 9.61 7.827 17.437 17.437 17.437 9.61 0 17.436-7.827 17.436-17.437 0-9.61-7.826-17.437-17.436-17.437zm0 3.438c7.752 0 13.999 6.247 13.999 13.999 0 7.752-6.247 14-14 14-7.751 0-13.999-6.248-13.999-14s6.248-14 14-14z" transform="translate(.049 .049)"/>
    </g>
</svg>
