<svg width="1000" height="1000" class="icon icon-tabler icons-tabler-outline icon-tabler-cooker" stroke-linejoin="round" stroke-width="2" viewBox="0 0 24 24" xmlns="http://www.w3.org/2000/svg">
    <path style="display:inline;fill:none;stroke:#000;stroke-width:2.20524;stroke-linecap:round;stroke-linejoin:round;stroke-dasharray:none;stroke-opacity:1;paint-order:markers stroke fill" d="M4.028 3.475h15.911v17.341H4.028z"/>
    <path style="display:inline;fill:#000;fill-opacity:1;stroke:#000;stroke-width:.879496;stroke-linecap:round;stroke-linejoin:round;stroke-dasharray:none;stroke-opacity:1;paint-order:normal" d="M6.564 16.873h1.42v1.539h-1.42zM15.952 16.872h1.42v1.539h-1.42z"/>
    <path style="display:inline;fill:#000;fill-opacity:1;stroke:#000;stroke-width:1.14126;stroke-linecap:round;stroke-linejoin:round;stroke-dasharray:none;stroke-opacity:1;paint-order:normal" d="M4.434 14.604h15.12v.243H4.434z"/>
    <path style="display:inline;fill:#000;fill-opacity:1;stroke:#000;stroke-width:1.3744;stroke-linecap:round;stroke-linejoin:round;stroke-dasharray:none;stroke-opacity:1;paint-order:normal" d="M9.902 3.734h4.099v1.302H9.902z"/>
    <path class="cls-1" d="M11.496 13.245c-.08-.31-.174-.606-.23-.907-.12-.684-.056-1.334.535-1.797.106-.081.38-.081.485 0 .637.475.73 1.137.547 1.865-.071.28-.161.556-.242.833l.118.093c.274-.217.6-.394.818-.662.786-.976.942-2.11.391-3.205-.516-1.03-1.228-1.956-1.84-2.907-.526.721-1.03 1.411-1.533 2.105-.594.82-.79 1.731-.619 2.726.156.917.812 1.707 1.567 1.863z" style="fill:#000;fill-opacity:1;stroke:none;stroke-width:.621802;stroke-opacity:1"/>
</svg>
