<?xml version="1.0" encoding="utf-8"?>
<!-- Svg Vector Icons : http://www.onlinewebfonts.com/icon -->
<!DOCTYPE svg PUBLIC "-//W3C//DTD SVG 1.1//EN" "http://www.w3.org/Graphics/SVG/1.1/DTD/svg11.dtd">
<svg version="1.1" xmlns="http://www.w3.org/2000/svg" xmlns:xlink="http://www.w3.org/1999/xlink" x="0px" y="0px" viewBox="0 0 256 256" enable-background="new 0 0 256 256" xml:space="preserve">
<metadata> Svg Vector Icons : http://www.onlinewebfonts.com/icon </metadata>
<g><g><g><path fill="#000000" d="M31.5,251.4c-5.9,0-10.9-2.1-15.1-6.3c-4.2-4.2-6.3-9.3-6.3-15.1V26.1c0-5.9,2.1-10.9,6.3-15.1c4.2-4.2,9.3-6.3,15.1-6.3h193.1c5.9,0,10.9,2.1,15.1,6.3c4.2,4.2,6.3,9.3,6.3,15.1v203.8c0,5.9-2.1,10.9-6.3,15.1c-4.2,4.2-9.3,6.3-15.1,6.3H31.5z M182,49c3.4,0,6.4-1.2,8.9-3.7c2.5-2.5,3.7-5.4,3.7-8.9c0-3.4-1.2-6.4-3.7-8.9c-2.5-2.5-5.4-3.7-8.9-3.7c-3.4,0-6.4,1.2-8.9,3.7c-2.5,2.5-3.7,5.4-3.7,8.9c0,3.4,1.2,6.4,3.7,8.9C175.6,47.8,178.5,49,182,49z M213.8,49c3.4,0,6.4-1.2,8.9-3.7c2.5-2.5,3.7-5.4,3.7-8.9c0-3.4-1.2-6.4-3.7-8.9c-2.5-2.5-5.4-3.7-8.9-3.7c-3.4,0-6.4,1.2-8.9,3.7c-2.5,2.5-3.7,5.4-3.7,8.9c0,3.4,1.2,6.4,3.7,8.9C207.4,47.8,210.4,49,213.8,49z M128,222.7c8.1,0,16-1.1,23.7-3.2c7.7-2.1,14.9-5.1,21.4-9c6.5-3.8,12.6-8.5,18.1-14s10.2-11.5,14-18.1c3.8-6.5,6.8-13.7,9-21.4c2.1-7.7,3.2-15.6,3.2-23.7c0-8.1-1.1-16-3.2-23.7c-2.1-7.7-5.1-14.8-9-21.3c-3.8-6.5-8.5-12.5-14-18s-11.5-10.2-18.1-14c-6.5-3.9-13.7-6.9-21.4-9C144,45,136.1,44,128,44c-6.9,0-13.7,0.8-20.4,2.4s-13,3.8-18.8,6.7c-5.9,2.9-11.4,6.4-16.6,10.5c-5.2,4.1-9.8,8.7-13.9,13.9c-4.1,5.2-7.6,10.7-10.5,16.6c-2.9,5.9-5.2,12.1-6.7,18.8c-1.6,6.7-2.4,13.5-2.4,20.4c0,8.1,1.1,16,3.2,23.7c2.1,7.7,5.1,14.9,9,21.4c3.8,6.5,8.5,12.6,14,18.1c5.5,5.5,11.5,10.2,18.1,14c6.5,3.8,13.7,6.8,21.4,9C112,221.7,119.9,222.7,128,222.7z M128,207.2c-10,0-19.6-2-28.7-5.9c-9.1-3.9-16.9-9.2-23.5-15.8c-6.6-6.6-11.8-14.4-15.7-23.5c-3.9-9.1-5.8-18.6-5.8-28.6c0-10,1.9-19.5,5.8-28.6c3.9-9.1,9.1-17,15.7-23.5c6.6-6.6,14.4-11.8,23.5-15.7c9.1-3.9,18.6-5.8,28.7-5.8c10,0,19.6,1.9,28.7,5.8s16.9,9.1,23.5,15.7c6.6,6.6,11.8,14.4,15.7,23.5c3.9,9.1,5.8,18.7,5.8,28.6c0,10-1.9,19.5-5.8,28.6s-9.1,16.9-15.7,23.5c-6.6,6.6-14.4,11.8-23.5,15.8S138,207.2,128,207.2z M128,189.2c7.5,0,14.7-1.5,21.5-4.4c6.8-2.9,12.7-6.9,17.6-11.9c4.9-5,8.9-11,11.8-17.8c2.9-6.9,4.4-14.1,4.4-21.6c0-7.6-1.5-14.8-4.4-21.7c-2.9-6.9-6.9-12.8-11.8-17.8c-4.9-5-10.8-8.9-17.6-11.9c-6.8-3-14-4.5-21.5-4.5c-7.5,0-14.7,1.5-21.5,4.5c-6.8,3-12.7,6.9-17.6,11.9c-4.9,5-8.9,10.9-11.8,17.8c-2.9,6.9-4.4,14.1-4.4,21.6c0,3.8,0.4,7.5,1.1,11.2c0.8,3.7,1.8,7.2,3.2,10.5c1.4,3.3,3.1,6.5,5.2,9.5c2,3,4.3,5.8,6.7,8.3c2.5,2.5,5.2,4.8,8.2,6.8c3,2,6.1,3.8,9.4,5.2c3.2,1.4,6.7,2.5,10.3,3.2C120.5,188.8,124.2,189.2,128,189.2z M102.6,154.6c-1.9,0-3.4-0.8-4.5-2.4c-0.6-0.9-0.9-1.9-0.9-3c0-1.9,0.8-3.3,2.4-4.4c1.4-1,2.7-2.1,3.9-3.4c1.1-1.3,1.7-2.2,1.7-2.8c0,0.1-0.2,0-0.5-0.2c-0.3-0.2-0.7-0.4-1.1-0.7c-1.1-0.8-2.1-1.5-2.8-2.1c-0.7-0.6-1.5-1.6-2.3-3c-0.8-1.4-1.2-3-1.2-4.7c0-1.8,0.4-3.6,1.3-5.4c0.9-1.8,2-3.4,3.3-4.7c1.4-1.4,2.5-2.4,3.3-3.2c0.9-0.8,1.7-1.4,2.5-1.9c0.9-0.6,1.8-0.9,2.9-0.9c1.9,0,3.4,0.8,4.5,2.4c0.6,0.9,0.9,1.9,0.9,3c0,1.9-0.8,3.4-2.4,4.5c-1.4,0.9-2.7,2-3.9,3.3s-1.7,2.2-1.7,2.8l0.5,0.3c0,0,0.4,0.2,1.1,0.7c1.1,0.8,2.1,1.5,2.8,2c0.7,0.6,1.5,1.6,2.3,3c0.8,1.4,1.2,3,1.2,4.7c0,1.2-0.2,2.4-0.6,3.7c-0.4,1.3-1,2.4-1.7,3.4s-1.5,2-2.2,2.9c-0.8,0.9-1.6,1.7-2.5,2.4c-0.9,0.7-1.6,1.3-2.1,1.7s-1,0.7-1.4,1C104.6,154.3,103.7,154.6,102.6,154.6z M124,154.6c-1.9,0-3.4-0.8-4.5-2.4c-0.6-0.9-0.9-1.9-0.9-3c0-1.9,0.8-3.3,2.4-4.4c1.4-1,2.7-2.1,3.9-3.4s1.7-2.2,1.7-2.8c0,0.1-0.5-0.2-1.6-0.9c-0.7-0.4-1.2-0.8-1.6-1.1c-0.4-0.3-1-0.8-1.7-1.5c-0.7-0.7-1.3-1.3-1.7-1.9c-0.4-0.6-0.7-1.4-1-2.4c-0.3-1-0.4-2-0.4-3c0-1.8,0.4-3.6,1.3-5.4c0.9-1.8,2-3.4,3.3-4.7c1.4-1.4,2.5-2.4,3.3-3.2c0.9-0.8,1.7-1.4,2.5-1.9c0.9-0.6,1.8-0.9,2.9-0.9c1.9,0,3.4,0.8,4.5,2.4c0.6,0.9,0.9,1.9,0.9,3c0,1.9-0.8,3.4-2.4,4.5c-1.4,0.9-2.7,2-3.9,3.3c-1.1,1.3-1.7,2.2-1.7,2.8l0.5,0.3c0,0,0.4,0.2,1.1,0.7c1.1,0.8,2.1,1.5,2.8,2c0.7,0.6,1.5,1.6,2.3,3c0.8,1.4,1.2,3,1.2,4.7c0,1.8-0.4,3.6-1.3,5.4c-0.9,1.8-2,3.4-3.3,4.8c-1.4,1.4-2.5,2.4-3.3,3.2c-0.9,0.7-1.7,1.3-2.5,1.8C126.1,154.3,125.1,154.6,124,154.6z M145.5,154.6c-1.9,0-3.4-0.8-4.5-2.4c-0.6-0.9-0.9-1.8-0.9-2.9c0-1.9,0.8-3.4,2.4-4.5c1.4-1,2.7-2.1,3.9-3.4s1.7-2.2,1.7-2.8c0,0.2-0.5-0.2-1.6-0.9c-1.1-0.8-2.1-1.5-2.8-2c-0.7-0.6-1.5-1.6-2.3-3c-0.8-1.5-1.2-3-1.2-4.7c0-1.9,0.4-3.7,1.3-5.5c0.9-1.8,2-3.4,3.3-4.7c1.4-1.4,2.5-2.4,3.3-3.1c0.9-0.7,1.7-1.3,2.5-1.8c0.9-0.7,1.8-1,2.9-1c1.9,0,3.4,0.8,4.5,2.4c0.6,0.9,0.9,1.9,0.9,3c0,1.9-0.8,3.4-2.4,4.5c-0.9,0.7-1.8,1.4-2.7,2.2c-0.9,0.9-1.6,1.6-2.1,2.4c-0.5,0.7-0.8,1.3-0.8,1.6c0-0.1,0.2,0,0.5,0.2c0.3,0.2,0.7,0.4,1.1,0.7c1.1,0.8,2.1,1.5,2.8,2c0.7,0.6,1.5,1.6,2.3,3c0.8,1.5,1.2,3,1.2,4.7c0,1.8-0.4,3.6-1.3,5.4s-2,3.4-3.3,4.8c-1.4,1.4-2.5,2.4-3.3,3.1c-0.9,0.7-1.7,1.3-2.5,1.8C147.5,154.3,146.6,154.6,145.5,154.6z"/></g></g></g>
</svg>