<?xml version="1.0" encoding="UTF-8" standalone="no"?>
<svg
   width="1000"
   height="1000"
   class="icon icon-tabler icons-tabler-outline icon-tabler-wash-machine"
   stroke-linejoin="round"
   stroke-width="2"
   viewBox="0 0 64 64"
   version="1.1"
   id="svg2"
   sodipodi:docname="swb_lg.svg"
   inkscape:version="1.4.3 (0d15f75042, 2025-12-25)"
   xmlns:inkscape="http://www.inkscape.org/namespaces/inkscape"
   xmlns:sodipodi="http://sodipodi.sourceforge.net/DTD/sodipodi-0.dtd"
   xmlns="http://www.w3.org/2000/svg"
   xmlns:svg="http://www.w3.org/2000/svg">
  <defs
     id="defs2" />
  <sodipodi:namedview
     id="namedview2"
     pagecolor="#ffffff"
     bordercolor="#000000"
     borderopacity="0.25"
     inkscape:showpageshadow="2"
     inkscape:pageopacity="0.0"
     inkscape:pagecheckerboard="0"
     inkscape:deskcolor="#d1d1d1"
     inkscape:zoom="0.799"
     inkscape:cx="499.37422"
     inkscape:cy="500"
     inkscape:window-width="1920"
     inkscape:window-height="1008"
     inkscape:window-x="0"
     inkscape:window-y="0"
     inkscape:window-maximized="1"
     inkscape:current-layer="svg2" />
  <path
     style="color:#000;fill:#000000;fill-opacity:1;stroke:none;stroke-opacity:1;stroke-width:0;stroke-dasharray:none"
     d="M6.45 2C4.72 2 3.18 3.282 3.18 5v14c0 1.718 1.54 3 3.27 3H17.8c1.73 0 3.27-1.282 3.27-3V5c0-1.718-1.54-3-3.27-3zm0 2H17.8c.778 0 1.27.509 1.27 1v14c0 .491-.492 1-1.27 1H6.45c-.778 0-1.27-.509-1.27-1V5c0-.491.492-1 1.27-1z"
     transform="matrix(3 0 0 3 -4.375 -4)"
     id="path1" />
  <path
     style="color:#000000;fill:#000000;fill-opacity:1;stroke:none;stroke-width:0;stroke-dasharray:none;stroke-opacity:1"
     d="m 13.41,5 v 2 h 4.36 V 5 Z M 6.57,5.04 v 2 h 2 v -2 z m 3.18,0 v 2 h 2 v -2 z"
     transform="matrix(3,0,0,3,-4.375,-4)"
     id="path2"
     inkscape:label="path2"
     sodipodi:nodetypes="ccccccccccccccccc" />
  <path
     d="m 25.539284,51.440941 h 12.84742"
     id="path2-6"
     style="stroke-width:3.21186;fill:none;fill-opacity:1;stroke:#000000;stroke-opacity:1" />
  <path
     d="m 31.962994,43.411304 v 8.029637"
     id="path3"
     style="stroke-width:3.21186;fill:none;fill-opacity:1;stroke:#000000;stroke-opacity:1" />
  <path
     d="m 39.992631,25.746102 1.605927,9.635565 c 0,4.837053 -4.313521,8.029637 -9.635564,8.029637 -5.322043,0 -9.635565,-3.192584 -9.635565,-8.029637 l 1.605928,-9.635565"
     id="path4"
     style="stroke-width:3.21186;fill:none;fill-opacity:1;stroke:#000000;stroke-opacity:1" />
  <path
     d="m 23.933357,25.746102 a 8.0296371,3.2118548 0 1 0 16.059274,0 8.0296371,3.2118548 0 1 0 -16.059274,0"
     id="path5"
     style="stroke-width:3.21186;fill:none;fill-opacity:1;stroke:#000000;stroke-opacity:1" />
</svg>
