<svg xmlns="http://www.w3.org/2000/svg" id="Calque_2" data-name="Calque 2" viewBox="0 0 68 80.64">
    <defs>
        <style>
            .cls-1 {

            }
        </style>
    </defs>
    <g id="Calque_1-2" data-name="Calque 1">
        <g>
            <path class="cls-1"
                d="m33.13,20.84c-3.02,8.71-6.03,17.38-9.04,26.08,1.98-.53,3.93-1.05,5.94-1.59-.94,5-1.87,9.95-2.8,14.89l.07.02c5.96-8.24,11.93-16.49,17.92-24.77-2.53-.25-5.01-.5-7.53-.75,3.06-3.57,6.08-7.1,9.12-10.65-4.58-1.09-9.13-2.17-13.68-3.24Z" />
            <path class="cls-1"
                d="m28.42,14.09l.06,5.73,8.53-5.05,8.53-5.05-8.64-4.86L28.27,0l.08,7.09C12.28,9.8,0,23.79,0,40.61c0,8.75,3.32,17.07,9.34,23.41l5-4.75c-4.8-5.06-7.45-11.68-7.45-18.66,0-13.03,9.25-23.94,21.52-26.52Z" />
            <path class="cls-1"
                d="m68,40.61c0-7.79-2.7-15.4-7.61-21.44l-5.35,4.35c3.91,4.81,6.06,10.87,6.06,17.08,0,14.34-11.2,26.11-25.31,27.04l.25-6.82-8.76,4.64-8.76,4.64,8.4,5.26,8.4,5.26.22-6.07c18.04-.81,32.46-15.73,32.46-33.96Z" />
        </g>
    </g>
</svg>