<?xml version="1.0" encoding="UTF-8" standalone="no"?>
<svg
   id="Calque_2"
   data-name="Calque 2"
   viewBox="-6 -20 125 125"
   version="1.1"
   sodipodi:docname="swb_journuit.svg"
   width="1000"
   height="1000"
   inkscape:version="1.4 (86a8ad7, 2024-10-11)"
   xmlns:inkscape="http://www.inkscape.org/namespaces/inkscape"
   xmlns:sodipodi="http://sodipodi.sourceforge.net/DTD/sodipodi-0.dtd"
   xmlns="http://www.w3.org/2000/svg"
   xmlns:svg="http://www.w3.org/2000/svg">
  <sodipodi:namedview
     id="namedview11"
     pagecolor="#ffffff"
     bordercolor="#000000"
     borderopacity="0.25"
     inkscape:showpageshadow="2"
     inkscape:pageopacity="0.0"
     inkscape:pagecheckerboard="0"
     inkscape:deskcolor="#d1d1d1"
     inkscape:zoom="0.45014132"
     inkscape:cx="269.91523"
     inkscape:cy="327.67487"
     inkscape:window-width="1920"
     inkscape:window-height="1009"
     inkscape:window-x="1912"
     inkscape:window-y="-8"
     inkscape:window-maximized="1"
     inkscape:current-layer="Calque_2" />
  <defs
     id="defs1">
    <style
       id="style1">
            .cls-1 {

            }
        </style>
  </defs>
  <g
     id="Calque_1-2"
     data-name="Calque 1">
    <g
       id="g11">
      <path
         class="cls-1"
         d="m 73.8,21.26 c -10.82,0.02 -19.52,8.8 -19.49,19.67 0.03,10.61 8.79,19.31 19.43,19.3 10.84,0 19.51,-8.63 19.54,-19.44 C 93.3,30.04 84.52,21.23 73.8,21.26 Z"
         id="path1" />
      <path
         class="cls-1"
         d="M 36.76,66.8 C 36.85,65.54 36.22,64.9 34.12,64.13 17.71,58.05 13.58,36.31 26.59,24.6 c 2.8,-2.52 6.01,-4.25 9.62,-5.29 1.54,-0.44 2.24,-1.57 1.87,-2.87 -0.3,-1.04 -1.1,-1.47 -2.06,-1.72 -10.64,-2.83 -20.08,-0.6 -27.91,7.14 -11.9,11.75 -10.73,31.26 3.67,42.8 5.54,4.26 13.3,6.17 21.9,4.52 2.19,-0.42 2.98,-1.07 3.07,-2.37 z"
         id="path2" />
      <path
         class="cls-1"
         d="m 49.4,36.4 c 0.18,-1.13 -0.51,-2.28 -1.7,-2.51 -3.87,-0.74 -7.75,-1.42 -11.63,-2.06 -1.13,-0.18 -2.14,0.65 -2.39,1.71 -0.26,1.15 0.34,2.27 1.48,2.65 0.56,0.19 1.17,0.25 1.76,0.36 3.37,0.6 6.74,1.19 9.85,1.74 1.5,0.04 2.45,-0.73 2.64,-1.89 z"
         id="path3" />
      <path
         class="cls-1"
         d="m 89.75,21.77 c 1.01,0.85 2.38,0.66 3.39,-0.52 2.33,-2.75 4.66,-5.5 6.96,-8.29 0.39,-0.47 0.58,-1.11 1.02,-1.97 -0.6,-0.63 -1.08,-1.43 -1.78,-1.8 -0.97,-0.51 -1.91,-0.08 -2.62,0.77 -2.35,2.8 -4.71,5.58 -7.04,8.39 -1.03,1.24 -0.97,2.54 0.08,3.42 z"
         id="path4" />
      <path
         class="cls-1"
         d="m 111.48,31.84 c -3.84,0.63 -7.68,1.31 -11.51,2.03 -1.2,0.22 -1.92,1.33 -1.78,2.47 0.15,1.15 1.11,1.96 2.69,1.96 3.61,-0.65 7.58,-1.33 11.52,-2.11 1.2,-0.24 1.79,-1.44 1.54,-2.59 -0.25,-1.15 -1.27,-1.96 -2.47,-1.76 z"
         id="path5" />
      <path
         class="cls-1"
         d="m 64.52,63.94 c -1.01,0 -1.73,0.54 -2.17,1.7 -0.74,1.97 -1.44,3.95 -2.16,5.93 -0.56,1.53 -1.16,3.05 -1.66,4.6 -0.43,1.32 0.16,2.5 1.37,2.93 1.14,0.4 2.29,-0.13 2.84,-1.34 0.18,-0.39 0.3,-0.8 0.45,-1.21 1.13,-3.1 2.29,-6.2 3.39,-9.32 0.63,-1.79 -0.35,-3.3 -2.05,-3.29 z"
         id="path6" />
      <path
         class="cls-1"
         d="m 85.06,65.3 c -0.27,-0.67 -1.14,-1.09 -1.45,-1.36 -2.21,0 -3.16,1.35 -2.54,3.19 1.2,3.58 2.51,7.12 3.84,10.64 0.46,1.23 1.71,1.73 2.84,1.31 1.15,-0.43 1.8,-1.57 1.37,-2.81 -1.29,-3.68 -2.61,-7.35 -4.05,-10.97 z"
         id="path7" />
      <path
         class="cls-1"
         d="m 54.54,21.31 c 0.95,1.12 2.3,1.29 3.3,0.49 1.07,-0.86 1.15,-2.18 0.13,-3.42 -2.33,-2.81 -4.67,-5.61 -7.06,-8.37 -0.44,-0.51 -1.14,-0.8 -1.93,-1.33 -0.72,0.57 -1.46,0.94 -1.88,1.54 -0.61,0.86 -0.36,1.8 0.31,2.61 2.37,2.83 4.74,5.67 7.12,8.49 z"
         id="path8" />
      <path
         class="cls-1"
         d="m 108.54,58.28 c -3.41,-2.07 -6.87,-4.07 -10.35,-6.02 -1.06,-0.59 -2.33,-0.09 -2.9,0.9 -0.58,1.01 -0.36,2.31 0.69,2.95 3.39,2.02 6.8,4.02 10.26,5.91 1.48,0.81 3.19,-0.36 3.2,-2.39 -0.17,-0.27 -0.39,-1.05 -0.9,-1.36 z"
         id="path9" />
      <path
         class="cls-1"
         d="m 49.21,52.38 c -3.3,1.85 -6.56,3.75 -9.81,5.67 -1.19,0.7 -1.52,2.01 -0.91,3.09 0.61,1.09 1.94,1.48 3.13,0.8 3.29,-1.86 6.57,-3.73 9.8,-5.7 0.62,-0.38 0.97,-1.18 1.22,-1.49 0,-2.22 -1.82,-3.29 -3.42,-2.39 z"
         id="path10" />
      <path
         class="cls-1"
         d="m 73.84,15.97 c 1.33,-0.03 2.19,-1.04 2.2,-2.63 0.01,-1.8 0,-3.61 0,-5.41 0,0 0,0 -0.01,0 0,-1.85 0.03,-3.69 0,-5.54 -0.03,-1.52 -0.92,-2.42 -2.26,-2.4 -1.33,0.02 -2.19,0.96 -2.2,2.47 -0.02,3.65 -0.02,7.3 0,10.95 0,1.55 0.96,2.58 2.28,2.55 z"
         id="path11" />
    </g>
  </g>
</svg>
