<?xml version="1.0" encoding="UTF-8" standalone="no"?>
<svg
   width="1000"
   height="1000"
   viewBox="0 0 24 24"
   fill="none"
   stroke="currentColor"
   stroke-width="2"
   stroke-linecap="round"
   stroke-linejoin="round"
   class="icon icon-tabler icons-tabler-outline icon-tabler-propeller"
   version="1.1"
   id="svg5"
   sodipodi:docname="swb_ventil2.svg"
   inkscape:version="1.4 (86a8ad7, 2024-10-11)"
   xmlns:inkscape="http://www.inkscape.org/namespaces/inkscape"
   xmlns:sodipodi="http://sodipodi.sourceforge.net/DTD/sodipodi-0.dtd"
   xmlns="http://www.w3.org/2000/svg"
   xmlns:svg="http://www.w3.org/2000/svg">
  <defs
     id="defs5" />
  <sodipodi:namedview
     id="namedview5"
     pagecolor="#ffffff"
     bordercolor="#000000"
     borderopacity="0.25"
     inkscape:showpageshadow="2"
     inkscape:pageopacity="0.0"
     inkscape:pagecheckerboard="0"
     inkscape:deskcolor="#d1d1d1"
     inkscape:zoom="0.37150727"
     inkscape:cx="14.804555"
     inkscape:cy="502.00901"
     inkscape:window-width="1920"
     inkscape:window-height="1009"
     inkscape:window-x="1912"
     inkscape:window-y="-8"
     inkscape:window-maximized="1"
     inkscape:current-layer="svg5" />
  <path
     stroke="none"
     d="M 0,0 H 24 V 24 H 0 Z"
     fill="none"
     id="path1" />
  <path
     d="M 14.167,10.5 C 14.889,8.962 15.323,7.457 15.47,5.986 15.69,4.356 14.708,3 12,3 9.292,3 8.31,4.357 8.53,5.986 8.677,7.457 9.111,8.962 9.833,10.5"
     id="path3" />
  <path
     d="m 13.169,16.751 c 0.97,1.395 2.057,2.523 3.257,3.386 1.3,1 2.967,0.833 4.321,-1.512 1.354,-2.345 0.67,-3.874 -0.85,-4.498 -1.348,-0.608 -2.868,-0.985 -4.562,-1.128"
     id="path4" />
  <path
     d="m 8.664,13 c -1.693,0.143 -3.213,0.52 -4.56,1.128 -1.522,0.623 -2.206,2.153 -0.852,4.498 1.354,2.345 3.02,2.517 4.321,1.512 1.2,-0.863 2.287,-1.991 3.258,-3.386"
     id="path5" />
  <circle
     style="display:inline;fill:none;fill-opacity:1;stroke:#000000;stroke-width:1.92;stroke-linecap:round;stroke-linejoin:round;stroke-opacity:1;paint-order:markers stroke fill"
     id="path6"
     cx="12.015916"
     cy="13.049543"
     r="2.9716783" />
</svg>
