<?xml version="1.0" encoding="UTF-8" standalone="no"?>
<svg
   width="1000"
   height="1000"
   viewBox="0 0 24 24"
   fill="none"
   stroke="currentColor"
   stroke-width="2"
   stroke-linecap="round"
   stroke-linejoin="round"
   class="icon icon-tabler icons-tabler-outline icon-tabler-bell-ringing"
   version="1.1"
   id="svg5"
   sodipodi:docname="swb_bell.svg"
   inkscape:version="1.4 (86a8ad7, 2024-10-11)"
   xmlns:inkscape="http://www.inkscape.org/namespaces/inkscape"
   xmlns:sodipodi="http://sodipodi.sourceforge.net/DTD/sodipodi-0.dtd"
   xmlns="http://www.w3.org/2000/svg"
   xmlns:svg="http://www.w3.org/2000/svg">
  <defs
     id="defs5" />
  <sodipodi:namedview
     id="namedview5"
     pagecolor="#ffffff"
     bordercolor="#000000"
     borderopacity="0.25"
     inkscape:showpageshadow="2"
     inkscape:pageopacity="0.0"
     inkscape:pagecheckerboard="0"
     inkscape:deskcolor="#d1d1d1"
     inkscape:zoom="0.13134766"
     inkscape:cx="-2051.8067"
     inkscape:cy="361.63569"
     inkscape:window-width="1920"
     inkscape:window-height="1009"
     inkscape:window-x="1912"
     inkscape:window-y="-8"
     inkscape:window-maximized="1"
     inkscape:current-layer="svg5" />
  <path
     stroke="none"
     d="M 0,0 H 24 V 24 H 0 Z"
     fill="none"
     id="path1" />
  <path
     d="m 10,5 a 2,2 0 0 1 4,0 7,7 0 0 1 4,6 v 3 a 4,4 0 0 0 2,3 H 4 a 4,4 0 0 0 2,-3 v -3 a 7,7 0 0 1 4,-6"
     id="path2" />
  <path
     d="m 9,17 v 1 a 3,3 0 0 0 6,0 v -1"
     id="path3" />
  <path
     d="M 21,6.727 A 11.05,11.05 0 0 0 18.206,3"
     id="path4" />
  <path
     d="M 3,6.727 A 11.05,11.05 0 0 1 5.792,3"
     id="path5" />
</svg>
