<svg xmlns="http://www.w3.org/2000/svg" id="Calque_2" data-name="Calque 2" viewBox="0 0 65.92 81.5">
    <defs>
        <style>
            .cls-1 {

            }
        </style>
    </defs>
    <g id="Calque_1-2" data-name="Calque 1">
        <g>
            <path class="cls-1"
                d="m65.65,67.51c-.77-1.8-1.54-3.61-2.32-5.41-3.21-7.44-6.41-14.89-9.63-22.32-.33-.77-.95-1.39-1.79-1.45-1.9-.14-3.82-.18-5.73-.19-3.43-.02-6.86-.01-10.3,0V7.35c.52,0,1.03,0,1.54,0,1.37-.01,2.42-.61,2.96-1.88.64-1.5,1.2-3.04,1.78-4.57.26-.69.12-.89-.59-.89-5.95,0-11.91,0-17.86,0-.71,0-.85.21-.59.89.57,1.49,1.12,2.98,1.73,4.45.53,1.3,1.55,1.97,2.95,2,.79.02,1.58.01,2.37,0v30.77c-4.99,0-9.99,0-14.98,0-1.43,0-2.48.54-3.06,1.89-.42.98-.89,1.93-1.31,2.91-2.36,5.49-4.7,10.98-7.05,16.46-1.19,2.78-2.39,5.57-3.57,8.36-.52,1.22.06,2.06,1.4,2.08.15,0,.31,0,.46,0,8.94,0,17.88,0,26.82,0,11.75,0,23.51,0,35.26,0,1.64,0,2.16-.79,1.51-2.31Zm-8.3-2.7c-.45.21-.88.11-1.13-.34-.24-.44-.42-.91-.62-1.37-2.56-5.97-5.11-11.93-7.67-17.9-.41-.95-.12-1.57.75-1.57.54-.02.72.42.9.84.88,2.06,1.76,4.12,2.64,6.18,1.78,4.17,3.57,8.33,5.35,12.49.09.2.19.4.24.61.11.46-.03.84-.46,1.04Z" />
            <path class="cls-1"
                d="m41.65,72.05c-2.9,0-5.8,0-8.7,0-2.88,0-5.76,0-8.63,0-.89,0-.98.12-.89.99.52,4.76,4.67,8.45,9.52,8.46,4.88,0,9.05-3.7,9.56-8.49.09-.84-.01-.96-.86-.96Z" />
        </g>
    </g>
</svg>