<svg xmlns="http://www.w3.org/2000/svg" id="Calque_2" data-name="Calque 2" viewBox="0 0 52.21 94.41">
    <defs>
        <style>
            .cls-1 {

            }
        </style>
    </defs>
    <g id="Calque_1-2" data-name="Calque 1">
        <g>
            <path class="cls-1"
                d="m37.72,31.39c0,7.1,0,14.2-.01,21.3,0,.71.15,1.15.81,1.57,7.67,4.85,11.74,11.75,10.57,20.87-1.21,9.5-7.11,15.47-16.09,18.22-11.14,3.41-23.12-1.72-28.01-11.71-4.65-9.48-1.4-20.84,7.79-26.78,1.34-.86,1.77-1.72,1.76-3.27-.07-13.43.09-26.87-.09-40.3C14.36,4.68,19.09-.43,25.86.03c1.8.12,3.69.18,5.37.77,4,1.4,6.44,5.13,6.47,9.54.04,7.02.01,14.04.01,21.06h.01Zm-5.77,2.39c0-7.51,0-15.01,0-22.52,0-2.03-.73-3.7-2.5-4.7-2.11-1.2-4.39-1.2-6.53-.09-2,1.03-2.67,2.88-2.67,5.09.02,14.52-.02,29.05.05,43.57,0,1.68-.34,2.52-2.03,3.28-10.87,4.87-12.93,18.37-4.07,25.89,6.94,5.89,17.51,5.78,24.2-.38,4.63-4.27,6.3-9.59,4.46-15.7-1.48-4.93-4.91-8.23-9.62-10.15-1.07-.44-1.32-.96-1.31-2.03.04-7.42.02-14.85.02-22.27Z" />
            <path class="cls-1"
                d="m5.76,23.76c-1.22,0-2.44.03-3.65,0C.77,23.71,0,22.89,0,21.59c0-1.29.78-2.12,2.13-2.14,2.43-.04,4.87-.04,7.3,0,1.35.03,2.1.86,2.1,2.16,0,1.29-.78,2.1-2.13,2.14-1.22.04-2.43,0-3.65,0Z" />
            <path class="cls-1"
                d="m46.38,23.77c-1.18,0-2.35.02-3.53,0-1.38-.03-2.15-.79-2.18-2.08-.03-1.35.76-2.2,2.17-2.22,2.39-.03,4.79-.03,7.18,0,1.42.02,2.21.86,2.18,2.21-.02,1.28-.8,2.04-2.17,2.1-.08,0-.16,0-.24,0-1.14,0-2.27,0-3.41,0Z" />
            <path class="cls-1"
                d="m5.85,28.17c1.17,0,2.34-.02,3.52,0,1.37.03,2.13.78,2.17,2.07.03,1.31-.69,2.19-2.02,2.22-2.5.05-5.01.05-7.52,0C.75,32.44,0,31.56,0,30.34c0-1.3.75-2.08,2.09-2.16.08,0,.16,0,.24,0,1.17,0,2.34,0,3.52,0Z" />
            <path class="cls-1"
                d="m46.42,28.17c1.21,0,2.43-.02,3.64,0,1.35.03,2.13.81,2.16,2.09.03,1.33-.78,2.19-2.17,2.21-2.38.03-4.77.03-7.15,0-1.45-.02-2.21-.82-2.21-2.17,0-1.35.78-2.11,2.22-2.13,1.17-.02,2.34,0,3.52,0Z" />
            <path class="cls-1"
                d="m5.84,10.73c1.18,0,2.35-.03,3.53,0,1.42.05,2.2.87,2.18,2.22-.02,1.29-.79,2.06-2.18,2.07-2.39.03-4.79.03-7.18,0-1.39-.02-2.15-.78-2.17-2.08-.03-1.35.74-2.16,2.18-2.21,1.22-.04,2.43,0,3.65,0h0Z" />
            <path class="cls-1"
                d="m46.39,15.04c-1.22,0-2.44.03-3.65,0-1.29-.04-2.04-.81-2.07-2.06-.03-1.32.71-2.2,2.04-2.22,2.47-.05,4.95-.05,7.42,0,1.34.03,2.1.9,2.08,2.19-.02,1.3-.79,2.06-2.17,2.09-1.22.03-2.43,0-3.65,0Z" />
            <path class="cls-1"
                d="m46.43,36.9c1.22,0,2.43-.02,3.65,0,1.33.03,2.07.76,2.12,2.01.06,1.33-.65,2.23-1.98,2.26-2.51.06-5.03.06-7.54,0-1.34-.03-2.05-.91-2-2.25.04-1.25.78-1.98,2.1-2.02,1.22-.04,2.43,0,3.65,0h0Z" />
            <path class="cls-1"
                d="m5.77,36.9c1.22,0,2.43-.03,3.65,0,1.37.04,2.12.82,2.13,2.12,0,1.3-.74,2.13-2.11,2.15-2.43.04-4.87.04-7.3,0-1.39-.03-2.12-.82-2.12-2.13,0-1.37.76-2.1,2.23-2.15.04,0,.08,0,.12,0,1.14,0,2.27,0,3.41,0Z" />
            <path class="cls-1"
                d="m29,49.46c0,2.72,0,5.43,0,8.15q0,2.07,1.94,2.71c2.76.91,5.12,2.42,6.95,4.7,3.81,4.76,3.6,11.32-.52,15.81-5.54,6.05-15.59,6.47-21.63.89-6.61-6.11-5.05-16.22,3.16-20.4,1-.51,2.08-.92,3.17-1.23.89-.25,1.19-.66,1.18-1.6-.05-5.92-.03-11.84-.02-17.76,0-2.6,2.36-3.96,4.64-2.66.87.5,1.14,1.3,1.14,2.26-.01,3.04,0,6.08,0,9.12Z" />
        </g>
    </g>
</svg>