<svg width="1000" height="1000" data-name="Calque 2" version="1.1" id="svg1" viewBox="-15 -2 90 90" xmlns="http://www.w3.org/2000/svg">
    <defs id="defs1">
        <style id="style1">
            
        </style>
    </defs>
    <path class="cls-1" d="M65.53 40.38c-.16-1.21-1.29-1.92-2.61-2.18-.41-.08-.83-.07-1.3-.11-.03-.37-.06-.68-.08-1-.16-2.66-2.78-4.53-5.6-3.96-2.37.48-3.69 2.13-3.69 4.71-.01 12.62 0 25.24 0 37.86 0 .46.04.94.14 1.39.4 1.83 2.2 3.24 4.2 3.32 2.97.11 4.96-1.73 4.96-4.65V47.72c1.9.03 3.56-.49 3.92-2.2.35-1.66.27-3.44.06-5.13z" id="svg_2" style="fill:#000;fill-opacity:1;stroke:none"/>
    <path class="cls-1" d="M43.7 33.01c-2.27-.18-4.38 1.37-4.83 3.57-.08.42-.11.86-.11 1.29 0 12.59 0 25.18-.01 37.77 0 1.74.59 3.21 2.22 4.15 1.5.86 3.09.93 4.65.15 1.65-.82 2.45-2.16 2.45-3.89V56.79c0-6.49.02-12.99-.01-19.48-.01-2.31-1.87-4.08-4.36-4.29v.01z" id="svg_3" style="fill:#000;fill-opacity:1;stroke:none"/>
    <path class="cls-1" d="M7.26 35.84c-.73-1.93-2.89-3.09-4.97-2.77-2.38.37-3.98 2.03-3.98 4.26-.02 6.46 0 12.92 0 19.37 0 6.35-.03 12.7.02 19.05 0 .83.18 1.74.58 2.48.93 1.74 3.14 2.58 5.14 2.11 2.22-.52 3.56-2.23 3.57-4.62 0-12.66 0-25.32-.01-37.99 0-.64-.09-1.31-.32-1.91l-.02.02z" id="svg_4" style="fill:#000;fill-opacity:1;stroke:none;stroke-opacity:1"/>
    <path class="cls-1" d="M20.71 35.74c-.79-1.93-2.9-3-5.04-2.65-2.29.38-3.88 2.05-3.88 4.22-.02 6.49 0 12.99 0 19.47v19.05c0 2.73 1.93 4.59 4.71 4.58 2.64 0 4.61-1.94 4.62-4.6 0-12.7 0-25.39-.02-38.09 0-.67-.12-1.38-.38-2l-.01.01z" id="svg_5" style="fill:#000;fill-opacity:1;stroke:none"/>
    <path class="cls-1" d="M34.59 37.64c0-2.68-2.02-4.65-4.72-4.63-2.62.03-4.61 1.98-4.61 4.62-.01 12.77-.03 25.54.02 38.31 0 .85.32 1.8.78 2.54 1.05 1.67 3.19 2.32 5.17 1.77 2.08-.57 3.34-2.17 3.35-4.31.01-6.42 0-12.84 0-19.26V37.63v.01z" id="svg_6" style="fill:#000;fill-opacity:1;stroke:none;stroke-opacity:1"/>
    <path class="cls-1" d="M28.28 21.3c-.05-1.76-.73-3.3-1.87-4.68-.59-.72-1.18-1.43-1.73-2.17-.99-1.34-.95-2.72.06-4.02.54-.7 1.21-1.31 1.83-1.95.65-.67.68-1.38.05-2.03-.65-.67-1.46-.81-2.29-.26-4.02 2.6-4.79 7.21-1.8 10.78.66.8 1.35 1.6 1.85 2.48 1.14 2.02.39 4.35-1.71 5.54-.29.17-.63.28-.93.46-.8.49-1.07 1.55-.58 2.3.54.82 1.28.76 2.12.42 2.96-1.21 5.02-4.02 4.99-6.86v.01z" id="svg_7" style="fill:#000;fill-opacity:1;stroke:none"/>
    <path class="cls-1" d="M15.27 26.08c2.81-2.9 2.68-6.38-.23-9.91-2.87-3.49-2.82-4.36.41-7.56.79-.79.85-1.5.17-2.19-.67-.69-1.73-.78-2.46-.05-.93.91-1.84 1.88-2.52 2.94-1.54 2.45-1.36 4.88.51 7.17.57.69 1.22 1.32 1.68 2.07.51.82.86 1.74 1.07 2.17.02 1.94-.56 3.11-1.78 3.97-.37.25-.79.45-1.19.67-.92.51-1.26 1.49-.78 2.31.53.89 1.37.94 2.18.46 1.04-.61 2.14-1.22 2.95-2.05v.01z" id="svg_8" style="fill:#000;fill-opacity:1;stroke:none"/>
    <path class="cls-1" d="M37.71 17.07c-.67-.92-1.43-1.8-2.1-2.72-.93-1.28-.86-2.6.06-3.84.55-.74 1.33-1.32 1.85-2.07.29-.42.52-1.12.33-1.53-.24-.5-.92-.82-1.45-1.26-.59.32-1.05.47-1.34.77-.72.7-1.44 1.42-2.02 2.23-2.07 2.86-1.93 5.43.33 8.16.64.77 1.3 1.53 1.84 2.36.89 1.37 1 2.85.07 4.2-.52.74-1.36 1.36-2.17 1.86-1.02.62-1.48 1.5-1.02 2.44.42.84 1.18.96 2.48.37 4.62-2.09 6.03-6.99 3.13-10.95l.02-.02z" id="svg_9" style="fill:#000;fill-opacity:1;stroke:none"/>
    <path class="cls-1" d="M47.96 16.11c-2.85-3.37-2.75-4.34.42-7.48.83-.82.87-1.56.12-2.27-.7-.67-1.73-.72-2.46.05-.94.99-1.9 2.02-2.59 3.16-1.32 2.19-1.2 4.43.37 6.51.59.8 1.28 1.53 1.89 2.32 2.05 2.67 1.38 5.25-1.68 6.89-.56.3-.91.94-1.13 1.17.04 1.59.98 2.2 2.13 1.75 1.8-.7 3.28-1.81 4.2-3.43 1.82-3.17 1.02-5.99-1.27-8.7v.01z" id="svg_10" style="fill:#000;fill-opacity:1;stroke:none"/>
</svg>
