<svg xmlns="http://www.w3.org/2000/svg" id="Calque_2" data-name="Calque 2"
    viewBox="0 0 115.23 98.14">
    <defs>
        <style>
            .cls-1 {

            }
        </style>
    </defs>
    <g id="Calque_1-2" data-name="Calque 1">
        <g>
            <path class="cls-1"
                d="m52.24,28.91c.45.15.93.2,1.4.29,2.69.48,5.39.95,7.87,1.39,1.2.03,1.96-.58,2.11-1.51.14-.9-.4-1.82-1.36-2-3.09-.59-6.19-1.14-9.29-1.64-.9-.15-1.71.52-1.91,1.37-.21.92.27,1.81,1.18,2.11Z" />
            <path class="cls-1"
                d="m95.85,17.39c.81.68,1.9.53,2.71-.42,1.86-2.2,3.73-4.4,5.56-6.62.31-.38.46-.88.81-1.57-.48-.51-.86-1.14-1.42-1.44-.77-.41-1.53-.06-2.09.62-1.87,2.23-3.76,4.46-5.62,6.7-.82.99-.78,2.03.06,2.74Z" />
            <path class="cls-1"
                d="m115.19,26.84c-.2-.92-1.01-1.56-1.97-1.41-3.07.51-6.13,1.05-9.19,1.62-.96.18-1.54,1.07-1.42,1.97.12.92.88,1.56,2.15,1.57,2.88-.52,6.05-1.06,9.2-1.69.96-.19,1.43-1.15,1.23-2.07Z" />
            <path class="cls-1"
                d="m92.1,52.17c-.21-.53-.91-.87-1.16-1.09-1.76,0-2.52,1.08-2.03,2.55.96,2.86,2,5.68,3.07,8.5.37.98,1.37,1.38,2.27,1.05.92-.34,1.44-1.26,1.09-2.25-1.03-2.94-2.09-5.87-3.24-8.77Z" />
            <path class="cls-1"
                d="m67.72,17.02c.76.9,1.83,1.03,2.63.39.85-.69.92-1.74.11-2.73-1.86-2.25-3.73-4.49-5.64-6.69-.35-.41-.91-.64-1.54-1.06-.57.45-1.17.75-1.51,1.23-.48.69-.29,1.44.25,2.08,1.9,2.26,3.78,4.53,5.69,6.78Z" />
            <path class="cls-1"
                d="m110.87,46.56c-2.73-1.65-5.49-3.25-8.27-4.81-.85-.47-1.86-.08-2.32.72-.46.81-.29,1.85.55,2.35,2.71,1.62,5.43,3.21,8.2,4.73,1.18.64,2.54-.28,2.56-1.91-.14-.22-.31-.84-.72-1.08Z" />
            <path class="cls-1"
                d="m83.15,12.76c1.07-.02,1.75-.83,1.76-2.1,0-1.44,0-2.88,0-4.32,0,0,0,0,0,0,0-1.48.02-2.95,0-4.42-.02-1.21-.74-1.93-1.81-1.92-1.06.02-1.75.76-1.76,1.98-.02,2.92-.02,5.83,0,8.75,0,1.24.77,2.06,1.83,2.04Z" />
            <path class="cls-1"
                d="m90.53,86.63c-29.25,0-58.5,0-87.75,0-.43,0-.86-.06-1.27.03-.27.06-.64.28-.72.51-.3.88-.5,1.79-.79,2.87h38.99c-.09,1.93-.18,3.69-.27,5.62h-7.12c-.08.93-.14,1.7-.2,2.5h31.53c-.09-.88-.17-1.66-.26-2.54h-7.11c-.09-1.91-.17-3.71-.25-5.61h38.89q-.59-3.36-3.67-3.36Z" />
            <path class="cls-1"
                d="m23.16,69.89c-5.83,0-11.39-.01-16.96.03-.32,0-.84.45-.93.78-1.2,4.16-2.34,8.35-3.54,12.65h19.31c.71-4.51,1.4-8.9,2.12-13.46Z" />
            <path class="cls-1"
                d="m72.94,69.89c-.6,0-1.2,0-1.9,0,.68,4.33,1.35,8.47,1.97,12.62.13.9.63.98,1.37.97,4.2-.02,8.41-.01,12.61-.01,1.78,0,3.57,0,5.53,0-1.24-4.43-2.4-8.7-3.67-12.94-.09-.31-.86-.6-1.32-.61-4.86-.04-9.73-.03-14.59-.03Z" />
            <path class="cls-1" d="m66.92,69.98h-17.55v13.39h19.32c-.59-4.49-1.17-8.88-1.77-13.39Z" />
            <path class="cls-1" d="m25.52,83.38h19.3v-13.39h-17.55c-.59,4.5-1.17,8.92-1.75,13.39Z" />
            <path class="cls-1"
                d="m22.91,66.65c.3,0,.81-.38.86-.65.72-4.22,1.37-8.46,2.05-12.77h-15.73c-1.23,4.46-2.46,8.88-3.72,13.45,5.69,0,11.12.01,16.55-.03Z" />
            <path class="cls-1"
                d="m84.34,54c-.22-.83-.72-.84-1.36-.84-4.53.01-9.06,0-13.59.01-.31,0-.61.08-1.01.14.72,4.5,1.43,8.9,2.14,13.3h17.14c0-.26.04-.45,0-.63-1.1-4-2.24-7.99-3.31-11.99Z" />
            <path class="cls-1" d="m45.07,66.57v-13.35h-15.57c-.58,4.45-1.16,8.87-1.75,13.35h17.32Z" />
            <path class="cls-1" d="m64.71,53.29h-15.58v13.32h17.35c-.6-4.55-1.19-8.96-1.77-13.32Z" />
            <path class="cls-1"
                d="m45.26,36.39c-4.24,0-8.43-.02-12.63.04-.35,0-.91.55-1.01.94-.27,1.14-.36,2.33-.51,3.49-.38,2.98-.76,5.95-1.16,9.02h15.3v-13.49Z" />
            <path class="cls-1"
                d="m28.5,36.4c-4.51,0-8.79-.02-13.08.04-.31,0-.78.58-.9.98-.88,2.98-1.7,5.99-2.53,8.98-.31,1.12-.6,2.24-.93,3.48h15.31c.72-4.53,1.41-8.93,2.13-13.49Z" />
            <path class="cls-1"
                d="m83.12,16.98c-8.64.02-15.59,7.03-15.57,15.71,0,.31.01.63.03.94h14.04l3.97,14.28c7.45-1.19,13.08-7.55,13.1-15.33.02-8.59-7-15.62-15.56-15.61Z" />
            <path class="cls-1"
                d="m65.71,36.47c.7,4.39,1.35,8.58,2.09,12.75.06.31.79.7,1.22.71,2.55.06,5.1.03,7.65.02,2.11,0,4.23,0,6.54,0-1.28-4.62-2.52-9.05-3.75-13.49h-13.75Z" />
            <path class="cls-1" d="m62.5,36.52h-13.54v13.35h15.3c-.6-4.53-1.18-8.95-1.76-13.35Z" />
        </g>
    </g>
</svg>