<?xml version="1.0"?>
<svg width="24" height="24" xmlns="http://www.w3.org/2000/svg" xmlns:svg="http://www.w3.org/2000/svg" class="icon icon-tabler icons-tabler-outline icon-tabler-cooker" stroke-linejoin="round" stroke-width="2">
 <g class="layer">
  <title>Layer 1</title>
  <path d="m0,0l24,0l0,24l-24,0l0,-24z" fill="#000000" fill-opacity="0" id="svg_1"/>
  <path d="m5,3m0,1.78a2,1.78 0 0 1 2,-1.78l10,0a2,1.78 0 0 1 2,1.78l0,12.44a2,1.78 0 0 1 -2,1.78l-10,0a2,1.78 0 0 1 -2,-1.78l0,-12.44z" fill="#000000" fill-opacity="0" id="svg_5" stroke="#000000"/>
  <path d="m8.2,19.1m0,0.35a0.43,0.35 0 0 1 0.43,-0.35l2.14,0a0.43,0.35 0 0 1 0.43,0.35l0,2.45a0.43,0.35 0 0 1 -0.43,0.35l-2.14,0a0.43,0.35 0 0 1 -0.43,-0.35l0,-2.45z" fill="#000000" id="svg_8" stroke="#000000" stroke-opacity="0"/>
  <path d="m13.3,19.13m0,0.35a0.43,0.35 0 0 1 0.43,-0.35l2.14,0a0.43,0.35 0 0 1 0.43,0.35l0,2.45a0.43,0.35 0 0 1 -0.43,0.35l-2.14,0a0.43,0.35 0 0 1 -0.43,-0.35l0,-2.45z" fill="#000000" id="svg_9" stroke="#000000" stroke-opacity="0"/>
  <ellipse cx="12.05" cy="14.95" fill="#000000" id="svg_11" rx="1.7" ry="1.7" stroke="#000000" stroke-opacity="0" transform="matrix(1 0 0 1 0 0)"/>
  <ellipse cx="12" cy="10.75" fill="#000000" id="svg_12" rx="1.7" ry="1.7" stroke="#000000" stroke-opacity="0"/>
 </g>
</svg>