<svg xmlns="http://www.w3.org/2000/svg" id="Calque_2" data-name="Calque 2"
    viewBox="0 0 73.62 127.05">
    <defs>
        <style>
            .cls-1 {

            }
        </style>
    </defs>
    <g id="Calque_1-2" data-name="Calque 1">
        <g>
            <path class="cls-1"
                d="m11.24,99.82c-.27,2.1.16,3.05,1.97,4.09.81.47,1.67.95,2.57,1.18,2.53.66,5.07,1.41,7.65,1.74,9.71,1.26,19.42,1.26,29.11-.3,2.78-.45,5.51-1.12,7.98-2.59,1.58-.94,2.26-2.26,1.86-4.07-17.09,4.34-34.11,4.29-51.13-.06Z" />
            <path class="cls-1"
                d="m27.9,109.85c-2.51-.32-5.04-.6-7.67-.9,0,1.63,0,3.24,0,4.86,0,.57.37.81.91.81,2.11,0,4.21,0,6.32,0,.58,0,.92-.28.92-.89,0-1.11.02-2.22-.02-3.32,0-.2-.28-.53-.46-.56Z" />
            <path class="cls-1"
                d="m45.25,109.97c0,1.31-.04,2.61.03,3.9.01.26.44.7.69.7,2.21.06,4.43.07,6.64.02.26,0,.72-.42.73-.66.06-1.64.03-3.28.03-4.94-2.74.33-5.4.66-8.13.99Z" />
            <path class="cls-1" d="m22.59,126.97h3.45v-9.83h-3.45v9.83Z" />
            <path class="cls-1"
                d="m51.12,119.85c0-.89,0-1.77,0-2.71h-3.5v9.89c.99,0,1.91-.03,2.83.01.55.02.69-.19.68-.7-.02-2.16,0-4.33,0-6.49Z" />
            <path class="cls-1"
                d="m73.6,50.36h0c0-12.67,0-25.34.01-38.01,0-1.26-.37-2.33-1.18-3.28-1.49-1.76-3.44-2.87-5.48-3.82-5.01-2.32-10.33-3.5-15.76-4.27C42.49-.24,33.77-.31,25.04.69c-5.82.66-11.55,1.78-17.01,4.01-2.21.9-4.34,1.96-6.11,3.61C.72,9.42,0,10.72,0,12.43c.02,25.2.02,50.41,0,75.61,0,1.7.54,3.12,1.82,4.15,1.23,1,2.54,1.96,3.94,2.68,5.2,2.65,10.82,3.9,16.55,4.72,9.41,1.35,18.83,1.38,28.25.15,5.3-.69,10.51-1.81,15.45-3.91,2.3-.98,4.51-2.13,6.23-4.01.91-1,1.38-2.14,1.38-3.53-.02-12.64-.01-25.28-.01-37.93Zm-36.99-7.67c-7.62-.14-13.72-6.45-13.56-14.02.16-7.57,6.49-13.67,14-13.5,7.6.17,13.63,6.41,13.51,13.98-.11,7.55-6.43,13.68-13.96,13.54Z" />
            <path class="cls-1"
                d="m36.81,18.69c-5.47,0-9.91,4.44-9.91,9.91s4.44,9.91,9.91,9.91,9.91-4.44,9.91-9.91-4.44-9.91-9.91-9.91Zm0,14.94c-2.78,0-5.04-2.25-5.04-5.04,0-1.02.3-1.96.82-2.75l3.29,3.29,1.38-1.38-3.31-3.31c.81-.56,1.79-.89,2.85-.89,2.78,0,5.04,2.25,5.04,5.04s-2.25,5.04-5.04,5.04Z" />
        </g>
    </g>
</svg>