<?xml version="1.0" encoding="UTF-8" standalone="no"?>
<svg
   width="1000"
   height="1000"
   viewBox="0 0 24 24"
   fill="none"
   stroke="currentColor"
   stroke-width="2"
   stroke-linecap="round"
   stroke-linejoin="round"
   class="icon icon-tabler icons-tabler-outline icon-tabler-air-conditioning"
   version="1.1"
   id="svg6"
   sodipodi:docname="swb_split.svg"
   inkscape:version="1.4 (86a8ad7, 2024-10-11)"
   xmlns:inkscape="http://www.inkscape.org/namespaces/inkscape"
   xmlns:sodipodi="http://sodipodi.sourceforge.net/DTD/sodipodi-0.dtd"
   xmlns="http://www.w3.org/2000/svg"
   xmlns:svg="http://www.w3.org/2000/svg">
  <defs
     id="defs6" />
  <sodipodi:namedview
     id="namedview6"
     pagecolor="#ffffff"
     bordercolor="#000000"
     borderopacity="0.25"
     inkscape:showpageshadow="2"
     inkscape:pageopacity="0.0"
     inkscape:pagecheckerboard="0"
     inkscape:deskcolor="#d1d1d1"
     inkscape:zoom="33.625"
     inkscape:cx="12"
     inkscape:cy="12"
     inkscape:window-width="1920"
     inkscape:window-height="1009"
     inkscape:window-x="1912"
     inkscape:window-y="-8"
     inkscape:window-maximized="1"
     inkscape:current-layer="svg6" />
  <path
     stroke="none"
     d="M 0,0 H 24 V 24 H 0 Z"
     fill="none"
     id="path1" />
  <path
     d="M 8,16 A 3,3 0 0 1 5,19"
     id="path2" />
  <path
     d="m 16,16 a 3,3 0 0 0 3,3"
     id="path3" />
  <path
     d="m 12,16 v 4"
     id="path4" />
  <path
     d="M 3,5 M 3,7 A 2,2 0 0 1 5,5 h 14 a 2,2 0 0 1 2,2 v 4 a 2,2 0 0 1 -2,2 H 5 A 2,2 0 0 1 3,11 Z"
     id="path5" />
  <path
     d="M 7,13 V 10 A 1,1 0 0 1 8,9 h 8 a 1,1 0 0 1 1,1 v 3"
     id="path6" />
</svg>
