<svg width="1000" height="1000" viewBox="0 0 64 64" fill="none" stroke="currentColor" stroke-width="2" stroke-linecap="round" stroke-linejoin="round" class="icon icon-tabler icons-tabler-outline icon-tabler-massage" xmlns="http://www.w3.org/2000/svg">
    <g stroke="none">
        <path style="color:#000;fill:#000;stroke:none;stroke-width:5.33402;stroke-linecap:square;stroke-linejoin:round;-inkscape-stroke:none" d="M10.58 3.691c-5.294 0-9.643 4.343-9.643 9.637v26.066c0 5.294 4.349 9.642 9.642 9.642H50.7c5.294 0 9.637-4.348 9.637-9.642V13.328c0-5.294-4.343-9.637-9.637-9.637zm0 5.334H50.7c.423 0 .83.06 1.213.167L6.589 41.05a4.436 4.436 0 0 1-.317-1.656V13.328c0-2.431 1.876-4.303 4.307-4.303zm43.86 2.141c.356.631.562 1.364.562 2.162v26.066c0 2.431-1.872 4.308-4.303 4.308H10.58A4.413 4.413 0 0 1 8.73 43.3z" transform="translate(1.363 5.636)"/>
        <path style="color:#000;fill:#000;stroke:none;stroke-width:5.33402;stroke-linecap:round;stroke-linejoin:round;-inkscape-stroke:none" d="m18.424 18.13-7.5.053a1.534 1.534 0 0 0-1.522 1.542 1.534 1.534 0 0 0 1.542 1.526l7.501-.052a1.534 1.534 0 0 0 1.521-1.547 1.534 1.534 0 0 0-1.542-1.521zM23.154 18.183a1.534 1.534 0 0 0-1.532 1.531 1.534 1.534 0 0 0 1.532 1.537h7.71a1.534 1.534 0 0 0 1.53-1.537 1.534 1.534 0 0 0-1.53-1.531zM10.934 12.099a1.534 1.534 0 0 0-1.532 1.531 1.534 1.534 0 0 0 1.532 1.537h20.033a1.534 1.534 0 0 0 1.537-1.537 1.534 1.534 0 0 0-1.537-1.531zM30.467 37.566a1.534 1.534 0 0 0-1.536 1.531 1.534 1.534 0 0 0 1.536 1.537h20.034a1.534 1.534 0 0 0 1.532-1.537 1.534 1.534 0 0 0-1.532-1.531zM35.963 28.106c-2.133-.034-4.28 1.313-6.616 4.292a1.534 1.534 0 0 0 .266 2.152 1.534 1.534 0 0 0 2.151-.26c2.062-2.63 3.332-3.129 4.147-3.116.815.013 1.795.668 3.063 1.651 1.267.984 2.822 2.27 5 2.365 2.179.095 4.486-1.132 7.032-4.021a1.534 1.534 0 0 0-.135-2.162 1.534 1.534 0 0 0-2.167.136c-2.239 2.54-3.636 3.026-4.6 2.984-.963-.042-1.988-.745-3.25-1.724s-2.759-2.263-4.891-2.297z" transform="translate(1.363 5.636)"/>
    </g>
</svg>
