<?xml version="1.0" encoding="UTF-8" standalone="no"?>
<svg
   width="1000"
   height="1000"
   class="icon icon-tabler icons-tabler-outline icon-tabler-wash-machine"
   stroke-linejoin="round"
   stroke-width="2"
   version="1.1"
   id="svg18095"
   sodipodi:docname="swb_lv.svg"
   inkscape:version="1.4 (86a8ad7, 2024-10-11)"
   viewBox="0 0 64 64"
   xmlns:inkscape="http://www.inkscape.org/namespaces/inkscape"
   xmlns:sodipodi="http://sodipodi.sourceforge.net/DTD/sodipodi-0.dtd"
   xmlns="http://www.w3.org/2000/svg"
   xmlns:svg="http://www.w3.org/2000/svg">
  <defs
     id="defs18099" />
  <sodipodi:namedview
     id="namedview18097"
     pagecolor="#ffffff"
     bordercolor="#000000"
     borderopacity="0.25"
     inkscape:showpageshadow="2"
     inkscape:pageopacity="0.0"
     inkscape:pagecheckerboard="0"
     inkscape:deskcolor="#d1d1d1"
     showgrid="false"
     inkscape:zoom="2.5172265"
     inkscape:cx="-99.117024"
     inkscape:cy="49.856459"
     inkscape:window-width="1920"
     inkscape:window-height="1009"
     inkscape:window-x="1912"
     inkscape:window-y="-8"
     inkscape:window-maximized="1"
     inkscape:current-layer="svg18095" />
  <g
     id="g1"
     transform="matrix(3,0,0,3,-4.3749993,-4)">
    <path
       style="color:#000000;fill:#000000;-inkscape-stroke:none"
       d="M 6.4492187,2 C 4.7193754,2 3.1796875,3.2820327 3.1796875,5 v 14 c 0,1.717967 1.5396879,3 3.2695312,3 H 17.800781 c 1.729844,0 3.269531,-1.282033 3.269531,-3 V 5 c 0,-1.7179673 -1.539687,-3 -3.269531,-3 z m 0,2 H 17.800781 c 0.777527,0 1.269531,0.5088305 1.269531,1 v 14 c 0,0.491169 -0.492004,1 -1.269531,1 H 6.4492187 C 5.6716918,20 5.1796875,19.491169 5.1796875,19 V 5 c 0,-0.4911695 0.4920043,-1 1.2695312,-1 z"
       id="path18298" />
    <path
       style="color:#000000;fill:#000000;-inkscape-stroke:none"
       d="m 13.410156,5 v 2 h 4.359375 V 5 Z"
       id="path18292" />
    <path
       style="color:#000000;fill:#000000;-inkscape-stroke:none"
       d="m 6.5703125,5.0390625 v 2 h 2 v -2 z"
       id="path18280" />
    <path
       style="color:#000000;fill:#000000;-inkscape-stroke:none"
       d="m 9.75,5.0390625 v 2 h 2 v -2 z"
       id="path18286" />
    <path
       style="color:#000000;fill:#000000;-inkscape-stroke:none"
       d="m 7.484375,8.4316406 v 2.6074224 l 0.00195,-0.02344 c -0.025042,0.621127 0.4237018,1.108172 0.9003907,1.345703 0.3111673,0.155053 0.6814672,0.169892 1.0390625,0.216797 v 6.216797 h 1.1484378 v -6.222656 c 0.344041,-0.04689 0.701986,-0.05729 1.003906,-0.205078 0.481039,-0.23547 0.935055,-0.710977 0.927734,-1.333985 V 8.4335938 h -1.15039 V 11.039063 L 10.574216,11.039 V 8.4335938 H 9.4257813 V 11.039 H 8.6347656 V 8.4316406 Z m 8.373047,0.039063 c -0.211642,-0.09029 -0.456732,-0.045728 -0.623047,0.1132813 -1.302782,1.2394891 -1.897391,2.4338741 -2.125,3.5468751 -0.227609,1.113001 -0.112207,2.112165 -0.107422,3.011719 0.0015,0.316177 0.258038,0.571808 0.574219,0.572266 h 1.478516 v 3.089842 h 1.15039 V 15.140625 9 C 16.205522,8.7699034 16.068764,8.561693 15.857422,8.4707036 Z m -0.802734,2.1406254 v 3.953125 h -0.884766 c -0.02078,-0.753487 -0.07961,-1.4891 0.06641,-2.203125 0.113162,-0.553358 0.402162,-1.137213 0.81836,-1.75 z"
       id="path18274"
       sodipodi:nodetypes="cccsccccccccccccccccccscccccccccccscc" />
  </g>
</svg>
