<?xml version="1.0"?>
<svg width="63.81" height="85.37" xmlns="http://www.w3.org/2000/svg" xmlns:svg="http://www.w3.org/2000/svg" data-name="Calque 2">
 <defs>
  <style>.cls-1 {

            }</style>
 </defs>
 <g class="layer">
  <title>Layer 1</title>
  <g data-name="Calque 1" id="Calque_1-2">
   <g id="svg_1">
    <path class="cls-1" d="m61.93,40.38c-0.16,-1.21 -1.29,-1.92 -2.61,-2.18c-0.41,-0.08 -0.83,-0.07 -1.3,-0.11c-0.03,-0.37 -0.06,-0.68 -0.08,-1c-0.16,-2.66 -2.78,-4.53 -5.6,-3.96c-2.37,0.48 -3.69,2.13 -3.69,4.71c-0.01,12.62 0,25.24 0,37.86c0,0.46 0.04,0.94 0.14,1.39c0.4,1.83 2.2,3.24 4.2,3.32c2.97,0.11 4.96,-1.73 4.96,-4.65c0,-8.9 0,-17.81 0,-26.71c0,-0.42 0,-0.85 0,-1.33c1.9,0.03 3.56,-0.49 3.92,-2.2c0.35,-1.66 0.27,-3.44 0.06,-5.13l0,-0.01z" id="svg_2"/>
    <path class="cls-1" d="m41.9,33.01c-2.27,-0.18 -4.38,1.37 -4.83,3.57c-0.08,0.42 -0.11,0.86 -0.11,1.29c0,12.59 0,25.18 -0.01,37.77c0,1.74 0.59,3.21 2.22,4.15c1.5,0.86 3.09,0.93 4.65,0.15c1.65,-0.82 2.45,-2.16 2.45,-3.89c0,-6.42 0,-12.84 0,-19.26c0,-6.49 0.02,-12.99 -0.01,-19.48c-0.01,-2.31 -1.87,-4.08 -4.36,-4.29l0,0.01z" id="svg_3"/>
    <path class="cls-1" d="m10.86,35.84c-0.73,-1.93 -2.89,-3.09 -4.97,-2.77c-2.38,0.37 -3.98,2.03 -3.98,4.26c-0.02,6.46 0,12.92 0,19.37c0,6.35 -0.03,12.7 0.02,19.05c0,0.83 0.18,1.74 0.58,2.48c0.93,1.74 3.14,2.58 5.14,2.11c2.22,-0.52 3.56,-2.23 3.57,-4.62c0,-12.66 0,-25.32 -0.01,-37.99c0,-0.64 -0.09,-1.31 -0.32,-1.91l-0.02,0.02z" id="svg_4"/>
    <path class="cls-1" d="m22.51,35.74c-0.79,-1.93 -2.9,-3 -5.04,-2.65c-2.29,0.38 -3.88,2.05 -3.88,4.22c-0.02,6.49 0,12.99 0,19.47c0,6.35 0,12.7 0,19.05c0,2.73 1.93,4.59 4.71,4.58c2.64,0 4.61,-1.94 4.62,-4.6c0,-12.7 0,-25.39 -0.02,-38.09c0,-0.67 -0.12,-1.38 -0.38,-2l-0.01,0.01z" id="svg_5"/>
    <path class="cls-1" d="m34.59,37.64c0,-2.68 -2.02,-4.65 -4.72,-4.63c-2.62,0.03 -4.61,1.98 -4.61,4.62c-0.01,12.77 -0.03,25.54 0.02,38.31c0,0.85 0.32,1.8 0.78,2.54c1.05,1.67 3.19,2.32 5.17,1.77c2.08,-0.57 3.34,-2.17 3.35,-4.31c0.01,-6.42 0,-12.84 0,-19.26c0,-6.35 0,-12.7 0,-19.05l0,0.01z" id="svg_6"/>
    <path class="cls-1" d="m28.28,21.3c-0.05,-1.76 -0.73,-3.3 -1.87,-4.68c-0.59,-0.72 -1.18,-1.43 -1.73,-2.17c-0.99,-1.34 -0.95,-2.72 0.06,-4.02c0.54,-0.7 1.21,-1.31 1.83,-1.95c0.65,-0.67 0.68,-1.38 0.05,-2.03c-0.65,-0.67 -1.46,-0.81 -2.29,-0.26c-4.02,2.6 -4.79,7.21 -1.8,10.78c0.66,0.8 1.35,1.6 1.85,2.48c1.14,2.02 0.39,4.35 -1.71,5.54c-0.29,0.17 -0.63,0.28 -0.93,0.46c-0.8,0.49 -1.07,1.55 -0.58,2.3c0.54,0.82 1.28,0.76 2.12,0.42c2.96,-1.21 5.02,-4.02 4.99,-6.86l0,0.01z" id="svg_7"/>
    <path class="cls-1" d="m15.27,26.08c2.81,-2.9 2.68,-6.38 -0.23,-9.91c-2.87,-3.49 -2.82,-4.36 0.41,-7.56c0.79,-0.79 0.85,-1.5 0.17,-2.19c-0.67,-0.69 -1.73,-0.78 -2.46,-0.05c-0.93,0.91 -1.84,1.88 -2.52,2.94c-1.54,2.45 -1.36,4.88 0.51,7.17c0.57,0.69 1.22,1.32 1.68,2.07c0.51,0.82 0.86,1.74 1.07,2.17c0.02,1.94 -0.56,3.11 -1.78,3.97c-0.37,0.25 -0.79,0.45 -1.19,0.67c-0.92,0.51 -1.26,1.49 -0.78,2.31c0.53,0.89 1.37,0.94 2.18,0.46c1.04,-0.61 2.14,-1.22 2.95,-2.05l0,0.01z" id="svg_8"/>
    <path class="cls-1" d="m37.71,17.07c-0.67,-0.92 -1.43,-1.8 -2.1,-2.72c-0.93,-1.28 -0.86,-2.6 0.06,-3.84c0.55,-0.74 1.33,-1.32 1.85,-2.07c0.29,-0.42 0.52,-1.12 0.33,-1.53c-0.24,-0.5 -0.92,-0.82 -1.45,-1.26c-0.59,0.32 -1.05,0.47 -1.34,0.77c-0.72,0.7 -1.44,1.42 -2.02,2.23c-2.07,2.86 -1.93,5.43 0.33,8.16c0.64,0.77 1.3,1.53 1.84,2.36c0.89,1.37 1,2.85 0.07,4.2c-0.52,0.74 -1.36,1.36 -2.17,1.86c-1.02,0.62 -1.48,1.5 -1.02,2.44c0.42,0.84 1.18,0.96 2.48,0.37c4.62,-2.09 6.03,-6.99 3.13,-10.95l0.02,-0.02z" id="svg_9"/>
    <path class="cls-1" d="m47.96,16.11c-2.85,-3.37 -2.75,-4.34 0.42,-7.48c0.83,-0.82 0.87,-1.56 0.12,-2.27c-0.7,-0.67 -1.73,-0.72 -2.46,0.05c-0.94,0.99 -1.9,2.02 -2.59,3.16c-1.32,2.19 -1.2,4.43 0.37,6.51c0.59,0.8 1.28,1.53 1.89,2.32c2.05,2.67 1.38,5.25 -1.68,6.89c-0.56,0.3 -0.91,0.94 -1.13,1.17c0.04,1.59 0.98,2.2 2.13,1.75c1.8,-0.7 3.28,-1.81 4.2,-3.43c1.82,-3.17 1.02,-5.99 -1.27,-8.7l0,0.01z" id="svg_10"/>
   </g>
  </g>
 </g>
</svg>