<svg xmlns="http://www.w3.org/2000/svg" id="Calque_2" data-name="Calque 2" viewBox="0 0 102 79.9">
    <defs>
        <style>
            .cls-1 {

            }
        </style>
    </defs>
    <g id="Calque_1-2" data-name="Calque 1">
        <g>
            <path class="cls-1"
                d="m37.75,48.89c-.39.03-.78,0-1.15,0,.05-.28.14-.52.13-.77-.01-.39-.23-.68-.6-.81-.37-.13-.74-.09-1.03.2-.39.38-.76.79-1.16,1.16-.12.11-.32.2-.49.21-.43.03-.85,0-1.38,0,.47-.48.89-.88,1.28-1.31.31-.33.34-.84.11-1.2-.23-.36-.67-.53-1.1-.39-.19.07-.38.21-.53.35-.77.76-1.53,1.53-2.29,2.3-.38.38-1.19.36-1.54-.04-.72-.83-2.05-.84-2.75,0-.19.22-.37.31-.65.28-.19-.02-.39-.03-.57,0-.5.08-.82-.06-.97-.6-.07-.26-.08-.4.11-.58.77-.74,1.52-1.5,2.27-2.26.18-.18.36-.24.6-.24,1.08.02,2.16.02,3.24.02.66,0,1.12-.4,1.13-.98,0-.59-.46-1.01-1.14-1.02-.5,0-1,0-1.59,0,.65-.66,1.24-1.25,1.83-1.83.07-.07.23-.08.35-.08,1.09,0,2.19,0,3.28,0,.68,0,1.13-.39,1.13-.97,0-.6-.44-1-1.14-1.01-.49,0-.99,0-1.48,0-.03-.04-.06-.07-.08-.11.16-.13.33-.26.48-.4.5-.49,1-.98,1.48-1.48.38-.4.38-1.01.02-1.38-.37-.39-.99-.4-1.4,0-.57.55-1.12,1.11-1.68,1.67-.09.09-.18.17-.34.32,0-.61,0-1.14,0-1.66,0-.65-.4-1.1-.96-1.11-.58-.01-1,.44-1,1.11,0,1.09.03,2.19.01,3.28,0,.19-.09.42-.22.56-.52.56-1.08,1.1-1.62,1.64-.03-.01-.06-.02-.1-.03,0-.55,0-1.11,0-1.66-.01-.48-.34-.87-.77-.96-.44-.09-.9.15-1.08.59-.07.18-.08.4-.08.6,0,1.07.02,2.14,0,3.2,0,.17-.09.37-.2.49-.78.8-1.59,1.58-2.37,2.37-.16.16-.3.21-.48.07-.02-.02-.04-.03-.07-.03-.67-.1-.74-.55-.66-1.09.01-.1,0-.2,0-.3-.02-.4.04-.71.36-1.04.73-.74.61-1.9-.15-2.63-.11-.1-.17-.28-.2-.44-.13-.65.12-1.12.62-1.55.68-.59,1.3-1.25,1.94-1.89.31-.3.4-.67.26-1.08-.13-.38-.43-.61-.8-.59-.29.01-.63.13-.85.32-.38.32-.69.74-1.03,1.11-.05-.03-.09-.06-.14-.08,0-.5,0-1,0-1.5,0-.08.09-.17.16-.24.31-.31.62-.6.93-.91.49-.47.6-.94.34-1.38-.26-.44-.73-.56-1.44-.33,0-.34-.03-.66,0-.98.06-.62-.13-1.09-.7-1.39h-.53c-.57.26-.78.72-.74,1.33.02.35,0,.71,0,1.05-.27-.05-.52-.15-.76-.14-.38.02-.67.22-.81.59-.14.37-.1.73.18,1.03.39.4.8.78,1.18,1.19.11.12.19.32.2.49.03.42,0,.85-.08,1.32-.4-.4-.79-.81-1.19-1.21-.34-.33-.81-.39-1.19-.17-.37.21-.57.64-.44,1.08.06.21.2.41.35.57.76.78,1.54,1.55,2.32,2.32.37.37.35,1.15-.06,1.5-.86.76-.85,2.08.04,2.81.19.15.27.3.26.54-.02.38.02.76-.02,1.14-.01.12-.14.26-.25.34-.59.42-1.01.21-1.44-.31-.45-.55-1.01-1.01-1.49-1.53-.14-.15-.24-.39-.24-.59,0-1.17.04-2.34.02-3.51,0-.3-.14-.65-.33-.89-.23-.3-.61-.36-.97-.2-.41.18-.63.51-.64.95-.01.65,0,1.3,0,2.01-.12-.1-.2-.15-.26-.21-.5-.49-.98-.99-1.49-1.48-.18-.17-.26-.34-.25-.6.02-1.06.01-2.11,0-3.17,0-.65-.39-1.1-.95-1.11-.58-.01-1,.43-1.01,1.09-.01.47-.01.94-.02,1.41,0,.01,0,.02-.03.07-.09-.08-.17-.14-.25-.21-.6-.6-1.2-1.21-1.81-1.81-.46-.45-1.06-.49-1.46-.1-.41.4-.38,1.02.08,1.49.62.62,1.24,1.24,1.86,1.86.09.09.17.18.31.34-.67,0-1.26-.01-1.86,0-.47.01-.86.35-.95.79-.09.41.13.88.54,1.07.16.08.37.1.55.1,1.12,0,2.24-.02,3.36,0,.2,0,.44.11.59.25.45.4.87.85,1.37,1.34-.56,0-1.02,0-1.49,0-.48.01-.87.34-.96.78-.09.42.14.88.56,1.06.17.07.37.09.55.1,1,.02,2.01.03,3.01.05.15,0,.34.05.44.15.84.82,1.66,1.65,2.49,2.48-.12.29-.22.57-.35.84-.04.07-.17.13-.26.14-.42.01-.84.02-1.26,0-.13,0-.29-.09-.37-.19-.82-.95-2.11-.95-2.91,0-.09.11-.26.17-.41.2-.56.11-.97-.1-1.36-.53-.66-.74-1.38-1.42-2.09-2.11-.34-.33-.86-.38-1.23-.15-.36.23-.53.66-.39,1.1.06.18.18.36.32.51.36.38.74.73,1.09,1.18-.52,0-1.04,0-1.56,0-.08,0-.16-.12-.23-.19-.34-.34-.68-.69-1.02-1.03-.43-.43-.96-.51-1.37-.23-.41.29-.51.77-.27,1.33.01.03.02.07.04.14-.41,0-.8.02-1.19,0-.62-.04-1.06.18-1.32.75v.53c.3.55.78.75,1.39.69.35-.03.71,0,1.07,0-.05.24-.14.46-.13.68.02.38.22.68.58.83.38.15.76.09,1.06-.2.37-.36.72-.75,1.11-1.1.12-.11.3-.18.46-.19.44-.03.88,0,1.32,0,.03.05.06.09.09.14-.41.37-.83.73-1.23,1.12-.3.29-.32.66-.19,1.03.12.35.41.54.78.59.35.04.64-.09.89-.34.72-.73,1.46-1.45,2.17-2.2.24-.25.48-.36.83-.34.4.01.71.05,1.04.38.74.74,1.92.62,2.62-.15.1-.11.29-.2.44-.21.39-.03.79-.02,1.18,0,.11,0,.26.09.31.18.14.28.24.59.37.93-.58.57-1.21,1.15-1.77,1.78-.4.46-.84.64-1.45.61-.9-.05-1.8,0-2.71,0-.66,0-1.12.43-1.1,1.01.01.56.47.96,1.1.97.47,0,.94,0,1.41,0,.01,0,.02,0,.11.03-.29.29-.6.54-.83.84-.51.69-1.15.92-2,.84-.79-.08-1.6-.02-2.4-.02-.67,0-1.13.4-1.13.98,0,.57.45.97,1.13.98.5,0,1.01,0,1.55.09-.5.5-1,.99-1.5,1.49-.21.21-.42.41-.62.62-.38.42-.37,1,0,1.37.37.37.98.38,1.38,0,.64-.62,1.26-1.26,1.89-1.88.08-.08.16-.14.32-.28,0,.66,0,1.22,0,1.79.01.49.36.89.81.97.42.08.86-.16,1.04-.6.07-.18.09-.4.09-.6,0-1.08-.01-2.16,0-3.24,0-.17.09-.37.2-.49.48-.51.98-.99,1.47-1.49.04,0,.08.01.12.02,0,.56-.04,1.13.02,1.68.03.28.16.59.34.8.25.3.62.35.98.18.38-.18.61-.5.6-.94,0-1.04,0-2.09-.04-3.13-.02-.47.11-.81.46-1.13.6-.55,1.16-1.14,1.72-1.73.13-.14.24-.13.43-.09.75.15.87.63.81,1.29-.04.35-.06.62-.36.88-.83.72-.76,2.05.1,2.75.33.27.38,1.08.07,1.39-.79.79-1.59,1.58-2.37,2.38-.16.17-.3.38-.36.6-.12.43.08.84.44,1.05.36.21.84.16,1.16-.14.33-.31.65-.65.97-.97.09-.09.18-.16.33-.31,0,.57,0,1.06,0,1.55,0,.1-.1.2-.17.28-.33.34-.66.67-1,1-.49.49-.59.98-.3,1.42.29.45.78.54,1.49.23,0,.45.02.87,0,1.29-.04.61.17,1.06.74,1.33h.53c.56-.3.75-.77.7-1.39-.03-.38,0-.76,0-1.18.12.04.21.07.3.09.45.13.91-.03,1.14-.39.23-.37.18-.86-.14-1.2-.36-.38-.74-.73-1.11-1.1-.08-.08-.18-.2-.18-.31-.02-.48,0-.96,0-1.55.41.4.73.72,1.07,1.04.13.12.26.25.42.32.43.21.97.07,1.23-.3.26-.37.23-.9-.12-1.26-.75-.76-1.51-1.52-2.28-2.25-.24-.23-.33-.47-.33-.8,0-.41.05-.74.38-1.08.73-.74.61-1.88-.17-2.63-.1-.1-.18-.27-.19-.41-.03-.37,0-.74-.01-1.11-.01-.23.11-.27.27-.38.59-.39.97-.14,1.39.32.59.66,1.26,1.26,1.88,1.9.12.12.2.32.21.49.04.98.05,1.96.07,2.94.01.69.4,1.12,1.02,1.13.56,0,.95-.47.95-1.15,0-.35,0-.71,0-1.17.34.34.61.65.92.9.42.34.57.74.54,1.28-.05,1.03-.03,2.06-.02,3.09,0,.46.34.85.76.93.45.09.9-.13,1.09-.57.07-.17.08-.37.09-.56.02-.51.01-1.02.02-1.52,0-.02.03-.04.08-.11.4.41.8.82,1.2,1.22.29.3.59.6.89.89.42.4,1.02.41,1.4.04.4-.39.39-1-.04-1.43-.66-.67-1.33-1.33-2.09-2.08.6,0,1.1.04,1.59-.02.29-.03.61-.17.84-.36.29-.24.34-.63.18-.98-.17-.39-.47-.63-.92-.63-1.09,0-2.19,0-3.28.01-.26,0-.45-.07-.63-.26-.49-.51-1.01-1-1.57-1.55.16-.02.25-.05.34-.05.6-.02,1.2-.02,1.79-.04.51-.02.91-.41.94-.88.03-.5-.27-.88-.8-.99-.15-.03-.3-.04-.45-.04-1.14,0-2.29.03-3.43.03-.18,0-.4-.09-.53-.21-.71-.68-1.39-1.38-2.09-2.06-.16-.15-.21-.28-.1-.49.13-.24.21-.51.33-.79.5,0,.99-.01,1.49,0,.12,0,.26.09.34.18.8.88,2.06.88,2.85,0,.09-.1.27-.16.41-.19.62-.11,1.1.1,1.52.59.57.66,1.22,1.26,1.84,1.88.5.5,1.09.55,1.51.13.41-.41.36-1.01-.13-1.51-.32-.33-.64-.65-.96-.98-.01-.02-.02-.04-.04-.11.5,0,.99-.01,1.48,0,.11,0,.22.1.31.19.32.31.63.63.94.95.45.45.94.56,1.36.3.44-.27.54-.72.32-1.34,0-.02,0-.05,0-.1.35,0,.71-.03,1.06,0,.62.06,1.09-.14,1.39-.69v-.53c-.26-.57-.7-.79-1.32-.75Z" />
            <path class="cls-1" d="m101.96,0H4.43v11.09h97.53V0Z" />
            <rect class="cls-1" x="14.98" y="74.9" width="9.36" height="5" rx="1.03" ry="1.03" />
            <rect class="cls-1" x="85.51" y="74.9" width="9.36" height="5" rx="1.03" ry="1.03" />
            <path class="cls-1"
                d="m69.13,14.46c.22,1.6-.66,1.74-1.87,1.74-9.31-.03-18.63-.04-27.94,0-1.31,0-2.23-.16-2.1-1.7H4.41v12.84c3.93-1.85,8.32-2.9,12.95-2.9,16.78,0,30.38,13.6,30.38,30.38,0,6.14-1.83,11.85-4.96,16.63h59.21V14.46h-32.87Zm17.87,41.28c2.31-.02,4.63-.02,6.94,0,1.07.01,1.73.6,1.69,1.67-.04,1.07-.78,1.56-1.82,1.57-1.13.01-2.27,0-3.4,0h0c-1.13,0-2.27.02-3.4-.02-1.02-.03-1.76-.48-1.75-1.6,0-1.11.71-1.61,1.74-1.62Zm6.94,9.45c-1.18.04-2.36,0-3.55,0-1.09,0-2.18.01-3.26,0-1.09-.01-1.87-.45-1.88-1.64,0-1.11.73-1.61,1.75-1.62,2.32-.03,4.64-.04,6.95,0,1.05.02,1.73.64,1.69,1.7-.04.99-.73,1.52-1.71,1.55Z" />
        </g>
    </g>
</svg>