<svg width="1000" height="1000" class="icon icon-tabler icons-tabler-outline icon-tabler-wash-machine" stroke-linejoin="round" stroke-width="2" viewBox="0 0 64 64" xmlns="http://www.w3.org/2000/svg">
    <path style="color:#000;fill:#000;-inkscape-stroke:none" d="M6.45 2C4.72 2 3.18 3.282 3.18 5v14c0 1.718 1.54 3 3.27 3H17.8c1.73 0 3.27-1.282 3.27-3V5c0-1.718-1.54-3-3.27-3zm0 2H17.8c.778 0 1.27.509 1.27 1v14c0 .491-.492 1-1.27 1H6.45c-.778 0-1.27-.509-1.27-1V5c0-.491.492-1 1.27-1z" transform="matrix(3 0 0 3 -4.375 -4)"/>
    <path style="color:#000;fill:#000;-inkscape-stroke:none" d="M13.41 5v2h4.36V5ZM6.57 5.04v2h2v-2zM9.75 5.04v2h2v-2zM7.484 8.432v2.607l.002-.023c-.025.62.424 1.108.9 1.345.312.155.682.17 1.04.217v6.217h1.148v-6.223c.344-.047.702-.057 1.004-.205.481-.235.935-.71.928-1.334v-2.6h-1.15v2.606h-.782V8.434H9.426v2.605h-.791V8.432Zm8.373.039a.575.575 0 0 0-.623.113c-1.302 1.24-1.897 2.434-2.125 3.547-.227 1.113-.112 2.112-.107 3.012a.575.575 0 0 0 .574.572h1.479v3.09h1.15V9a.575.575 0 0 0-.348-.53Zm-.802 2.14v3.953h-.885c-.02-.753-.08-1.489.066-2.203.113-.553.402-1.137.819-1.75z" transform="matrix(3 0 0 3 -4.375 -4)"/>
</svg>
