<svg id="Calque_2" data-name="Calque 2" viewBox="-24 -5 100 100" version="1.1" width="1000" height="1000" xmlns="http://www.w3.org/2000/svg">
    <defs id="defs1">
        <style id="style1">
            
        </style>
    </defs>
    <path class="cls-1" d="M50.01 27.17H4.11C1.85 27.17 0 29.02 0 31.28v55.6c0 2.26 1.85 4.11 4.11 4.11h45.9c2.26 0 4.11-1.85 4.11-4.11v-55.6c0-2.26-1.85-4.11-4.11-4.11zM23.07 75.1c0 .74-.61 1.35-1.35 1.35h-9.41c-.74 0-1.35-.61-1.35-1.35v-.53c0-.74.61-1.35 1.35-1.35h9.41c.74 0 1.35.61 1.35 1.35zm0-8.89c0 .74-.61 1.35-1.35 1.35h-9.41c-.74 0-1.35-.61-1.35-1.35v-.53c0-.74.61-1.35 1.35-1.35h9.41c.74 0 1.35.61 1.35 1.35zm21 8.89c0 .74-.61 1.35-1.35 1.35h-9.41c-.74 0-1.35-.61-1.35-1.35v-.53c0-.74.61-1.35 1.35-1.35h9.41c.74 0 1.35.61 1.35 1.35zm0-8.89c0 .74-.61 1.35-1.35 1.35h-9.41c-.74 0-1.35-.61-1.35-1.35v-.53c0-.74.61-1.35 1.35-1.35h9.41c.74 0 1.35.61 1.35 1.35zm.76-14.54c0 .74-.61 1.35-1.35 1.35H10.64c-.74 0-1.35-.61-1.35-1.35V38.22c0-.74.61-1.35 1.35-1.35h32.84c.74 0 1.35.61 1.35 1.35z" id="path1" style="fill:#000;fill-opacity:1;stroke:none;stroke-opacity:1"/>
    <path class="cls-1" d="M13.18 8.83c.73 0 1.24-.43 1.52-.65l.12-.1c7.29-5.62 17.48-5.62 24.78 0l.1.08c.18.14.4.32.71.47.6.28 1.29.23 1.84-.12.58-.38.92-1.04.91-1.78l-.07-.56-.34-.38c-.13-.16-.32-.4-.59-.61C37.99 1.86 32.72.03 27.33 0h-.13c-5.35 0-10.58 1.78-14.74 5.01-.58.45-1.17 1.01-1.22 1.82-.03.5.17.99.55 1.38.51.51 1.04.62 1.4.62z" id="path2" style="fill:#000;fill-opacity:1;stroke:none;stroke-opacity:1"/>
    <path class="cls-1" d="M37.21 13.21c.63.1 1.51-.09 1.94-.74.42-.63.35-1.43.17-1.92-.2-.53-.61-.82-.86-.99l-.08-.06c-3.45-2.58-7.17-3.74-12.05-3.75-1.31 0-3.36.38-5.21 1.03-1.96.68-3.79 1.69-5.45 3.01-.91.72-1.07 1.85-.4 2.74.42.55.92.72 1.28.77h.23c.44.01.87-.14 1.28-.45l.29-.22c2.58-1.96 5.64-2.99 8.87-3 3.2 0 6.26 1.03 8.83 2.97l.64-.84-.55.91c.21.18.57.47 1.08.54z" id="path3" style="fill:#000;fill-opacity:1;stroke:none;stroke-opacity:1"/>
    <path class="cls-1" d="M32.23 17c.21.13.41.26.62.39 1.23.75 2.22.27 2.73-.43.54-.74.61-1.86-.45-2.72-.1-.08-.19-.16-.29-.23-2.2-1.61-4.73-2.48-7.34-2.52-2.03 0-3.57.29-5 .93-.9.41-1.72.92-2.54 1.43l-.55.34c-.5.31-.83.78-.92 1.32-.09.54.06 1.09.44 1.55.38.46.9.72 1.46.72.41 0 .83-.14 1.2-.4.07-.05.13-.1.19-.15l.1-.08c2.73-1.9 5.62-2.28 8.6-1.12.58.22 1.17.6 1.75.97z" id="path4" style="fill:#000;fill-opacity:1;stroke:none;stroke-opacity:1"/>
    <path class="cls-1" d="M24.94 19.51a2.11 2.11 0 1 0 4.22 0 2.11 2.11 0 0 0-4.22 0z" id="path5" style="fill:#000;fill-opacity:1;stroke:none;stroke-opacity:1"/>
</svg>
