<svg xmlns="http://www.w3.org/2000/svg" id="Calque_2" data-name="Calque 2" viewBox="0 0 83 83">
    <defs>
        <style>
            .cls-1 {

            }
        </style>
    </defs>
    <g id="Calque_1-2" data-name="Calque 1">
        <g>
            <path class="cls-1"
                d="m40.05,17.5c-3.77,10.88-7.53,21.72-11.3,32.6,2.48-.66,4.91-1.31,7.43-1.98-1.17,6.25-2.34,12.43-3.5,18.61.03,0,.06.02.09.03,7.45-10.3,14.91-20.61,22.39-30.96-3.16-.31-6.26-.62-9.42-.93,3.83-4.47,7.6-8.87,11.4-13.31-5.72-1.36-11.41-2.71-17.1-4.06Z" />
            <path class="cls-1"
                d="m81.13,58.79c-.31-.72-.56-1.49-1.01-2.1,1.91-4.84,2.88-9.94,2.88-15.19C83,18.62,64.38,0,41.5,0S0,18.62,0,41.5c0,15.44,8.49,29.51,22.16,36.73l1.63-3.1-1.63,3.1c5.92,3.12,12.61,4.77,19.34,4.77v-7c-5.6,0-11.16-1.37-16.08-3.97h0c-11.37-6-18.42-17.7-18.42-30.53C7,22.48,22.48,7,41.5,7s34.5,15.48,34.5,34.5c0,4.45-.84,8.78-2.49,12.87-.04.02-.09.03-.13.04-1.68.7-3.36,1.42-5.04,2.13-1.06.45-1.79,1.2-2.22,2.27l-1.78,4.41c-.71,1.71-.37,2.74,1.24,3.74l-2.36,5.84,2.37.96,2.37-5.86,7.07,2.86-2.36,5.84,2.4.97,2.37-5.85c1.62.46,2.72-.08,3.33-1.59.63-1.54,1.24-3.09,1.88-4.62.47-1.1.42-2.15-.04-3.22-.5-1.18-.98-2.34-1.49-3.5Z" />
        </g>
    </g>
</svg>