<svg width="1000" height="1000" class="icon icon-tabler icons-tabler-outline icon-tabler-wash-machine" stroke-linejoin="round" stroke-width="2" xml:space="preserve" viewBox="0 0 64 64" xmlns="http://www.w3.org/2000/svg">
    <path style="color:#000;fill:#000;-inkscape-stroke:none" d="M6.324 2c-1.73 0-3.27 1.282-3.27 3v14c0 1.718 1.54 3 3.27 3h11.352c1.73 0 3.27-1.282 3.27-3V5c0-1.718-1.54-3-3.27-3zm0 2h11.352c.777 0 1.27.509 1.27 1v14c0 .491-.493 1-1.27 1H6.324c-.777 0-1.27-.509-1.27-1V5c0-.491.493-1 1.27-1z" transform="matrix(3 0 0 3 -4 -4)"/>
    <path style="color:#000;fill:#000;-inkscape-stroke:none" d="M13.285 5v2h4.36V5zm-6.84.04v2h2v-2zm3.18 0v2h2v-2z" transform="matrix(3 0 0 3 -4 -4)"/>
    <path style="color:#000;fill:#000;stroke-linecap:round;-inkscape-stroke:none" d="M9.832 8.287c-.541-.01-.985.232-1.31.492a.575.575 0 0 0-.02.014L5.48 11.42a.575.575 0 0 0-.043.824l1.981 2.131a.575.575 0 0 0 .793.047l.334-.281.057 4.158a.575.575 0 0 0 .576.568h5.644a.575.575 0 0 0 .576-.568l.057-4.158.334.28a.575.575 0 0 0 .793-.046l1.98-2.13a.575.575 0 0 0-.042-.825l-3.022-2.627a.575.575 0 0 0-.02-.014c-.325-.26-.769-.501-1.31-.492-.18.003-.367.036-.553.102a.575.575 0 0 0-.365.402c-.136.541-.34.774-.545.912-.203.137-.45.182-.705.186-.256-.004-.502-.05-.705-.186-.205-.138-.409-.371-.545-.912a.575.575 0 0 0-.365-.402 1.741 1.741 0 0 0-.553-.102Zm-.02 1.15c.022 0 .045.01.067.012.207.49.427.977.773 1.21.455.305.949.378 1.342.382a.575.575 0 0 0 .012 0c.393-.004.887-.077 1.342-.383.346-.232.566-.718.773-1.209.022-.003.045-.011.067-.012.176-.003.38.087.57.239l.004.002 2.552 2.22-1.2 1.293-.844-.712a.575.575 0 0 0-.946.431l-.068 4.807H9.744l-.068-4.807a.575.575 0 0 0-.946-.431l-.843.712-1.201-1.293 2.552-2.22.004-.002c.19-.152.394-.242.57-.239Z" transform="matrix(3 0 0 3 -4 -4)"/>
</svg>
