<svg xmlns="http://www.w3.org/2000/svg" id="Calque_2" data-name="Calque 2" viewBox="0 0 85.14 87.77">
    <defs>
        <style>
            .cls-1 {

            }
        </style>
    </defs>
    <g id="Calque_1-2" data-name="Calque 1">
        <g>
            <path class="cls-1"
                d="m85.09,48.79c0-14.17,0-28.34,0-42.51,0-1.3-.22-2.52-.95-3.6C82.83.74,80.96,0,78.67,0,54.62.01,30.57,0,6.52,0,2.39,0,0,2.38,0,6.5c0,15.87,0,31.73,0,47.6,0,8.02,0,16.03,0,24.05,0,3.63,2.46,6.08,6.07,6.11.45,0,.9,0,1.37,0,.03.47.04.76.06,1.06.13,1.3.99,2.29,2.28,2.39,1.29.1,2.59.07,3.89,0,.92-.05,1.66-.57,2.02-1.43.23-.57.28-1.21.43-1.95h52.95c.03.22.06.38.06.54.12,1.97,1.06,2.87,3.05,2.88.63,0,1.26,0,1.9,0,2.64,0,3.35-.64,3.6-3.26,0-.05.07-.1.14-.2.23-.01.49-.06.75-.03,3.56.35,6.64-2.41,6.57-6.64-.15-9.61-.05-19.23-.05-28.84ZM61.34,5.98c2.48,0,4.49,2.03,4.5,4.53,0,2.48-2.02,4.49-4.52,4.49-2.52,0-4.48-1.98-4.48-4.51,0-2.5,2.02-4.52,4.5-4.51Zm-11.21,0c2.47,0,4.52,2.05,4.51,4.52,0,2.49-2.01,4.49-4.52,4.49-2.51,0-4.51-1.99-4.5-4.5,0-2.49,2.02-4.51,4.51-4.52ZM8.07,10.55c-.03-2.5,2.03-4.57,4.54-4.56,2.47.01,4.49,2.04,4.49,4.51,0,2.49-1.98,4.47-4.49,4.49-2.49.02-4.51-1.96-4.54-4.44Zm66.44,60.09c0,1.6-1.3,2.9-2.9,2.9H13.52c-1.6,0-2.9-1.3-2.9-2.9V23.98c0-1.6,1.3-2.9,2.9-2.9h58.08c1.6,0,2.9,1.3,2.9,2.9v46.66Zm-1.94-55.65c-2.53,0-4.52-1.95-4.53-4.46,0-2.51,1.98-4.53,4.47-4.55,2.48-.02,4.51,1.99,4.54,4.49.02,2.5-1.97,4.52-4.48,4.52Z" />
            <path class="cls-1"
                d="m53.56,45.9c-3.21-4.85-9.17-6.87-13.37-5.95,4.78,3.44,7.31,7.95,7.31,13.72,0,5.76-2.63,10.22-7.28,13.63,4.79,1.01,10.5-1.59,13.4-6.06,3.13-4.81,3.02-10.69-.06-15.34Z" />
            <path class="cls-1"
                d="m52.2,39.95c4.78,3.44,7.31,7.95,7.31,13.72,0,5.76-2.63,10.22-7.28,13.63,4.79,1.01,10.5-1.59,13.4-6.06,3.13-4.81,3.02-10.69-.06-15.34-3.21-4.85-9.17-6.87-13.37-5.95Z" />
            <path class="cls-1"
                d="m60.93,34.55c2.97.02,5.06-2.87,3.87-5.57-.16-.37-.35-.74-.55-1.1-.07-.12-.15-.24-.22-.36-.14-.23-.27-.47-.42-.69-.1-.15-.2-.3-.3-.45-.13-.19-.26-.39-.4-.58-.17-.24-.33-.47-.5-.7-.07-.09-.14-.19-.2-.28,0,0,0,0,0,0,0-.01-.02-.02-.02-.03-.61-.85-1.79-.84-2.4,0,0,0-.01.02-.02.02,0,0,0,0,0,0-.04.06-.09.12-.13.19-.19.26-.38.52-.56.79-.12.17-.23.34-.34.5-.12.17-.23.33-.34.5-.14.22-.27.44-.4.66-.08.13-.16.25-.23.38-.2.35-.39.71-.55,1.07-1.23,2.69.8,5.63,3.76,5.65Z" />
            <path class="cls-1"
                d="m37.85,30.61c0,.09,0,.18.01.27,0,.07.01.13.02.2.01.09.03.17.04.26.01.06.03.13.05.19.02.08.05.17.07.25.02.06.04.12.07.18.03.08.07.16.11.24.03.06.05.12.09.17.04.08.09.15.14.23.03.05.06.11.1.16.05.08.11.15.17.22.04.05.07.09.11.14.07.08.15.16.23.24.03.03.06.06.09.09.11.1.23.2.36.29.03.02.06.04.08.06.1.07.2.14.31.2.05.03.1.05.15.08.09.05.18.09.27.13.06.03.12.05.18.07.09.03.18.07.27.09.07.02.13.04.2.05.06.01.12.03.18.05.03,0,.05,0,.08.01.14.02.28.04.42.05.05,0,.11.01.16.01.02,0,.04,0,.06,0,3.04.1,5.2-2.9,3.94-5.67-.04-.09-.09-.18-.14-.27-.02-.05-.04-.1-.06-.15-.07-.14-.15-.27-.22-.4-.07-.14-.15-.27-.22-.41-.12-.21-.25-.42-.39-.63-.08-.12-.15-.24-.23-.36-.16-.24-.32-.47-.48-.7-.06-.09-.12-.17-.18-.26-.22-.31-.44-.61-.66-.92,0,0,0,0,0,0,0,0-.01-.02-.02-.02-.61-.84-1.81-.83-2.41.01,0,0-.01.02-.02.02,0,0,0,0,0,0-.02.03-.04.06-.06.08-.22.3-.43.61-.65.91-.13.19-.25.37-.38.56-.11.16-.22.31-.32.47-.14.22-.27.45-.41.67-.08.13-.16.26-.23.39-.2.36-.39.72-.55,1.1-.07.16-.13.32-.17.47-.02.05-.03.11-.04.16-.03.11-.05.21-.07.32-.01.06-.01.12-.02.19-.01.1-.02.19-.03.29,0,.07,0,.13,0,.2Z" />
            <path class="cls-1"
                d="m22.94,34.56c2.95.09,5.12-2.81,3.95-5.52-.66-1.53-1.69-2.93-2.67-4.3-.6-.84-1.72-.84-2.32-.02-.97,1.34-1.97,2.7-2.65,4.19-1.21,2.64.77,5.55,3.69,5.64Z" />
            <path class="cls-1"
                d="m45.07,53.6c0-7.55-6.27-13.86-13.81-13.89-7.72-.02-13.99,6.19-14,13.9-.01,7.66,6.23,13.9,13.91,13.9,7.66,0,13.89-6.23,13.9-13.91Zm-13.81-7.12c-1.48.18-2.92.42-4.19,1.36-1.84,1.36-2.82,3.13-3,5.38,0,.07,0,.13-.01.2-.03.85-.39,1.42-1.31,1.43-.8,0-1.25-.6-1.19-1.62.19-3.18,1.57-5.7,4.18-7.56,1.45-1.04,3.1-1.45,4.82-1.64.2,0,.4,0,.59,0,.74.04,1.19.43,1.22,1.18.02.74-.36,1.17-1.12,1.27Z" />
        </g>
    </g>
</svg>