<svg xmlns="http://www.w3.org/2000/svg" id="Calque_2" data-name="Calque 2" viewBox="0 0 43.68 71.34">
    <defs>
        <style>
            .cls-1 {

            }
        </style>
    </defs>
    <g id="Calque_1-2" data-name="Calque 1">
        <g>
            <path class="cls-1"
                d="m43.42,18.86h0c-.51-4.17-2.26-8.09-5.02-11.26C34.74,3.24,29.51.52,23.85.04c-.7-.07-1.41.02-2.11.02-.55,0-1.11-.09-1.65-.04C13.17.5,6.92,4.31,3.32,10.24.78,14.23-.35,18.95.09,23.66c.2,3.43,1.47,6.71,3.63,9.37,1.3,1.59,2.67,3.13,4.02,4.69,2.6,2.93,4.46,6.45,5.4,10.26.18.74.34,1.47.51,2.19h5.81v-.42c0-4.68-.03-9.36.02-14.05,1.56.3,3.17.3,4.73,0,0,4.65,0,9.31,0,13.96v.56c1.72,0,3.37,0,5.02,0,.82,0,.71.17.89-.74.59-3.39,1.94-6.6,3.95-9.39,1.5-2,3.13-3.91,4.81-5.76,3.81-4.18,5.48-9.88,4.53-15.46Z" />
            <path class="cls-1"
                d="m31.29,61.88h0c-.82-.41-.74-1.04-.73-1.71,0-.34.02-.68,0-1.01-.05-.3.11-.59.39-.71.76-.4,1.12-1.28.86-2.09-.29-.81-1.06-1.35-1.92-1.35-1.87-.01-3.74,0-5.61,0h-4.8c-2.03,0-4.07,0-6.1.03-.74.02-1.38.54-1.56,1.26-.27.7-.07,1.5.5,2,.43.38,1,.57,1.57.52,2.75,0,5.51-.01,8.26,0,.67-.06,1.27.43,1.33,1.11.01.14,0,.29-.04.43-.16.61-.74,1.01-1.37.94h-8.31c-1.05-.08-1.96.7-2.04,1.75s.7,1.96,1.75,2.04c.1,0,.21,0,.31,0,1.13,0,2.27,0,3.41,0,1.67,0,3.34,0,5.01,0,.67-.04,1.24.46,1.29,1.13,0,.15,0,.3-.05.44-.17.59-.74.97-1.35.9-1.98,0-3.98,0-5.97,0-1.04-.09-1.96.69-2.04,1.73-.09,1.04.69,1.96,1.73,2.04.09,0,.18,0,.27,0,3.84.01,7.67.02,11.51.01,1.05.02,1.92-.81,1.94-1.86,0-.45-.14-.88-.42-1.23-.08-.1-.18-.21-.19-.31-.01-.95,0-1.9,0-2.83.49,0,.97-.05,1.45-.12.72-.12,1.3-.67,1.46-1.39.24-.63.02-1.34-.54-1.72Z" />
        </g>
    </g>
</svg>