<svg xmlns="http://www.w3.org/2000/svg" id="Calque_2" data-name="Calque 2" viewBox="0 0 87.75 87.75">
    <defs>
        <style>
            .cls-1 {

            }
        </style>
    </defs>
    <g id="Calque_1-2" data-name="Calque 1">
        <path class="cls-1"
            d="m87.7,42.99c-.64-1.41-1.79-2.07-3.42-1.96-.57.04-1.17.03-1.74.02h-.16c.09-.4.18-.81.17-1.23-.03-1.08-.64-1.9-1.67-2.25-1.06-.36-2.05-.16-2.8.56-.36.35-.71.71-1.06,1.06-.5.51-.99,1.01-1.51,1.49-.19.17-.52.31-.79.33-.59.04-1.18.04-1.84.03l.1-.1c.68-.68,1.31-1.31,1.92-1.97.82-.89.95-2.26.3-3.27-.65-1.03-1.87-1.45-3.03-1.07-.57.19-1.06.59-1.37.9-1.24,1.22-2.46,2.45-3.67,3.68l-1.41,1.42c-.3.31-.8.48-1.38.46-.54-.02-1.03-.21-1.3-.52-.86-.99-2.11-1.56-3.45-1.56h-.05c-1.32.01-2.56.59-3.38,1.58-.31.37-.56.49-1.01.45-.42-.04-.91-.07-1.39,0-.96.15-1.35-.08-1.59-.97-.14-.51-.11-.58.12-.81,1.66-1.61,3.36-3.31,5.04-5.04.28-.29.55-.4.97-.38,2.4.04,4.8.04,7.21.05h0c1.75,0,2.98-1.1,3-2.67,0-.73-.25-1.38-.74-1.88-.55-.56-1.37-.88-2.29-.89-.76,0-1.52,0-2.33,0l.16-.16c1.06-1.07,2.05-2.07,3.04-3.04.03-.01.12-.05.45-.05,1.45,0,2.9,0,4.35,0h2.93c1.78,0,3-1.06,3.02-2.64,0-.73-.24-1.38-.72-1.86-.54-.56-1.37-.87-2.31-.88-.76,0-1.53,0-2.29,0h-.07c.1-.09.21-.18.31-.28,1.18-1.16,2.24-2.2,3.3-3.31,1.03-1.07,1.05-2.72.05-3.75-1.04-1.07-2.72-1.07-3.82,0-.84.81-1.65,1.63-2.47,2.45l-1.17,1.17v-.07c0-.86,0-1.67,0-2.47-.01-1.71-1.09-2.93-2.61-2.96-.72-.02-1.37.24-1.86.72-.56.54-.86,1.34-.87,2.24,0,1.03,0,2.05.02,3.08.01,1.4.03,2.8.01,4.2,0,.3-.16.69-.36.9-.84.9-1.74,1.79-2.61,2.65l-.34.34v-.19c0-.87,0-1.73,0-2.6-.03-1.29-.9-2.36-2.12-2.62-1.23-.25-2.49.42-2.96,1.61-.2.49-.22,1.03-.22,1.51,0,.95,0,1.89,0,2.84,0,1.42.02,2.85,0,4.27,0,.24-.14.57-.31.74-.93.95-1.88,1.89-2.83,2.83-.82.81-1.63,1.62-2.44,2.44-.24.24-.27.22-.42.11-.12-.09-.25-.15-.38-.17-.96-.14-1.23-.61-1.05-1.86.04-.25.02-.51,0-.77-.04-.75.05-1.3.66-1.93.81-.82,1.25-1.92,1.23-3.07-.02-1.28-.6-2.54-1.58-3.48-.13-.12-.24-.39-.31-.71-.23-1.14.14-2.02,1.22-2.96,1.14-.98,2.2-2.06,3.23-3.11.37-.37.73-.74,1.1-1.11.83-.83,1.07-1.84.69-2.93-.37-1.06-1.23-1.7-2.28-1.65-.79.04-1.63.36-2.19.83-.63.53-1.17,1.16-1.69,1.77-.03.03-.05.06-.08.09v-.04c0-.83,0-1.65,0-2.43.03-.06.16-.2.22-.25.47-.47.95-.94,1.43-1.4l.62-.6c1.57-1.53,1.32-2.85.83-3.68-.44-.75-1.34-1.51-3.13-1.13,0-.02,0-.04,0-.06-.01-.49-.02-.96.02-1.41.16-1.66-.45-2.86-1.81-3.57l-.11-.06h-1.31l-.21.05c-1.39.64-2.04,1.8-1.93,3.43.03.52.03,1.06.02,1.58,0,.03,0,.06,0,.09-.39-.1-.79-.2-1.22-.18-1.06.04-1.88.64-2.25,1.65-.39,1.08-.22,2.05.51,2.81.38.39.76.77,1.15,1.16.5.49.99.98,1.46,1.49.17.18.3.52.32.79.04.62.03,1.22-.03,1.82l-.09-.1c-.61-.63-1.23-1.26-1.86-1.87-.91-.88-2.18-1.06-3.24-.45-1.05.6-1.54,1.8-1.21,2.97.18.66.65,1.21.91,1.47,1.21,1.24,2.44,2.46,3.67,3.68l1.49,1.48c.29.29.46.78.44,1.3-.02.54-.22,1.03-.54,1.31-1.03.9-1.6,2.2-1.58,3.55.02,1.34.64,2.59,1.69,3.45.31.26.41.45.39.8-.02.38-.01.76,0,1.15,0,.48.01.92-.03,1.37-.01.06-.14.25-.34.39-.95.67-1.61.51-2.53-.6-.6-.73-1.28-1.4-1.95-2.04-.47-.45-.94-.91-1.38-1.38-.23-.25-.4-.67-.41-.97,0-1.14.01-2.28.03-3.41.02-1.44.05-2.92.02-4.38-.01-.74-.33-1.61-.84-2.27-.63-.83-1.72-1.06-2.76-.6-1.09.48-1.7,1.39-1.72,2.57-.02,1-.01,2,0,3.05v.34c-.29-.29-.57-.58-.86-.87-.72-.72-1.44-1.45-2.18-2.16-.3-.29-.41-.55-.41-.96.03-2.1.03-4.2.02-6.31v-.73c0-1.71-1.07-2.93-2.6-2.97-1.55-.03-2.72,1.16-2.76,2.92-.02.69-.02,1.38-.03,2.07v.18s-1.46-1.46-1.46-1.46c-.78-.78-1.55-1.55-2.33-2.32-1.22-1.2-2.83-1.3-3.94-.23-.5.49-.79,1.14-.79,1.82,0,.78.34,1.56.97,2.2.86.87,1.73,1.73,2.59,2.6l1.43,1.43h-.18c-.97,0-1.89-.01-2.8.01-1.25.04-2.32.92-2.59,2.15-.26,1.16.38,2.43,1.48,2.95.39.18.87.28,1.44.28.98,0,1.96,0,2.94,0,1.5,0,3-.02,4.5,0,.3,0,.71.18.98.42.7.63,1.37,1.31,2.08,2.03.03.03.05.05.08.08-.75,0-1.43,0-2.11.01-1.27.03-2.37.93-2.61,2.13-.24,1.19.4,2.42,1.53,2.92.47.21,1.01.25,1.42.26,1.02.02,2.04.04,3.05.05,1.21.02,2.42.03,3.63.07.29,0,.56.1.64.18,1.43,1.39,2.84,2.8,4.25,4.23l1.04,1.05-.09.22c-.18.44-.35.88-.53,1.25-.03.03-.14.07-.19.08-.83.03-1.8.05-2.75,0-.14,0-.37-.13-.48-.26-.98-1.13-2.27-1.75-3.63-1.75h-.02c-1.35,0-2.62.63-3.58,1.75-.08.09-.3.21-.62.28-.97.19-1.73-.12-2.55-1.02-1.23-1.37-2.57-2.67-3.86-3.94l-.8-.78c-.9-.88-2.31-1.05-3.35-.4-1.01.64-1.45,1.85-1.08,3.01.18.56.55,1.03.83,1.32.2.21.4.41.6.62.37.37.75.75,1.11,1.16-.77,0-1.54,0-2.31-.02-.04-.04-.09-.1-.13-.14l-.13-.14c-.36-.36-.72-.73-1.08-1.09-.39-.4-.79-.8-1.19-1.2-1.12-1.12-2.57-1.34-3.68-.56-.99.69-1.32,1.84-.91,3.18-.05,0-.11,0-.16,0-.61.01-1.18.02-1.75-.02-1.63-.11-2.77.55-3.42,1.96l-.04,1.52.06.11c.73,1.34,1.93,1.95,3.58,1.8.51-.05,1.03-.03,1.57-.02.04,0,.07,0,.11,0-.09.33-.16.68-.15,1.04.05,1.07.64,1.9,1.61,2.28,1.07.41,2.09.22,2.88-.55.37-.35.72-.72,1.08-1.08.45-.46.9-.92,1.37-1.36.17-.16.47-.28.71-.29.68-.04,1.38-.03,2.05-.02h.08s-.19.17-.19.17c-.65.58-1.3,1.16-1.92,1.77-.73.71-.93,1.71-.54,2.81.33.93,1.09,1.51,2.14,1.64.89.11,1.69-.19,2.39-.9.55-.55,1.1-1.11,1.65-1.66,1.07-1.07,2.14-2.14,3.18-3.24.44-.47.83-.63,1.46-.61.83.03,1.37.09,1.97.69.83.83,1.94,1.27,3.12,1.24,1.28-.03,2.53-.61,3.43-1.58.14-.15.43-.29.64-.31.76-.06,1.57-.06,2.56,0,.07,0,.23.09.26.13.21.42.38.88.56,1.37.04.12.09.23.13.35-.3.3-.62.6-.93.91-.93.9-1.9,1.84-2.79,2.84-.8.91-1.63,1.24-2.82,1.18-1.48-.08-2.99-.05-4.45-.03-.53,0-1.06.02-1.59.02-.89,0-1.68.32-2.23.88-.48.49-.73,1.15-.72,1.86.03,1.52,1.27,2.63,2.94,2.64.69,0,1.38,0,2.06,0h.15c-.39.36-.75.72-1.07,1.15-.98,1.32-2.22,1.83-4,1.66-1.29-.13-2.61-.1-3.89-.07-.5.01-1,.02-1.49.02-1.77,0-3.01,1.1-3.01,2.67,0,1.57,1.21,2.65,3,2.67h.42c.63.01,1.27.02,1.93.07l-2.96,2.94c-.35.34-.7.69-1.03,1.05-1.01,1.11-1,2.72.03,3.74,1.02,1.01,2.7,1.01,3.75,0,.96-.93,1.91-1.88,2.85-2.82l1.21-1.21v.18c0,.93,0,1.8.01,2.67.03,1.29.96,2.4,2.22,2.63,1.19.21,2.39-.47,2.86-1.63.2-.5.23-1.07.23-1.51,0-.98,0-1.96,0-2.93,0-1.42-.01-2.84,0-4.26,0-.24.14-.57.31-.76.76-.81,1.55-1.6,2.34-2.39l.31-.31c0,.06,0,.13,0,.19-.02.88-.03,1.8.05,2.7.07.7.4,1.48.88,2.06.68.82,1.74,1.02,2.77.54,1.05-.5,1.63-1.4,1.62-2.54v-1.69c0-1.73-.01-3.52-.09-5.28-.04-.91.2-1.5.86-2.11,1.1-1.01,2.16-2.11,3.18-3.16l.67-.69c.12-.12.12-.13.49-.05,1.2.24,1.55.83,1.39,2.38-.07.71-.12,1.14-.64,1.59-.95.83-1.49,2.05-1.47,3.34.02,1.37.64,2.66,1.71,3.54.23.19.4.65.42,1.16.03.51-.09.98-.31,1.2-.63.63-1.26,1.27-1.9,1.9-1.13,1.12-2.25,2.25-3.36,3.39-.45.46-.79,1.03-.93,1.56-.31,1.12.17,2.29,1.2,2.89,1.01.59,2.32.43,3.18-.38.5-.46.97-.95,1.45-1.43.21-.21.41-.42.62-.62,0,.8,0,1.54-.02,2.26,0,.02-.04.1-.24.31-.5.51-1.01,1.02-1.51,1.52l-.69.69c-1.69,1.69-1.19,3.1-.74,3.79.5.76,1.44,1.49,3.22.96,0,.07,0,.15,0,.22,0,.66.02,1.29-.02,1.91-.1,1.64.55,2.79,1.93,3.43l1.52.05.11-.06c1.35-.71,1.96-1.91,1.82-3.57-.05-.55-.04-1.11-.02-1.7,0-.06,0-.13,0-.19h.03c1.22.37,2.47-.07,3.09-1.08.64-1.03.49-2.37-.36-3.26-.45-.48-.92-.94-1.4-1.4-.36-.35-.72-.7-1.07-1.06-.24-.25-.27-.36-.27-.36-.03-.72-.03-1.43-.02-2.23.54.53,1.03,1.01,1.54,1.49.3.28.63.6,1.05.81,1.15.58,2.63.22,3.37-.81.74-1.04.61-2.49-.33-3.44-1.37-1.39-3.18-3.22-5.07-5.01-.42-.4-.58-.78-.57-1.4.01-.92.12-1.46.7-2.05.8-.82,1.24-1.9,1.22-3.03-.02-1.29-.59-2.53-1.61-3.51-.14-.13-.26-.39-.27-.59-.03-.41-.02-.83-.02-1.24,0-.4,0-.81-.01-1.21q0-.15.25-.31l.13-.08c.91-.6,1.46-.46,2.43.63.79.89,1.66,1.73,2.49,2.54.57.56,1.14,1.11,1.69,1.68.18.18.32.51.33.76.07,1.67.1,3.35.13,5.02l.03,1.49c.04,1.81,1.12,2.98,2.77,2.99.65,0,1.28-.24,1.75-.71.56-.56.87-1.39.86-2.35v-1.36c.4.42.8.82,1.24,1.17.77.62,1.07,1.33,1.01,2.44-.1,2.04-.08,4.11-.05,6.12v.77c.02,1.22.92,2.32,2.09,2.56,1.25.25,2.48-.39,2.98-1.56.19-.45.22-.94.24-1.42.02-.74.03-1.49.04-2.23v-.38s.14.14.14.14c.62.63,1.23,1.26,1.85,1.88l.34.35c.54.55,1.09,1.1,1.65,1.64,1.12,1.07,2.76,1.11,3.81.09.51-.49.79-1.15.8-1.84,0-.75-.3-1.47-.87-2.05-1.02-1.04-2.06-2.07-3.16-3.16l-.6-.6c.82.02,1.59.03,2.36-.06.76-.09,1.55-.43,2.12-.9.8-.66,1-1.73.53-2.77-.49-1.09-1.37-1.69-2.5-1.69h-1.46c-1.95,0-3.89,0-5.84.03-.44,0-.73-.11-1.03-.43-.78-.81-1.58-1.59-2.42-2.42l-.31-.3c.38,0,.75-.01,1.13-.02.84-.01,1.69-.03,2.53-.07,1.37-.06,2.47-1.1,2.56-2.42.09-1.37-.77-2.44-2.19-2.71-.35-.07-.75-.1-1.11-.1-.83,0-1.67.02-2.51.03-1.7.02-3.41.04-5.11.03-.27,0-.64-.14-.83-.33-.91-.87-1.8-1.76-2.69-2.66-.64-.65-1.29-1.29-1.94-1.93-.26-.25-.24-.29-.12-.49.22-.41.38-.84.54-1.26.03-.08.06-.15.09-.23h.55c.8,0,1.59-.01,2.39.02.09,0,.29.11.4.24.95,1.06,2.21,1.64,3.55,1.64h0c1.33,0,2.58-.58,3.52-1.62.1-.11.35-.21.63-.27,1.14-.21,2.04.14,2.91,1.15.92,1.07,1.94,2.07,2.93,3.03.4.39.79.77,1.19,1.17.69.69,1.47,1.06,2.26,1.06.67-.03,1.3-.27,1.8-.78,1.11-1.12.99-2.75-.29-4.07l-1.54-1.57c.75,0,1.5,0,2.23.02,0,0,.11.02.37.27.46.45.91.91,1.36,1.37l.71.73c1.16,1.17,2.49,1.44,3.64.73.76-.47,1.52-1.39,1.05-3.13.05,0,.09,0,.14,0,.55-.01,1.06-.02,1.57.02,1.63.15,2.84-.45,3.58-1.8l.06-.11v-1.31l-.04-.21Z" />
    </g>
</svg>