<?xml version="1.0" encoding="UTF-8" standalone="no"?>
<svg
   id="Calque_2"
   data-name="Calque 2"
   viewBox="-7 -15 128 128"
   version="1.1"
   sodipodi:docname="swb_solaire.svg"
   width="1000"
   height="1000"
   inkscape:version="1.4 (86a8ad7, 2024-10-11)"
   xmlns:inkscape="http://www.inkscape.org/namespaces/inkscape"
   xmlns:sodipodi="http://sodipodi.sourceforge.net/DTD/sodipodi-0.dtd"
   xmlns="http://www.w3.org/2000/svg"
   xmlns:svg="http://www.w3.org/2000/svg">
  <sodipodi:namedview
     id="namedview21"
     pagecolor="#ffffff"
     bordercolor="#000000"
     borderopacity="0.25"
     inkscape:showpageshadow="2"
     inkscape:pageopacity="0.0"
     inkscape:pagecheckerboard="0"
     inkscape:deskcolor="#d1d1d1"
     inkscape:zoom="0.51393417"
     inkscape:cx="469.90454"
     inkscape:cy="545.78974"
     inkscape:window-width="1920"
     inkscape:window-height="1009"
     inkscape:window-x="1912"
     inkscape:window-y="-8"
     inkscape:window-maximized="1"
     inkscape:current-layer="Calque_2" />
  <defs
     id="defs1">
    <style
       id="style1">
            .cls-1 {

            }
        </style>
  </defs>
  <path
     class="cls-1"
     d="m 52.24,28.91 c 0.45,0.15 0.93,0.2 1.4,0.29 2.69,0.48 5.39,0.95 7.87,1.39 1.2,0.03 1.96,-0.58 2.11,-1.51 0.14,-0.9 -0.4,-1.82 -1.36,-2 -3.09,-0.59 -6.19,-1.14 -9.29,-1.64 -0.9,-0.15 -1.71,0.52 -1.91,1.37 -0.21,0.92 0.27,1.81 1.18,2.11 z"
     id="path1"
     style="fill:#000000;fill-opacity:1;stroke:none" />
  <path
     class="cls-1"
     d="m 95.85,17.39 c 0.81,0.68 1.9,0.53 2.71,-0.42 1.86,-2.2 3.73,-4.4 5.56,-6.62 0.31,-0.38 0.46,-0.88 0.81,-1.57 -0.48,-0.51 -0.86,-1.14 -1.42,-1.44 -0.77,-0.41 -1.53,-0.06 -2.09,0.62 -1.87,2.23 -3.76,4.46 -5.62,6.7 -0.82,0.99 -0.78,2.03 0.06,2.74 z"
     id="path2"
     style="fill:#000000;fill-opacity:1;stroke:none" />
  <path
     class="cls-1"
     d="m 115.19,26.84 c -0.2,-0.92 -1.01,-1.56 -1.97,-1.41 -3.07,0.51 -6.13,1.05 -9.19,1.62 -0.96,0.18 -1.54,1.07 -1.42,1.97 0.12,0.92 0.88,1.56 2.15,1.57 2.88,-0.52 6.05,-1.06 9.2,-1.69 0.96,-0.19 1.43,-1.15 1.23,-2.07 z"
     id="path3"
     style="fill:#000000;fill-opacity:1;stroke:none" />
  <path
     class="cls-1"
     d="m 92.1,52.17 c -0.21,-0.53 -0.91,-0.87 -1.16,-1.09 -1.76,0 -2.52,1.08 -2.03,2.55 0.96,2.86 2,5.68 3.07,8.5 0.37,0.98 1.37,1.38 2.27,1.05 0.92,-0.34 1.44,-1.26 1.09,-2.25 -1.03,-2.94 -2.09,-5.87 -3.24,-8.77 z"
     id="path4"
     style="fill:#000000;fill-opacity:1;stroke:none" />
  <path
     class="cls-1"
     d="m 67.72,17.02 c 0.76,0.9 1.83,1.03 2.63,0.39 0.85,-0.69 0.92,-1.74 0.11,-2.73 C 68.6,12.43 66.73,10.19 64.82,7.99 64.47,7.58 63.91,7.35 63.28,6.93 c -0.57,0.45 -1.17,0.75 -1.51,1.23 -0.48,0.69 -0.29,1.44 0.25,2.08 1.9,2.26 3.78,4.53 5.69,6.78 z"
     id="path5"
     style="fill:#000000;fill-opacity:1;stroke:none" />
  <path
     class="cls-1"
     d="m 110.87,46.56 c -2.73,-1.65 -5.49,-3.25 -8.27,-4.81 -0.85,-0.47 -1.86,-0.08 -2.32,0.72 -0.46,0.81 -0.29,1.85 0.55,2.35 2.71,1.62 5.43,3.21 8.2,4.73 1.18,0.64 2.54,-0.28 2.56,-1.91 -0.14,-0.22 -0.31,-0.84 -0.72,-1.08 z"
     id="path6"
     style="fill:#000000;fill-opacity:1;stroke:none" />
  <path
     class="cls-1"
     d="m 83.15,12.76 c 1.07,-0.02 1.75,-0.83 1.76,-2.1 0,-1.44 0,-2.88 0,-4.32 0,0 0,0 0,0 0,-1.48 0.02,-2.95 0,-4.42 C 84.89,0.71 84.17,-0.01 83.1,0 c -1.06,0.02 -1.75,0.76 -1.76,1.98 -0.02,2.92 -0.02,5.83 0,8.75 0,1.24 0.77,2.06 1.83,2.04 z"
     id="path7"
     style="fill:#000000;fill-opacity:1;stroke:none" />
  <path
     class="cls-1"
     d="m 90.53,86.63 c -29.25,0 -58.5,0 -87.75,0 -0.43,0 -0.86,-0.06 -1.27,0.03 -0.27,0.06 -0.64,0.28 -0.72,0.51 -0.3,0.88 -0.5,1.79 -0.79,2.87 h 38.99 c -0.09,1.93 -0.18,3.69 -0.27,5.62 H 31.6 c -0.08,0.93 -0.14,1.7 -0.2,2.5 H 62.93 C 62.84,97.28 62.76,96.5 62.67,95.62 H 55.56 C 55.47,93.71 55.39,91.91 55.31,90.01 H 94.2 q -0.59,-3.36 -3.67,-3.36 z"
     id="path8"
     style="fill:#000000;fill-opacity:1;stroke:none" />
  <path
     class="cls-1"
     d="m 23.16,69.89 c -5.83,0 -11.39,-0.01 -16.96,0.03 -0.32,0 -0.84,0.45 -0.93,0.78 -1.2,4.16 -2.34,8.35 -3.54,12.65 h 19.31 c 0.71,-4.51 1.4,-8.9 2.12,-13.46 z"
     id="path9"
     style="fill:#000000;fill-opacity:1;stroke:none" />
  <path
     class="cls-1"
     d="m 72.94,69.89 c -0.6,0 -1.2,0 -1.9,0 0.68,4.33 1.35,8.47 1.97,12.62 0.13,0.9 0.63,0.98 1.37,0.97 4.2,-0.02 8.41,-0.01 12.61,-0.01 1.78,0 3.57,0 5.53,0 -1.24,-4.43 -2.4,-8.7 -3.67,-12.94 -0.09,-0.31 -0.86,-0.6 -1.32,-0.61 -4.86,-0.04 -9.73,-0.03 -14.59,-0.03 z"
     id="path10"
     style="fill:#000000;fill-opacity:1;stroke:none" />
  <path
     class="cls-1"
     d="M 66.92,69.98 H 49.37 V 83.37 H 68.69 C 68.1,78.88 67.52,74.49 66.92,69.98 Z"
     id="path11"
     style="fill:#000000;fill-opacity:1;stroke:none" />
  <path
     class="cls-1"
     d="m 25.52,83.38 h 19.3 V 69.99 H 27.27 c -0.59,4.5 -1.17,8.92 -1.75,13.39 z"
     id="path12"
     style="fill:#000000;fill-opacity:1;stroke:none" />
  <path
     class="cls-1"
     d="m 22.91,66.65 c 0.3,0 0.81,-0.38 0.86,-0.65 0.72,-4.22 1.37,-8.46 2.05,-12.77 H 10.09 c -1.23,4.46 -2.46,8.88 -3.72,13.45 5.69,0 11.12,0.01 16.55,-0.03 z"
     id="path13"
     style="fill:#000000;fill-opacity:1;stroke:none" />
  <path
     class="cls-1"
     d="m 84.34,54 c -0.22,-0.83 -0.72,-0.84 -1.36,-0.84 -4.53,0.01 -9.06,0 -13.59,0.01 -0.31,0 -0.61,0.08 -1.01,0.14 0.72,4.5 1.43,8.9 2.14,13.3 h 17.14 c 0,-0.26 0.04,-0.45 0,-0.63 -1.1,-4 -2.24,-7.99 -3.31,-11.99 z"
     id="path14"
     style="fill:#000000;fill-opacity:1;stroke:none" />
  <path
     class="cls-1"
     d="M 45.07,66.57 V 53.22 H 29.5 c -0.58,4.45 -1.16,8.87 -1.75,13.35 z"
     id="path15"
     style="fill:#000000;fill-opacity:1;stroke:none" />
  <path
     class="cls-1"
     d="M 64.71,53.29 H 49.13 v 13.32 h 17.35 c -0.6,-4.55 -1.19,-8.96 -1.77,-13.32 z"
     id="path16"
     style="fill:#000000;fill-opacity:1;stroke:none" />
  <path
     class="cls-1"
     d="m 45.26,36.39 c -4.24,0 -8.43,-0.02 -12.63,0.04 -0.35,0 -0.91,0.55 -1.01,0.94 -0.27,1.14 -0.36,2.33 -0.51,3.49 -0.38,2.98 -0.76,5.95 -1.16,9.02 h 15.3 V 36.39 Z"
     id="path17"
     style="fill:#000000;fill-opacity:1;stroke:none" />
  <path
     class="cls-1"
     d="m 28.5,36.4 c -4.51,0 -8.79,-0.02 -13.08,0.04 -0.31,0 -0.78,0.58 -0.9,0.98 -0.88,2.98 -1.7,5.99 -2.53,8.98 -0.31,1.12 -0.6,2.24 -0.93,3.48 h 15.31 c 0.72,-4.53 1.41,-8.93 2.13,-13.49 z"
     id="path18"
     style="fill:#000000;fill-opacity:1;stroke:none" />
  <path
     class="cls-1"
     d="M 83.12,16.98 C 74.48,17 67.53,24.01 67.55,32.69 c 0,0.31 0.01,0.63 0.03,0.94 h 14.04 l 3.97,14.28 c 7.45,-1.19 13.08,-7.55 13.1,-15.33 0.02,-8.59 -7,-15.62 -15.56,-15.61 z"
     id="path19"
     style="fill:#000000;fill-opacity:1;stroke:none" />
  <path
     class="cls-1"
     d="m 65.71,36.47 c 0.7,4.39 1.35,8.58 2.09,12.75 0.06,0.31 0.79,0.7 1.22,0.71 2.55,0.06 5.1,0.03 7.65,0.02 2.11,0 4.23,0 6.54,0 C 81.93,45.33 80.69,40.9 79.46,36.46 H 65.71 Z"
     id="path20"
     style="fill:#000000;fill-opacity:1;stroke:none" />
  <path
     class="cls-1"
     d="M 62.5,36.52 H 48.96 v 13.35 h 15.3 C 63.66,45.34 63.08,40.92 62.5,36.52 Z"
     id="path21"
     style="fill:#000000;fill-opacity:1;stroke:none" />
</svg>
