<svg xmlns="http://www.w3.org/2000/svg" id="Calque_2" data-name="Calque 2" viewBox="0 0 58.05 75.61">
    <defs>
        <style>
            .cls-1 {

            }
        </style>
    </defs>
    <g id="Calque_1-2" data-name="Calque 1">
        <g>
            <path class="cls-1"
                d="m21.54,52.41c1.08-2.71,2.48-5.14,3.71-7.29l1.15-2.01c1.95-3.39,3.97-6.9,5.77-10.4,1.15-2.24,2.24-4.53,3.26-6.84-3.43-5.98-6.74-12.03-9.62-18.31-1.14-2.48-2.2-5-3.32-7.56-.1.28-.2.56-.31.83-1.92,4.67-4.04,9.25-6.35,13.74-3,5.83-6.32,11.49-9.58,17.18-1.69,2.95-3.38,5.91-4.64,9.08-1.81,4.54-2.14,9.2-.79,13.91.98,3.42,2.83,6.37,5.41,8.82,4.48,4.24,9.95,6.14,16.03,6.36.08,0,.16,0,.24,0-.71-1.27-1.29-2.63-1.7-4.06-1.28-4.47-1.03-8.99.74-13.44Z" />
            <path class="cls-1"
                d="m57.34,55.55c-.46-1.52-1.13-2.96-1.89-4.35-1.46-2.65-2.94-5.28-4.45-7.91-2.52-4.39-4.95-8.83-7.06-13.44-.83-1.82-1.61-3.67-2.44-5.55-.08.21-.14.41-.23.61-1.41,3.43-2.96,6.79-4.66,10.08-2.2,4.28-4.64,8.43-7.03,12.6-1.24,2.17-2.48,4.34-3.4,6.66-1.33,3.33-1.57,6.75-.58,10.2.72,2.51,2.07,4.68,3.97,6.47,3.29,3.11,7.3,4.51,11.76,4.66,1.64.06,3.26-.23,4.84-.64,2.92-.76,5.48-2.18,7.58-4.32,2.17-2.22,3.58-4.88,4.09-7.98.4-2.41.21-4.78-.5-7.1Z" />
        </g>
    </g>
</svg>