<?xml version="1.0" encoding="UTF-8" standalone="no"?>
<svg
   width="1000"
   height="1000"
   viewBox="0 0 24 24"
   fill="none"
   stroke="currentColor"
   stroke-width="2"
   stroke-linecap="round"
   stroke-linejoin="round"
   class="icon icon-tabler icons-tabler-outline icon-tabler-windmill"
   version="1.1"
   id="svg5"
   sodipodi:docname="swb_vmc.svg"
   inkscape:version="1.4 (86a8ad7, 2024-10-11)"
   xmlns:inkscape="http://www.inkscape.org/namespaces/inkscape"
   xmlns:sodipodi="http://sodipodi.sourceforge.net/DTD/sodipodi-0.dtd"
   xmlns="http://www.w3.org/2000/svg"
   xmlns:svg="http://www.w3.org/2000/svg">
  <defs
     id="defs5" />
  <sodipodi:namedview
     id="namedview5"
     pagecolor="#ffffff"
     bordercolor="#000000"
     borderopacity="0.25"
     inkscape:showpageshadow="2"
     inkscape:pageopacity="0.0"
     inkscape:pagecheckerboard="0"
     inkscape:deskcolor="#d1d1d1"
     inkscape:zoom="33.625"
     inkscape:cx="12"
     inkscape:cy="12"
     inkscape:window-width="1920"
     inkscape:window-height="1009"
     inkscape:window-x="1912"
     inkscape:window-y="-8"
     inkscape:window-maximized="1"
     inkscape:current-layer="svg5" />
  <path
     stroke="none"
     d="M 0,0 H 24 V 24 H 0 Z"
     fill="none"
     id="path1" />
  <path
     d="M 12,12 C 14.76,12 17,9.99 17,7.5 17,5.01 14.76,3 12,3 Z"
     id="path2" />
  <path
     d="m 12,12 c 0,2.76 2.01,5 4.5,5 2.49,0 4.5,-2.24 4.5,-5 z"
     id="path3" />
  <path
     d="M 12,12 C 9.24,12 7,14.01 7,16.5 7,18.99 9.24,21 12,21 Z"
     id="path4" />
  <path
     d="M 12,12 C 12,9.24 9.99,7 7.5,7 5.01,7 3,9.24 3,12 Z"
     id="path5" />
</svg>
