<?xml version="1.0"?>
<svg width="24" height="24" xmlns="http://www.w3.org/2000/svg" xmlns:svg="http://www.w3.org/2000/svg" class="icon icon-tabler icons-tabler-outline icon-tabler-outlet" stroke-linejoin="round" stroke-width="2">
 <g class="layer">
  <title>Layer 1</title>
  <path d="m0,0l24,0l0,24l-24,0l0,-24z" fill="none" id="svg_1"/>
  <path d="m4,4m0,2a2,2 0 0 1 2,-2l12,0a2,2 0 0 1 2,2l0,12a2,2 0 0 1 -2,2l-12,0a2,2 0 0 1 -2,-2l0,-12z" fill="#000000" fill-opacity="0" id="svg_2" stroke="#000000" transform="matrix(1 0 0 1 0 0)"/>
  <circle cx="11.94" cy="8.64" fill="#000000" id="svg_5" r="0.5" stroke="#000000"/>
  <circle cx="14.88" cy="13.66" fill="#000000" fill-opacity="0" id="svg_7" r="1.72" stroke="#000000" stroke-width="0.95"/>
  <circle cx="8.89" cy="13.66" fill="#000000" fill-opacity="0" id="svg_8" r="1.72" stroke="#000000" stroke-width="0.95"/>
 </g>
</svg>