<?xml version="1.0" encoding="UTF-8" standalone="no"?>
<svg
   width="1000"
   height="1000"
   xml:space="preserve"
   version="1.1"
   id="svg16"
   sodipodi:docname="swb_pompe1.svg"
   inkscape:version="1.2.2 (b0a8486541, 2022-12-01)"
   xmlns:inkscape="http://www.inkscape.org/namespaces/inkscape"
   xmlns:sodipodi="http://sodipodi.sourceforge.net/DTD/sodipodi-0.dtd"
   xmlns="http://www.w3.org/2000/svg"
   xmlns:svg="http://www.w3.org/2000/svg"><defs
   id="defs20"><linearGradient
     id="linearGradient1736"
     inkscape:swatch="solid"><stop
       style="stop-color:#000000;stop-opacity:1;"
       offset="0"
       id="stop1734" /></linearGradient></defs><sodipodi:namedview
   id="namedview18"
   pagecolor="#ffffff"
   bordercolor="#000000"
   borderopacity="0.25"
   inkscape:showpageshadow="2"
   inkscape:pageopacity="0.0"
   inkscape:pagecheckerboard="0"
   inkscape:deskcolor="#d1d1d1"
   showgrid="false"
   inkscape:zoom="0.868"
   inkscape:cx="426.84332"
   inkscape:cy="500.57604"
   inkscape:window-width="1862"
   inkscape:window-height="1011"
   inkscape:window-x="1978"
   inkscape:window-y="32"
   inkscape:window-maximized="1"
   inkscape:current-layer="svg16" />
    <rect
   width="100%"
   height="100%"
   fill="#fff"
   style="fill:none;stroke:none"
   id="rect2" />
    <path
   style="display:inline;fill:none;fill-rule:nonzero;stroke:none;stroke-width:75.7576;stroke-linecap:round;stroke-linejoin:round;stroke-miterlimit:4;stroke-dasharray:none;stroke-dashoffset:0"
   d="M954.545 45.455v909.09H45.455V45.456Z"
   id="path4" />
    <path
   style="fill:none;stroke:#000;stroke-width:60;stroke-linecap:round;stroke-linejoin:round;stroke-dasharray:none;paint-order:fill markers stroke"
   d="M250 759.016V860h500V760a60 60 45 0 0-60-60H309.016A59.016 59.016 135 0 0 250 759.016Z"
   transform="translate(-84.623 10.755)"
   id="path6" />
    <path
   style="fill:none;stroke:#000;stroke-width:52.8875;stroke-linecap:round;stroke-linejoin:round;stroke-dasharray:none;paint-order:fill markers stroke"
   d="M310 739.016v380h380v-380Z"
   transform="matrix(.97348 0 0 1.29176 -71.363 -737.119)"
   id="path8" />
    <path
   style="fill:none;stroke:#000;stroke-width:80;stroke-linecap:round;stroke-linejoin:round;stroke-dasharray:none;paint-order:fill markers stroke"
   d="M370 758.189V790h260v-32.013A37.987 37.987 45 0 0 592.013 720H408.19A38.189 38.189 135 0 0 370 758.189Z"
   transform="translate(-84.623 -578.358)"
   id="path10" />
    <path
   style="fill:none;stroke:#000;stroke-width:69.9055;stroke-linecap:round;stroke-linejoin:round;stroke-dasharray:none;paint-order:fill markers stroke"
   d="M194.11 362.763s73.112-29.08 109.925-25.006c37.481 4.148 72.39 50.012 109.925 50.012 37.536 0 72.444-45.864 109.925-50.012 36.814-4.075 109.925 25.006 109.925 25.006M194.191 500.058s73.112-29.08 109.925-25.006c37.48 4.148 72.39 50.012 109.925 50.012 37.536 0 72.444-45.864 109.925-50.012 36.813-4.075 109.925 25.006 109.925 25.006"
   id="path12" />
    
<path
   style="fill:#000000;fill-opacity:1;fill-rule:evenodd;stroke:#000000;stroke-width:60;stroke-linecap:round;stroke-linejoin:round;stroke-miterlimit:100;stroke-dasharray:none"
   d="m 809.33517,258.64506 v 360.79006 l -107.61809,-186.4 z"
   id="path4076" /></svg>
