<?xml version="1.0" encoding="UTF-8" standalone="no"?>
<svg
   id="Calque_2"
   data-name="Calque 2"
   viewBox="-4 -12 98 98"
   version="1.1"
   sodipodi:docname="swb_gaz.svg"
   width="1000"
   height="1000"
   inkscape:version="1.4 (86a8ad7, 2024-10-11)"
   xmlns:inkscape="http://www.inkscape.org/namespaces/inkscape"
   xmlns:sodipodi="http://sodipodi.sourceforge.net/DTD/sodipodi-0.dtd"
   xmlns="http://www.w3.org/2000/svg"
   xmlns:svg="http://www.w3.org/2000/svg">
  <sodipodi:namedview
     id="namedview6"
     pagecolor="#ffffff"
     bordercolor="#000000"
     borderopacity="0.25"
     inkscape:showpageshadow="2"
     inkscape:pageopacity="0.0"
     inkscape:pagecheckerboard="0"
     inkscape:deskcolor="#d1d1d1"
     inkscape:zoom="0.48385156"
     inkscape:cx="56.835613"
     inkscape:cy="474.31902"
     inkscape:window-width="1920"
     inkscape:window-height="1009"
     inkscape:window-x="1912"
     inkscape:window-y="-8"
     inkscape:window-maximized="1"
     inkscape:current-layer="Calque_2" />
  <defs
     id="defs1">
    <style
       id="style1">
            .cls-1 {

            }
        </style>
  </defs>
  <path
     class="cls-1"
     d="m 78.23,47.04 c 0.04,-0.74 0,-1.49 0,-2.23 0,-0.85 -0.05,-1.71 0,-2.55 C 78.58,37.2 76.24,33.49 72.4,30.51 68.76,27.68 64.57,26 60.18,24.88 50.71,22.48 41.17,22.31 31.64,24.51 c -5.92,1.37 -11.5,3.54 -15.88,7.99 -2.37,2.41 -3.7,5.26 -3.59,8.74 0.08,2.6 0.07,5.22 -0.02,7.82 -0.02,0.66 -0.31,1.44 -0.75,1.92 -2.78,3.02 -3.01,6.88 -0.52,10.17 2.54,3.35 5.93,5.61 9.64,7.43 6.2,3.05 12.85,4.42 19.67,4.93 9.95,0.74 19.64,-0.42 28.84,-4.54 3.92,-1.76 7.47,-4.07 10.22,-7.45 2.39,-2.95 2.79,-6.69 0.49,-9.39 -1.38,-1.62 -1.61,-3.2 -1.51,-5.08 z m -57.81,10.3 c -0.17,0.1 -0.35,0.2 -0.52,0.3 -0.94,-1.28 -1.93,-2.53 -2.77,-3.88 -0.15,-0.24 0.25,-1.19 0.49,-1.23 0.59,-0.09 1.46,-0.07 1.83,0.3 1.25,1.27 1.27,2.89 0.97,4.5 z m 12.97,6.04 c -1.35,-0.35 -2.44,-0.57 -3.46,-0.95 -0.33,-0.12 -0.67,-0.64 -0.72,-1.01 -0.25,-1.87 0.86,-3.9 2.1,-3.99 1.24,-0.09 2.31,1.55 2.32,3.63 0,0.67 -0.13,1.34 -0.24,2.32 z m 11.45,1.19 c -0.77,0.03 -1.99,0.25 -1.92,-1.63 0.08,-1.98 1.04,-3.76 2.24,-3.8 1.25,-0.04 2.26,1.61 2.26,3.71 0,1.68 -0.03,1.72 -2.58,1.72 z m 15.6,-2.12 c -1.04,0.35 -2.12,0.57 -3.27,0.87 -0.65,-1.94 -0.54,-3.53 0.4,-5 0.78,-1.22 2.14,-1.3 2.8,-0.03 0.51,0.98 0.62,2.19 0.79,3.32 0.04,0.25 -0.4,0.74 -0.71,0.84 z m 12.57,-8.09 c -0.83,1.13 -1.73,2.2 -2.82,3.55 -0.65,-2.11 -0.46,-3.72 0.71,-5 0.37,-0.4 1.45,-0.48 2.05,-0.26 0.93,0.35 0.47,1.16 0.06,1.71 z m -0.69,-9.6 c -2.48,3.19 -5.91,5.04 -9.62,6.27 -12.01,3.98 -24.05,4.04 -35.93,-0.43 -2.76,-1.04 -5.39,-2.81 -7.64,-4.75 -3.6,-3.12 -3.46,-7.21 -0.05,-10.57 3.49,-3.43 7.86,-5.29 12.52,-6.29 4.45,-0.95 9,-1.41 13.5,-2.09 0.02,0.14 0.05,0.28 0.07,0.42 6.92,0.03 13.67,0.95 20.03,3.87 2.73,1.25 5.26,2.81 7.12,5.24 2.11,2.75 2.13,5.59 0,8.34 z"
     id="path1"
     style="fill:#000000;fill-opacity:1;stroke:none" />
  <path
     class="cls-1"
     d="m 26.49,24.48 c -0.52,-0.9 -1.07,-1.58 -1.31,-2.35 -0.46,-1.49 -0.97,-3.03 -1.02,-4.56 -0.03,-0.86 0.82,-1.75 1.27,-2.63 0.86,0.45 1.98,0.7 2.52,1.4 0.74,0.96 1.2,2.22 1.49,3.42 0.27,1.11 0.15,2.31 0.2,3.47 0.12,0.08 0.24,0.16 0.35,0.24 0.63,-0.81 1.39,-1.55 1.86,-2.44 C 33.99,16.98 32.8,11.8 28.97,8.54 26.76,6.66 24.44,4.92 22.22,3.16 c -1.02,2.79 -2.19,5.63 -3.11,8.55 -1.13,3.61 -0.28,6.94 2.05,9.86 1.29,1.62 2.98,2.64 5.33,2.91 z"
     id="path2"
     style="stroke:none;stroke-opacity:1;fill:#000000;fill-opacity:1" />
  <path
     class="cls-1"
     d="m 43.43,21.53 c -0.26,-1 -0.56,-1.95 -0.74,-2.92 -0.39,-2.2 -0.18,-4.29 1.72,-5.78 0.34,-0.26 1.22,-0.26 1.56,0 2.05,1.53 2.35,3.66 1.76,6 -0.23,0.9 -0.52,1.79 -0.78,2.68 0.13,0.1 0.26,0.2 0.38,0.3 0.88,-0.7 1.93,-1.27 2.63,-2.13 2.53,-3.14 3.03,-6.79 1.26,-10.31 -1.66,-3.31 -3.95,-6.29 -5.92,-9.35 -1.69,2.32 -3.31,4.54 -4.93,6.77 -1.91,2.64 -2.54,5.57 -1.99,8.77 0.5,2.95 2.61,5.49 5.04,5.99 z"
     id="path3"
     style="stroke:none;stroke-opacity:1;fill:#000000;fill-opacity:1" />
  <path
     class="cls-1"
     d="m 60.77,23.57 c 0,-1.07 -0.11,-1.83 0.02,-2.53 0.26,-1.4 0.39,-2.93 1.09,-4.09 0.55,-0.92 1.87,-1.39 2.84,-2.06 0.52,0.82 1.17,1.59 1.52,2.48 0.23,0.58 0.21,1.4 0,2 -0.6,1.7 -1.35,3.34 -2.04,4.99 5.7,-0.37 8.52,-7.95 7.15,-12.08 -1.02,-3.07 -2.1,-6.11 -3.15,-9.17 -1.73,1.38 -3.42,2.83 -5.21,4.14 -3.7,2.7 -5.69,6.21 -5.37,10.86 0.15,2.21 1.19,3.93 3.15,5.48 z"
     id="path4"
     style="stroke:none;stroke-opacity:1;fill:#000000;fill-opacity:1" />
  <path
     class="cls-1"
     d="M 12.76,31.71 C 12.84,31.7 12.89,31.57 13,31.44 11.91,30.6 10.8,29.8 9.76,28.93 8.52,27.9 7.82,26.58 7.78,24.92 7.75,23.83 8.1,23.38 9.26,23.5 c 1.95,0.2 3.21,1.31 4.16,2.87 0.65,1.08 1.18,2.23 1.85,3.51 0.21,-0.49 0.38,-0.8 0.48,-1.13 1.42,-4.89 -1.69,-10.67 -6.8,-12.31 -2.91,-0.93 -5.93,-1.5 -8.93,-2.24 0.23,2.94 0.33,5.85 0.71,8.73 0.69,5.23 6.79,9.61 12.05,8.78 z"
     id="path5"
     style="stroke:none;stroke-opacity:1;fill:#000000;fill-opacity:1" />
  <path
     class="cls-1"
     d="m 82.13,16.21 c -3.81,1.14 -6.42,3.68 -7.47,7.58 -0.53,1.96 -0.6,3.97 0.48,6.05 0.78,-1.47 1.37,-2.72 2.09,-3.89 0.87,-1.44 2.21,-2.22 3.88,-2.48 1.06,-0.17 1.43,0.23 1.48,1.26 0.08,1.62 -0.54,2.92 -1.7,3.95 -1.1,0.98 -2.3,1.84 -3.46,2.76 0.04,0.15 0.08,0.29 0.11,0.44 1.07,-0.12 2.18,-0.1 3.22,-0.37 4.64,-1.18 8.23,-3.58 8.93,-8.73 0.37,-2.75 0.35,-5.56 0.51,-8.41 -2.73,0.61 -5.46,1.06 -8.08,1.85 z"
     id="path6"
     style="stroke:none;stroke-opacity:1;fill:#000000;fill-opacity:1" />
</svg>
