<?xml version="1.0" encoding="UTF-8" standalone="no"?>
<svg
   width="1000"
   height="1000"
   class="icon icon-tabler icons-tabler-outline icon-tabler-wash-machine"
   stroke-linejoin="round"
   stroke-width="2"
   version="1.1"
   id="svg22759"
   sodipodi:docname="swb_dryer.svg"
   inkscape:version="1.4 (86a8ad7, 2024-10-11)"
   viewBox="0 0 64 64"
   xmlns:inkscape="http://www.inkscape.org/namespaces/inkscape"
   xmlns:sodipodi="http://sodipodi.sourceforge.net/DTD/sodipodi-0.dtd"
   xmlns="http://www.w3.org/2000/svg"
   xmlns:svg="http://www.w3.org/2000/svg">
  <defs
     id="defs22763" />
  <sodipodi:namedview
     id="namedview22761"
     pagecolor="#ffffff"
     bordercolor="#000000"
     borderopacity="0.25"
     inkscape:showpageshadow="2"
     inkscape:pageopacity="0.0"
     inkscape:pagecheckerboard="0"
     inkscape:deskcolor="#d1d1d1"
     showgrid="false"
     inkscape:zoom="0.1767767"
     inkscape:cx="-2027.9822"
     inkscape:cy="-506.28845"
     inkscape:window-width="1920"
     inkscape:window-height="1009"
     inkscape:window-x="1912"
     inkscape:window-y="-8"
     inkscape:window-maximized="1"
     inkscape:current-layer="svg22759" />
  <path
     style="color:#000000;fill:#000000;stroke-width:6;-inkscape-stroke:none"
     d="m 14.972656,1.9999998 c -5.1895315,0 -9.8085926,3.8460984 -9.8085926,8.9999992 V 53 c 0,5.1539 4.6190611,9 9.8085926,9 h 34.054687 c 5.189532,0 9.808594,-3.8461 9.808594,-9 V 10.999999 c 0,-5.1539008 -4.619062,-8.9999992 -9.808594,-8.9999992 z m 0,5.9999994 h 34.054687 c 2.332581,0 3.808593,1.5264927 3.808593,2.9999998 V 53 c 0,1.473506 -1.476012,3 -3.808593,3 H 14.972656 C 12.640075,56 11.16406,54.473506 11.16406,53 V 10.999999 c 0,-1.4735071 1.476015,-2.9999998 3.808596,-2.9999998 z"
     id="path18298" />
  <path
     style="color:#000000;fill:#000000;stroke-width:6;-inkscape-stroke:none"
     d="m 35.855467,10.999999 v 6 h 13.078126 v -6 z"
     id="path18292" />
  <path
     style="color:#000000;fill:#000000;stroke-width:6;-inkscape-stroke:none"
     d="m 15.335935,11.117187 v 6.000001 h 6 v -6.000001 z"
     id="path18280" />
  <path
     style="color:#000000;fill:#000000;stroke-width:6;-inkscape-stroke:none"
     d="m 24.875,11.117187 v 6.000001 h 5.999999 v -6.000001 z"
     id="path18286" />
  <path
     id="path11792"
     style="color:#000000;fill:#000000;stroke-width:5.18772;stroke-linecap:round;stroke-linejoin:round;-inkscape-stroke:none"
     d="m 22.219194,21.234915 a 1.9434274,2.0793514 0 0 0 -1.944407,2.0804 v 2.897886 c -1.165953,0.04101 -2.747638,0.09433 -2.747638,0.09433 a 1.442042,1.5428989 0 0 0 -1.390961,1.556367 l 0.08816,9.820327 a 1.442042,1.5428989 0 0 0 1.288108,1.519687 l 5.798937,0.655039 0.166523,9.988013 a 1.442042,1.5428989 0 0 0 1.439937,1.519686 h 7.08215 7.082148 a 1.442042,1.5428989 0 0 0 1.439939,-1.51969 l 0.166533,-9.988013 5.798937,-0.655039 a 1.442042,1.5428989 0 0 0 1.288108,-1.519687 l 0.08817,-9.820327 a 1.442042,1.5428989 0 0 0 -1.390982,-1.556367 c 0,0 -1.728005,-0.05795 -3.075786,-0.104808 v -2.835001 a 1.9434274,2.0793514 0 0 0 -1.944408,-2.075159 1.9434274,2.0793514 0 0 0 -1.939508,2.075159 v 2.724956 c -0.866177,-0.01839 -2.027669,-0.04716 -2.027669,-0.04716 a 1.442042,1.5428989 0 0 0 -0.04897,0 c -0.452869,0.0085 -0.924941,0.0965 -1.386065,0.272496 a 1.442042,1.5428989 0 0 0 -0.910981,1.07426 c -0.341687,1.451324 -0.852101,2.07762 -1.366472,2.447223 -0.510071,0.36651 -1.131231,0.494395 -1.772986,0.503069 -0.641755,-0.0086 -1.262914,-0.136566 -1.772985,-0.503069 C 29.712658,29.46989 29.202238,28.843594 28.860554,27.39227 A 1.442042,1.5428989 0 0 0 27.94957,26.31801 c -0.461247,-0.176045 -0.933522,-0.263929 -1.386064,-0.272496 a 1.442042,1.5428989 0 0 0 -0.04897,0 c 0,0 -1.311052,0.02967 -2.35092,0.0524 v -2.7826 a 1.9434274,2.0793514 0 0 0 -1.944408,-2.0804 z m 4.295327,7.891894 h 0.0048 c 0.04994,0.0011 0.10621,0.02442 0.156729,0.03144 0.518735,1.31975 1.074819,2.618899 1.944408,3.243748 1.140857,0.819768 2.378008,1.016894 3.364755,1.027097 a 1.442042,1.5428989 0 0 0 0.02939,0 c 0.986747,-0.0102 2.223898,-0.207318 3.364755,-1.027097 0.869589,-0.624849 1.425671,-1.924001 1.944408,-3.243748 0.05048,-0.007 0.106901,-0.03035 0.156728,-0.03144 0.05785,0.0011 2.476205,0.04923 3.6978,0.08385 1.254396,0.03558 2.698634,0.09125 3.79086,0.131013 l -0.06367,6.938157 -5.78914,0.649798 a 1.442042,1.5428989 0 0 0 -1.288108,1.509206 l -0.161528,9.841288 H 32.000002 26.333304 L 26.171679,38.438829 A 1.442042,1.5428989 0 0 0 24.88357,36.929623 l -5.789141,-0.649804 -0.06367,-6.938157 c 1.092226,-0.03976 2.536467,-0.09544 3.79086,-0.131013 1.21998,-0.03458 3.628769,-0.08261 3.692903,-0.08385 z" />
</svg>
