<?xml version="1.0" encoding="utf-8"?>
<!-- Svg Vector Icons : http://www.onlinewebfonts.com/icon -->
<!DOCTYPE svg PUBLIC "-//W3C//DTD SVG 1.1//EN" "http://www.w3.org/Graphics/SVG/1.1/DTD/svg11.dtd">
<svg version="1.1" xmlns="http://www.w3.org/2000/svg" xmlns:xlink="http://www.w3.org/1999/xlink" x="0px" y="0px" viewBox="0 0 256 256" enable-background="new 0 0 256 256" xml:space="preserve">
<metadata> Svg Vector Icons : http://www.onlinewebfonts.com/icon </metadata>
<g><g><g><path fill="#000000" d="M10,34.3v13.8h104h104v31.4v31.4h-10.3h-10.3v13.8v13.8H216c11.7,0,19.3-0.2,20.8-0.6c2.9-0.8,6.4-3.6,8-6.7l1.2-2.2V79.5c0-47.8-0.1-49.6-1-51.7c-0.6-1.1-1.9-2.9-2.9-3.9c-3.8-3.7,5.3-3.5-119.4-3.5H10V34.3z"/><path fill="#000000" d="M62.3,97.9c-2.6,1.7-3.5,4-3.5,8.8v4.2H34.4H10v13.8v13.8h24.4h24.4v47.1v47.1l1.7,1.4c1.4,1.2,2.2,1.4,4.9,1.4c3.4,0,6.1-1,6.7-2.4c0.2-0.5,0.3-6.4,0.3-13.1v-12.1h7h7v12.2v12.2l1.6,1.6c1.6,1.6,1.8,1.6,5.7,1.4c3.3-0.2,4.3-0.4,5.3-1.4c1.2-1.2,1.2-1.6,1.4-13.7l0.2-12.5h6.7h6.7l0.2,12.5c0.2,12.1,0.2,12.5,1.4,13.7c1.1,1.1,1.8,1.2,5.6,1.2c4.1,0,4.4-0.1,5.7-1.5c1.3-1.5,1.3-1.6,1.3-13.7v-12.1h6.8h6.8v11.7c0,15.3,0.3,16,7.6,16c2.9,0,3.5-0.2,4.9-1.6l1.6-1.6v-12.2v-12.2h7h7v12.1c0,6.7,0.2,12.6,0.3,13.1c0.6,1.5,3.3,2.4,6.7,2.4c2.7,0,3.5-0.2,4.9-1.4l1.7-1.4v-65c0-72.1,0.2-67.5-3.5-69.8c-1.7-1.1-2.5-1.1-58.9-1.1C65.1,96.8,63.9,96.9,62.3,97.9z"/></g></g></g>
</svg>