<?xml version="1.0"?>
<svg width="24" height="24" xmlns="http://www.w3.org/2000/svg" xmlns:svg="http://www.w3.org/2000/svg" class="icon icon-tabler icons-tabler-outline icon-tabler-cooker" stroke-linejoin="round" stroke-width="2">
 <g class="layer">
  <title>Layer 1</title>
  <path d="m0,0l24,0l0,24l-24,0l0,-24z" fill="#000000" fill-opacity="0" id="svg_1"/>
  <path d="m3.45,3m0,1.99a2.42,1.99 0 0 1 2.42,-1.99l12.11,0a2.42,1.99 0 0 1 2.42,1.99l0,13.92a2.42,1.99 0 0 1 -2.42,1.99l-12.11,0a2.42,1.99 0 0 1 -2.42,-1.99l0,-13.92z" fill="#000000" fill-opacity="0" id="svg_5" stroke="#000000" transform="matrix(1 0 0 1 0 0)"/>
  <ellipse cx="8.33" cy="8.27" fill="#000000" fill-opacity="0" id="svg_12" rx="2.32" ry="2.32" stroke="#000000" stroke-width="0.8"/>
  <ellipse cx="15.25" cy="8.25" fill="#000000" fill-opacity="0" id="svg_16" rx="2.32" ry="2.32" stroke="#000000" stroke-width="0.8"/>
  <ellipse cx="8.34" cy="15.91" fill="#000000" fill-opacity="0" id="svg_18" rx="2.32" ry="2.32" stroke="#000000" stroke-width="0.8"/>
  <ellipse cx="15.26" cy="15.88" fill="#000000" fill-opacity="0" id="svg_17" rx="2.32" ry="2.32" stroke="#000000" stroke-width="0.8"/>
 </g>
</svg>