<?xml version="1.0"?>
<svg width="24" height="24" xmlns="http://www.w3.org/2000/svg" xmlns:svg="http://www.w3.org/2000/svg" class="icon icon-tabler icons-tabler-outline icon-tabler-wash-machine" stroke-linejoin="round" stroke-width="2">
 <g class="layer">
  <title>Layer 1</title>
  <path d="m0,0l24,0l0,24l-24,0l0,-24z" fill="#000000" fill-opacity="0" id="svg_1" stroke="#000000" stroke-opacity="0" transform="matrix(1 0 0 1 0 0)"/>
  <path d="m4.18,3m0,2a2.27,2 0 0 1 2.27,-2l11.35,0a2.27,2 0 0 1 2.27,2l0,14a2.27,2 0 0 1 -2.27,2l-11.35,0a2.27,2 0 0 1 -2.27,-2l0,-14z" fill="#000000" fill-opacity="0" id="svg_2" stroke="#000000"/>
  <path d="m8,6l0.01,0" fill="#000000" fill-opacity="0" id="svg_4" stroke="#000000" transform="matrix(1 0 0 1 0 0)"/>
  <path d="m11,6l0.01,0" fill="#000000" fill-opacity="0" id="svg_5" stroke="#000000" transform="matrix(1 0 0 1 0 0)"/>
  <path d="m13.41,6l4.36,0" fill="#000000" fill-opacity="0" id="svg_6" stroke="#000000"/>
  <path d="m6.57,6.04l2,0" fill="#000000" fill-opacity="0" id="svg_8" stroke="#000000" transform="matrix(1 0 0 1 0 0)"/>
  <path d="m9.75,6.04l2,0" fill="#000000" fill-opacity="0" id="svg_9" stroke="#000000" transform="matrix(1 0 0 1 0 0)"/>
  <path d="m15.63,9l0,6.14l-2.56,0c-0.01,-1.88 0.09,-3.79 2.56,-6.14zm0,6.14l0,3.07l-0.51,0l0,-1.54m-5.12,-7.17l0,8.7m-1.54,-8.7l0,1.54a1.54,1.54 0 1 0 3.07,0l0,-1.54" fill="#000000" fill-opacity="0" id="svg_11" stroke="#000000" stroke-width="1.15"/>
 </g>
</svg>