<?xml version="1.0" encoding="UTF-8" standalone="no"?>
<svg
   width="1000"
   height="1000"
   viewBox="0 0 24 24"
   fill="none"
   stroke="currentColor"
   stroke-width="2"
   stroke-linecap="round"
   stroke-linejoin="round"
   class="icon icon-tabler icons-tabler-outline icon-tabler-lamp-2"
   version="1.1"
   id="svg6"
   sodipodi:docname="swb_ecl_cmd.svg"
   inkscape:version="1.4 (86a8ad7, 2024-10-11)"
   xmlns:inkscape="http://www.inkscape.org/namespaces/inkscape"
   xmlns:sodipodi="http://sodipodi.sourceforge.net/DTD/sodipodi-0.dtd"
   xmlns="http://www.w3.org/2000/svg"
   xmlns:svg="http://www.w3.org/2000/svg">
  <defs
     id="defs6" />
  <sodipodi:namedview
     id="namedview6"
     pagecolor="#ffffff"
     bordercolor="#000000"
     borderopacity="0.25"
     inkscape:showpageshadow="2"
     inkscape:pageopacity="0.0"
     inkscape:pagecheckerboard="0"
     inkscape:deskcolor="#d1d1d1"
     inkscape:zoom="1"
     inkscape:cx="11.5"
     inkscape:cy="11.5"
     inkscape:window-width="1920"
     inkscape:window-height="1009"
     inkscape:window-x="1912"
     inkscape:window-y="-8"
     inkscape:window-maximized="1"
     inkscape:current-layer="svg6" />
  <path
     stroke="none"
     d="M 0,0 H 24 V 24 H 0 Z"
     fill="none"
     id="path1" />
  <path
     d="m 5,21 h 9"
     id="path2" />
  <path
     d="M 10,21 3,13 11.5,7.5"
     id="path3" />
  <path
     d="M 13,14 C 10.852,11.852 10.852,8.148 13,6 15.088,3.912 18.842,4.028 21,6 Z"
     id="path4" />
  <path
     d="M 11.742,7.574 10.586,6.418 a 2.0000516,2.0000516 0 0 1 2.828,-2.829 l 1.144,1.144"
     id="path5" />
  <path
     d="m 15.5,12 0.208,0.274 a 2.527,2.527 0 0 0 3.556,0 c 0.939,-0.933 0.98,-2.42 0.122,-3.4 L 19.02,8.505"
     id="path6" />
</svg>
