<?xml version="1.0" encoding="UTF-8" standalone="no"?>
<!-- Svg Vector Icons : http://www.onlinewebfonts.com/icon -->

<svg
   version="1.1"
   x="0px"
   y="0px"
   viewBox="-17 -17 285.714 285.714"
   enable-background="new 0 0 256 256"
   xml:space="preserve"
   id="svg4"
   sodipodi:docname="swb_twldryer.svg"
   width="1000"
   height="1000"
   inkscape:version="1.4 (86a8ad7, 2024-10-11)"
   xmlns:inkscape="http://www.inkscape.org/namespaces/inkscape"
   xmlns:sodipodi="http://sodipodi.sourceforge.net/DTD/sodipodi-0.dtd"
   xmlns="http://www.w3.org/2000/svg"
   xmlns:svg="http://www.w3.org/2000/svg"><defs
   id="defs4" /><sodipodi:namedview
   id="namedview4"
   pagecolor="#ffffff"
   bordercolor="#000000"
   borderopacity="0.25"
   inkscape:showpageshadow="2"
   inkscape:pageopacity="0.0"
   inkscape:pagecheckerboard="0"
   inkscape:deskcolor="#d1d1d1"
   inkscape:zoom="0.098510742"
   inkscape:cx="-4745.6753"
   inkscape:cy="-2086.0669"
   inkscape:window-width="1920"
   inkscape:window-height="1009"
   inkscape:window-x="1912"
   inkscape:window-y="-8"
   inkscape:window-maximized="1"
   inkscape:current-layer="svg4" />
<metadata
   id="metadata1"> Svg Vector Icons : http://www.onlinewebfonts.com/icon </metadata>
<g
   id="g4"><g
     id="g3"><g
       id="g2"><path
         fill="#000000"
         d="m 10,34.3 v 13.8 h 104 104 v 31.4 31.4 h -10.3 -10.3 v 13.8 13.8 H 216 c 11.7,0 19.3,-0.2 20.8,-0.6 2.9,-0.8 6.4,-3.6 8,-6.7 L 246,129 V 79.5 c 0,-47.8 -0.1,-49.6 -1,-51.7 -0.6,-1.1 -1.9,-2.9 -2.9,-3.9 -3.8,-3.7 5.3,-3.5 -119.4,-3.5 H 10 Z"
         id="path1" /><path
         fill="#000000"
         d="m 62.3,97.9 c -2.6,1.7 -3.5,4 -3.5,8.8 v 4.2 H 34.4 10 v 13.8 13.8 h 24.4 24.4 v 47.1 47.1 l 1.7,1.4 c 1.4,1.2 2.2,1.4 4.9,1.4 3.4,0 6.1,-1 6.7,-2.4 0.2,-0.5 0.3,-6.4 0.3,-13.1 v -12.1 h 7 7 v 12.2 12.2 l 1.6,1.6 c 1.6,1.6 1.8,1.6 5.7,1.4 3.3,-0.2 4.3,-0.4 5.3,-1.4 1.2,-1.2 1.2,-1.6 1.4,-13.7 l 0.2,-12.5 h 6.7 6.7 l 0.2,12.5 c 0.2,12.1 0.2,12.5 1.4,13.7 1.1,1.1 1.8,1.2 5.6,1.2 4.1,0 4.4,-0.1 5.7,-1.5 1.3,-1.5 1.3,-1.6 1.3,-13.7 v -12.1 h 6.8 6.8 v 11.7 c 0,15.3 0.3,16 7.6,16 2.9,0 3.5,-0.2 4.9,-1.6 l 1.6,-1.6 v -12.2 -12.2 h 7 7 V 220 c 0,6.7 0.2,12.6 0.3,13.1 0.6,1.5 3.3,2.4 6.7,2.4 2.7,0 3.5,-0.2 4.9,-1.4 l 1.7,-1.4 v -65 c 0,-72.1 0.2,-67.5 -3.5,-69.8 -1.7,-1.1 -2.5,-1.1 -58.9,-1.1 -56,0 -57.2,0.1 -58.8,1.1 z"
         id="path2" /></g></g></g>
</svg>
