<svg viewBox="-17 -17 285.714 285.714" xml:space="preserve" width="1000" height="1000" xmlns="http://www.w3.org/2000/svg">
    <path d="M10 34.3v13.8h208v62.8h-20.6v27.6H216c11.7 0 19.3-.2 20.8-.6 2.9-.8 6.4-3.6 8-6.7l1.2-2.2V79.5c0-47.8-.1-49.6-1-51.7-.6-1.1-1.9-2.9-2.9-3.9-3.8-3.7 5.3-3.5-119.4-3.5H10Z"/>
    <path d="M62.3 97.9c-2.6 1.7-3.5 4-3.5 8.8v4.2H10v27.6h48.8v94.2l1.7 1.4c1.4 1.2 2.2 1.4 4.9 1.4 3.4 0 6.1-1 6.7-2.4.2-.5.3-6.4.3-13.1v-12.1h14v24.4l1.6 1.6c1.6 1.6 1.8 1.6 5.7 1.4 3.3-.2 4.3-.4 5.3-1.4 1.2-1.2 1.2-1.6 1.4-13.7l.2-12.5H114l.2 12.5c.2 12.1.2 12.5 1.4 13.7 1.1 1.1 1.8 1.2 5.6 1.2 4.1 0 4.4-.1 5.7-1.5 1.3-1.5 1.3-1.6 1.3-13.7v-12.1h13.6v11.7c0 15.3.3 16 7.6 16 2.9 0 3.5-.2 4.9-1.6l1.6-1.6v-24.4h14V220c0 6.7.2 12.6.3 13.1.6 1.5 3.3 2.4 6.7 2.4 2.7 0 3.5-.2 4.9-1.4l1.7-1.4v-65c0-72.1.2-67.5-3.5-69.8-1.7-1.1-2.5-1.1-58.9-1.1-56 0-57.2.1-58.8 1.1z"/>
</svg>
