<svg xmlns="http://www.w3.org/2000/svg" id="Calque_2" data-name="Calque 2"
    viewBox="0 0 146.28 88.05">
    <defs>
        <style>
            .cls-1 {

            }
        </style>
    </defs>
    <g id="Calque_1-2" data-name="Calque 1">
        <g>
            <path class="cls-1"
                d="m33.02,32.75c0,.44,0,.87,0,1.44.52-.19.94-.31,1.34-.49,3.51-1.54,7-3.09,10.51-4.62,9.88-4.29,19.76-8.57,29.63-12.88.29-.13.61-.59.61-.9.02-4.52-.01-9.03-.03-13.55,0-.52,0-1.04,0-1.71-.46.19-.81.31-1.14.48-3.94,2.07-7.88,4.14-11.82,6.21-9.41,4.93-18.82,9.86-28.25,14.77-.65.34-.87.72-.86,1.44.04,3.27.02,6.54.02,9.81Z" />
            <path class="cls-1"
                d="m135.15,38.89c.01-.84-.29-1.18-1.01-1.49-11.92-5.18-23.83-10.38-35.75-15.57-1.73-.76-3.47-1.5-5.32-2.29,0,6.74,0,13.28-.01,19.81,0,.65.27.88.84,1.02,4.75,1.17,9.5,2.36,14.25,3.53,7.46,1.84,14.93,3.66,22.39,5.49,1.51.37,3.01.74,4.53,1.12.05-.21.08-.29.08-.38,0-3.75-.05-7.49,0-11.24Z" />
            <path class="cls-1"
                d="m134.34,69.76c-1.83-.16-3.67-.35-5.5-.56-5.99-.69-11.97-1.39-17.96-2.09-5.64-.65-11.27-1.29-16.91-1.93-.26-.03-.52,0-.8,0-.06.17-.1.23-.1.28.01,5.83.05,11.65,0,17.48,0,.9.21,1.1,1.07,1.1,13.17-.02,26.34,0,39.52,0,.47,0,.93,0,1.37,0,.06-.2.1-.29.1-.37,0-4.34-.02-8.68,0-13.02,0-.61-.2-.83-.8-.88Z" />
            <path class="cls-1"
                d="m134.43,53.72c-1.9-.47-3.79-.95-5.69-1.42-11.51-2.83-23.03-5.67-34.55-8.5-.33-.08-.67-.1-1.05-.15-.03.22-.06.33-.06.44,0,5.14.03,10.28.02,15.42,0,2.21-.04,2.26,2.18,2.52,5.48.65,10.97,1.26,16.46,1.88,4.98.57,9.97,1.14,14.95,1.71,2.77.32,5.54.62,8.37.94.02-.3.05-.56.05-.82,0-3.74,0-7.49.03-11.23,0-.6-.31-.69-.72-.79Z" />
            <path class="cls-1"
                d="m133.09,20.86c-.25-.07-.47-.25-.71-.37-12.78-6.69-25.56-13.37-38.34-20.06-.25-.13-.52-.24-.93-.43,0,1.09,0,1.98,0,2.86,0,3.98.05,7.97-.05,11.95-.02.99.3,1.37,1.13,1.66.84.29,1.64.7,2.45,1.05,12.1,5.27,24.21,10.54,36.31,15.81.69.3,1.38.57,2.17.9,0-3.41-.11-6.65.04-9.88.08-1.76-.27-2.98-2.08-3.49Z" />
            <path class="cls-1"
                d="m146.28,13.79c0-.29-.04-.58-.06-.91h-7.72c-.02.28-.05.48-.05.69,0,17.3,0,34.6,0,51.9,0,5.97-.02,11.95-.05,17.92,0,.73.47.65.9.65,1.84.01,3.68,0,5.53,0,1.62,0,1.45.15,1.45-1.5,0-22.92,0-45.83,0-68.75Z" />
            <path class="cls-1"
                d="m75.11,19.6c-.63.23-1.13.4-1.61.61-6.45,2.81-12.89,5.63-19.34,8.44-6.83,2.98-13.66,5.95-20.5,8.89-.57.24-.65.55-.64,1.07.02,3.63,0,7.26,0,10.88,0,.26.03.52.05.93.4-.06.69-.09.97-.15,6.77-1.67,13.54-3.34,20.3-5.01,6.28-1.55,12.56-3.09,18.85-4.64q1.92-.47,1.92-2.49c0-5.71,0-11.42,0-17.13,0-.43,0-.86,0-1.41Z" />
            <path class="cls-1"
                d="m74.38,65.19c-6.84.79-13.69,1.56-20.54,2.34-4.21.48-8.42.94-12.63,1.41,2.41,4.49,3.78,9.63,3.79,15.08,3.04,0,6.08,0,9.12,0h0c6.72,0,13.44,0,20.16.02.59,0,.83-.1.83-.77-.03-5.8-.02-11.6,0-17.39,0-.55-.16-.74-.72-.68Z" />
            <path class="cls-1"
                d="m74.41,43.71c-3.66.89-7.32,1.79-10.98,2.69-9.88,2.44-19.75,4.88-29.63,7.3-.6.15-.81.36-.8,1,.03,1.46.03,2.92.02,4.39,2.41,1.94,4.54,4.22,6.31,6.77.47-.06.95-.12,1.42-.17,5.49-.62,10.98-1.21,16.47-1.83,5.69-.64,11.39-1.29,17.08-1.92.54-.06.78-.23.78-.82,0-5.05.01-10.11.02-15.16,0-.76,0-1.52,0-2.33-.36.04-.53.04-.7.08Z" />
            <path class="cls-1"
                d="m29.72,14.92c0-.51.06-1.02-.03-1.51-.04-.22-.37-.55-.57-.56-2.34-.04-4.69-.03-7.18-.03,0,.42,0,.71,0,1,0,12.28,0,24.55-.01,36.83,0,.89,0,1.77,0,2.66,2.77.8,5.38,1.96,7.79,3.44,0-13.94,0-27.89.01-41.83Z" />
            <path class="cls-1"
                d="m29.9,73.02c-.12-.15-.31-.38-.56-.58-3.96-3.13-8.95-4.87-14.07-4.9h-.12c-5.07,0-10.03,1.68-13.98,4.75-.55.42-1.11.96-1.16,1.73-.03.47.16.94.52,1.31.49.49.99.59,1.32.59.69,0,1.18-.4,1.44-.62l.11-.09c6.92-5.33,16.58-5.33,23.5,0l.1.08c.17.14.38.31.67.44.57.26,1.23.22,1.75-.11.55-.36.87-.99.87-1.69l-.07-.54-.32-.36Z" />
            <path class="cls-1"
                d="m25.83,76.61l-.08-.06c-3.28-2.45-6.8-3.54-11.43-3.55-1.24,0-3.19.36-4.94.97-1.86.64-3.6,1.6-5.16,2.85-.86.69-1.02,1.76-.38,2.6.4.52.87.68,1.21.73h.22c.42.01.82-.13,1.21-.43l.27-.21c2.45-1.86,5.35-2.84,8.41-2.84,3.04,0,5.93.98,8.38,2.82l.6-.8-.52.86c.2.17.54.44,1.02.52.6.1,1.43-.08,1.84-.7.4-.6.34-1.36.16-1.82-.19-.51-.58-.78-.81-.94Z" />
            <path class="cls-1"
                d="m22.66,81.06h0c-.09-.08-.18-.15-.28-.22-2.09-1.53-4.49-2.36-6.96-2.39-1.92,0-3.39.27-4.74.88-.85.38-1.63.87-2.41,1.35l-.52.32c-.48.29-.79.74-.88,1.25-.09.51.06,1.03.42,1.47.36.44.85.68,1.39.68.39,0,.79-.13,1.14-.38.06-.05.13-.09.18-.14l.1-.08c2.59-1.81,5.33-2.16,8.16-1.06.55.21,1.11.57,1.66.92.2.12.39.25.59.37,1.17.71,2.1.26,2.59-.4.51-.7.58-1.76-.43-2.58Z" />
            <circle class="cls-1" cx="15" cy="86.05" r="2" />
        </g>
    </g>
</svg>