<svg viewBox="0 0 256 256" xml:space="preserve" width="1000" height="1000" xmlns="http://www.w3.org/2000/svg">
    <path d="M40.3 246v-83.1c0-4.4 3.6-8 8-8h159.5c4.4 0 8 3.6 8 8V246h17.4V144.2c0-5.3-4.3-9.5-9.5-9.5H32.4c-5.3 0-9.5 4.3-9.5 9.5V246Z"/>
    <path d="M110.9 192.5c0 9.4 7.7 17.1 17.1 17.1 9.4 0 17.1-7.7 17.1-17.1 0-9.4-7.7-17.1-17.1-17.1-9.4 0-17.1 7.7-17.1 17.1zM84.7 126.74c16.6-31.2 71-32.1 86.7 0"/>
    <path d="M63.4 97.82c18.3-47.1 112.6-48.9 129.6 0"/>
    <path d="M42.1 58.5C54.6-5.3 202-7 214.9 58.5"/>
</svg>
