<svg xmlns="http://www.w3.org/2000/svg" id="Calque_2" data-name="Calque 2" viewBox="0 0 76.22 80.75">
    <defs>
        <style>
            .cls-1 {

            }
        </style>
    </defs>
    <g id="Calque_1-2" data-name="Calque 1">
        <path class="cls-1"
            d="m64.24,0H11.98C5.37,0,0,5.37,0,11.98v56.78c0,6.62,5.37,11.98,11.98,11.98h52.25c6.62,0,11.98-5.37,11.98-11.98V11.98c0-6.62-5.37-11.98-11.98-11.98Zm6.24,70.56c0,1.2-.98,2.18-2.18,2.18H7.92c-1.2,0-2.18-.98-2.18-2.18v-.51c0-1.2.98-2.18,2.18-2.18h60.38c1.2,0,2.18.98,2.18,2.18v.51Zm0-8.7c0,1.2-.98,2.18-2.18,2.18H7.92c-1.2,0-2.18-.98-2.18-2.18v-.51c0-1.2.98-2.18,2.18-2.18h60.38c1.2,0,2.18.98,2.18,2.18v.51Zm0-8.7c0,1.2-.98,2.18-2.18,2.18H7.92c-1.2,0-2.18-.98-2.18-2.18v-.51c0-1.2.98-2.18,2.18-2.18h60.38c1.2,0,2.18.98,2.18,2.18v.51Zm0-8.7c0,1.2-.98,2.18-2.18,2.18H7.92c-1.2,0-2.18-.98-2.18-2.18v-.51c0-1.2.98-2.18,2.18-2.18h60.38c1.2,0,2.18.98,2.18,2.18v.51Zm0-8.7c0,1.2-.98,2.18-2.18,2.18H7.92c-1.2,0-2.18-.98-2.18-2.18v-.51c0-1.2.98-2.18,2.18-2.18h60.38c1.2,0,2.18.98,2.18,2.18v.51Zm0-8.7c0,1.2-.98,2.18-2.18,2.18H7.92c-1.2,0-2.18-.98-2.18-2.18v-.51c0-1.2.98-2.18,2.18-2.18h60.38c1.2,0,2.18.98,2.18,2.18v.51Zm0-8.7c0,1.2-.98,2.18-2.18,2.18H7.92c-1.2,0-2.18-.98-2.18-2.18v-.51c0-1.2.98-2.18,2.18-2.18h60.38c1.2,0,2.18.98,2.18,2.18v.51Zm0-8.7c0,1.2-.98,2.18-2.18,2.18H7.92c-1.2,0-2.18-.98-2.18-2.18v-.51c0-1.2.98-2.18,2.18-2.18h60.38c1.2,0,2.18.98,2.18,2.18v.51Z" />
    </g>
</svg>