<svg xmlns="http://www.w3.org/2000/svg" id="Calque_2" data-name="Calque 2" viewBox="0 0 59.24 71.34">
    <defs>
        <style>
            .cls-1 {

            }
        </style>
    </defs>
    <g id="Calque_1-2" data-name="Calque 1">
        <g>
            <path class="cls-1"
                d="m31.29,61.88h0c-.82-.41-.74-1.04-.73-1.71,0-.34.02-.68,0-1.01-.05-.3.11-.59.39-.71.76-.4,1.12-1.28.86-2.09-.29-.81-1.06-1.35-1.92-1.35-1.87-.01-3.74,0-5.61,0h-4.8c-2.03,0-4.07,0-6.1.03-.74.02-1.38.54-1.56,1.26-.27.7-.07,1.5.5,2,.43.38,1,.57,1.57.52,2.75,0,5.5-.01,8.26,0,.67-.06,1.27.43,1.33,1.11.01.14,0,.29-.04.43-.16.61-.74,1.01-1.37.94h-8.31c-1.05-.08-1.96.7-2.04,1.75s.7,1.96,1.75,2.04c.1,0,.21,0,.31,0,1.13,0,2.27,0,3.41,0,1.67,0,3.34,0,5.01,0,.67-.04,1.24.46,1.29,1.13.01.15,0,.3-.05.44-.17.59-.74.97-1.35.9-1.98,0-3.98,0-5.97,0-1.04-.09-1.96.69-2.04,1.73-.09,1.04.69,1.96,1.73,2.04.09,0,.18,0,.27,0,3.84.01,7.67.02,11.51.01,1.05.02,1.92-.81,1.94-1.86,0-.45-.14-.88-.42-1.23-.08-.1-.18-.21-.19-.31-.01-.95,0-1.9,0-2.83.48,0,.97-.05,1.45-.12.72-.12,1.3-.67,1.46-1.39.24-.63.02-1.34-.54-1.72Z" />
            <path class="cls-1"
                d="m25.24,19.34c0-6.7,4.12-12.43,9.96-14.81C31.96,1.98,28.02.39,23.85.04c-.7-.07-1.41.02-2.11.02-.55,0-1.11-.09-1.65-.04C13.17.5,6.92,4.31,3.32,10.24.78,14.23-.35,18.95.09,23.66c.2,3.43,1.47,6.71,3.63,9.37,1.3,1.59,2.67,3.13,4.02,4.69,2.6,2.93,4.46,6.45,5.4,10.26.18.74.34,1.47.51,2.19h5.81v-.42c0-4.68-.03-9.36.02-14.05,1.56.3,3.17.3,4.73,0,0,4.65,0,9.31,0,13.96v.56c1.72,0,3.37,0,5.02,0,.82,0,.71.17.89-.74.59-3.39,1.94-6.6,3.95-9.39,1.31-1.74,2.72-3.4,4.17-5.03-7.4-1.4-13.01-7.9-13.01-15.71Z" />
            <path class="cls-1"
                d="m59.18,14.57l-.29-.32c-.11-.13-.27-.34-.5-.52-3.54-2.8-8.01-4.36-12.59-4.39h-.11c-4.54,0-8.98,1.51-12.52,4.25-.49.38-.99.86-1.04,1.54-.03.42.14.84.47,1.17.43.44.88.53,1.19.53.62,0,1.05-.36,1.29-.55l.1-.08c6.19-4.77,14.84-4.77,21.04,0l.09.07c.15.12.34.27.6.4.51.24,1.1.2,1.56-.1.49-.32.78-.88.77-1.51l-.06-.48Z" />
            <path class="cls-1"
                d="m55.25,17.45l-.07-.05c-2.93-2.19-6.09-3.17-10.23-3.18-1.11,0-2.85.33-4.42.87-1.66.58-3.22,1.44-4.62,2.55-.77.61-.91,1.57-.34,2.33.36.47.78.61,1.08.65h.2c.38.01.74-.12,1.08-.39l.25-.19c2.19-1.66,4.79-2.54,7.53-2.55,2.72,0,5.31.87,7.5,2.52l.54-.71-.47.77c.18.15.48.4.91.46.54.09,1.28-.07,1.65-.63.36-.53.3-1.21.14-1.63-.17-.45-.52-.7-.73-.84Z" />
            <path class="cls-1"
                d="m52.42,21.43h0c-.08-.07-.16-.13-.25-.2-1.87-1.37-4.02-2.11-6.23-2.14-1.72,0-3.03.24-4.24.79-.76.34-1.46.78-2.16,1.21l-.47.29c-.43.26-.71.66-.78,1.12-.08.46.05.93.37,1.32.32.39.76.61,1.24.61.35,0,.71-.12,1.02-.34.06-.04.11-.08.16-.12l.09-.07c2.32-1.62,4.77-1.93,7.3-.95.49.19,1,.51,1.48.82.17.11.35.22.53.33,1.05.63,1.88.23,2.31-.36.46-.62.52-1.58-.38-2.3Z" />
            <path class="cls-1"
                d="m45.56,24.11c-.99,0-1.79.8-1.79,1.79s.8,1.79,1.79,1.79,1.79-.8,1.79-1.79-.8-1.79-1.79-1.79Z" />
        </g>
    </g>
</svg>