<?xml version="1.0" encoding="UTF-8" standalone="no"?>
<svg
   width="1000"
   height="1000"
   viewBox="1 1 22.222 22.222"
   fill="currentColor"
   class="icon icon-tabler icons-tabler-filled icon-tabler-bulb"
   version="1.1"
   id="svg2"
   sodipodi:docname="swb_ecl2.svg"
   inkscape:version="1.4.3 (0d15f75042, 2025-12-25)"
   xmlns:inkscape="http://www.inkscape.org/namespaces/inkscape"
   xmlns:sodipodi="http://sodipodi.sourceforge.net/DTD/sodipodi-0.dtd"
   xmlns="http://www.w3.org/2000/svg"
   xmlns:svg="http://www.w3.org/2000/svg">
  <defs
     id="defs2" />
  <sodipodi:namedview
     id="namedview2"
     pagecolor="#ffffff"
     bordercolor="#000000"
     borderopacity="0.25"
     inkscape:showpageshadow="2"
     inkscape:pageopacity="0.0"
     inkscape:pagecheckerboard="0"
     inkscape:deskcolor="#d1d1d1"
     inkscape:zoom="0.799"
     inkscape:cx="499.37422"
     inkscape:cy="500"
     inkscape:window-width="1920"
     inkscape:window-height="1008"
     inkscape:window-x="0"
     inkscape:window-y="0"
     inkscape:window-maximized="1"
     inkscape:current-layer="svg2" />
  <path
     d="M0 0h24v24H0Z"
     fill="none"
     id="path1" />
  <path
     d="M4 11a1 1 0 0 1 .117 1.993L4 13H3a1 1 0 0 1-.117-1.993L3 11ZM12 2a1 1 0 0 1 .993.883L13 3v1a1 1 0 0 1-1.993.117L11 4V3a1 1 0 0 1 1-1zM21 11a1 1 0 0 1 .117 1.993L21 13h-1a1 1 0 0 1-.117-1.993L20 11ZM4.893 4.893a1 1 0 0 1 1.32-.083l.094.083.7.7a1 1 0 0 1-1.32 1.497l-.094-.083-.7-.7a1 1 0 0 1 0-1.414zM17.693 4.893a1 1 0 0 1 1.497 1.32l-.083.094-.7.7a1 1 0 0 1-1.497-1.32l.083-.094zM14 18a1 1 0 0 1 1 1 3 3 0 0 1-6 0 1 1 0 0 1 .883-.993L10 18ZM12 6a6 6 0 0 1 3.6 10.8 1 1 0 0 1-.471.192L15 17H9a1 1 0 0 1-.6-.2A6 6 0 0 1 12 6Z"
     id="path2"
     style="fill:#000000;fill-opacity:1;stroke:none;stroke-opacity:1;stroke-width:0;stroke-dasharray:none" />
</svg>
