<?xml version="1.0" encoding="utf-8"?>
<!-- Svg Vector Icons : http://www.onlinewebfonts.com/icon -->
<!DOCTYPE svg PUBLIC "-//W3C//DTD SVG 1.1//EN" "http://www.w3.org/Graphics/SVG/1.1/DTD/svg11.dtd">
<svg version="1.1" xmlns="http://www.w3.org/2000/svg" xmlns:xlink="http://www.w3.org/1999/xlink" x="0px" y="0px" viewBox="0 0 256 256" enable-background="new 0 0 256 256" xml:space="preserve">
<metadata> Svg Vector Icons : http://www.onlinewebfonts.com/icon </metadata>
<g><g><path fill="#000000" d="M40.3,246v-83.1c0-4.4,3.6-8,8-8h159.5c4.4,0,8,3.6,8,8V246h17.4V144.2c0-5.3-4.3-9.5-9.5-9.5H32.4c-5.3,0-9.5,4.3-9.5,9.5V246H40.3L40.3,246z"/><path fill="#000000" d="M110.9,192.5c0,9.4,7.7,17.1,17.1,17.1s17.1-7.7,17.1-17.1l0,0c0-9.4-7.7-17.1-17.1-17.1S110.9,183.1,110.9,192.5z"/><path fill="#000000" d="M84.7,103.7c16.6-31.2,71-32.1,86.7,0"/><path fill="#000000" d="M63.4,79.9C81.7,32.8,176,31,193,79.9"/><path fill="#000000" d="M42.1,58.5C54.6-5.3,202-7,214.9,58.5"/></g></g>
</svg>