<?xml version="1.0" encoding="UTF-8" standalone="no"?>
<svg
   width="1000"
   height="1000"
   viewBox="0 0 24 24"
   fill="none"
   stroke="currentColor"
   stroke-width="2"
   stroke-linecap="round"
   stroke-linejoin="round"
   class="icon icon-tabler icons-tabler-outline icon-tabler-car-garage"
   version="1.1"
   id="svg5"
   sodipodi:docname="swb_voitureelectrique.svg"
   inkscape:version="1.4 (86a8ad7, 2024-10-11)"
   xmlns:inkscape="http://www.inkscape.org/namespaces/inkscape"
   xmlns:sodipodi="http://sodipodi.sourceforge.net/DTD/sodipodi-0.dtd"
   xmlns="http://www.w3.org/2000/svg"
   xmlns:svg="http://www.w3.org/2000/svg">
  <defs
     id="defs5" />
  <sodipodi:namedview
     id="namedview5"
     pagecolor="#ffffff"
     bordercolor="#000000"
     borderopacity="0.25"
     inkscape:showpageshadow="2"
     inkscape:pageopacity="0.0"
     inkscape:pagecheckerboard="0"
     inkscape:deskcolor="#d1d1d1"
     inkscape:zoom="33.625"
     inkscape:cx="12"
     inkscape:cy="12"
     inkscape:window-width="1920"
     inkscape:window-height="1009"
     inkscape:window-x="1912"
     inkscape:window-y="-8"
     inkscape:window-maximized="1"
     inkscape:current-layer="svg5" />
  <path
     stroke="none"
     d="M 0,0 H 24 V 24 H 0 Z"
     fill="none"
     id="path1" />
  <path
     d="m 5,20 a 2,2 0 1 0 4,0 2,2 0 0 0 -4,0"
     id="path2" />
  <path
     d="m 15,20 a 2,2 0 1 0 4,0 2,2 0 0 0 -4,0"
     id="path3" />
  <path
     d="M 5,20 H 3 V 14 L 5,9 h 9 l 4,5 h 1 a 2,2 0 0 1 2,2 v 4 h -2 m -4,0 H 9 M 3,14 h 15 m -6,0 V 9"
     id="path4" />
  <path
     d="m 3,6 9,-4 9,4"
     id="path5" />
</svg>
