<svg width="1000" height="1000" viewBox="0 0 64 64" fill="none" stroke="currentColor" stroke-width="2" stroke-linecap="round" stroke-linejoin="round" class="icon icon-tabler icons-tabler-outline icon-tabler-pool" xmlns="http://www.w3.org/2000/svg">
    <g stroke="none">
        <path style="color:#000;fill:#000;stroke:none;stroke-width:5.43701;-inkscape-stroke:none" d="M25.981 4.485c-1.991-.042-4.036.613-5.617 2.065-1.581 1.452-2.565 3.708-2.565 6.255v22.48c1.904 1.287 3.67 1.832 5.384 1.832.018 0 .036-.005.053-.005l.001-9.337h17.644v9.3c.255.024.51.042.764.042 1.466 0 3.011-.412 4.672-1.343v-22.97c0-1.261.366-1.835.812-2.245.447-.41 1.103-.652 1.822-.637 1.436.03 2.78.611 2.803 3.138a2.719 2.719 0 1 0 5.437-.053c-.048-5.095-4.14-8.44-8.124-8.522-1.99-.042-4.036.613-5.617 2.065-1.581 1.452-2.57 3.708-2.57 6.255v9.533H23.239l-.002-9.533c0-1.262.36-1.836.807-2.246.447-.41 1.109-.652 1.827-.637 1.436.03 2.78.611 2.803 3.138a2.719 2.719 0 0 0 2.74 2.692 2.719 2.719 0 0 0 2.692-2.745c-.048-5.095-4.14-8.44-8.124-8.522z" transform="translate(.088 .43)"/>
        <path style="color:#000;fill:#000;stroke:none;stroke-width:5.43701;stroke-linejoin:round;-inkscape-stroke:none" d="M12.272 38.089c-2.97 2.557-5.539 3.51-7.948 3.388a2.719 2.719 0 0 0-2.852 2.575 2.719 2.719 0 0 0 2.575 2.85c3.445.175 6.785-1.278 9.961-3.551 2.889 2.137 5.954 3.568 9.175 3.568 3.231 0 6.336-1.425 9.308-3.558 2.884 2.13 5.938 3.558 9.154 3.558 3.224 0 6.326-1.417 9.291-3.542 2.706 2.003 5.563 3.395 8.58 3.531a2.719 2.719 0 0 0 2.836-2.596 2.719 2.719 0 0 0-2.591-2.835c-2.162-.098-4.437-1.077-6.972-3.35a2.719 2.719 0 0 0-3.589-.038c-2.809 2.418-5.274 3.393-7.555 3.393-2.282 0-4.651-.96-7.322-3.356a2.719 2.719 0 0 0-3.584-.037c-2.81 2.418-5.274 3.393-7.556 3.393-2.281 0-4.65-.96-7.322-3.356a2.719 2.719 0 0 0-3.589-.037Zm0 11.737c-2.97 2.556-5.539 3.51-7.948 3.387a2.719 2.719 0 0 0-2.852 2.575 2.719 2.719 0 0 0 2.575 2.852c3.445.174 6.785-1.28 9.961-3.553 2.889 2.138 5.954 3.568 9.175 3.568 3.231 0 6.336-1.424 9.308-3.557 2.884 2.13 5.938 3.557 9.154 3.557 3.224 0 6.326-1.417 9.291-3.541 2.706 2.003 5.563 3.395 8.58 3.53a2.719 2.719 0 0 0 2.836-2.596 2.719 2.719 0 0 0-2.591-2.835c-2.162-.097-4.437-1.076-6.972-3.35a2.719 2.719 0 0 0-3.589-.037c-2.809 2.417-5.274 3.392-7.555 3.392-2.282 0-4.651-.959-7.322-3.355a2.719 2.719 0 0 0-3.584-.037c-2.81 2.417-5.274 3.392-7.556 3.392-2.281 0-4.65-.959-7.322-3.355a2.719 2.719 0 0 0-3.589-.037z" transform="translate(.088 .43)"/>
    </g>
</svg>
