<?xml version="1.0" encoding="UTF-8" standalone="no"?>
<svg
   id="Calque_2"
   data-name="Calque 2"
   viewBox="-6 -20 118 118"
   version="1.1"
   sodipodi:docname="swb_clim.svg"
   inkscape:version="1.4 (86a8ad7, 2024-10-11)"
   width="1000"
   height="1000"
   xmlns:inkscape="http://www.inkscape.org/namespaces/inkscape"
   xmlns:sodipodi="http://sodipodi.sourceforge.net/DTD/sodipodi-0.dtd"
   xmlns="http://www.w3.org/2000/svg"
   xmlns:svg="http://www.w3.org/2000/svg">
  <sodipodi:namedview
     id="namedview3"
     pagecolor="#ffffff"
     bordercolor="#000000"
     borderopacity="0.25"
     inkscape:showpageshadow="2"
     inkscape:pageopacity="0.0"
     inkscape:pagecheckerboard="0"
     inkscape:deskcolor="#d1d1d1"
     inkscape:zoom="0.15781445"
     inkscape:cx="-1200.7772"
     inkscape:cy="-1359.1911"
     inkscape:window-width="1920"
     inkscape:window-height="1009"
     inkscape:window-x="1912"
     inkscape:window-y="-8"
     inkscape:window-maximized="1"
     inkscape:current-layer="Calque_2" />
  <defs
     id="defs1">
    <style
       id="style1">
            .cls-1 {

            }
        </style>
  </defs>
  <path
     class="cls-1"
     d="m 37.75,48.89 c -0.39,0.03 -0.78,0 -1.15,0 0.05,-0.28 0.14,-0.52 0.13,-0.77 -0.01,-0.39 -0.23,-0.68 -0.6,-0.81 -0.37,-0.13 -0.74,-0.09 -1.03,0.2 -0.39,0.38 -0.76,0.79 -1.16,1.16 -0.12,0.11 -0.32,0.2 -0.49,0.21 -0.43,0.03 -0.85,0 -1.38,0 0.47,-0.48 0.89,-0.88 1.28,-1.31 0.31,-0.33 0.34,-0.84 0.11,-1.2 -0.23,-0.36 -0.67,-0.53 -1.1,-0.39 -0.19,0.07 -0.38,0.21 -0.53,0.35 -0.77,0.76 -1.53,1.53 -2.29,2.3 -0.38,0.38 -1.19,0.36 -1.54,-0.04 -0.72,-0.83 -2.05,-0.84 -2.75,0 -0.19,0.22 -0.37,0.31 -0.65,0.28 -0.19,-0.02 -0.39,-0.03 -0.57,0 -0.5,0.08 -0.82,-0.06 -0.97,-0.6 -0.07,-0.26 -0.08,-0.4 0.11,-0.58 0.77,-0.74 1.52,-1.5 2.27,-2.26 0.18,-0.18 0.36,-0.24 0.6,-0.24 1.08,0.02 2.16,0.02 3.24,0.02 0.66,0 1.12,-0.4 1.13,-0.98 0,-0.59 -0.46,-1.01 -1.14,-1.02 -0.5,0 -1,0 -1.59,0 0.65,-0.66 1.24,-1.25 1.83,-1.83 0.07,-0.07 0.23,-0.08 0.35,-0.08 1.09,0 2.19,0 3.28,0 0.68,0 1.13,-0.39 1.13,-0.97 0,-0.6 -0.44,-1 -1.14,-1.01 -0.49,0 -0.99,0 -1.48,0 -0.03,-0.04 -0.06,-0.07 -0.08,-0.11 0.16,-0.13 0.33,-0.26 0.48,-0.4 0.5,-0.49 1,-0.98 1.48,-1.48 0.38,-0.4 0.38,-1.01 0.02,-1.38 -0.37,-0.39 -0.99,-0.4 -1.4,0 -0.57,0.55 -1.12,1.11 -1.68,1.67 -0.09,0.09 -0.18,0.17 -0.34,0.32 0,-0.61 0,-1.14 0,-1.66 0,-0.65 -0.4,-1.1 -0.96,-1.11 -0.58,-0.01 -1,0.44 -1,1.11 0,1.09 0.03,2.19 0.01,3.28 0,0.19 -0.09,0.42 -0.22,0.56 -0.52,0.56 -1.08,1.1 -1.62,1.64 -0.03,-0.01 -0.06,-0.02 -0.1,-0.03 0,-0.55 0,-1.11 0,-1.66 -0.01,-0.48 -0.34,-0.87 -0.77,-0.96 -0.44,-0.09 -0.9,0.15 -1.08,0.59 -0.07,0.18 -0.08,0.4 -0.08,0.6 0,1.07 0.02,2.14 0,3.2 0,0.17 -0.09,0.37 -0.2,0.49 -0.78,0.8 -1.59,1.58 -2.37,2.37 -0.16,0.16 -0.3,0.21 -0.48,0.07 -0.02,-0.02 -0.04,-0.03 -0.07,-0.03 -0.67,-0.1 -0.74,-0.55 -0.66,-1.09 0.01,-0.1 0,-0.2 0,-0.3 -0.02,-0.4 0.04,-0.71 0.36,-1.04 0.73,-0.74 0.61,-1.9 -0.15,-2.63 -0.11,-0.1 -0.17,-0.28 -0.2,-0.44 -0.13,-0.65 0.12,-1.12 0.62,-1.55 0.68,-0.59 1.3,-1.25 1.94,-1.89 0.31,-0.3 0.4,-0.67 0.26,-1.08 -0.13,-0.38 -0.43,-0.61 -0.8,-0.59 -0.29,0.01 -0.63,0.13 -0.85,0.32 -0.38,0.32 -0.69,0.74 -1.03,1.11 -0.05,-0.03 -0.09,-0.06 -0.14,-0.08 0,-0.5 0,-1 0,-1.5 0,-0.08 0.09,-0.17 0.16,-0.24 0.31,-0.31 0.62,-0.6 0.93,-0.91 0.49,-0.47 0.6,-0.94 0.34,-1.38 -0.26,-0.44 -0.73,-0.56 -1.44,-0.33 0,-0.34 -0.03,-0.66 0,-0.98 0.06,-0.62 -0.13,-1.09 -0.7,-1.39 H 19.3 c -0.57,0.26 -0.78,0.72 -0.74,1.33 0.02,0.35 0,0.71 0,1.05 -0.27,-0.05 -0.52,-0.15 -0.76,-0.14 -0.38,0.02 -0.67,0.22 -0.81,0.59 -0.14,0.37 -0.1,0.73 0.18,1.03 0.39,0.4 0.8,0.78 1.18,1.19 0.11,0.12 0.19,0.32 0.2,0.49 0.03,0.42 0,0.85 -0.08,1.32 -0.4,-0.4 -0.79,-0.81 -1.19,-1.21 -0.34,-0.33 -0.81,-0.39 -1.19,-0.17 -0.37,0.21 -0.57,0.64 -0.44,1.08 0.06,0.21 0.2,0.41 0.35,0.57 0.76,0.78 1.54,1.55 2.32,2.32 0.37,0.37 0.35,1.15 -0.06,1.5 -0.86,0.76 -0.85,2.08 0.04,2.81 0.19,0.15 0.27,0.3 0.26,0.54 -0.02,0.38 0.02,0.76 -0.02,1.14 -0.01,0.12 -0.14,0.26 -0.25,0.34 -0.59,0.42 -1.01,0.21 -1.44,-0.31 -0.45,-0.55 -1.01,-1.01 -1.49,-1.53 -0.14,-0.15 -0.24,-0.39 -0.24,-0.59 0,-1.17 0.04,-2.34 0.02,-3.51 0,-0.3 -0.14,-0.65 -0.33,-0.89 -0.23,-0.3 -0.61,-0.36 -0.97,-0.2 -0.41,0.18 -0.63,0.51 -0.64,0.95 -0.01,0.65 0,1.3 0,2.01 -0.12,-0.1 -0.2,-0.15 -0.26,-0.21 -0.5,-0.49 -0.98,-0.99 -1.49,-1.48 -0.18,-0.17 -0.26,-0.34 -0.25,-0.6 0.02,-1.06 0.01,-2.11 0,-3.17 0,-0.65 -0.39,-1.1 -0.95,-1.11 -0.58,-0.01 -1,0.43 -1.01,1.09 -0.01,0.47 -0.01,0.94 -0.02,1.41 0,0.01 0,0.02 -0.03,0.07 C 9.1,38.04 9.02,37.98 8.94,37.91 8.34,37.31 7.74,36.7 7.13,36.1 6.67,35.65 6.07,35.61 5.67,36 c -0.41,0.4 -0.38,1.02 0.08,1.49 0.62,0.62 1.24,1.24 1.86,1.86 0.09,0.09 0.17,0.18 0.31,0.34 -0.67,0 -1.26,-0.01 -1.86,0 -0.47,0.01 -0.86,0.35 -0.95,0.79 -0.09,0.41 0.13,0.88 0.54,1.07 0.16,0.08 0.37,0.1 0.55,0.1 1.12,0 2.24,-0.02 3.36,0 0.2,0 0.44,0.11 0.59,0.25 0.45,0.4 0.87,0.85 1.37,1.34 -0.56,0 -1.02,0 -1.49,0 -0.48,0.01 -0.87,0.34 -0.96,0.78 -0.09,0.42 0.14,0.88 0.56,1.06 0.17,0.07 0.37,0.09 0.55,0.1 1,0.02 2.01,0.03 3.01,0.05 0.15,0 0.34,0.05 0.44,0.15 0.84,0.82 1.66,1.65 2.49,2.48 -0.12,0.29 -0.22,0.57 -0.35,0.84 -0.04,0.07 -0.17,0.13 -0.26,0.14 -0.42,0.01 -0.84,0.02 -1.26,0 -0.13,0 -0.29,-0.09 -0.37,-0.19 -0.82,-0.95 -2.11,-0.95 -2.91,0 -0.09,0.11 -0.26,0.17 -0.41,0.2 C 10,48.96 9.59,48.75 9.2,48.32 8.54,47.58 7.82,46.9 7.11,46.21 6.77,45.88 6.25,45.83 5.88,46.06 c -0.36,0.23 -0.53,0.66 -0.39,1.1 0.06,0.18 0.18,0.36 0.32,0.51 0.36,0.38 0.74,0.73 1.09,1.18 -0.52,0 -1.04,0 -1.56,0 -0.08,0 -0.16,-0.12 -0.23,-0.19 C 4.77,48.32 4.43,47.97 4.09,47.63 3.66,47.2 3.13,47.12 2.72,47.4 c -0.41,0.29 -0.51,0.77 -0.27,1.33 0.01,0.03 0.02,0.07 0.04,0.14 -0.41,0 -0.8,0.02 -1.19,0 -0.62,-0.04 -1.06,0.18 -1.32,0.75 v 0.53 c 0.3,0.55 0.78,0.75 1.39,0.69 0.35,-0.03 0.71,0 1.07,0 -0.05,0.24 -0.14,0.46 -0.13,0.68 0.02,0.38 0.22,0.68 0.58,0.83 0.38,0.15 0.76,0.09 1.06,-0.2 0.37,-0.36 0.72,-0.75 1.11,-1.1 0.12,-0.11 0.3,-0.18 0.46,-0.19 0.44,-0.03 0.88,0 1.32,0 0.03,0.05 0.06,0.09 0.09,0.14 -0.41,0.37 -0.83,0.73 -1.23,1.12 -0.3,0.29 -0.32,0.66 -0.19,1.03 0.12,0.35 0.41,0.54 0.78,0.59 0.35,0.04 0.64,-0.09 0.89,-0.34 0.72,-0.73 1.46,-1.45 2.17,-2.2 0.24,-0.25 0.48,-0.36 0.83,-0.34 0.4,0.01 0.71,0.05 1.04,0.38 0.74,0.74 1.92,0.62 2.62,-0.15 0.1,-0.11 0.29,-0.2 0.44,-0.21 0.39,-0.03 0.79,-0.02 1.18,0 0.11,0 0.26,0.09 0.31,0.18 0.14,0.28 0.24,0.59 0.37,0.93 -0.58,0.57 -1.21,1.15 -1.77,1.78 -0.4,0.46 -0.84,0.64 -1.45,0.61 -0.9,-0.05 -1.8,0 -2.71,0 -0.66,0 -1.12,0.43 -1.1,1.01 0.01,0.56 0.47,0.96 1.1,0.97 0.47,0 0.94,0 1.41,0 0.01,0 0.02,0 0.11,0.03 -0.29,0.29 -0.6,0.54 -0.83,0.84 -0.51,0.69 -1.15,0.92 -2,0.84 -0.79,-0.08 -1.6,-0.02 -2.4,-0.02 -0.67,0 -1.13,0.4 -1.13,0.98 0,0.57 0.45,0.97 1.13,0.98 0.5,0 1.01,0 1.55,0.09 -0.5,0.5 -1,0.99 -1.5,1.49 -0.21,0.21 -0.42,0.41 -0.62,0.62 -0.38,0.42 -0.37,1 0,1.37 0.37,0.37 0.98,0.38 1.38,0 0.64,-0.62 1.26,-1.26 1.89,-1.88 0.08,-0.08 0.16,-0.14 0.32,-0.28 0,0.66 0,1.22 0,1.79 0.01,0.49 0.36,0.89 0.81,0.97 0.42,0.08 0.86,-0.16 1.04,-0.6 0.07,-0.18 0.09,-0.4 0.09,-0.6 0,-1.08 -0.01,-2.16 0,-3.24 0,-0.17 0.09,-0.37 0.2,-0.49 0.48,-0.51 0.98,-0.99 1.47,-1.49 0.04,0 0.08,0.01 0.12,0.02 0,0.56 -0.04,1.13 0.02,1.68 0.03,0.28 0.16,0.59 0.34,0.8 0.25,0.3 0.62,0.35 0.98,0.18 0.38,-0.18 0.61,-0.5 0.6,-0.94 0,-1.04 0,-2.09 -0.04,-3.13 -0.02,-0.47 0.11,-0.81 0.46,-1.13 0.6,-0.55 1.16,-1.14 1.72,-1.73 0.13,-0.14 0.24,-0.13 0.43,-0.09 0.75,0.15 0.87,0.63 0.81,1.29 -0.04,0.35 -0.06,0.62 -0.36,0.88 -0.83,0.72 -0.76,2.05 0.1,2.75 0.33,0.27 0.38,1.08 0.07,1.39 -0.79,0.79 -1.59,1.58 -2.37,2.38 -0.16,0.17 -0.3,0.38 -0.36,0.6 -0.12,0.43 0.08,0.84 0.44,1.05 0.36,0.21 0.84,0.16 1.16,-0.14 0.33,-0.31 0.65,-0.65 0.97,-0.97 0.09,-0.09 0.18,-0.16 0.33,-0.31 0,0.57 0,1.06 0,1.55 0,0.1 -0.1,0.2 -0.17,0.28 -0.33,0.34 -0.66,0.67 -1,1 -0.49,0.49 -0.59,0.98 -0.3,1.42 0.29,0.45 0.78,0.54 1.49,0.23 0,0.45 0.02,0.87 0,1.29 -0.04,0.61 0.17,1.06 0.74,1.33 h 0.53 c 0.56,-0.3 0.75,-0.77 0.7,-1.39 -0.03,-0.38 0,-0.76 0,-1.18 0.12,0.04 0.21,0.07 0.3,0.09 0.45,0.13 0.91,-0.03 1.14,-0.39 0.23,-0.37 0.18,-0.86 -0.14,-1.2 -0.36,-0.38 -0.74,-0.73 -1.11,-1.1 -0.08,-0.08 -0.18,-0.2 -0.18,-0.31 -0.02,-0.48 0,-0.96 0,-1.55 0.41,0.4 0.73,0.72 1.07,1.04 0.13,0.12 0.26,0.25 0.42,0.32 0.43,0.21 0.97,0.07 1.23,-0.3 0.26,-0.37 0.23,-0.9 -0.12,-1.26 -0.75,-0.76 -1.51,-1.52 -2.28,-2.25 -0.24,-0.23 -0.33,-0.47 -0.33,-0.8 0,-0.41 0.05,-0.74 0.38,-1.08 0.73,-0.74 0.61,-1.88 -0.17,-2.63 -0.1,-0.1 -0.18,-0.27 -0.19,-0.41 -0.03,-0.37 0,-0.74 -0.01,-1.11 -0.01,-0.23 0.11,-0.27 0.27,-0.38 0.59,-0.39 0.97,-0.14 1.39,0.32 0.59,0.66 1.26,1.26 1.88,1.9 0.12,0.12 0.2,0.32 0.21,0.49 0.04,0.98 0.05,1.96 0.07,2.94 0.01,0.69 0.4,1.12 1.02,1.13 0.56,0 0.95,-0.47 0.95,-1.15 0,-0.35 0,-0.71 0,-1.17 0.34,0.34 0.61,0.65 0.92,0.9 0.42,0.34 0.57,0.74 0.54,1.28 -0.05,1.03 -0.03,2.06 -0.02,3.09 0,0.46 0.34,0.85 0.76,0.93 0.45,0.09 0.9,-0.13 1.09,-0.57 0.07,-0.17 0.08,-0.37 0.09,-0.56 0.02,-0.51 0.01,-1.02 0.02,-1.52 0,-0.02 0.03,-0.04 0.08,-0.11 0.4,0.41 0.8,0.82 1.2,1.22 0.29,0.3 0.59,0.6 0.89,0.89 0.42,0.4 1.02,0.41 1.4,0.04 0.4,-0.39 0.39,-1 -0.04,-1.43 -0.66,-0.67 -1.33,-1.33 -2.09,-2.08 0.6,0 1.1,0.04 1.59,-0.02 0.29,-0.03 0.61,-0.17 0.84,-0.36 0.29,-0.24 0.34,-0.63 0.18,-0.98 -0.17,-0.39 -0.47,-0.63 -0.92,-0.63 -1.09,0 -2.19,0 -3.28,0.01 -0.26,0 -0.45,-0.07 -0.63,-0.26 -0.49,-0.51 -1.01,-1 -1.57,-1.55 0.16,-0.02 0.25,-0.05 0.34,-0.05 0.6,-0.02 1.2,-0.02 1.79,-0.04 0.51,-0.02 0.91,-0.41 0.94,-0.88 0.03,-0.5 -0.27,-0.88 -0.8,-0.99 -0.15,-0.03 -0.3,-0.04 -0.45,-0.04 -1.14,0 -2.29,0.03 -3.43,0.03 -0.18,0 -0.4,-0.09 -0.53,-0.21 -0.71,-0.68 -1.39,-1.38 -2.09,-2.06 -0.16,-0.15 -0.21,-0.28 -0.1,-0.49 0.13,-0.24 0.21,-0.51 0.33,-0.79 0.5,0 0.99,-0.01 1.49,0 0.12,0 0.26,0.09 0.34,0.18 0.8,0.88 2.06,0.88 2.85,0 0.09,-0.1 0.27,-0.16 0.41,-0.19 0.62,-0.11 1.1,0.1 1.52,0.59 0.57,0.66 1.22,1.26 1.84,1.88 0.5,0.5 1.09,0.55 1.51,0.13 0.41,-0.41 0.36,-1.01 -0.13,-1.51 -0.32,-0.33 -0.64,-0.65 -0.96,-0.98 -0.01,-0.02 -0.02,-0.04 -0.04,-0.11 0.5,0 0.99,-0.01 1.48,0 0.11,0 0.22,0.1 0.31,0.19 0.32,0.31 0.63,0.63 0.94,0.95 0.45,0.45 0.94,0.56 1.36,0.3 0.44,-0.27 0.54,-0.72 0.32,-1.34 0,-0.02 0,-0.05 0,-0.1 0.35,0 0.71,-0.03 1.06,0 0.62,0.06 1.09,-0.14 1.39,-0.69 v -0.53 c -0.26,-0.57 -0.7,-0.79 -1.32,-0.75 z"
     id="path1"
     style="fill:#000000;fill-opacity:1;stroke:none" />
  <path
     class="cls-1"
     d="M 101.96,0 H 4.43 v 11.09 h 97.53 z"
     id="path2"
     style="fill:#000000;fill-opacity:1;stroke:none" />
  <rect
     class="cls-1"
     x="14.98"
     y="74.900002"
     width="9.3599997"
     height="5"
     rx="1.03"
     ry="1.03"
     id="rect2"
     style="fill:#000000;fill-opacity:1;stroke:none" />
  <rect
     class="cls-1"
     x="85.510002"
     y="74.900002"
     width="9.3599997"
     height="5"
     rx="1.03"
     ry="1.03"
     id="rect3"
     style="fill:#000000;fill-opacity:1;stroke:none;stroke-opacity:1" />
  <path
     class="cls-1"
     d="m 69.13,14.46 c 0.22,1.6 -0.66,1.74 -1.87,1.74 -9.31,-0.03 -18.63,-0.04 -27.94,0 -1.31,0 -2.23,-0.16 -2.1,-1.7 H 4.41 v 12.84 c 3.93,-1.85 8.32,-2.9 12.95,-2.9 16.78,0 30.38,13.6 30.38,30.38 0,6.14 -1.83,11.85 -4.96,16.63 h 59.21 V 14.46 H 69.12 Z M 87,55.74 c 2.31,-0.02 4.63,-0.02 6.94,0 1.07,0.01 1.73,0.6 1.69,1.67 -0.04,1.07 -0.78,1.56 -1.82,1.57 -1.13,0.01 -2.27,0 -3.4,0 v 0 c -1.13,0 -2.27,0.02 -3.4,-0.02 -1.02,-0.03 -1.76,-0.48 -1.75,-1.6 0,-1.11 0.71,-1.61 1.74,-1.62 z m 6.94,9.45 c -1.18,0.04 -2.36,0 -3.55,0 -1.09,0 -2.18,0.01 -3.26,0 -1.09,-0.01 -1.87,-0.45 -1.88,-1.64 0,-1.11 0.73,-1.61 1.75,-1.62 2.32,-0.03 4.64,-0.04 6.95,0 1.05,0.02 1.73,0.64 1.69,1.7 -0.04,0.99 -0.73,1.52 -1.71,1.55 z"
     id="path3"
     style="fill:#000000;fill-opacity:1;stroke:none;stroke-opacity:1" />
</svg>
