<svg width="1000" height="1000" viewBox="0 0 24 24" fill="none" stroke="currentColor" stroke-width="2" stroke-linecap="round" stroke-linejoin="round" class="icon icon-tabler icons-tabler-outline icon-tabler-fridge" xmlns="http://www.w3.org/2000/svg">
    <path style="color:#000;display:inline;fill:#000;stroke:none;stroke-width:1.99243;stroke-opacity:1;-inkscape-stroke:none" d="M6.353 2.032c-1.723 0-3.257 1.277-3.257 2.988v13.948c0 1.711 1.534 2.988 3.257 2.988h11.309c1.723 0 3.257-1.277 3.257-2.988V5.02c0-1.711-1.534-2.988-3.257-2.988zm0 1.992h11.309c.774 0 1.265.507 1.265.996v3.998H5.088V5.02c0-.489.49-.996 1.265-.996zm-1.265 7.083h13.839v7.86c0 .49-.49.997-1.265.997H6.353c-.774 0-1.265-.507-1.265-.996z" stroke="none"/>
    <path d="M9 13v3M9 6v1"/>
</svg>
