<svg width="1000" height="1000" viewBox="0 0 64 64" fill="none" stroke="currentColor" stroke-width="2" stroke-linecap="round" stroke-linejoin="round" class="icon icon-tabler icons-tabler-outline icon-tabler-cooker" xmlns="http://www.w3.org/2000/svg">
    <g stroke="none">
        <path style="color:#000;fill:#000;stroke:none;-inkscape-stroke:none" d="M8.889 11.275a1 1 0 0 0-1 1 1 1 0 0 0 1 1h6a1 1 0 0 0 1-1 1 1 0 0 0-1-1z" transform="matrix(3 0 0 3 -4.059 -4.236)"/>
        <path style="color:#000;fill:#000;stroke:none;stroke-opacity:1;-inkscape-stroke:none" d="M6.344 2.079c-1.73 0-3.27 1.282-3.27 3v14c0 1.718 1.54 3 3.27 3h11.351c1.73 0 3.27-1.282 3.27-3v-14c0-1.718-1.54-3-3.27-3zm0 2h11.351c.778 0 1.27.508 1.27 1v2.664H5.075V5.079c0-.492.491-1 1.269-1zm-1.27 5.664h13.891v9.336c0 .49-.492 1-1.27 1H6.344c-.778 0-1.27-.51-1.27-1z" transform="matrix(3 0 0 3 -4.059 -4.236)"/>
        <path style="fill:#000;stroke:none;stroke-width:1.56959" d="M8.102 5.904a.993.993 0 0 1-.993.993.993.993 0 0 1-.993-.993.993.993 0 0 1 .993-.993.993.993 0 0 1 .993.993zM10.82 5.904a.993.993 0 0 1-.993.993.993.993 0 0 1-.993-.993.993.993 0 0 1 .993-.993.993.993 0 0 1 .993.993zM13.54 5.904a.993.993 0 0 1-.994.993.993.993 0 0 1-.993-.993.993.993 0 0 1 .993-.993.993.993 0 0 1 .993.993z" transform="matrix(3 0 0 3 -4.059 -4.236)"/>
    </g>
</svg>
