<?xml version="1.0" encoding="UTF-8" standalone="no"?>
<svg
   viewBox="0 0 256 256"
   xml:space="preserve"
   width="1000"
   height="1000"
   version="1.1"
   id="svg10"
   sodipodi:docname="swb_ermt.svg"
   inkscape:version="1.2.2 (b0a8486541, 2022-12-01)"
   xmlns:inkscape="http://www.inkscape.org/namespaces/inkscape"
   xmlns:sodipodi="http://sodipodi.sourceforge.net/DTD/sodipodi-0.dtd"
   xmlns="http://www.w3.org/2000/svg"
   xmlns:svg="http://www.w3.org/2000/svg"><defs
   id="defs14" /><sodipodi:namedview
   id="namedview12"
   pagecolor="#ffffff"
   bordercolor="#000000"
   borderopacity="0.25"
   inkscape:showpageshadow="2"
   inkscape:pageopacity="0.0"
   inkscape:pagecheckerboard="0"
   inkscape:deskcolor="#d1d1d1"
   showgrid="false"
   inkscape:zoom="0.868"
   inkscape:cx="426.84332"
   inkscape:cy="500.57604"
   inkscape:window-width="1862"
   inkscape:window-height="1011"
   inkscape:window-x="1978"
   inkscape:window-y="32"
   inkscape:window-maximized="1"
   inkscape:current-layer="svg10" />
    <path
   d="M40.3 246v-83.1c0-4.4 3.6-8 8-8h159.5c4.4 0 8 3.6 8 8V246h17.4V144.2c0-5.3-4.3-9.5-9.5-9.5H32.4c-5.3 0-9.5 4.3-9.5 9.5V246Z"
   id="path2"
   style="stroke:none;stroke-opacity:1;fill:#000000;fill-opacity:1" />
    <path
   d="M110.9 192.5c0 9.4 7.7 17.1 17.1 17.1 9.4 0 17.1-7.7 17.1-17.1 0-9.4-7.7-17.1-17.1-17.1-9.4 0-17.1 7.7-17.1 17.1zM84.7 126.74c16.6-31.2 71-32.1 86.7 0"
   id="path4"
   style="fill:#000000;fill-opacity:1;stroke:none;stroke-opacity:1" />
    <path
   d="M63.4 97.82c18.3-47.1 112.6-48.9 129.6 0"
   id="path6"
   style="stroke:none;stroke-opacity:1;fill:#000000;fill-opacity:1" />
    <path
   d="M42.1 58.5C54.6-5.3 202-7 214.9 58.5"
   id="path8"
   style="fill:#000000;fill-opacity:1;stroke:none" />
</svg>
