<?xml version="1.0" encoding="UTF-8" standalone="no"?>
<svg
   width="1000"
   height="1000"
   viewBox="0 0 25 25"
   fill="none"
   stroke="currentColor"
   stroke-width="2"
   stroke-linecap="round"
   stroke-linejoin="round"
   class="icon icon-tabler icons-tabler-outline icon-tabler-soup"
   version="1.1"
   id="svg5"
   sodipodi:docname="swb_soup.svg"
   inkscape:version="1.4.3 (0d15f75042, 2025-12-25)"
   xmlns:inkscape="http://www.inkscape.org/namespaces/inkscape"
   xmlns:sodipodi="http://sodipodi.sourceforge.net/DTD/sodipodi-0.dtd"
   xmlns="http://www.w3.org/2000/svg"
   xmlns:svg="http://www.w3.org/2000/svg">
  <defs
     id="defs5" />
  <sodipodi:namedview
     id="namedview5"
     pagecolor="#ffffff"
     bordercolor="#000000"
     borderopacity="0.25"
     inkscape:showpageshadow="2"
     inkscape:pageopacity="0.0"
     inkscape:pagecheckerboard="0"
     inkscape:deskcolor="#d1d1d1"
     inkscape:zoom="0.36782443"
     inkscape:cx="462.17702"
     inkscape:cy="430.91211"
     inkscape:window-width="1920"
     inkscape:window-height="1008"
     inkscape:window-x="0"
     inkscape:window-y="0"
     inkscape:window-maximized="1"
     inkscape:current-layer="svg5" />
  <path
     stroke="none"
     d="M -0.61170487,-1.0195081 H 25.563245 V 25.155442 H -0.61170487 Z"
     fill="none"
     id="path1"
     style="stroke-width:2.18125" />
  <path
     d="m 3.750787,10.977344 h 17.449967 a 1.0906229,1.0906229 0 0 1 1.090622,1.090623 v 0.545311 c 0,1.635935 -2.745097,6.078042 -4.362491,7.08905 v 1.090623 a 1.0906229,1.0906229 0 0 1 -1.090623,1.090623 H 8.1132787 A 1.0906229,1.0906229 0 0 1 7.0226558,20.792951 V 19.702328 C 5.1827749,18.552811 2.660164,14.249213 2.660164,12.613278 v -0.545311 a 1.0906229,1.0906229 0 0 1 1.090623,-1.090623"
     id="path2"
     style="fill:none;stroke:#000000;stroke-width:2.18125;stroke-opacity:1" />
  <path
     d="M 12.47577,3.3429836 A 2.6174951,2.6174951 0 0 0 11.385147,5.5242295 2.6174951,2.6174951 0 0 0 12.47577,7.7054754"
     id="path3"
     style="fill:none;stroke:#000000;stroke-width:2.18125;stroke-opacity:1" />
  <path
     d="m 16.838262,3.3429836 a 2.6174951,2.6174951 0 0 0 -1.090623,2.1812459 2.6174951,2.6174951 0 0 0 1.090623,2.1812459"
     id="path4"
     style="fill:none;stroke:#000000;stroke-width:2.18125;stroke-opacity:1" />
  <path
     d="M 8.1132787,3.3429836 A 2.6174951,2.6174951 0 0 0 7.0226558,5.5242295 2.6174951,2.6174951 0 0 0 8.1132787,7.7054754"
     id="path5"
     style="fill:none;stroke:#000000;stroke-width:2.18125;stroke-opacity:1" />
</svg>
