<svg xmlns="http://www.w3.org/2000/svg" id="Calque_2" data-name="Calque 2" viewBox="0 0 118.08 86.8">
    <defs>
        <style>
            .cls-1 {

            }
        </style>
    </defs>
    <g id="Calque_1-2" data-name="Calque 1">
        <g>
            <path class="cls-1"
                d="m117.51,81.6c-1.11-1.73-2.23-3.45-3.35-5.18-2.58-3.96-5.19-7.9-7.72-11.89-.76-1.19-1.68-1.7-3.08-1.7-29.55.02-59.11.02-88.66,0-1.34,0-2.27.5-2.99,1.63-2.59,4.06-5.23,8.09-7.86,12.13-1.08,1.66-2.19,3.31-3.24,4.99-.75,1.2-.79,2.54-.23,3.8.58,1.3,1.8,1.4,3.07,1.4,18.51-.02,37.02-.01,55.53-.01h0c18.42,0,36.83,0,55.25,0,.45,0,.9.02,1.35,0,1.2-.07,2.11-.75,2.36-1.89.24-1.12.22-2.26-.43-3.28Zm-45.9-.73c-4.21,0-8.42,0-12.62,0-4.14,0-8.27,0-12.41,0-.99,0-1.12-.15-.99-1.12.12-.89.3-1.77.38-2.66.04-.44.26-.57.63-.61.23-.02.47-.03.71-.03,7.78,0,15.56,0,23.33,0,.28,0,.59-.06.84.03.24.08.57.3.62.5.2.94.34,1.9.45,2.86.11.92-.01,1.03-.93,1.03Zm30.97-6.67c-14.52,0-29.03,0-43.55,0h0c-14.47,0-28.94-.02-43.41.02-1.22,0-1.58-.97-1.08-1.84,1.16-2,2.24-4.05,3.39-6.06.15-.26.51-.48.81-.54.48-.11.99-.09,1.48-.09,26.03,0,52.06,0,78.09-.02,1.17,0,1.86.36,2.38,1.42.89,1.82,1.93,3.57,2.9,5.36.54.99.09,1.76-1.01,1.76Z" />
            <path class="cls-1"
                d="m13.67,37.68c0,7.05,0,14.09,0,21.14,0,1.46.42,1.86,1.86,1.86,14.4,0,28.8,0,43.2,0,14.35,0,28.7,0,43.05,0,1.66,0,2.08-.41,2.08-2.1,0-13.97,0-27.95,0-41.92,0-3.29.02-6.57,0-9.86-.03-3.89-2.94-6.77-6.79-6.77C71.56.02,46.05.05,20.54,0c-3.54,0-6.93,2.88-6.89,6.9.09,10.26.03,20.52.03,30.79Zm5.95-30.1c0-1.14.41-1.52,1.63-1.52,12.48,0,24.96,0,37.45,0,12.27,0,24.54,0,36.81,0,.38,0,.76-.02,1.13.02.74.07,1.14.52,1.17,1.26,0,.21,0,.43,0,.64,0,14.99,0,29.98,0,44.97,0,1.11-.44,1.61-1.53,1.71-.52.05-1.04.07-1.56.07-18.91,0-37.82-.02-56.74-.02-5.39,0-10.78.02-16.17.02-.21,0-.43,0-.64-.02-1.03-.1-1.58-.7-1.58-1.73,0-15.13,0-30.26,0-45.39Z" />
            <path class="cls-1"
                d="m55.72,33.13c.17-1.57.34-3.14.53-4.87,2.19,1.62,4.27,3.16,6.39,4.72.26-.31.48-.61.75-.88.42-.42.28-.68-.16-1-1.83-1.3-3.64-2.63-5.46-3.95-.13-.09-.27-.15-.41-.23.03-.07.06-.14.09-.21,1.48-.63,2.96-1.26,4.43-1.88-.01-.06-.03-.11-.04-.17-4.78-1.37-9.56-2.74-14.54-4.16,2.83,4.36,5.53,8.52,8.24,12.68l.17-.05Z" />
        </g>
    </g>
</svg>