<?xml version="1.0" encoding="utf-8"?>
<!-- Svg Vector Icons : http://www.onlinewebfonts.com/icon -->
<!DOCTYPE svg PUBLIC "-//W3C//DTD SVG 1.1//EN" "http://www.w3.org/Graphics/SVG/1.1/DTD/svg11.dtd">
<svg version="1.1" xmlns="http://www.w3.org/2000/svg" xmlns:xlink="http://www.w3.org/1999/xlink" x="0px" y="0px" viewBox="0 0 256 256" enable-background="new 0 0 256 256" xml:space="preserve">
<metadata> Svg Vector Icons : http://www.onlinewebfonts.com/icon </metadata>
<g><g><path fill="#000000" d="M10,142.7c0,16.3,13.2,29.5,29.5,29.5c16.3,0,29.5-13.2,29.5-29.5c0-16.3-13.2-29.5-29.5-29.5C23.2,113.3,10,126.5,10,142.7z"/><path fill="#000000" d="M187,69c-17.2,0-73.8,48.5-73.8,73.7h44.2c0-7.4,15.8-14.7,29.5-14.7c13.8,0,29.5,29.5,29.5,44.2c0,22.1,14.7,29.5,14.7,29.5H246v-44.2C246,129.6,229.1,69,187,69z"/><path fill="#000000" d="M98.5,54.3c0,16.3,13.2,29.5,29.5,29.5c16.3,0,29.5-13.2,29.5-29.5c0-16.3-13.2-29.5-29.5-29.5C111.7,24.8,98.5,38,98.5,54.3z"/><path fill="#000000" d="M164.9,157.5H91.1c-1.2,0-7.4,0-14.7,7.4c-7.4,7.4-7.2,20-14.7,29.5c-2.3,2.8-7.4,7.4-14.7,7.4H24.7c-14.7,0-14.7,7.4-14.7,14.8c0,7.4,0,14.7,0,14.7h51.6c7.4,0,14.7-7.4,14.7-7.4l14.8-22.1H187v-22.1C187,157.5,164.9,157.5,164.9,157.5z"/></g></g>
</svg>