<svg data-name="Calque 2" viewBox="-6 -20 125 125" width="1000" height="1000" xmlns="http://www.w3.org/2000/svg">
    <path class="cls-1" d="M73.8 21.26c-10.82.02-19.52 8.8-19.49 19.67.03 10.61 8.79 19.31 19.43 19.3 10.84 0 19.51-8.63 19.54-19.44.02-10.75-8.76-19.56-19.48-19.53ZM36.76 66.8c.09-1.26-.54-1.9-2.64-2.67-16.41-6.08-20.54-27.82-7.53-39.53 2.8-2.52 6.01-4.25 9.62-5.29 1.54-.44 2.24-1.57 1.87-2.87-.3-1.04-1.1-1.47-2.06-1.72-10.64-2.83-20.08-.6-27.91 7.14-11.9 11.75-10.73 31.26 3.67 42.8 5.54 4.26 13.3 6.17 21.9 4.52 2.19-.42 2.98-1.07 3.07-2.37z" style="fill:#000;fill-opacity:1;stroke:none"/>
    <path class="cls-1" d="M49.4 36.4c.18-1.13-.51-2.28-1.7-2.51-3.87-.74-7.75-1.42-11.63-2.06-1.13-.18-2.14.65-2.39 1.71-.26 1.15.34 2.27 1.48 2.65.56.19 1.17.25 1.76.36 3.37.6 6.74 1.19 9.85 1.74 1.5.04 2.45-.73 2.64-1.89zM89.75 21.77c1.01.85 2.38.66 3.39-.52 2.33-2.75 4.66-5.5 6.96-8.29.39-.47.58-1.11 1.02-1.97-.6-.63-1.08-1.43-1.78-1.8-.97-.51-1.91-.08-2.62.77-2.35 2.8-4.71 5.58-7.04 8.39-1.03 1.24-.97 2.54.08 3.42zM111.48 31.84c-3.84.63-7.68 1.31-11.51 2.03-1.2.22-1.92 1.33-1.78 2.47.15 1.15 1.11 1.96 2.69 1.96 3.61-.65 7.58-1.33 11.52-2.11 1.2-.24 1.79-1.44 1.54-2.59s-1.27-1.96-2.47-1.76zM64.52 63.94c-1.01 0-1.73.54-2.17 1.7-.74 1.97-1.44 3.95-2.16 5.93-.56 1.53-1.16 3.05-1.66 4.6-.43 1.32.16 2.5 1.37 2.93 1.14.4 2.29-.13 2.84-1.34.18-.39.3-.8.45-1.21 1.13-3.1 2.29-6.2 3.39-9.32.63-1.79-.35-3.3-2.05-3.29zM85.06 65.3c-.27-.67-1.14-1.09-1.45-1.36-2.21 0-3.16 1.35-2.54 3.19 1.2 3.58 2.51 7.12 3.84 10.64.46 1.23 1.71 1.73 2.84 1.31 1.15-.43 1.8-1.57 1.37-2.81-1.29-3.68-2.61-7.35-4.05-10.97zM54.54 21.31c.95 1.12 2.3 1.29 3.3.49 1.07-.86 1.15-2.18.13-3.42-2.33-2.81-4.67-5.61-7.06-8.37-.44-.51-1.14-.8-1.93-1.33-.72.57-1.46.94-1.88 1.54-.61.86-.36 1.8.31 2.61 2.37 2.83 4.74 5.67 7.12 8.49zM108.54 58.28a344.01 344.01 0 0 0-10.35-6.02c-1.06-.59-2.33-.09-2.9.9-.58 1.01-.36 2.31.69 2.95 3.39 2.02 6.8 4.02 10.26 5.91 1.48.81 3.19-.36 3.2-2.39-.17-.27-.39-1.05-.9-1.36zM49.21 52.38c-3.3 1.85-6.56 3.75-9.81 5.67-1.19.7-1.52 2.01-.91 3.09.61 1.09 1.94 1.48 3.13.8 3.29-1.86 6.57-3.73 9.8-5.7.62-.38.97-1.18 1.22-1.49 0-2.22-1.82-3.29-3.42-2.39zM73.84 15.97c1.33-.03 2.19-1.04 2.2-2.63.01-1.8 0-3.61 0-5.41h-.01c0-1.85.03-3.69 0-5.54-.03-1.52-.92-2.42-2.26-2.4-1.33.02-2.19.96-2.2 2.47-.02 3.65-.02 7.3 0 10.95 0 1.55.96 2.58 2.28 2.55z" style="fill:#000;fill-opacity:1;stroke:none"/>
</svg>
