<svg xmlns="http://www.w3.org/2000/svg" id="Calque_2" data-name="Calque 2" viewBox="0 0 88.78 89.1">
    <defs>
        <style>
            .cls-1 {

            }
        </style>
    </defs>
    <g id="Calque_1-2" data-name="Calque 1">
        <path class="cls-1"
            d="m85.58,39.89h-4.71c0-2.36,0-4.71.01-7.07.01-2.79-.9-5.18-2.74-7.25-.96-1.08-1.9-2.16-2.85-3.25-.22-.25-.43-.51-.67-.81,1.09-.3,2.12-.56,3.13-.87,1.12-.34,2.25-.67,3.34-1.1.7-.28,1.38-1.6,1.28-2.29-.25-1.6-1.36-2.64-2.92-2.63-1.46.01-2.91,0-4.37.01-.9,0-1.7.29-2.39.87-.46.38-.89.8-1.34,1.21-.04-.05-.08-.08-.1-.12-.25-.53-.5-1.06-.74-1.6-1.78-3.91-3.58-7.82-6.12-11.33-.64-.89-1.46-1.48-2.45-1.87-1.75-.68-3.61-.99-5.45-1.15-3.24-.3-6.49-.51-9.74-.58-6.22-.12-12.43-.16-18.64.37-2.3.19-4.58.47-6.82,1.07-1.51.4-2.76,1.16-3.6,2.53-.6.97-1.32,1.88-1.83,2.9-1.59,3.15-3.11,6.33-4.67,9.5-.05.11-.13.2-.28.42-.28-.34-.51-.62-.75-.89-.87-.96-1.97-1.34-3.25-1.32-1.37.02-2.75-.02-4.12,0-1.43.02-2.51,1-2.76,2.44-.18,1.05.63,2.36,1.83,2.77,1.25.42,2.53.75,3.81,1.11.66.19,1.33.36,2.04.55-.08.14-.1.2-.14.25-1.1,1.26-2.19,2.52-3.3,3.76-1.92,2.14-2.84,4.63-2.82,7.52.04,5.33,0,10.67,0,16,0,3.11,0,6.22.02,9.33,0,1.15.75,1.93,1.89,2.08.36.05.72.07,1.08.08,2.49,0,4.98,0,7.46,0,.42,0,.85-.03,1.27-.09,1.01-.14,1.75-.9,1.79-1.91.06-1.47.05-2.94.07-4.42,0-.15.02-.31.03-.49.39,0,.71,0,1.04,0,15.27,0,30.54,0,45.82,0,1.64,0,3.27.02,4.91,0,.42,0,.57.06.56.52-.03,1.41-.02,2.82.01,4.22.02,1.16.74,1.94,1.87,2.1.34.05.68.08,1.03.08,2.54,0,5.07,0,7.61,0,.36,0,.72-.02,1.08-.07,1.2-.15,1.95-1.03,1.93-2.25,0-.46-.02-.92-.02-1.37,0-4.58,0-9.16,0-13.74h4.72v32.45c-9.11-.04-18.22,0-27.32,0-.28,0-.55-.03-.89-.06,0-.4,0-.71,0-1.02,0-.92-.35-1.68-.99-2.33-1.71-1.71-3.43-3.43-5.14-5.14-1.08-1.08-2.38-1.61-3.9-1.61-2.11,0-4.21,0-6.32,0-2.47,0-3.57.91-4,3.41h-8.37v3.39h8.41v10.13h-8.38v3.44h8.39c.25,2.23,1.46,3.31,3.63,3.32,2.21,0,4.43-.03,6.64.01,1.58.03,2.86-.55,3.95-1.65,1.19-1.2,2.39-2.38,3.58-3.58,1.35-1.35,3.03-2.52,2.45-4.91h1.1c8.59,0,17.17.02,25.76,0,1.53,0,3.08.03,4.62.03v-39.09h-3.2Zm-67.24-4.73c-.12.97-.84,1.56-1.63,2.03-1.04.63-2.19.73-3.31.66-1.49.08-2.85-.16-4.12-.88-1.99-1.13-2.99-3.08-2.61-5.2.39-2.18,2.15-3.94,4.35-4.22,3.57-.46,6.63,1.75,7.31,5.31.14.74.11,1.54.02,2.3Zm32.22,9.33c0,.19-.26.43-.45.54-.18.1-.44.09-.67.09-5.45,0-10.9,0-16.35,0-.13,0-.26,0-.39-.01-.78-.05-.97-.25-.97-1.03,0-1.05,0-2.09,0-3.14,0-.63.24-.91.87-.93.93-.03,1.87,0,2.8,0,1.93,0,3.86,0,5.79,0h0c2.78-.01,5.56-.01,8.35,0,.79,0,1.04.21,1.06,1.01.03,1.16,0,2.32-.04,3.48ZM13.75,19.94c.05-.16.06-.26.1-.34,1.87-3.7,3.74-7.4,5.63-11.1.36-.71.81-1.38,1.2-2.08.4-.73.97-1.24,1.81-1.37,1.69-.27,3.38-.62,5.08-.77,6.48-.57,12.98-.51,19.47-.4,4.01.07,8.05.19,12.02.97.54.11,1.07.28,1.59.48.22.09.45.29.57.49.92,1.54,1.89,3.06,2.71,4.65,1.58,3.04,3.08,6.13,4.62,9.19.02.04.02.09.06.26-18.3-1.99-36.55-1.99-54.86,0Zm58.96,17.22c-1.16.56-2.38.78-3.62.69-1.1.07-2.15.02-3.1-.48-.41-.22-.81-.49-1.17-.8-.6-.51-.85-1.18-.9-1.99-.1-1.91.39-3.61,1.72-5,1.82-1.89,4.04-2.57,6.57-1.8,1.98.6,3.4,2.49,3.5,4.48.12,2.16-.97,3.92-3.01,4.9Z" />
    </g>
</svg>