<svg xmlns="http://www.w3.org/2000/svg" id="Calque_2" data-name="Calque 2" viewBox="0 0 87.41 83.59">
    <defs>
        <style>
            .cls-1 {

            }
        </style>
    </defs>
    <g id="Calque_1-2" data-name="Calque 1">
        <g>
            <path class="cls-1"
                d="m87.41,5.51c0-3.33-2.12-5.48-5.47-5.49-12.73-.02-25.46,0-38.19,0h0c-6.03-.01-12.06-.01-18.09-.01-6.7,0-13.4-.01-20.09,0C2.23.02,0,2.14,0,5.33,0,29.58,0,53.83,0,78.08c0,3.41,2.13,5.5,5.56,5.5,25.43,0,50.85,0,76.28,0,3.44,0,5.56-2.14,5.56-5.6,0-24.16,0-48.31,0-72.47ZM20.64,12.67c7.54.02,13.62,6.12,13.6,13.64-.02,7.52-6.13,13.59-13.67,13.57-7.46-.02-13.55-6.17-13.51-13.63.04-7.51,6.13-13.6,13.58-13.58Zm1.7,61.9c-8.47.09-15.17-6.45-15.28-14.92-.1-8.06,6.55-14.89,14.61-15.01,8.4-.12,15.22,6.45,15.34,14.77.12,8.18-6.55,15.07-14.67,15.16Zm36.12,3.9h-4.94v-1.44h4.94v1.44Zm0-4.98h-4.94v-1.44h4.94v1.44Zm9.19,4.98h-4.89v-1.43h4.89v1.43Zm.03-4.9c-1.52,0-3,.09-4.46-.03-1-.08-.28-.95-.53-1.52h5v1.55Zm8.06,5.15c-1.81.5-3.72-.23-4.71-1.82-.96-1.54-.79-3.58.42-4.95.08-.09.16-.23.26-.27.32-.1.66-.15.99-.23-.09.32-.08.73-.28.95-1.24,1.42-1.28,3.33-.03,4.52,1.25,1.19,3.14,1.19,4.37,0,1.17-1.14,1.23-3.05.13-4.3-.08-.1-.23-.16-.26-.27-.08-.27-.11-.55-.16-.82.3.03.7-.04.9.12.94.8,1.36,1.88,1.37,2.81-.02,2.12-1.28,3.77-3.01,4.25Zm-1.55-7.21c0-.35-.06-.71.02-1.03.06-.21.33-.35.51-.53.15.17.43.33.44.5.05.75.05,1.51,0,2.26-.01.18-.27.35-.41.52-.19-.17-.49-.31-.53-.5-.08-.39-.02-.81-.02-1.22,0,0,0,0,0,0Zm-8.01-5.59c-7.01-.02-12.76-5.82-12.73-12.84.03-6.97,5.81-12.74,12.76-12.73,7.09,0,12.8,5.75,12.79,12.86-.01,7.04-5.76,12.74-12.82,12.72Zm-3.04-30.13c-8.68,0-15.82-7.09-15.82-15.7,0-8.83,7.03-15.99,15.73-16,8.86-.01,15.95,7.03,15.97,15.85.02,8.75-7.1,15.86-15.88,15.85Z" />
            <path class="cls-1"
                d="m63.17,7.66c-6.7-.02-12.25,5.49-12.28,12.18-.03,6.81,5.46,12.33,12.26,12.33,6.78,0,12.25-5.44,12.26-12.24.01-6.75-5.48-12.26-12.24-12.28Z" />
            <path class="cls-1"
                d="m21.98,48.22c-6.22.02-11.33,5.15-11.31,11.33.02,6.3,5.1,11.44,11.3,11.43,6.33-.01,11.46-5.11,11.45-11.37-.01-6.3-5.14-11.41-11.43-11.39Z" />
            <path class="cls-1"
                d="m20.65,36.05c5.41-.01,9.76-4.38,9.76-9.78,0-5.4-4.33-9.71-9.79-9.76-5.3-.04-9.72,4.39-9.72,9.75,0,5.4,4.38,9.81,9.75,9.79Z" />
            <path class="cls-1"
                d="m66.38,43.97c-5.14-.05-9.25,3.98-9.29,9.1-.04,5.08,4.01,9.17,9.11,9.22,5.04.04,9.18-4.01,9.22-9.03.04-5.11-3.98-9.24-9.04-9.29Z" />
        </g>
    </g>
</svg>