<svg xmlns="http://www.w3.org/2000/svg" id="Calque_2" data-name="Calque 2" viewBox="0 0 54.12 90.99">
    <defs>
        <style>
            .cls-1 {

            }
        </style>
    </defs>
    <g id="Calque_1-2" data-name="Calque 1">
        <g>
            <path class="cls-1"
                d="m50.01,27.17H4.11c-2.26,0-4.11,1.85-4.11,4.11v55.6c0,2.26,1.85,4.11,4.11,4.11h45.9c2.26,0,4.11-1.85,4.11-4.11V31.28c0-2.26-1.85-4.11-4.11-4.11Zm-26.94,47.93c0,.74-.61,1.35-1.35,1.35h-9.41c-.74,0-1.35-.61-1.35-1.35v-.53c0-.74.61-1.35,1.35-1.35h9.41c.74,0,1.35.61,1.35,1.35v.53Zm0-8.89c0,.74-.61,1.35-1.35,1.35h-9.41c-.74,0-1.35-.61-1.35-1.35v-.53c0-.74.61-1.35,1.35-1.35h9.41c.74,0,1.35.61,1.35,1.35v.53Zm21,8.89c0,.74-.61,1.35-1.35,1.35h-9.41c-.74,0-1.35-.61-1.35-1.35v-.53c0-.74.61-1.35,1.35-1.35h9.41c.74,0,1.35.61,1.35,1.35v.53Zm0-8.89c0,.74-.61,1.35-1.35,1.35h-9.41c-.74,0-1.35-.61-1.35-1.35v-.53c0-.74.61-1.35,1.35-1.35h9.41c.74,0,1.35.61,1.35,1.35v.53Zm.76-14.54c0,.74-.61,1.35-1.35,1.35H10.64c-.74,0-1.35-.61-1.35-1.35v-13.45c0-.74.61-1.35,1.35-1.35h32.84c.74,0,1.35.61,1.35,1.35v13.45Z" />
            <path class="cls-1"
                d="m13.18,8.83c.73,0,1.24-.43,1.52-.65l.12-.1c7.29-5.62,17.48-5.62,24.78,0l.1.08c.18.14.4.32.71.47.6.28,1.29.23,1.84-.12.58-.38.92-1.04.91-1.78l-.07-.56-.34-.38c-.13-.16-.32-.4-.59-.61C37.99,1.86,32.72.03,27.33,0h-.13c-5.35,0-10.58,1.78-14.74,5.01-.58.45-1.17,1.01-1.22,1.82-.03.5.17.99.55,1.38.51.51,1.04.62,1.4.62Z" />
            <path class="cls-1"
                d="m37.21,13.21c.63.1,1.51-.09,1.94-.74.42-.63.35-1.43.17-1.92-.2-.53-.61-.82-.86-.99l-.08-.06c-3.45-2.58-7.17-3.74-12.05-3.75-1.31,0-3.36.38-5.21,1.03-1.96.68-3.79,1.69-5.45,3.01-.91.72-1.07,1.85-.4,2.74.42.55.92.72,1.28.77h.23c.44.01.87-.14,1.28-.45l.29-.22c2.58-1.96,5.64-2.99,8.87-3,3.2,0,6.26,1.03,8.83,2.97l.64-.84-.55.91c.21.18.57.47,1.08.54Z" />
            <path class="cls-1"
                d="m32.23,17c.21.13.41.26.62.39,1.23.75,2.22.27,2.73-.43.54-.74.61-1.86-.45-2.72h0c-.1-.08-.19-.16-.29-.23-2.2-1.61-4.73-2.48-7.34-2.52-2.03,0-3.57.29-5,.93-.9.41-1.72.92-2.54,1.43l-.55.34c-.5.31-.83.78-.92,1.32-.09.54.06,1.09.44,1.55.38.46.9.72,1.46.72.41,0,.83-.14,1.2-.4.07-.05.13-.1.19-.15l.1-.08c2.73-1.9,5.62-2.28,8.6-1.12.58.22,1.17.6,1.75.97Z" />
            <path class="cls-1"
                d="m24.94,19.51c0,1.16.94,2.11,2.11,2.11s2.11-.94,2.11-2.11-.94-2.11-2.11-2.11-2.11.94-2.11,2.11Z" />
        </g>
    </g>
</svg>