<svg xmlns="http://www.w3.org/2000/svg" id="Calque_2" data-name="Calque 2"
    viewBox="0 0 134.62 74.41">
    <defs>
        <style>
            .cls-1 {

            }
        </style>
    </defs>
    <g id="Calque_1-2" data-name="Calque 1">
        <g>
            <path class="cls-1"
                d="m133.81,69.58c-.78-1.07-1.6-2.12-2.26-3.3-.8-1.42-1.77-1.79-3.12-1.79-40.89.04-81.77.04-122.66.04-.32,0-.64-.06-.95.02-.29.08-.63.21-.81.47-1.22,1.71-2.47,3.41-3.59,5.23-1,1.63-.13,3.93,1.49,4.14.43.05.87.02,1.3.02,21.33,0,42.66,0,64,0,19.4,0,38.79,0,58.19,0,2.25,0,4.5-.03,6.76,0,.99.01,1.8-.33,2.24-1.54.47-1.28.1-2.32-.6-3.29Z" />
            <path class="cls-1"
                d="m123.87,55.22c-.53-.81-1.1-1.1-1.92-1.1-35.04.03-70.08.02-105.13.03-1.74,0-3.69-.6-5.15.22-1.45.82-2.4,3.09-3.56,4.72-.42.6-.85,1.19-1.26,1.81-.18.28-.33.59-.56,1.02h122.18c-1.66-2.4-3.17-4.51-4.6-6.7Z" />
            <path class="cls-1"
                d="m118.75,47.87c-1.34-1.93-3.02-2.82-5.03-2.82-30.97,0-61.94,0-92.92.06-1.23,0-2.65.52-3.64,1.41-1.38,1.23-2.45,3.04-3.87,4.9h107.92c-.91-1.31-1.69-2.43-2.46-3.55Z" />
            <path class="cls-1"
                d="m45.78,18.03c2.41,2.72,2.42,6.26.01,8.97-.32.36-.67.71-.99,1.07-.77.88-.73,2.09.07,2.82.8.73,1.94.69,2.76-.12.47-.47.92-.96,1.35-1.47,3.4-3.99,3.37-9.66-.07-13.62-.72-.83-1.48-1.62-2.23-2.43-1.69-1.81-2.18-3.94-1.61-6.32.32-1.37,1.24-2.38,2.15-3.4.37-.42.61-.96.78-1.24-.05-1.11-.4-1.73-1.13-2.08-.77-.37-1.5-.25-2.14.3-4.6,3.95-5.1,10.59-1.12,15.15.71.81,1.47,1.57,2.18,2.37Z" />
            <path class="cls-1"
                d="m85.53,18.07c2.34,2.66,2.38,6.08.11,8.79-.39.47-.85.89-1.23,1.36-.64.8-.54,1.96.19,2.64.72.68,1.85.75,2.58.07,2.42-2.26,4.09-4.9,4.04-7.65.01-3.45-.83-5.63-2.75-7.83-.88-1-1.84-1.93-2.65-2.98-1.67-2.16-1.69-5.24-.1-7.45.42-.58.91-1.1,1.39-1.64.8-.9.81-2.04,0-2.82-.82-.8-2.01-.75-2.87.13-.29.29-.56.59-.83.9-3.77,4.35-3.71,10.07.15,14.33.65.72,1.34,1.41,1.98,2.14Z" />
            <path class="cls-1"
                d="m65.65,18.03c1.14,1.27,1.8,2.72,1.78,4.45.03,1.63-.51,3.06-1.57,4.29-.4.46-.84.9-1.24,1.36-.71.83-.68,1.98.07,2.7.79.77,1.94.77,2.75,0,.41-.39.79-.8,1.16-1.23,3.74-4.29,3.71-9.97-.07-14.22-.78-.88-1.63-1.7-2.37-2.61-2-2.47-1.96-5.8.08-8.25.36-.43.76-.83,1.12-1.26.71-.86.63-2.03-.19-2.75-.79-.71-1.91-.66-2.69.12-.4.4-.79.8-1.15,1.23-3.21,3.79-3.44,8.95-.51,12.96.84,1.15,1.88,2.15,2.84,3.22Z" />
        </g>
    </g>
</svg>