<?xml version="1.0" encoding="UTF-8" standalone="no"?>
<svg
   width="1000"
   height="1000"
   class="icon icon-tabler icons-tabler-outline icon-tabler-cooker"
   stroke-linejoin="round"
   stroke-width="2"
   version="1.1"
   id="svg1"
   sodipodi:docname="swb_blrgas.svg"
   viewBox="0 0 24 24"
   inkscape:version="1.4 (86a8ad7, 2024-10-11)"
   xmlns:inkscape="http://www.inkscape.org/namespaces/inkscape"
   xmlns:sodipodi="http://sodipodi.sourceforge.net/DTD/sodipodi-0.dtd"
   xmlns="http://www.w3.org/2000/svg"
   xmlns:svg="http://www.w3.org/2000/svg">
  <defs
     id="defs1" />
  <sodipodi:namedview
     id="namedview1"
     pagecolor="#ffffff"
     bordercolor="#000000"
     borderopacity="0.25"
     inkscape:showpageshadow="2"
     inkscape:pageopacity="0.0"
     inkscape:pagecheckerboard="0"
     inkscape:deskcolor="#d1d1d1"
     inkscape:zoom="0.37150727"
     inkscape:cx="-257.06092"
     inkscape:cy="146.69969"
     inkscape:window-width="1920"
     inkscape:window-height="1009"
     inkscape:window-x="1912"
     inkscape:window-y="-8"
     inkscape:window-maximized="1"
     inkscape:current-layer="svg1"
     showguides="true" />
  <rect
     style="display:inline;fill:none;stroke:#000000;stroke-width:2.20524;stroke-linecap:round;stroke-linejoin:round;stroke-dasharray:none;stroke-opacity:1;paint-order:markers stroke fill"
     id="rect1"
     width="15.911222"
     height="17.340881"
     x="4.0280037"
     y="3.4746783" />
  <rect
     style="display:inline;fill:#000000;fill-opacity:1;stroke:#000000;stroke-width:0.879496;stroke-linecap:round;stroke-linejoin:round;stroke-dasharray:none;stroke-opacity:1;paint-order:normal"
     id="rect2-7"
     width="1.420427"
     height="1.5387956"
     x="6.5642481"
     y="16.873062" />
  <rect
     style="display:inline;fill:#000000;fill-opacity:1;stroke:#000000;stroke-width:0.879496;stroke-linecap:round;stroke-linejoin:round;stroke-dasharray:none;stroke-opacity:1;paint-order:normal"
     id="rect2-7-1"
     width="1.420427"
     height="1.5387956"
     x="15.952062"
     y="16.872349" />
  <rect
     style="display:inline;fill:#000000;fill-opacity:1;stroke:#000000;stroke-width:1.14126;stroke-linecap:round;stroke-linejoin:round;stroke-dasharray:none;stroke-opacity:1;paint-order:normal"
     id="rect2-7-9"
     width="15.120318"
     height="0.24340914"
     x="4.4335341"
     y="14.603585" />
  <rect
     style="display:inline;fill:#000000;fill-opacity:1;stroke:#000000;stroke-width:1.3744;stroke-linecap:round;stroke-linejoin:round;stroke-dasharray:none;stroke-opacity:1;paint-order:normal"
     id="rect2-7-7"
     width="4.0986934"
     height="1.3023014"
     x="9.9021063"
     y="3.7340806" />
  <path
     class="cls-1"
     d="m 11.49646,13.245418 c -0.08084,-0.310901 -0.174105,-0.606257 -0.230066,-0.90783 -0.121246,-0.68398 -0.05596,-1.333762 0.534748,-1.797005 0.105698,-0.08084 0.3793,-0.08084 0.485005,0 0.637347,0.475678 0.730616,1.137897 0.547184,1.865404 -0.07151,0.27981 -0.161668,0.556511 -0.242502,0.833213 0.04043,0.0311 0.08084,0.06218 0.118137,0.09327 0.273592,-0.21763 0.600038,-0.394845 0.817669,-0.662219 0.786579,-0.976227 0.942029,-2.111013 0.391734,-3.2053841 C 13.402275,8.4357865 12.690312,7.5093028 12.077838,6.5579468 11.552417,7.2792358 11.048757,7.9694356 10.545098,8.6627432 9.9512784,9.4835211 9.7554107,10.39446 9.9264058,11.389341 c 0.1554502,0.917157 0.8114512,1.706844 1.5669392,1.862294 z"
     id="path3"
     style="fill:#000000;fill-opacity:1;stroke:none;stroke-width:0.621802;stroke-opacity:1" />
</svg>
