<svg id="Calque_2" data-name="Calque 2" viewBox="-3 -30 140 140" version="1.1" width="1000" height="1000" xmlns="http://www.w3.org/2000/svg">
    <defs id="defs1">
        <style id="style1">
            
        </style>
    </defs>
    <path class="cls-1" d="M133.81 89.509c-.78-1.637-1.6-3.243-2.26-5.048-.8-2.172-1.77-2.738-3.12-2.738-40.89.062-81.77.062-122.66.062-.32 0-.64-.092-.95.03-.29.123-.63.321-.81.72C2.79 85.15 1.54 87.75.42 90.533c-1 2.493-.13 6.01 1.49 6.332.43.076.87.03 1.3.03H125.4c2.25 0 4.5-.045 6.76 0 .99.016 1.8-.504 2.24-2.355.47-1.958.1-3.549-.6-5.032z" id="path1" style="fill:#000;fill-opacity:1;stroke:none;stroke-width:1.23674"/>
    <path class="cls-1" d="M123.87 60.74c-.53-1.699-1.1-2.307-1.92-2.307-35.04.063-70.08.042-105.13.063-1.74 0-3.69-1.259-5.15.461-1.45 1.72-2.4 6.483-3.56 9.902-.42 1.259-.85 2.497-1.26 3.797-.18.588-.33 1.238-.56 2.14h122.18c-1.66-5.035-3.17-9.461-4.6-14.055z" id="path2" style="fill:#000;fill-opacity:1;stroke:none;stroke-width:1.4484"/>
    <path class="cls-1" d="M118.75 45.232c-1.34-3.523-3.02-5.148-5.03-5.148-30.97 0-61.94 0-92.92.11-1.23 0-2.65.95-3.64 2.574-1.38 2.245-2.45 5.549-3.87 8.944h107.92c-.91-2.391-1.69-4.436-2.46-6.48z" id="path3" style="fill:#000;fill-opacity:1;stroke:none;stroke-width:1.35107;stroke-opacity:1"/>
    <path class="cls-1" d="M45.613 12.93c3.33 3.756 3.343 8.646.014 12.389-.442.497-.925.98-1.367 1.478-1.064 1.215-1.009 2.887.096 3.895s2.68.953 3.813-.166c.649-.649 1.27-1.326 1.864-2.03 4.697-5.511 4.655-13.343-.096-18.813-.995-1.146-2.045-2.237-3.08-3.356-2.335-2.5-3.012-5.442-2.224-8.73.442-1.892 1.712-3.287 2.97-4.696.51-.58.842-1.326 1.077-1.713-.07-1.533-.553-2.39-1.561-2.873-1.064-.51-2.072-.345-2.956.415C37.81-5.814 37.12 3.357 42.616 9.656c.98 1.118 2.03 2.168 3.011 3.273z" id="path4" style="fill:#000;fill-opacity:1;stroke:none;stroke-width:1.38125"/>
    <path class="cls-1" d="M85.38 12.986c3.233 3.674 3.288 8.398.152 12.14-.538.65-1.174 1.23-1.698 1.88a2.702 2.702 0 0 0 .262 3.646c.994.939 2.555 1.036 3.564.096 3.342-3.121 5.649-6.768 5.58-10.566.014-4.765-1.147-7.776-3.799-10.815C88.226 7.986 86.9 6.7 85.781 5.25c-2.307-2.984-2.334-7.238-.138-10.29.58-.802 1.257-1.52 1.92-2.266 1.105-1.243 1.119-2.817 0-3.895-1.133-1.105-2.776-1.036-3.964.18-.4.4-.774.815-1.147 1.243-5.207 6.008-5.124 13.909.207 19.793.898.995 1.851 1.948 2.735 2.956z" id="path5" style="fill:#000;fill-opacity:1;stroke:none;stroke-width:1.38124"/>
    <path class="cls-1" d="M65.484 12.803c1.586 1.766 2.503 3.783 2.476 6.189.041 2.267-.71 4.255-2.184 5.966-.556.64-1.168 1.252-1.724 1.891-.988 1.155-.946 2.754.097 3.755 1.099 1.071 2.698 1.071 3.824 0a23.45 23.45 0 0 0 1.614-1.71c5.201-5.966 5.16-13.866-.098-19.776-1.084-1.224-2.267-2.365-3.296-3.63-2.781-3.435-2.725-8.066.112-11.474.5-.598 1.057-1.154 1.557-1.752.988-1.196.876-2.823-.264-3.824-1.099-.988-2.656-.918-3.741.167a26.456 26.456 0 0 0-1.6 1.71c-4.464 5.271-4.783 12.447-.709 18.024 1.169 1.6 2.615 2.99 3.95 4.478z" id="path6" style="fill:#000;fill-opacity:1;stroke:none;stroke-width:1.39072"/>
</svg>
