<?xml version="1.0" encoding="UTF-8" standalone="no"?>
<svg
   width="1000"
   height="1000"
   viewBox="0 0 25 25"
   fill="none"
   stroke="currentColor"
   stroke-width="2"
   stroke-linecap="round"
   stroke-linejoin="round"
   class="icon icon-tabler icons-tabler-outline icon-tabler-fountain"
   version="1.1"
   id="svg6"
   sodipodi:docname="swb_fountain.svg"
   inkscape:version="1.4.3 (0d15f75042, 2025-12-25)"
   xmlns:inkscape="http://www.inkscape.org/namespaces/inkscape"
   xmlns:sodipodi="http://sodipodi.sourceforge.net/DTD/sodipodi-0.dtd"
   xmlns="http://www.w3.org/2000/svg"
   xmlns:svg="http://www.w3.org/2000/svg">
  <defs
     id="defs6" />
  <sodipodi:namedview
     id="namedview6"
     pagecolor="#ffffff"
     bordercolor="#000000"
     borderopacity="0.25"
     inkscape:showpageshadow="2"
     inkscape:pageopacity="0.0"
     inkscape:pagecheckerboard="0"
     inkscape:deskcolor="#d1d1d1"
     inkscape:zoom="0.5201823"
     inkscape:cx="-42.292866"
     inkscape:cy="452.7259"
     inkscape:window-width="1920"
     inkscape:window-height="1008"
     inkscape:window-x="0"
     inkscape:window-y="0"
     inkscape:window-maximized="1"
     inkscape:current-layer="svg6" />
  <path
     stroke="none"
     d="M 0,0 H 24 V 24 H 0 Z"
     fill="none"
     id="path1" />
  <path
     d="m 9.1105381,16.990038 v -5.696871 a 2.2787485,2.2787485 0 1 0 -4.5574969,0"
     id="path2"
     style="fill:none;stroke:#000000;stroke-width:2.27875;stroke-opacity:1" />
  <path
     d="m 15.946784,16.990038 v -5.696871 a 2.2787485,2.2787485 0 1 1 4.557497,0"
     id="path3"
     style="fill:none;stroke:#000000;stroke-width:2.27875;stroke-opacity:1" />
  <path
     d="M 12.528661,16.990038 V 5.5962953 a 3.4181227,3.4181227 0 0 1 6.836245,0"
     id="path4"
     style="fill:none;stroke:#000000;stroke-width:2.27875;stroke-opacity:1" />
  <path
     d="m 5.6924155,5.5962953 a 3.4181228,3.4181228 0 0 1 6.8362455,0"
     id="path5"
     style="fill:none;stroke:#000000;stroke-width:2.27875;stroke-opacity:1" />
  <path
     d="M 2.2742928,16.990038 H 22.783029 v 2.278748 a 3.4181227,3.4181227 0 0 1 -3.418123,3.418123 H 5.6924155 A 3.4181227,3.4181227 0 0 1 2.2742928,19.268786 v -2.278748"
     id="path6"
     style="fill:none;stroke:#000000;stroke-width:2.27875;stroke-opacity:1" />
</svg>
