<?xml version="1.0" encoding="UTF-8" standalone="no"?>
<svg
   width="1000"
   height="1000"
   viewBox="0 0 25 25"
   fill="none"
   stroke="currentColor"
   stroke-width="2"
   stroke-linecap="round"
   stroke-linejoin="round"
   class="icon icon-tabler icons-tabler-outline icon-tabler-mug"
   version="1.1"
   id="svg3"
   sodipodi:docname="swb_coffeetea.svg"
   inkscape:version="1.4.3 (0d15f75042, 2025-12-25)"
   xmlns:inkscape="http://www.inkscape.org/namespaces/inkscape"
   xmlns:sodipodi="http://sodipodi.sourceforge.net/DTD/sodipodi-0.dtd"
   xmlns="http://www.w3.org/2000/svg"
   xmlns:svg="http://www.w3.org/2000/svg">
  <defs
     id="defs3" />
  <sodipodi:namedview
     id="namedview3"
     pagecolor="#ffffff"
     bordercolor="#000000"
     borderopacity="0.25"
     inkscape:showpageshadow="2"
     inkscape:pageopacity="0.0"
     inkscape:pagecheckerboard="0"
     inkscape:deskcolor="#d1d1d1"
     inkscape:zoom="0.36782443"
     inkscape:cx="-269.15015"
     inkscape:cy="379.25703"
     inkscape:window-width="1920"
     inkscape:window-height="1008"
     inkscape:window-x="0"
     inkscape:window-y="0"
     inkscape:window-maximized="1"
     inkscape:current-layer="svg3" />
  <path
     d="M 7.2255936,1.9975619 H 9.82314 a 1.5190333,1.5190333 0 0 1 1.50992,1.3519397 l 1.181047,10.6332324 a 1.5190333,1.5190333 0 0 1 -1.509918,1.686127 H 6.0445449 A 1.5190333,1.5190333 0 0 1 4.5346258,13.982734 L 5.7156742,3.3495016 A 1.5190333,1.5190333 0 0 1 7.2255936,1.9975619"
     id="path2-6"
     style="fill:none;stroke:#000000;stroke-width:1.51904;stroke-dasharray:none;stroke-opacity:1" />
  <path
     d="M 5.0837563,9.2129691 1.8504939,5.400956 A 0.68280548,0.68280548 0 0 1 2.3745604,4.2761119 h 9.9420726 a 2.2785499,2.2785499 0 0 1 2.283866,2.2785503 v 2.2785499 c 0,1.2585179 -1.022309,2.2785489 -2.283866,2.2785489"
     id="path3-7"
     style="fill:none;stroke:#000000;stroke-width:1.51904;stroke-dasharray:none;stroke-opacity:1" />
  <path
     d="M 4.7267835,12.630794 H 12.32195"
     id="path4"
     style="fill:none;stroke:#000000;stroke-width:1.51904;stroke-dasharray:none;stroke-opacity:1" />
  <path
     d="m 21.037871,17.938122 h 1.202927 c 0.664015,0 1.202925,0.502822 1.202925,1.12257 v 1.123052 c 0,0.619746 -0.53891,1.122569 -1.202925,1.122569 h -1.202927"
     id="path3"
     style="fill:none;fill-opacity:1;stroke:#000000;stroke-width:1.39251;stroke-dasharray:none;stroke-opacity:1" />
  <path
     d="m 15.303766,16.494611 h 5.212998 a 0.51966396,0.51966396 0 0 1 0.521107,0.51822 v 4.145282 c 0,1.145187 -0.933469,2.072883 -2.084909,2.072883 h -2.085394 c -1.15144,0 -2.08491,-0.928179 -2.08491,-2.072883 v -4.145282 a 0.51966396,0.51966396 0 0 1 0.521108,-0.51822"
     id="path2"
     style="fill:none;fill-opacity:1;stroke:#000000;stroke-width:1.39251;stroke-dasharray:none;stroke-opacity:1" />
</svg>
