<?xml version="1.0" encoding="UTF-8" standalone="no"?>
<svg
   width="1000"
   height="1000"
   viewBox="0 0 24 24"
   fill="none"
   stroke="currentColor"
   stroke-width="2"
   stroke-linecap="round"
   stroke-linejoin="round"
   class="icon icon-tabler icons-tabler-outline icon-tabler-ship"
   version="1.1"
   id="svg5"
   sodipodi:docname="swb_ship.svg"
   inkscape:version="1.4 (86a8ad7, 2024-10-11)"
   xmlns:inkscape="http://www.inkscape.org/namespaces/inkscape"
   xmlns:sodipodi="http://sodipodi.sourceforge.net/DTD/sodipodi-0.dtd"
   xmlns="http://www.w3.org/2000/svg"
   xmlns:svg="http://www.w3.org/2000/svg">
  <defs
     id="defs5" />
  <sodipodi:namedview
     id="namedview5"
     pagecolor="#ffffff"
     bordercolor="#000000"
     borderopacity="0.25"
     inkscape:showpageshadow="2"
     inkscape:pageopacity="0.0"
     inkscape:pagecheckerboard="0"
     inkscape:deskcolor="#d1d1d1"
     inkscape:zoom="0.37150727"
     inkscape:cx="60.56409"
     inkscape:cy="157.46663"
     inkscape:window-width="1920"
     inkscape:window-height="1009"
     inkscape:window-x="1912"
     inkscape:window-y="-8"
     inkscape:window-maximized="1"
     inkscape:current-layer="svg5" />
  <path
     stroke="none"
     d="M 0,0 H 24 V 24 H 0 Z"
     fill="none"
     id="path1" />
  <path
     d="m 2,20 a 2.4,2.4 0 0 0 2,1 2.4,2.4 0 0 0 2,-1 2.4,2.4 0 0 1 2,-1 2.4,2.4 0 0 1 2,1 2.4,2.4 0 0 0 2,1 2.4,2.4 0 0 0 2,-1 2.4,2.4 0 0 1 2,-1 2.4,2.4 0 0 1 2,1 2.4,2.4 0 0 0 2,1 2.4,2.4 0 0 0 2,-1"
     id="path2" />
  <path
     d="M 4,18 3,13 h 18 l -2,4"
     id="path3" />
  <path
     d="M 5,13 V 7 h 8 l 4,6"
     id="path4" />
  <path
     d="M 7,7 V 3 H 6"
     id="path5" />
</svg>
