<svg width="1000" height="1000" viewBox="0 0 24 24" fill="none" stroke="currentColor" stroke-width="2" stroke-linecap="round" stroke-linejoin="round" class="icon icon-tabler icons-tabler-outline icon-tabler-alarm-smoke" xmlns="http://www.w3.org/2000/svg">
    <path d="M0 0h24v24H0Z" stroke="none"/>
    <path d="m18 8-.8 3a1.25 1.25 0 0 1-1.2 1H8a1.25 1.25 0 0 1-1.2-1L6 8M12 16c.643.288 1.017.756 1 1.25.017.494-.357.962-1 1.25-.643.288-1.017.756-1 1.25-.017.494.357.962 1 1.25"/>
    <path style="display:inline;fill:none;fill-opacity:1;stroke:#000;stroke-width:1.87106;stroke-linecap:round;stroke-linejoin:round;stroke-miterlimit:20;stroke-dasharray:none;stroke-opacity:1;paint-order:markers stroke fill" d="M3.137 2.57h17.618v5.265H3.137z"/>
    <path d="M7 16c.643.288 1.017.756 1 1.25.017.494-.357.962-1 1.25-.643.288-1.017.756-1 1.25-.017.494.357.962 1 1.25M17 16c.643.288 1.017.756 1 1.25.017.494-.357.962-1 1.25-.643.288-1.017.756-1 1.25-.017.494.357.962 1 1.25"/>
</svg>
