<?xml version="1.0" encoding="UTF-8" standalone="no"?>
<svg
   width="1000"
   height="1000"
   viewBox="0 0 24 24"
   fill="none"
   stroke="currentColor"
   stroke-width="2"
   stroke-linecap="round"
   stroke-linejoin="round"
   class="icon icon-tabler icons-tabler-outline icon-tabler-alarm-smoke"
   version="1.1"
   id="svg10"
   sodipodi:docname="swb_smoke.svg"
   inkscape:version="1.2.2 (b0a8486541, 2022-12-01)"
   xmlns:inkscape="http://www.inkscape.org/namespaces/inkscape"
   xmlns:sodipodi="http://sodipodi.sourceforge.net/DTD/sodipodi-0.dtd"
   xmlns="http://www.w3.org/2000/svg"
   xmlns:svg="http://www.w3.org/2000/svg">
  <defs
     id="defs14" />
  <sodipodi:namedview
     id="namedview12"
     pagecolor="#ffffff"
     bordercolor="#000000"
     borderopacity="0.25"
     inkscape:showpageshadow="2"
     inkscape:pageopacity="0.0"
     inkscape:pagecheckerboard="0"
     inkscape:deskcolor="#d1d1d1"
     showgrid="false"
     inkscape:zoom="0.868"
     inkscape:cx="426.84332"
     inkscape:cy="500.57604"
     inkscape:window-width="1862"
     inkscape:window-height="1011"
     inkscape:window-x="1978"
     inkscape:window-y="32"
     inkscape:window-maximized="1"
     inkscape:current-layer="svg10" />
  <path
     d="M0 0h24v24H0Z"
     stroke="none"
     id="path2" />
  <path
     d="m18 8-.8 3a1.25 1.25 0 0 1-1.2 1H8a1.25 1.25 0 0 1-1.2-1L6 8M12 16c.643.288 1.017.756 1 1.25.017.494-.357.962-1 1.25-.643.288-1.017.756-1 1.25-.017.494.357.962 1 1.25"
     id="path4" />
  <path
     style="display:inline;fill:none;fill-opacity:0;stroke:#000;stroke-width:1.87106;stroke-linecap:round;stroke-linejoin:round;stroke-miterlimit:20;stroke-dasharray:none;stroke-opacity:1;paint-order:markers stroke fill"
     d="M3.137 2.57h17.618v5.265H3.137z"
     id="path6" />
  <path
     d="M7 16c.643.288 1.017.756 1 1.25.017.494-.357.962-1 1.25-.643.288-1.017.756-1 1.25-.017.494.357.962 1 1.25M17 16c.643.288 1.017.756 1 1.25.017.494-.357.962-1 1.25-.643.288-1.017.756-1 1.25-.017.494.357.962 1 1.25"
     id="path8" />
</svg>
