<svg width="1000" height="1000" viewBox="0 0 64 64" fill="none" stroke="currentColor" stroke-width="2" stroke-linecap="round" stroke-linejoin="round" class="icon icon-tabler icons-tabler-outline icon-tabler-home-down" xmlns="http://www.w3.org/2000/svg">
    <path style="color:#000;fill:#000;stroke:none;stroke-width:5.75987;-inkscape-stroke:none" d="M32 3.2a2.88 2.88 0 0 0-2.036.844l-25.92 25.92a2.88 2.88 0 0 0 2.037 4.916h2.88v17.28c0 4.737 3.902 8.64 8.64 8.64H46.4c4.737 0 8.64-3.903 8.64-8.64V34.88h2.88a2.88 2.88 0 0 0 2.036-4.916l-25.92-25.92A2.88 2.88 0 0 0 32 3.201Zm0 6.953 19.563 19.563A2.88 2.88 0 0 0 49.28 32v20.16c0 1.624-1.256 2.88-2.88 2.88h-2.88v-14.4c0-4.738-3.903-8.64-8.64-8.64h-5.76c-4.737 0-8.64 3.902-8.64 8.64v14.4H17.6c-1.624 0-2.88-1.256-2.88-2.88V32a2.88 2.88 0 0 0-2.283-2.284zM29.12 37.76h5.76c1.625 0 2.88 1.255 2.88 2.88v14.4H26.24v-14.4c0-1.625 1.255-2.88 2.88-2.88z" stroke="none"/>
</svg>
