<svg xmlns="http://www.w3.org/2000/svg" id="Calque_2" data-name="Calque 2" viewBox="0 0 74.15 66.47">
    <defs>
        <style>
            .cls-1 {

            }
        </style>
    </defs>
    <g id="Calque_1-2" data-name="Calque 1">
        <path class="cls-1"
            d="m72.99,53.69l-14.27-24.71-14.27-24.71c-3.28-5.68-11.49-5.68-14.77,0l-14.27,24.71L1.15,53.69c-3.28,5.68.82,12.79,7.38,12.79h57.07c6.56,0,10.66-7.1,7.38-12.79Zm-26.6-18.72c-6.36,8.79-12.68,17.53-19.01,26.28l-.07-.02c.99-5.25,1.97-10.49,2.97-15.8-2.14.57-4.2,1.12-6.31,1.68,3.2-9.23,6.39-18.44,9.6-27.68,4.83,1.15,9.66,2.29,14.51,3.44-3.23,3.77-6.43,7.51-9.68,11.3,2.68.27,5.31.53,8,.79Z" />
    </g>
</svg>