<?xml version="1.0" encoding="UTF-8" standalone="no"?>
<svg
   id="Calque_2"
   data-name="Calque 2"
   viewBox="-24 -5 100 100"
   version="1.1"
   sodipodi:docname="swb_telec.svg"
   width="1000"
   height="1000"
   inkscape:version="1.4 (86a8ad7, 2024-10-11)"
   xmlns:inkscape="http://www.inkscape.org/namespaces/inkscape"
   xmlns:sodipodi="http://sodipodi.sourceforge.net/DTD/sodipodi-0.dtd"
   xmlns="http://www.w3.org/2000/svg"
   xmlns:svg="http://www.w3.org/2000/svg">
  <sodipodi:namedview
     id="namedview5"
     pagecolor="#ffffff"
     bordercolor="#000000"
     borderopacity="0.25"
     inkscape:showpageshadow="2"
     inkscape:pageopacity="0.0"
     inkscape:pagecheckerboard="0"
     inkscape:deskcolor="#d1d1d1"
     inkscape:zoom="0.55431916"
     inkscape:cx="303.9765"
     inkscape:cy="603.44297"
     inkscape:window-width="1920"
     inkscape:window-height="1009"
     inkscape:window-x="1912"
     inkscape:window-y="-8"
     inkscape:window-maximized="1"
     inkscape:current-layer="Calque_2" />
  <defs
     id="defs1">
    <style
       id="style1">
            .cls-1 {

            }
        </style>
  </defs>
  <path
     class="cls-1"
     d="M 50.01,27.17 H 4.11 C 1.85,27.17 0,29.02 0,31.28 v 55.6 c 0,2.26 1.85,4.11 4.11,4.11 h 45.9 c 2.26,0 4.11,-1.85 4.11,-4.11 v -55.6 c 0,-2.26 -1.85,-4.11 -4.11,-4.11 z M 23.07,75.1 c 0,0.74 -0.61,1.35 -1.35,1.35 h -9.41 c -0.74,0 -1.35,-0.61 -1.35,-1.35 v -0.53 c 0,-0.74 0.61,-1.35 1.35,-1.35 h 9.41 c 0.74,0 1.35,0.61 1.35,1.35 z m 0,-8.89 c 0,0.74 -0.61,1.35 -1.35,1.35 h -9.41 c -0.74,0 -1.35,-0.61 -1.35,-1.35 v -0.53 c 0,-0.74 0.61,-1.35 1.35,-1.35 h 9.41 c 0.74,0 1.35,0.61 1.35,1.35 z m 21,8.89 c 0,0.74 -0.61,1.35 -1.35,1.35 h -9.41 c -0.74,0 -1.35,-0.61 -1.35,-1.35 v -0.53 c 0,-0.74 0.61,-1.35 1.35,-1.35 h 9.41 c 0.74,0 1.35,0.61 1.35,1.35 z m 0,-8.89 c 0,0.74 -0.61,1.35 -1.35,1.35 h -9.41 c -0.74,0 -1.35,-0.61 -1.35,-1.35 v -0.53 c 0,-0.74 0.61,-1.35 1.35,-1.35 h 9.41 c 0.74,0 1.35,0.61 1.35,1.35 z m 0.76,-14.54 c 0,0.74 -0.61,1.35 -1.35,1.35 H 10.64 C 9.9,53.02 9.29,52.41 9.29,51.67 V 38.22 c 0,-0.74 0.61,-1.35 1.35,-1.35 h 32.84 c 0.74,0 1.35,0.61 1.35,1.35 z"
     id="path1"
     style="fill:#000000;fill-opacity:1;stroke:none;stroke-opacity:1" />
  <path
     class="cls-1"
     d="m 13.18,8.83 c 0.73,0 1.24,-0.43 1.52,-0.65 l 0.12,-0.1 c 7.29,-5.62 17.48,-5.62 24.78,0 l 0.1,0.08 c 0.18,0.14 0.4,0.32 0.71,0.47 0.6,0.28 1.29,0.23 1.84,-0.12 0.58,-0.38 0.92,-1.04 0.91,-1.78 L 43.09,6.17 42.75,5.79 C 42.62,5.63 42.43,5.39 42.16,5.18 37.99,1.86 32.72,0.03 27.33,0 H 27.2 c -5.35,0 -10.58,1.78 -14.74,5.01 -0.58,0.45 -1.17,1.01 -1.22,1.82 -0.03,0.5 0.17,0.99 0.55,1.38 0.51,0.51 1.04,0.62 1.4,0.62 z"
     id="path2"
     style="fill:#000000;fill-opacity:1;stroke:none;stroke-opacity:1" />
  <path
     class="cls-1"
     d="m 37.21,13.21 c 0.63,0.1 1.51,-0.09 1.94,-0.74 0.42,-0.63 0.35,-1.43 0.17,-1.92 -0.2,-0.53 -0.61,-0.82 -0.86,-0.99 L 38.38,9.5 C 34.93,6.92 31.21,5.76 26.33,5.75 c -1.31,0 -3.36,0.38 -5.21,1.03 -1.96,0.68 -3.79,1.69 -5.45,3.01 -0.91,0.72 -1.07,1.85 -0.4,2.74 0.42,0.55 0.92,0.72 1.28,0.77 h 0.23 c 0.44,0.01 0.87,-0.14 1.28,-0.45 l 0.29,-0.22 c 2.58,-1.96 5.64,-2.99 8.87,-3 3.2,0 6.26,1.03 8.83,2.97 l 0.64,-0.84 -0.55,0.91 c 0.21,0.18 0.57,0.47 1.08,0.54 z"
     id="path3"
     style="fill:#000000;fill-opacity:1;stroke:none;stroke-opacity:1" />
  <path
     class="cls-1"
     d="m 32.23,17 c 0.21,0.13 0.41,0.26 0.62,0.39 1.23,0.75 2.22,0.27 2.73,-0.43 0.54,-0.74 0.61,-1.86 -0.45,-2.72 v 0 c -0.1,-0.08 -0.19,-0.16 -0.29,-0.23 -2.2,-1.61 -4.73,-2.48 -7.34,-2.52 -2.03,0 -3.57,0.29 -5,0.93 -0.9,0.41 -1.72,0.92 -2.54,1.43 l -0.55,0.34 c -0.5,0.31 -0.83,0.78 -0.92,1.32 -0.09,0.54 0.06,1.09 0.44,1.55 0.38,0.46 0.9,0.72 1.46,0.72 0.41,0 0.83,-0.14 1.2,-0.4 0.07,-0.05 0.13,-0.1 0.19,-0.15 l 0.1,-0.08 c 2.73,-1.9 5.62,-2.28 8.6,-1.12 0.58,0.22 1.17,0.6 1.75,0.97 z"
     id="path4"
     style="fill:#000000;fill-opacity:1;stroke:none;stroke-opacity:1" />
  <path
     class="cls-1"
     d="m 24.94,19.51 c 0,1.16 0.94,2.11 2.11,2.11 1.17,0 2.11,-0.94 2.11,-2.11 0,-1.17 -0.94,-2.11 -2.11,-2.11 -1.17,0 -2.11,0.94 -2.11,2.11 z"
     id="path5"
     style="fill:#000000;fill-opacity:1;stroke:none;stroke-opacity:1" />
</svg>
