<?xml version="1.0" encoding="UTF-8" standalone="no"?>
<svg
   width="64"
   height="64"
   class="icon icon-tabler icons-tabler-outline icon-tabler-wash-machine"
   stroke-linejoin="round"
   stroke-width="2"
   version="1.1"
   id="svg22759"
   sodipodi:docname="swb_dryer.svg"
   inkscape:version="1.4 (86a8ad7, 2024-10-11)"
   xmlns:inkscape="http://www.inkscape.org/namespaces/inkscape"
   xmlns:sodipodi="http://sodipodi.sourceforge.net/DTD/sodipodi-0.dtd"
   xmlns="http://www.w3.org/2000/svg"
   xmlns:svg="http://www.w3.org/2000/svg">
  <defs
     id="defs22763" />
  <sodipodi:namedview
     id="namedview22761"
     pagecolor="#ffffff"
     bordercolor="#000000"
     borderopacity="0.25"
     inkscape:showpageshadow="2"
     inkscape:pageopacity="0.0"
     inkscape:pagecheckerboard="0"
     inkscape:deskcolor="#d1d1d1"
     showgrid="false"
     inkscape:zoom="4.4947918"
     inkscape:cx="14.461182"
     inkscape:cy="51.504054"
     inkscape:window-width="1920"
     inkscape:window-height="1017"
     inkscape:window-x="-8"
     inkscape:window-y="-8"
     inkscape:window-maximized="1"
     inkscape:current-layer="svg22759" />
  <g
     id="g1"
     transform="matrix(1.0034493,0,0,1.0034493,2.098839,-0.00689895)">
    <path
       style="color:#000000;fill:#000000;stroke-width:5.97938;-inkscape-stroke:none"
       d="m 12.829564,2.0000001 c -5.1716928,0 -9.7748761,3.8328777 -9.7748761,8.9690619 v 41.855629 c 0,5.136184 4.6031833,8.969063 9.7748761,8.969063 H 46.76719 c 5.171693,0 9.774877,-3.832879 9.774877,-8.969063 V 10.969062 c 0,-5.1361842 -4.603184,-8.9690619 -9.774877,-8.9690619 z m 0,5.9793748 H 46.76719 c 2.324563,0 3.795501,1.5212455 3.795501,2.9896871 v 41.855629 c 0,1.468441 -1.470938,2.989687 -3.795501,2.989687 H 12.829564 c -2.324563,0 -3.7955037,-1.521246 -3.7955037,-2.989687 V 10.969062 c 0,-1.4684416 1.4709407,-2.9896871 3.7955037,-2.9896871 z"
       id="path18298" />
    <path
       style="color:#000000;fill:#000000;stroke-width:5.97938;-inkscape-stroke:none"
       d="m 33.640592,10.969062 v 5.979376 h 13.03317 v -5.979376 z"
       id="path18292" />
    <path
       style="color:#000000;fill:#000000;stroke-width:5.97938;-inkscape-stroke:none"
       d="m 13.191594,11.085848 v 5.979376 h 5.979376 v -5.979376 z"
       id="path18280" />
    <path
       style="color:#000000;fill:#000000;stroke-width:5.97938;-inkscape-stroke:none"
       d="m 22.697869,11.085848 v 5.979376 h 5.979375 v -5.979376 z"
       id="path18286" />
    <path
       id="path11792"
       style="color:#000000;fill:#000000;stroke-width:5.97938;stroke-linecap:round;stroke-linejoin:round;-inkscape-stroke:none"
       d="m 18.137428,19.395077 a 2.3170079,2.3170079 0 0 0 -2.318176,2.318176 v 3.229096 c -1.390082,0.0457 -3.27581,0.105107 -3.27581,0.105107 a 1.7192423,1.7192423 0 0 0 -1.658343,1.73425 l 0.105106,10.942727 a 1.7192423,1.7192423 0 0 0 1.535718,1.693377 l 6.913653,0.729905 0.198533,11.129579 a 1.7192423,1.7192423 0 0 0 1.716734,1.693377 h 8.443534 8.443533 a 1.7192423,1.7192423 0 0 0 1.716736,-1.693377 l 0.198545,-11.129579 6.913653,-0.729905 a 1.7192423,1.7192423 0 0 0 1.535718,-1.693377 L 48.71168,26.781706 a 1.7192423,1.7192423 0 0 0 -1.658368,-1.73425 c 0,0 -2.060176,-0.06458 -3.667037,-0.116787 v -3.159024 a 2.3170079,2.3170079 0 0 0 -2.318177,-2.312336 2.3170079,2.3170079 0 0 0 -2.312335,2.312336 v 3.036402 c -1.03268,-0.02049 -2.417444,-0.05255 -2.417444,-0.05255 a 1.7192423,1.7192423 0 0 0 -0.05839,0 c -0.539923,0.0095 -1.102741,0.107524 -1.652505,0.30364 a 1.7192423,1.7192423 0 0 0 -1.086097,1.197042 c -0.407369,1.6172 -1.015899,2.315077 -1.629147,2.726924 -0.60812,0.4084 -1.348684,0.550901 -2.113802,0.560567 -0.765118,-0.0096 -1.505681,-0.152175 -2.113802,-0.560567 -0.613244,-0.411847 -1.22178,-1.109724 -1.629146,-2.726924 a 1.7192423,1.7192423 0 0 0 -1.0861,-1.197042 c -0.549911,-0.196166 -1.112971,-0.294094 -1.652504,-0.30364 a 1.7192423,1.7192423 0 0 0 -0.05839,0 c 0,0 -1.563073,0.03307 -2.802832,0.05839 v -3.100632 a 2.3170079,2.3170079 0 0 0 -2.318176,-2.318176 z m 5.121008,8.793887 h 0.0058 c 0.05954,0.0012 0.126626,0.02721 0.186856,0.03504 0.61845,1.470588 1.281428,2.918222 2.318177,3.614487 1.360161,0.913463 2.835127,1.133119 4.011554,1.144488 a 1.7192423,1.7192423 0 0 0 0.03504,0 c 1.176427,-0.01136 2.651393,-0.231013 4.011554,-1.144488 1.036749,-0.696265 1.699724,-2.143902 2.318177,-3.614487 0.06018,-0.0078 0.12745,-0.03381 0.186855,-0.03504 0.06897,0.0012 2.9522,0.05486 4.408621,0.09343 1.495525,0.03964 3.217385,0.101679 4.519567,0.145987 l -0.07591,7.731144 -6.901972,0.724066 A 1.7192423,1.7192423 0 0 0 36.747036,38.56529 L 36.554381,49.53137 H 29.798377 23.042384 L 22.84969,38.565288 a 1.7192423,1.7192423 0 0 0 -1.535719,-1.681699 l -6.901975,-0.724072 -0.07591,-7.731144 c 1.302181,-0.04431 3.024046,-0.106344 4.519567,-0.145987 1.454494,-0.03854 4.326319,-0.09205 4.402782,-0.09343 z" />
  </g>
</svg>
