<?xml version="1.0" encoding="UTF-8" standalone="no"?>
<svg
   width="1000"
   height="1000"
   viewBox="0 0 24 24"
   fill="none"
   stroke="currentColor"
   stroke-width="2"
   stroke-linecap="round"
   stroke-linejoin="round"
   class="icon icon-tabler icons-tabler-outline icon-tabler-massage"
   version="1.1"
   id="svg6"
   sodipodi:docname="swb_spa.svg"
   inkscape:version="1.4 (86a8ad7, 2024-10-11)"
   xmlns:inkscape="http://www.inkscape.org/namespaces/inkscape"
   xmlns:sodipodi="http://sodipodi.sourceforge.net/DTD/sodipodi-0.dtd"
   xmlns="http://www.w3.org/2000/svg"
   xmlns:svg="http://www.w3.org/2000/svg">
  <defs
     id="defs6" />
  <sodipodi:namedview
     id="namedview6"
     pagecolor="#ffffff"
     bordercolor="#000000"
     borderopacity="0.25"
     inkscape:showpageshadow="2"
     inkscape:pageopacity="0.0"
     inkscape:pagecheckerboard="0"
     inkscape:deskcolor="#d1d1d1"
     inkscape:zoom="0.74301455"
     inkscape:cx="386.93724"
     inkscape:cy="631.88534"
     inkscape:window-width="1920"
     inkscape:window-height="1009"
     inkscape:window-x="1912"
     inkscape:window-y="-8"
     inkscape:window-maximized="1"
     inkscape:current-layer="svg6" />
  <path
     stroke="none"
     d="M 0,0 H 24 V 24 H 0 Z"
     fill="none"
     id="path1" />
  <path
     d="m 4,17 m -1,0 a 1,1 0 1 0 2,0 1,1 0 1 0 -2,0"
     id="path2" />
  <path
     d="M 9,5 M 8,5 a 1,1 0 1 0 2,0 1,1 0 1 0 -2,0"
     id="path3" />
  <path
     d="M 4,22 8,20 V 17 H 20"
     id="path4" />
  <path
     d="m 11,20 h 9"
     id="path5" />
  <path
     d="m 8,14 3,-2 1,-4 c 3,1 3,4 3,6"
     id="path6" />
</svg>
