<svg xmlns="http://www.w3.org/2000/svg" id="Calque_2" data-name="Calque 2" viewBox="0 0 59.94 83.34">
    <defs>
        <style>
            .cls-1 {

            }
        </style>
    </defs>
    <g id="Calque_1-2" data-name="Calque 1">
        <path class="cls-1"
            d="m14.44,29.3c2.86,11.52,8.6,21.33,17.12,29.61.86-.62,1.7-1.23,2.53-1.84.78-.57,1.55-1.14,2.33-1.7,2.64-1.92,5.89-2.06,8.7-.38,4.09,2.46,8.18,4.91,12.27,7.38,2.58,1.56,3.27,4.31,1.73,6.89-2.12,3.54-4.24,7.09-6.39,10.62-2.13,3.5-5.8,4.28-9.03,2.66-10.68-5.35-19.97-12.43-27.47-21.76C8.49,51.16,3.53,40.27,1.29,28.14-.05,20.91-.32,13.63.37,6.32.62,3.58,2.11,1.69,4.73.83c.95-.31,1.99-.49,2.99-.53C11.67.16,15.63.08,19.58,0c2.96-.06,5.02,1.94,5.09,4.9.11,4.71.23,9.43.34,14.14.08,3.48-1.59,6.16-4.75,7.59-1.73.79-3.47,1.57-5.2,2.36-.2.09-.39.19-.62.3Z" />
    </g>
</svg>