<svg xmlns="http://www.w3.org/2000/svg" id="Calque_2" data-name="Calque 2" viewBox="0 0 80 80">
    <defs>
        <style>
            .cls-1 {

            }
        </style>
    </defs>
    <g id="Calque_1-2" data-name="Calque 1">
        <path class="cls-1"
            d="m40,0C17.91,0,0,17.91,0,40s17.91,40,40,40,40-17.91,40-40S62.09,0,40,0Zm-.6,9.84s.09-.03.14-.05h.92c.18.04.36.08.54.13,1.8.46,3.05,2.05,3.07,3.91.01,1.15,0,2.3,0,3.44,0,5.64,0,11.29,0,16.93,0,1.95-1.24,3.56-3.09,4.03-2.53.65-5.06-1.27-5.06-3.89-.01-6.84,0-13.69,0-20.53,0-2,1.49-3.69,3.48-3.98Zm29.13,33.65c-.05,1.69-.26,3.37-.63,5.02-1.39,6.2-4.48,11.41-9.29,15.56-4.78,4.12-10.35,6.41-16.66,6.86-.4.03-.79.06-1.19.09h-1.53c-.14-.02-.28-.03-.43-.05-1.01-.09-2.02-.14-3.02-.29-2.56-.36-5.03-1.08-7.38-2.15-6.16-2.8-10.81-7.22-13.9-13.24-1.63-3.17-2.59-6.54-2.93-10.09-.05-.55-.09-1.1-.14-1.65v-2.24c.05-.55.09-1.1.14-1.65.23-2.52.81-4.96,1.7-7.32,1.67-4.4,4.26-8.16,7.77-11.29,1.65-1.47,4.17-1.32,5.68.31,1.5,1.62,1.43,4.13-.15,5.69-.74.73-1.51,1.45-2.18,2.25-2.53,2.99-4.1,6.44-4.6,10.33-.81,6.23.88,11.74,5.05,16.43,2.96,3.34,6.68,5.44,11.05,6.35,10.81,2.25,21.5-4.65,23.98-15.44,1.64-7.15-.72-14.71-6.17-19.65-.81-.73-1.33-1.59-1.5-2.67-.33-2.16,1.35-4.35,3.53-4.58,1.3-.13,2.41.25,3.37,1.12,4.15,3.79,6.97,8.38,8.46,13.8.57,2.07.89,4.19.96,6.33,0,.13.03.25.04.38v1.48c-.01.09-.04.18-.04.27Z" />
    </g>
</svg>