<?xml version="1.0" encoding="UTF-8" standalone="no"?>
<svg
   id="Calque_2"
   data-name="Calque 2"
   viewBox="-3 -30 140 140"
   version="1.1"
   sodipodi:docname="swb_solchauffant.svg"
   inkscape:version="1.4 (86a8ad7, 2024-10-11)"
   width="1000"
   height="1000"
   xmlns:inkscape="http://www.inkscape.org/namespaces/inkscape"
   xmlns:sodipodi="http://sodipodi.sourceforge.net/DTD/sodipodi-0.dtd"
   xmlns="http://www.w3.org/2000/svg"
   xmlns:svg="http://www.w3.org/2000/svg">
  <sodipodi:namedview
     id="namedview6"
     pagecolor="#ffffff"
     bordercolor="#000000"
     borderopacity="0.25"
     inkscape:showpageshadow="2"
     inkscape:pageopacity="0.0"
     inkscape:pagecheckerboard="0"
     inkscape:deskcolor="#d1d1d1"
     inkscape:zoom="0.47929978"
     inkscape:cx="374.50466"
     inkscape:cy="316.0861"
     inkscape:window-width="1920"
     inkscape:window-height="1009"
     inkscape:window-x="1912"
     inkscape:window-y="-8"
     inkscape:window-maximized="1"
     inkscape:current-layer="Calque_2"
     showguides="true">
    <sodipodi:guide
       position="48.4874,121.89025"
       orientation="0,-1"
       id="guide1"
       inkscape:locked="false" />
  </sodipodi:namedview>
  <defs
     id="defs1">
    <style
       id="style1">
            .cls-1 {

            }
        </style>
  </defs>
  <path
     class="cls-1"
     d="m 133.81,89.508784 c -0.78,-1.636598 -1.6,-3.242605 -2.26,-5.047451 -0.8,-2.171934 -1.77,-2.73786 -3.12,-2.73786 -40.89,0.06118 -81.77,0.06118 -122.66,0.06118 -0.32,0 -0.64,-0.09177 -0.95,0.03059 -0.29,0.122362 -0.63,0.321201 -0.81,0.718879 -1.22,2.615498 -2.47,5.2157 -3.59,7.999445 -1,2.493135 -0.13,6.011055 1.49,6.332257 0.43,0.07648 0.87,0.03059 1.3,0.03059 21.33,0 42.66,0 64,0 19.4,0 38.79,0 58.19,0 2.25,0 4.5,-0.04589 6.76,0 0.99,0.01529 1.8,-0.504746 2.24,-2.355478 0.47,-1.957799 0.1,-3.548511 -0.6,-5.032155 z"
     id="path1"
     style="fill:#000000;fill-opacity:1;stroke:none;stroke-width:1.23674" />
  <path
     class="cls-1"
     d="m 123.87,60.74065 c -0.53,-1.69926 -1.1,-2.307638 -1.92,-2.307638 -35.04,0.06293 -70.08,0.04196 -105.13,0.06293 -1.74,0 -3.69,-1.258712 -5.15,0.461528 -1.45,1.720239 -2.4,6.482366 -3.56,9.901866 -0.42,1.258713 -0.85,2.496446 -1.26,3.797115 -0.18,0.587399 -0.33,1.237734 -0.56,2.13981 h 122.18 c -1.66,-5.034847 -3.17,-9.461318 -4.6,-14.055616 z"
     id="path2"
     style="fill:#000000;fill-opacity:1;stroke:none;stroke-width:1.4484" />
  <path
     class="cls-1"
     d="m 118.75,45.231994 c -1.34,-3.522983 -3.02,-5.147571 -5.03,-5.147571 -30.97,0 -61.94,0 -92.92,0.109523 -1.23,0 -2.65,0.949197 -3.64,2.573786 -1.38,2.245217 -2.45,5.549154 -3.87,8.944361 h 107.92 c -0.91,-2.391248 -1.69,-4.435673 -2.46,-6.480099 z"
     id="path3"
     style="fill:#000000;fill-opacity:1;stroke:none;stroke-width:1.35107;stroke-opacity:1" />
  <path
     class="cls-1"
     d="m 45.613394,12.929234 c 3.328812,3.757 3.342624,8.646625 0.01381,12.389813 -0.442,0.49725 -0.925437,0.980687 -1.367437,1.477937 -1.063563,1.2155 -1.008313,2.886813 0.09669,3.895125 1.105,1.008312 2.679625,0.953062 3.81225,-0.16575 0.649187,-0.649188 1.27075,-1.326 1.864687,-2.030437 4.69625,-5.511188 4.654813,-13.342875 -0.09669,-18.8126251 -0.9945,-1.1464375 -2.04425,-2.237625 -3.080187,-3.3564375 -2.334313,-2.5000624 -3.011125,-5.44212485 -2.223813,-8.7294998 0.442,-1.8923125 1.71275,-3.2873749 2.969687,-4.6962499 0.511063,-0.580125 0.842563,-1.326 1.077375,-1.71275 -0.06906,-1.5331877 -0.5525,-2.3895627 -1.560812,-2.8729997 -1.063562,-0.511063 -2.071875,-0.345313 -2.955875,0.414375 -6.35375,5.4559372 -7.044375,14.627437 -1.547,20.9259369 0.980688,1.1188121 2.030438,2.1685621 3.011125,3.2735621 z"
     id="path4"
     style="fill:#000000;fill-opacity:1;stroke:none;stroke-width:1.38125" />
  <path
     class="cls-1"
     d="m 85.380498,12.985713 c 3.232091,3.674086 3.28734,8.397911 0.151936,12.141058 -0.538682,0.649181 -1.17405,1.2293 -1.698919,1.87848 -0.883991,1.104989 -0.745867,2.707222 0.262435,3.646462 0.994489,0.93924 2.555285,1.035926 3.563587,0.09669 3.342589,-3.121592 5.649252,-6.768053 5.58019,-10.56645 C 93.253539,15.416687 92.093302,12.405595 89.44133,9.3668769 88.225843,7.9856416 86.899857,6.7010928 85.781057,5.2507958 83.474394,2.2673276 83.446769,-1.9868771 85.642933,-5.0394071 c 0.580119,-0.8011164 1.256924,-1.5193588 1.919917,-2.2652258 1.104988,-1.2431118 1.118801,-2.8177201 0,-3.8950831 -1.132613,-1.104989 -2.776283,-1.035927 -3.964145,0.17956 -0.400558,0.400558 -0.773492,0.814929 -1.146425,1.2431119 -5.207257,6.0083735 -5.124383,13.9090393 0.207185,19.7931011 0.897803,0.99449 1.850855,1.947542 2.734846,2.955844 z"
     id="path5"
     style="fill:#000000;fill-opacity:1;stroke:none;stroke-width:1.38124" />
  <path
     class="cls-1"
     d="m 65.484086,12.803125 c 1.585423,1.766216 2.503299,3.782762 2.475484,6.18871 0.04172,2.266876 -0.709268,4.255607 -2.183432,5.966195 -0.556289,0.639731 -1.168206,1.251649 -1.724495,1.891381 -0.987412,1.154298 -0.94569,2.753628 0.09735,3.754947 1.09867,1.070856 2.697999,1.070856 3.824484,0 0.570195,-0.542381 1.098669,-1.112577 1.613236,-1.710587 C 74.788011,22.927576 74.74629,15.028279 69.489363,9.1177131 68.4046,7.8938783 67.222487,6.7534868 66.193353,5.4879303 63.41191,2.0528485 63.467539,-2.5782537 66.304611,-5.9855211 c 0.50066,-0.5980101 1.056948,-1.1542987 1.557608,-1.7523089 0.987412,-1.1960204 0.876154,-2.823164 -0.264237,-3.824484 -1.09867,-0.987412 -2.656278,-0.917876 -3.741041,0.166887 -0.556288,0.556288 -1.09867,1.112577 -1.599329,1.7105871 -4.464216,5.270834 -4.784082,12.4469563 -0.709268,18.023749 1.168206,1.5993296 2.614556,2.9900509 3.949649,4.4781229 z"
     id="path6"
     style="fill:#000000;fill-opacity:1;stroke:none;stroke-width:1.39072" />
</svg>
