<svg width="1000" height="1000" xml:space="preserve" xmlns="http://www.w3.org/2000/svg">
    <rect width="100%" height="100%" fill="#fff" style="fill:none;stroke:none"/>
    <path style="display:inline;fill:none;fill-rule:nonzero;stroke:none;stroke-width:75.7576;stroke-linecap:round;stroke-linejoin:round;stroke-miterlimit:4;stroke-dasharray:none;stroke-dashoffset:0" d="M954.545 45.455v909.09H45.455V45.456Z"/>
    <path style="fill:none;stroke:#000;stroke-width:60;stroke-linecap:round;stroke-linejoin:round;stroke-dasharray:none;paint-order:fill markers stroke" d="M250 759.016V860h500V760a60 60 45 0 0-60-60H309.016A59.016 59.016 135 0 0 250 759.016Z" transform="translate(-84.623 10.755)"/>
    <path style="fill:none;stroke:#000;stroke-width:52.8875;stroke-linecap:round;stroke-linejoin:round;stroke-dasharray:none;paint-order:fill markers stroke" d="M310 739.016v380h380v-380Z" transform="matrix(.97348 0 0 1.29176 -71.363 -737.119)"/>
    <path style="fill:none;stroke:#000;stroke-width:80;stroke-linecap:round;stroke-linejoin:round;stroke-dasharray:none;paint-order:fill markers stroke" d="M370 758.189V790h260v-32.013A37.987 37.987 45 0 0 592.013 720H408.19A38.189 38.189 135 0 0 370 758.189Z" transform="translate(-84.623 -578.358)"/>
    <path style="fill:none;stroke:#000;stroke-width:69.9055;stroke-linecap:round;stroke-linejoin:round;stroke-dasharray:none;paint-order:fill markers stroke" d="M194.11 362.763s73.112-29.08 109.925-25.006c37.481 4.148 72.39 50.012 109.925 50.012 37.536 0 72.444-45.864 109.925-50.012 36.814-4.075 109.925 25.006 109.925 25.006M194.191 500.058s73.112-29.08 109.925-25.006c37.48 4.148 72.39 50.012 109.925 50.012 37.536 0 72.444-45.864 109.925-50.012 36.813-4.075 109.925 25.006 109.925 25.006"/>
    <path style="fill:none;fill-opacity:1;stroke:#000;stroke-width:60;stroke-linecap:round;stroke-linejoin:round;stroke-dasharray:none;stroke-opacity:1" d="M625.848 635.17H734.63V233.293h75.31"/>
</svg>
