<svg xmlns="http://www.w3.org/2000/svg" id="Calque_2" data-name="Calque 2" viewBox="0 0 64.24 71.34">
    <defs>
        <style>
            .cls-1 {

            }
        </style>
    </defs>
    <g id="Calque_1-2" data-name="Calque 1">
        <g>
            <path class="cls-1"
                d="m31.29,61.88h0c-.82-.41-.74-1.04-.73-1.71,0-.34.02-.68,0-1.01-.05-.3.11-.59.39-.71.76-.4,1.12-1.28.86-2.09-.29-.81-1.06-1.35-1.92-1.35-1.87-.01-3.74,0-5.61,0h-4.8c-2.03,0-4.07,0-6.1.03-.74.02-1.38.54-1.56,1.26-.27.7-.07,1.5.5,2,.43.38,1,.57,1.57.52,2.75,0,5.5-.01,8.26,0,.67-.06,1.27.43,1.33,1.11.01.14,0,.29-.04.43-.16.61-.74,1.01-1.37.94h-8.31c-1.05-.08-1.96.7-2.04,1.75s.7,1.96,1.75,2.04c.1,0,.21,0,.31,0,1.13,0,2.27,0,3.41,0,1.67,0,3.34,0,5.01,0,.67-.04,1.24.46,1.29,1.13.01.15,0,.3-.05.44-.17.59-.74.97-1.35.9-1.98,0-3.98,0-5.97,0-1.04-.09-1.96.69-2.04,1.73-.09,1.04.69,1.96,1.73,2.04.09,0,.18,0,.27,0,3.84.01,7.67.02,11.51.01,1.05.02,1.92-.81,1.94-1.86,0-.45-.14-.88-.42-1.23-.08-.1-.18-.21-.19-.31-.01-.95,0-1.9,0-2.83.48,0,.97-.05,1.45-.12.72-.12,1.3-.67,1.46-1.39.24-.63.02-1.34-.54-1.72Z" />
            <path class="cls-1"
                d="m25.24,19.34c0-6.7,4.12-12.43,9.96-14.81C31.96,1.98,28.02.39,23.85.04c-.7-.07-1.41.02-2.11.02-.55,0-1.11-.09-1.65-.04C13.17.5,6.92,4.31,3.32,10.24.78,14.23-.35,18.95.09,23.66c.2,3.43,1.47,6.71,3.63,9.37,1.3,1.59,2.67,3.13,4.02,4.69,2.6,2.93,4.46,6.45,5.4,10.26.18.74.34,1.47.51,2.19h5.81v-.42c0-4.68-.03-9.36.02-14.05,1.56.3,3.17.3,4.73,0,0,4.65,0,9.31,0,13.96v.56c1.72,0,3.37,0,5.02,0,.82,0,.71.17.89-.74.59-3.39,1.94-6.6,3.95-9.39,1.31-1.74,2.72-3.4,4.17-5.03-7.4-1.4-13.01-7.9-13.01-15.71Z" />
            <path class="cls-1"
                d="m41.48,17.41v-.03c0-1.02-.32-1.86-.94-2.48-.72-.72-1.83-1.14-3.47-1.14h-5.04v10.67h2.96v-3.23h1.31l2.15,3.23h3.4l-2.54-3.72c1.34-.56,2.19-1.65,2.19-3.29Zm-2.96.2c0,.78-.59,1.27-1.59,1.27h-1.97v-2.58h1.95c.98,0,1.6.43,1.6,1.28v.03Z" />
            <path class="cls-1"
                d="m48.16,20.35h2.09v1.3c-.43.29-.98.44-1.71.44-1.69,0-2.89-1.23-2.89-2.97v-.03c0-1.63,1.2-2.91,2.73-2.91,1.08,0,1.8.35,2.58,1.01l1.74-2.1c-1.14-.98-2.44-1.54-4.33-1.54-3.29,0-5.73,2.44-5.73,5.55v.03c0,3.25,2.45,5.52,5.79,5.52,1.97,0,3.49-.7,4.63-1.66v-4.78h-4.89v2.16Z" />
            <path class="cls-1"
                d="m62.12,18.84c.96-.41,1.65-1.14,1.65-2.38v-.03c0-.73-.26-1.3-.69-1.74-.62-.61-1.57-.95-2.91-.95h-5.47v10.67h5.5c2.56,0,4.04-1.1,4.04-2.94v-.03c0-1.45-.82-2.18-2.12-2.61Zm-4.54-2.71h1.93c.9,0,1.34.31,1.34.91v.03c0,.63-.5.93-1.42.93h-1.86v-1.87Zm3.7,4.94c0,.63-.5.98-1.42.98h-2.29v-1.97h2.25c.99,0,1.45.37,1.45.96v.03Z" />
        </g>
    </g>
</svg>