<?xml version="1.0" encoding="UTF-8" standalone="no"?>
<svg
   width="1000"
   height="1000"
   viewBox="0 0 64 64"
   fill="none"
   stroke="currentColor"
   stroke-width="2"
   stroke-linecap="round"
   stroke-linejoin="round"
   class="icon icon-tabler icons-tabler-outline icon-tabler-massage"
   version="1.1"
   id="svg14"
   sodipodi:docname="swb_inverter.svg"
   inkscape:version="1.4 (86a8ad7, 2024-10-11)"
   xmlns:inkscape="http://www.inkscape.org/namespaces/inkscape"
   xmlns:sodipodi="http://sodipodi.sourceforge.net/DTD/sodipodi-0.dtd"
   xmlns="http://www.w3.org/2000/svg"
   xmlns:svg="http://www.w3.org/2000/svg">
  <defs
     id="defs18" />
  <sodipodi:namedview
     id="namedview16"
     pagecolor="#ffffff"
     bordercolor="#000000"
     borderopacity="0.25"
     inkscape:showpageshadow="2"
     inkscape:pageopacity="0.0"
     inkscape:pagecheckerboard="0"
     inkscape:deskcolor="#d1d1d1"
     showgrid="false"
     inkscape:zoom="0.19864361"
     inkscape:cx="-1281.189"
     inkscape:cy="-933.83321"
     inkscape:window-width="1920"
     inkscape:window-height="1009"
     inkscape:window-x="1912"
     inkscape:window-y="-8"
     inkscape:window-maximized="1"
     inkscape:current-layer="svg14" />
  <g
     id="g1"
     transform="translate(1.363362,5.6364024)">
    <path
       id="rect302"
       style="color:#000000;fill:#000000;stroke:none;stroke-width:5.33402;stroke-linecap:square;stroke-linejoin:round;-inkscape-stroke:none"
       d="m 10.579367,3.6914062 c -5.2938298,0 -9.641867,4.3428283 -9.641867,9.6366588 v 26.065858 c 0,5.293831 4.3480372,9.641866 9.641867,9.641866 h 40.119752 c 5.293831,0 9.636657,-4.348035 9.636657,-9.641866 V 13.328065 c 0,-5.2938305 -4.342826,-9.6366585 -9.636657,-9.6366588 z m 0,5.3340205 h 40.119752 c 0.42402,0 0.83068,0.059776 1.213698,0.1666882 L 6.5892697,41.050387 C 6.3859539,40.543399 6.2715205,39.985658 6.2715205,39.393923 V 13.328065 c 0,-2.431053 1.8767944,-4.3026383 4.3078465,-4.3026383 z m 43.859818,2.1409013 c 0.356656,0.630862 0.562571,1.364047 0.562571,2.161737 v 26.065858 c 0,2.431051 -1.871585,4.307845 -4.302637,4.307845 H 10.579367 c -0.6677191,0 -1.2925071,-0.145325 -1.8491964,-0.401091 z" />
    <path
       style="color:#000000;fill:#000000;stroke:none;stroke-width:5.33402;stroke-linecap:round;stroke-linejoin:round;-inkscape-stroke:none"
       d="m 18.424128,18.130767 -7.500967,0.05209 a 1.5335309,1.5335309 0 0 0 -1.5210289,1.541865 1.5335309,1.5335309 0 0 0 1.5418649,1.526239 l 7.500967,-0.05209 a 1.5335309,1.5335309 0 0 0 1.521029,-1.547079 1.5335309,1.5335309 0 0 0 -1.541865,-1.521029 z"
       id="path1790" />
    <path
       style="color:#000000;fill:#000000;stroke:none;stroke-width:5.33402;stroke-linecap:round;stroke-linejoin:round;-inkscape-stroke:none"
       d="m 23.153904,18.182857 a 1.5335309,1.5335309 0 0 0 -1.531447,1.531447 1.5335309,1.5335309 0 0 0 1.531447,1.536657 h 7.709326 a 1.5335309,1.5335309 0 0 0 1.531448,-1.536657 1.5335309,1.5335309 0 0 0 -1.531448,-1.531447 z"
       id="path1790-9" />
    <path
       style="color:#000000;fill:#000000;stroke:none;stroke-width:5.33402;stroke-linecap:round;stroke-linejoin:round;-inkscape-stroke:none"
       d="m 10.93358,12.098739 a 1.5335309,1.5335309 0 0 0 -1.5314479,1.531448 1.5335309,1.5335309 0 0 0 1.5314479,1.536656 h 20.033831 a 1.5335309,1.5335309 0 0 0 1.536657,-1.536656 1.5335309,1.5335309 0 0 0 -1.536657,-1.531448 z"
       id="path1792" />
    <path
       style="color:#000000;fill:#000000;stroke:none;stroke-width:5.33402;stroke-linecap:round;stroke-linejoin:round;-inkscape-stroke:none"
       d="m 30.467347,37.565562 a 1.5335309,1.5335309 0 0 0 -1.536657,1.531448 1.5335309,1.5335309 0 0 0 1.536657,1.536656 h 20.033829 a 1.5335309,1.5335309 0 0 0 1.531448,-1.536656 1.5335309,1.5335309 0 0 0 -1.531448,-1.531448 z"
       id="path1792-3" />
    <path
       style="color:#000000;fill:#000000;stroke:none;stroke-width:5.33402;stroke-linecap:round;stroke-linejoin:round;-inkscape-stroke:none"
       d="m 35.962847,28.10601 c -2.132555,-0.03411 -4.280082,1.313257 -6.615436,4.292219 a 1.5335309,1.5335309 0 0 0 0.265661,2.15132 1.5335309,1.5335309 0 0 0 2.151319,-0.26046 c 2.061231,-2.629296 3.331374,-3.128024 4.146367,-3.114985 0.814993,0.01307 1.795124,0.667822 3.062896,1.651252 1.267768,0.983434 2.82207,2.2702 5.000644,2.364889 2.178574,0.09468 4.485252,-1.131922 7.032154,-4.02135 a 1.5335309,1.5335309 0 0 0 -0.135431,-2.161737 1.5335309,1.5335309 0 0 0 -2.166946,0.135431 c -2.238904,2.540007 -3.635967,3.02664 -4.59955,2.98476 -0.963583,-0.04187 -1.988787,-0.745509 -3.250418,-1.724182 -1.261635,-0.97867 -2.758703,-2.263052 -4.891255,-2.297171 z"
       id="path1792-4-9" />
  </g>
</svg>
