<?xml version="1.0" encoding="UTF-8" standalone="no"?>
<svg
   width="1000"
   height="1000"
   viewBox="0 0 24 24"
   fill="currentColor"
   class="icon icon-tabler icons-tabler-filled icon-tabler-droplet-half-2"
   version="1.1"
   id="svg2"
   sodipodi:docname="swb_eau.svg"
   inkscape:version="1.4 (86a8ad7, 2024-10-11)"
   xmlns:inkscape="http://www.inkscape.org/namespaces/inkscape"
   xmlns:sodipodi="http://sodipodi.sourceforge.net/DTD/sodipodi-0.dtd"
   xmlns="http://www.w3.org/2000/svg"
   xmlns:svg="http://www.w3.org/2000/svg">
  <defs
     id="defs2" />
  <sodipodi:namedview
     id="namedview2"
     pagecolor="#ffffff"
     bordercolor="#000000"
     borderopacity="0.25"
     inkscape:showpageshadow="2"
     inkscape:pageopacity="0.0"
     inkscape:pagecheckerboard="0"
     inkscape:deskcolor="#d1d1d1"
     inkscape:zoom="33.625"
     inkscape:cx="12"
     inkscape:cy="12"
     inkscape:window-width="1920"
     inkscape:window-height="1009"
     inkscape:window-x="1912"
     inkscape:window-y="-8"
     inkscape:window-maximized="1"
     inkscape:current-layer="svg2" />
  <path
     stroke="none"
     d="M 0,0 H 24 V 24 H 0 Z"
     fill="none"
     id="path1" />
  <path
     d="m 13.905,2.923 0.098,0.135 4.92,7.306 a 7.566,7.566 0 0 1 1.043,3.167 l 0.024,0.326 C 19.997,13.904 20,13.951 20,14 l -0.002,0.06 c 0.056,2.3 -0.944,4.582 -2.87,6.14 -2.969,2.402 -7.286,2.402 -10.255,0 C 4.969,18.66 3.969,16.413 4.008,14.129 A 1.052,1.052 0 0 1 4.021,13.796 7.66,7.66 0 0 1 4.934,10.62 l 0.172,-0.302 4.893,-7.26 c 0.185,-0.275 0.426,-0.509 0.709,-0.686 1.055,-0.66 2.446,-0.413 3.197,0.55 z M 11.845,4.03 11.768,4.068 11.727,4.098 11.69,4.134 11.657,4.176 6.794,11.39 A 5.607,5.607 0 0 0 6.143,13 h 11.723 a 5.444,5.444 0 0 0 -0.49,-1.313 L 17.235,11.436 12.344,4.175 a 0.428,0.428 0 0 0 -0.5,-0.145 z"
     id="path2" />
</svg>
