<svg xmlns="http://www.w3.org/2000/svg" id="Calque_2" data-name="Calque 2"
    viewBox="0 0 109.07 87.98">
    <defs>
        <style>
            .cls-1 {

            }
        </style>
    </defs>
    <g id="Calque_1-2" data-name="Calque 1">
        <g>
            <path class="cls-1"
                d="m109.07,24.72c0,.48,0,.88,0,1.28,0,19.34,0,38.69,0,58.03,0,2.51-1.42,3.94-3.92,3.94-33.71,0-67.41,0-101.12,0-2.59,0-4.02-1.39-4.02-3.96,0-13.99,0-27.99,0-41.98,0-5.39,0-10.77,0-16.16,0-.36,0-.72,0-1.15h109.06Zm-54.41,6.97c-12.2,0-24.4,0-36.6,0-2.56,0-3.97,1.39-3.97,3.9,0,13.81,0,27.62,0,41.43,0,2.52,1.41,3.91,3.96,3.91,24.33,0,48.65,0,72.98,0,2.6,0,3.97-1.39,3.97-4.01,0-13.74,0-27.48,0-41.21,0-2.67-1.37-4.02-4.07-4.02-12.09,0-24.18,0-36.27,0Z" />
            <path class="cls-1"
                d="m10.47,3.54c.3-.82.58-1.6.86-2.38C11.63.36,12.13,0,13.06,0,21.93.04,30.79.05,39.66,0c1,0,1.5.38,1.81,1.21.28.75.54,1.5.82,2.29h24.46c.32-.84.65-1.72,1-2.58.26-.64.7-.91,1.44-.91,8.98.02,17.96.02,26.93,0,.78,0,1.24.29,1.51.98.33.84.65,1.68.99,2.56,2.32,0,4.63-.01,6.93,0,1.84.02,3.46,1.46,3.48,3.26.05,4.72.02,9.45.02,14.25H0c0-.65,0-1.29,0-1.94,0-3.88-.01-7.77,0-11.65.01-2.52,1.44-3.91,3.95-3.92,2.16,0,4.32,0,6.51,0Zm47.63,14.1c2.54.2,5.37-1.86,5.38-5.15,0-3.21-2.29-5.3-5.33-5.38-2.85-.07-5.15,2.41-5.18,5.38-.03,2.82,2.28,5.13,5.14,5.14Zm14.12,0c2.64.17,5.37-2.04,5.34-5.2-.03-3.19-2.29-5.21-5.28-5.33-2.75-.11-5.23,2.38-5.24,5.1-.01,3.14,2.17,5.42,5.18,5.43Zm14.07,0c2.64.17,5.37-2.04,5.33-5.2-.04-3.19-2.23-5.19-5.27-5.33-2.74-.13-5.16,2.38-5.26,5.1-.13,3.37,2.87,5.63,5.2,5.43Zm14-.01c2.26.19,5.15-1.86,5.21-5.23.05-2.84-2.51-5.33-5.34-5.32-2.81.01-5.22,2.46-5.19,5.27.03,3.13,2.22,5.29,5.31,5.27Z" />
            <path class="cls-1" d="m31.72,42.17v-3.39h45.59v3.39H31.72Z" />
        </g>
    </g>
</svg>