<?xml version="1.0" encoding="UTF-8" standalone="no"?>
<svg
   width="24"
   height="24"
   viewBox="0 0 24 24"
   fill="none"
   stroke="currentColor"
   stroke-width="2"
   stroke-linecap="round"
   stroke-linejoin="round"
   class="icon icon-tabler icons-tabler-outline icon-tabler-soup"
   version="1.1"
   id="svg5"
   sodipodi:docname="swb_soup.svg"
   inkscape:version="1.4.3 (0d15f75042, 2025-12-25)"
   xmlns:inkscape="http://www.inkscape.org/namespaces/inkscape"
   xmlns:sodipodi="http://sodipodi.sourceforge.net/DTD/sodipodi-0.dtd"
   xmlns="http://www.w3.org/2000/svg"
   xmlns:svg="http://www.w3.org/2000/svg">
  <defs
     id="defs5" />
  <sodipodi:namedview
     id="namedview5"
     pagecolor="#ffffff"
     bordercolor="#000000"
     borderopacity="0.25"
     inkscape:showpageshadow="2"
     inkscape:pageopacity="0.0"
     inkscape:pagecheckerboard="0"
     inkscape:deskcolor="#d1d1d1"
     inkscape:zoom="33.291667"
     inkscape:cx="11.984981"
     inkscape:cy="12"
     inkscape:window-width="1920"
     inkscape:window-height="1008"
     inkscape:window-x="0"
     inkscape:window-y="0"
     inkscape:window-maximized="1"
     inkscape:current-layer="svg5" />
  <path
     stroke="none"
     d="M0 0h24v24H0z"
     fill="none"
     id="path1" />
  <path
     d="M4 11h16a1 1 0 0 1 1 1v.5c0 1.5 -2.517 5.573 -4 6.5v1a1 1 0 0 1 -1 1h-8a1 1 0 0 1 -1 -1v-1c-1.687 -1.054 -4 -5 -4 -6.5v-.5a1 1 0 0 1 1 -1"
     id="path2"
     style="fill:none;stroke:#000000;stroke-opacity:1" />
  <path
     d="M12 4a2.4 2.4 0 0 0 -1 2a2.4 2.4 0 0 0 1 2"
     id="path3"
     style="fill:none;stroke:#000000;stroke-opacity:1" />
  <path
     d="M16 4a2.4 2.4 0 0 0 -1 2a2.4 2.4 0 0 0 1 2"
     id="path4"
     style="fill:none;stroke:#000000;stroke-opacity:1" />
  <path
     d="M8 4a2.4 2.4 0 0 0 -1 2a2.4 2.4 0 0 0 1 2"
     id="path5"
     style="fill:none;stroke:#000000;stroke-opacity:1" />
</svg>
