<svg xmlns="http://www.w3.org/2000/svg" id="Calque_2" data-name="Calque 2"
    viewBox="0 0 107.62 79.77">
    <defs>
        <style>
            .cls-1 {

            }
        </style>
    </defs>
    <g id="Calque_1-2" data-name="Calque 1">
        <g>
            <path class="cls-1"
                d="m107.17,28.18c-2.06-8.43-10.52-13.76-18.88-11.9-7.35,1.64-12.36,7.78-12.59,15.51h7.92c.13-.72.2-1.38.38-2.01,1.24-4.15,5.04-6.55,9.27-5.68,4.36.9,6.84,5.07,6.2,8.84-.73,4.33-3.88,6.9-8.37,6.9-29.92,0-59.85,0-89.77,0H0v7.99h1.44c29.78,0,59.57,0,89.35,0,.94,0,1.89-.06,2.82-.17,9.36-1.11,15.78-10.34,13.56-19.47Z" />
            <path class="cls-1"
                d="m55.3,31.85c2.08,0,4.1-.3,6.05-1.03,7.27-2.74,11.66-10.29,10-18.15C69.51,3.99,61.37-1.33,52.66.29c-7.8,1.45-13.03,8.69-12.76,15.58,2.03,0,3.98,0,5.94,0,.62,0,1.33.1,1.82-.17.27-.15.19-.96.27-1.47.01-.07.07-.12.09-.19.79-3.51,4.39-6.52,8.82-5.99,4.26.51,7.68,5.14,6.7,9.36-.93,3.98-4.02,6.45-8.12,6.45-15.42,0-30.83,0-46.25,0h-1.2v7.99h1.29c15.35,0,30.69,0,46.04,0Z" />
            <path class="cls-1"
                d="m79.86,55.82c-18.22,0-36.44,0-54.66,0h-1.28v7.99h1.36c18.15,0,36.3,0,54.45,0,1.98,0,3.48,1.16,3.87,2.98.4,1.87-.46,3.76-2.04,4.52-1.74.83-3.95.43-5-1.05-.48-.68-.7-1.55-1.08-2.42h-7.68c.11,3.87,1.67,7.14,4.46,9.25,4.05,3.06,8.46,3.52,12.97,1.28,4.29-2.13,6.34-5.82,6.41-10.59.1-6.67-5.13-11.97-11.78-11.97Z" />
        </g>
    </g>
</svg>