<?xml version="1.0" encoding="utf-8"?>
<!-- Svg Vector Icons : http://www.onlinewebfonts.com/icon -->
<!DOCTYPE svg PUBLIC "-//W3C//DTD SVG 1.1//EN" "http://www.w3.org/Graphics/SVG/1.1/DTD/svg11.dtd">
<svg version="1.1" xmlns="http://www.w3.org/2000/svg" xmlns:xlink="http://www.w3.org/1999/xlink" x="0px" y="0px" viewBox="0 0 256 256" enable-background="new 0 0 256 256" xml:space="preserve">
<metadata> Svg Vector Icons : http://www.onlinewebfonts.com/icon </metadata>
<g><g><g><path fill="#000000" d="M207.1,29.6c-8.6,2.1-16.7,8.8-20.8,17.5c-2.6,5.3-3,8.1-3.3,19.7l-0.3,10.5h-27.3H128v-8.4c0-9.3,0.5-11.2,3-13.1c3.1-2.4,6.9-2.3,9.9,0.2c1.9,1.7,2.4,2.6,2.8,6.2c0.6,4.9,2.8,8.3,6.9,10.4c2.3,1.2,7.5,1.2,9.9-0.1c6-3.2,8-9.5,5.8-18.3c-2.7-10.5-10.3-18.5-21-22.2c-3.2-1.1-4.4-1.3-9.2-1.3c-6.1,0-8.9,0.6-13.8,3c-7.7,3.9-13.1,10.2-16.3,19l-1.3,3.7l-0.1,55.9l-0.1,55.9h11.8H128v-13.8v-13.8h27.4h27.4v13.8v13.8h12h12v-54.9c0-53.8,0-54.9,0.9-56.7c3.9-7.6,14.7-4.2,14.8,4.6c0,3.6,3.5,8.4,7.2,10c2,0.9,6.7,0.8,8.9,0c2.2-0.9,4.9-3.6,6.2-6c0.9-1.6,1-2.5,1-6.2c-0.1-13.5-10-25.6-23.5-29C218,28.7,211.2,28.6,207.1,29.6z M182.9,109.1v7.8h-27.4H128v-7.8v-7.8h27.4h27.4L182.9,109.1L182.9,109.1z"/><path fill="#000000" d="M15.9,97.5L10,97.6v11.7v11.8h45.2h45.2v-11.8V97.6h-1.7C90,97.4,20.4,97.4,15.9,97.5z"/><path fill="#000000" d="M213,97.5l-2.4,0.1v11.8v11.7h17.7H246v-11.8V97.6l-5.4,0c-3,0-9.9,0-15.3-0.1C219.8,97.4,214.2,97.4,213,97.5z"/><path fill="#000000" d="M62.4,137.5c-1.9,1.9-1.6,3.7,0.9,6.5c9.5,10.6,25.2,10.6,34.9,0.2c2.6-2.8,2.9-4.9,1-6.8c-1.9-1.9-3.4-1.6-7.2,1.8c-4.3,3.9-7.1,5-11.9,4.7c-4.4-0.2-7.1-1.4-10.8-5.1C66,135.8,64.4,135.5,62.4,137.5z"/><path fill="#000000" d="M137,165.1c-1.6,1.5-1.5,3.4,0.3,5.6c4.4,5.5,11.3,8.9,18.1,8.9c6.4,0,11.7-2.3,16.5-7c2.8-2.8,3.1-3.2,3.1-4.9c0-2.3-1.5-3.8-3.7-3.8c-1.2,0-2,0.5-4.1,2.5c-3.6,3.4-6.8,5-10.8,5.3c-4.6,0.3-7.6-1-11.8-4.8c-2.7-2.4-3.5-2.9-4.8-2.9C138.6,163.9,137.7,164.3,137,165.1z"/><path fill="#000000" d="M16.1,168.1c-1.3,0.6-2,1.8-2,3.8c0,1.2,0.5,2,2.2,3.9c9.7,10.1,23.6,10.4,33.6,0.8c3.2-3,3.9-4.8,2.9-6.6c-0.9-1.6-2.8-2.6-4.1-2.2c-0.6,0.1-2.3,1.5-3.8,2.9c-7,6.7-15.5,6.7-22.4,0C19.8,168,18,167.3,16.1,168.1z"/><path fill="#000000" d="M204,185.1c-2.3,2.3-1.6,4.5,2.6,8.3c10.1,9,23.6,8.4,33-1.4c1.8-1.9,2.2-2.6,2.2-4c0-2.5-1.3-3.9-3.6-3.9c-1.7,0-2.2,0.3-4.5,2.6c-7,6.8-15.5,7-22.3,0.4C207.5,183.2,206.2,182.9,204,185.1z"/><path fill="#000000" d="M106,188.6c-1.2,1-1.5,1.6-1.5,2.9c0,1.3,0.5,2.1,2.6,4.3c5.2,5.4,9.9,7.5,17,7.5c3.7,0,5.1-0.2,7.4-1.1c3.9-1.5,7-3.6,9.8-6.6c2.9-3.1,3.2-4.7,1-6.9c-2-1.9-3.5-1.6-7,1.7c-7.1,6.8-15.6,6.8-22.5,0C109.6,187.3,108,186.8,106,188.6z"/><path fill="#000000" d="M51.7,207.4c-0.8,0.4-1.7,1.2-2,2.1c-0.8,2,0,3.6,3.3,6.7c9.5,8.8,22.6,8.8,32.1,0c3.4-3.1,4.1-4.7,3.3-6.7c-0.6-1.6-3-2.9-4.4-2.4c-0.5,0.1-2,1.4-3.5,2.8c-3.8,3.5-7.1,5-11.4,5s-7.7-1.4-11.4-5C54.5,207,53.6,206.6,51.7,207.4z"/><path fill="#000000" d="M166,211.4c-1.3,0.6-2.5,2.3-2.5,3.7c0,2.4,4.7,7.2,9.5,9.6c2.5,1.2,7.1,2.4,10,2.4c2.9,0,7.5-1.1,9.8-2.3c4.8-2.5,9.8-7.4,9.8-9.8c0-2-1.8-3.8-3.9-3.8c-1.4,0-2.2,0.5-4.7,2.9c-4,3.8-6.4,4.9-11.1,4.9c-4.7,0-6.9-1-11-4.8c-1.7-1.6-3.2-2.8-3.5-2.8s-0.7-0.1-1.1-0.2C167.2,211.1,166.5,211.2,166,211.4z"/></g></g></g>
</svg>