<svg height="1000" width="1000" viewBox="0 10 298 298" style="fill:#000;fill-opacity:1;stroke:none;stroke-opacity:1;stroke-width:3.278;stroke-dasharray:none" xmlns="http://www.w3.org/2000/svg">
    <path d="M298 178.248h-59.517c-3.323-9.592-12.442-16.5-23.151-16.5-13.51 0-24.5 10.99-24.5 24.5s10.99 24.5 24.5 24.5c10.709 0 19.828-6.908 23.151-16.5H298Zm-74.168 8c0 4.687-3.814 8.5-8.5 8.5-4.687 0-8.5-3.813-8.5-8.5 0-4.686 3.813-8.5 8.5-8.5 4.686 0 8.5 3.813 8.5 8.5zm-52.818-98.996-76.967 76.967a24.338 24.338 0 0 0-10.713-2.472c-10.709 0-19.828 6.908-23.151 16.5H0v16h60.183c3.323 9.592 12.442 16.5 23.151 16.5 13.51 0 24.5-10.99 24.5-24.5a24.36 24.36 0 0 0-2.472-10.715l76.966-76.966zm-96.18 98.996c0-4.686 3.813-8.5 8.5-8.5 4.687 0 8.5 3.814 8.5 8.5 0 4.687-3.813 8.5-8.5 8.5-4.687 0-8.5-3.814-8.5-8.5z" style="fill:#000;fill-opacity:1;stroke:none;stroke-opacity:1;stroke-width:3.278;stroke-dasharray:none"/>
</svg>
