<svg width="1000" height="1000" viewBox="0 0 24 24" fill="none" stroke="currentColor" stroke-width="2" stroke-linecap="round" stroke-linejoin="round" class="icon icon-tabler icons-tabler-outline icon-tabler-propeller" xmlns="http://www.w3.org/2000/svg">
    <path d="M0 0h24v24H0Z" stroke="none"/>
    <path d="M14.167 10.5c.722-1.538 1.156-3.043 1.303-4.514C15.69 4.356 14.708 3 12 3S8.31 4.357 8.53 5.986c.147 1.471.581 2.976 1.303 4.514M13.169 16.751c.97 1.395 2.057 2.523 3.257 3.386 1.3 1 2.967.833 4.321-1.512 1.354-2.345.67-3.874-.85-4.498-1.348-.608-2.868-.985-4.562-1.128M8.664 13c-1.693.143-3.213.52-4.56 1.128-1.522.623-2.206 2.153-.852 4.498s3.02 2.517 4.321 1.512c1.2-.863 2.287-1.991 3.258-3.386"/>
    <circle style="display:inline;fill:none;fill-opacity:1;stroke:#000;stroke-width:1.92;stroke-linecap:round;stroke-linejoin:round;stroke-opacity:1;paint-order:markers stroke fill" cx="12.016" cy="13.05" r="2.972"/>
</svg>
