<svg xmlns="http://www.w3.org/2000/svg" id="Calque_2" data-name="Calque 2" viewBox="0 0 85 84.67">
    <defs>
        <style>
            .cls-1 {

            }
        </style>
    </defs>
    <g id="Calque_1-2" data-name="Calque 1">
        <g>
            <path class="cls-1"
                d="m82.76,19.28c-1.13-.93-2.41-1.44-3.86-1.52-.25-.01-.5-.01-.75-.01-23.77,0-47.53,0-71.3,0-2.8,0-4.92,1.1-6.2,3.63-.3.58-.44,1.24-.65,1.87v46.98c.39,1.59,1.03,3.02,2.36,4.07,1.05.83,2.22,1.32,3.56,1.4.33.02.66.03.99.03,23.72,0,47.45,0,71.17.01,2.84,0,4.98-1.08,6.27-3.64.3-.58.43-1.24.64-1.87V23.24c-.39-1.52-.99-2.92-2.24-3.96Zm-22.72,42.67c0,3.17-1.77,4.93-4.94,4.93-13.61,0-27.22,0-40.82,0-3.13,0-4.9-1.75-4.9-4.88-.01-10.12,0-20.25,0-30.37,0-3.19,1.74-4.91,4.93-4.91,6.8,0,13.61,0,20.41,0,6.89,0,13.77,0,20.66,0,2.27,0,3.95,1.21,4.47,3.22.14.55.18,1.15.18,1.72.01,10.1.01,20.19,0,30.29Zm7.03-30.61c0-.84.31-1.14,1.16-1.14,1.47-.01,2.93,0,4.4,0,1.41,0,2.82,0,4.23,0,.91,0,1.18.28,1.19,1.2.01,2.13.01,4.26,0,6.39,0,.84-.3,1.16-1.15,1.16-2.88.02-5.75.02-8.63,0-.89,0-1.19-.33-1.19-1.22,0-2.13-.01-4.26,0-6.39Zm10.98,21.11c0,.87-.31,1.16-1.23,1.17-1.44.01-2.87,0-4.31,0-1.38,0-2.76,0-4.14,0-1,0-1.3-.29-1.31-1.26,0-2.1,0-4.2,0-6.3,0-.88.32-1.21,1.19-1.22,2.87-.01,5.74-.01,8.62,0,.85,0,1.17.32,1.17,1.14.01,2.15.01,4.31,0,6.46Z" />
            <path class="cls-1"
                d="m32.17,14.14c.25.28.73.51,1.11.52,1.96.05,3.92.03,5.89.02.22,0,.45-.05.77-.08-.22-.28-.35-.46-.49-.62-3.54-4.06-7.1-8.1-10.63-12.18-.72-.84-1.49-1.53-2.58-1.8h-.5c-2.93.68-3.1,3.54-1.38,5.34,2.71,2.84,5.2,5.87,7.81,8.8Z" />
            <path class="cls-1"
                d="m6.31,78.87c0,.56,0,1.05,0,1.54,0,2.67.51,3.4,2.98,4.25h3.82c3.14-.81,3.18-2.79,2.89-5.79H6.31Z" />
            <path class="cls-1"
                d="m68.91,78.88c0,.95-.06,1.83.01,2.71.15,1.8,1.32,2.68,2.96,3.08h3.82c3.11-.8,3.19-2.8,2.87-5.79-3.21,0-6.42,0-9.67,0Z" />
            <path class="cls-1"
                d="m53.19,14.58c.23,0,.51-.19.69-.36,1.24-1.18,2.49-2.36,3.66-3.6.4-.42.74-.99.88-1.55.31-1.21-.3-2.39-1.39-3-1.08-.61-2.3-.47-3.28.46-1.16,1.1-2.28,2.25-3.41,3.39-1.5,1.5-3,3.01-4.68,4.69,2.68,0,5.1.01,7.53-.02Z" />
        </g>
    </g>
</svg>