<svg xmlns="http://www.w3.org/2000/svg" id="Calque_2" data-name="Calque 2" viewBox="0 0 92.21 94.41">
    <defs>
        <style>
            .cls-1 {

            }
        </style>
    </defs>
    <g id="Calque_1-2" data-name="Calque 1">
        <g>
            <path class="cls-1"
                d="m38.52,54.27c-.66-.42-.82-.86-.81-1.57.02-7.1.01-14.2.01-21.3h-.01c0-7.02.03-14.04-.01-21.06-.03-4.41-2.46-8.14-6.47-9.54-1.68-.59-3.56-.64-5.37-.77-6.77-.46-11.5,4.65-11.42,11.28.18,13.43.03,26.86.09,40.3,0,1.55-.43,2.41-1.76,3.27-9.19,5.93-12.44,17.29-7.79,26.78,4.9,9.98,16.87,15.12,28.01,11.71,8.98-2.75,14.88-8.72,16.09-18.22,1.16-9.13-2.91-16.02-10.57-20.87Zm-.12,29.66c-6.68,6.17-17.26,6.27-24.2.38-8.87-7.52-6.8-21.02,4.07-25.89,1.69-.76,2.04-1.6,2.03-3.28-.06-14.52-.02-29.05-.05-43.57,0-2.21.67-4.05,2.67-5.09,2.14-1.11,4.41-1.11,6.53.09,1.77,1,2.5,2.67,2.5,4.7-.01,7.51,0,15.01,0,22.52s.02,14.85-.02,22.27c0,1.06.24,1.59,1.31,2.03,4.71,1.92,8.14,5.22,9.62,10.15,1.84,6.11.17,11.42-4.46,15.7Z" />
            <path class="cls-1"
                d="m2.11,23.76c1.22.04,2.43,0,3.65,0,1.22,0,2.44.03,3.65,0,1.35-.04,2.13-.84,2.13-2.14,0-1.3-.75-2.14-2.1-2.16-2.43-.05-4.87-.04-7.3,0-1.35.02-2.12.84-2.13,2.14,0,1.29.76,2.12,2.1,2.16Z" />
            <path class="cls-1"
                d="m42.85,23.76c1.18.03,2.35,0,3.53,0,1.14,0,2.27,0,3.41,0,.08,0,.16,0,.24,0,1.37-.07,2.15-.82,2.17-2.1.02-1.35-.77-2.19-2.18-2.21-2.39-.03-4.79-.03-7.18,0-1.41.02-2.2.87-2.17,2.22.03,1.29.8,2.05,2.18,2.08Z" />
            <path class="cls-1"
                d="m2,32.47c2.5.05,5.01.05,7.52,0,1.32-.03,2.05-.91,2.02-2.22-.03-1.29-.8-2.04-2.17-2.07-1.17-.03-2.34,0-3.52,0-1.17,0-2.34,0-3.52,0-.08,0-.16,0-.24,0C.75,28.25,0,29.03,0,30.34c0,1.22.75,2.11,2,2.13Z" />
            <path class="cls-1"
                d="m50.05,28.18c-1.21-.03-2.42,0-3.64,0-1.17,0-2.34-.02-3.52,0-1.45.03-2.22.78-2.22,2.13,0,1.35.76,2.15,2.21,2.17,2.38.03,4.77.03,7.15,0,1.4-.02,2.2-.88,2.17-2.21-.03-1.29-.8-2.06-2.16-2.09Z" />
            <path class="cls-1"
                d="m2.18,15.03c2.39.03,4.79.03,7.18,0,1.39-.02,2.16-.78,2.18-2.07.02-1.35-.75-2.17-2.18-2.22-1.18-.04-2.35,0-3.53,0h0c-1.22,0-2.44-.03-3.65.01C.75,10.79-.02,11.6,0,12.95c.03,1.3.79,2.07,2.18,2.08Z" />
            <path class="cls-1"
                d="m50.13,10.75c-2.47-.05-4.95-.05-7.42,0-1.33.03-2.06.9-2.04,2.22.03,1.25.77,2.02,2.07,2.06,1.22.03,2.43,0,3.65,0,1.22,0,2.44.02,3.65,0,1.38-.03,2.15-.8,2.17-2.09.02-1.29-.74-2.17-2.08-2.19Z" />
            <path class="cls-1"
                d="m50.08,36.9c-1.22-.03-2.43,0-3.65,0h0c-1.22,0-2.43-.02-3.65.01-1.33.04-2.06.77-2.1,2.02-.05,1.33.66,2.21,2,2.25,2.51.06,5.03.06,7.54,0,1.33-.03,2.04-.93,1.98-2.26-.05-1.25-.79-1.97-2.12-2.01Z" />
            <path class="cls-1"
                d="m9.43,41.18c1.37-.02,2.12-.85,2.11-2.15,0-1.31-.76-2.09-2.13-2.12-1.22-.03-2.43,0-3.65,0-1.14,0-2.27,0-3.41,0-.04,0-.08,0-.12,0-1.47.05-2.23.78-2.23,2.15,0,1.31.74,2.11,2.12,2.13,2.43.05,4.87.05,7.3,0Z" />
            <path class="cls-1"
                d="m30.94,60.33q-1.94-.64-1.94-2.71v-8.15c0-3.04-.01-6.08,0-9.12,0-.96-.27-1.76-1.14-2.26-2.28-1.3-4.64.06-4.64,2.66,0,5.92-.02,11.84.02,17.76,0,.94-.29,1.35-1.18,1.6-1.08.31-2.16.72-3.17,1.23-8.21,4.18-9.77,14.29-3.16,20.4,6.03,5.58,16.09,5.17,21.63-.89,4.12-4.5,4.33-11.05.52-15.81-1.83-2.29-4.18-3.79-6.95-4.7Z" />
            <path class="cls-1"
                d="m90.86,53.95c-.4.03-.8,0-1.18,0,.05-.29.14-.54.13-.79-.01-.4-.23-.7-.61-.82-.38-.13-.75-.09-1.05.2-.4.39-.78.8-1.19,1.18-.13.12-.33.2-.5.21-.44.03-.87,0-1.41,0,.48-.49.91-.91,1.31-1.34.32-.34.35-.86.11-1.23-.23-.37-.68-.55-1.13-.4-.2.07-.39.21-.54.36-.79.78-1.56,1.57-2.34,2.35-.39.39-1.22.37-1.57-.04-.73-.85-2.1-.86-2.82,0-.19.23-.38.31-.66.29-.19-.02-.39-.03-.58,0-.52.08-.84-.06-.99-.61-.07-.26-.08-.41.12-.6.78-.76,1.56-1.54,2.32-2.32.18-.19.36-.25.61-.24,1.11.02,2.21.02,3.32.02.68,0,1.15-.41,1.15-1,0-.61-.47-1.04-1.17-1.04-.51,0-1.03,0-1.63,0,.67-.67,1.27-1.28,1.88-1.88.08-.07.24-.08.36-.08,1.12,0,2.24,0,3.36,0,.69,0,1.15-.4,1.16-.99,0-.61-.46-1.02-1.17-1.03-.5,0-1.01,0-1.51,0-.03-.04-.06-.08-.09-.11.16-.14.34-.26.49-.41.51-.5,1.02-1,1.52-1.52.39-.41.39-1.03.03-1.41-.38-.4-1.01-.41-1.44,0-.58.56-1.14,1.14-1.72,1.71-.09.09-.18.17-.35.33,0-.63,0-1.17,0-1.7,0-.66-.41-1.12-.98-1.14-.59-.01-1.02.45-1.02,1.14,0,1.12.03,2.24.01,3.36,0,.19-.1.43-.23.57-.54.58-1.11,1.12-1.66,1.68l-.1-.03c0-.57,0-1.13,0-1.7-.01-.49-.35-.89-.79-.99-.45-.09-.92.15-1.11.6-.07.19-.09.41-.09.61,0,1.09.02,2.19,0,3.28,0,.17-.09.38-.21.5-.8.82-1.63,1.61-2.43,2.43-.17.17-.31.22-.5.07-.02-.02-.05-.03-.07-.03-.68-.1-.76-.56-.68-1.12.01-.1,0-.21,0-.31-.02-.41.04-.73.37-1.06.75-.76.63-1.95-.16-2.69-.11-.11-.18-.29-.21-.45-.13-.66.13-1.14.64-1.58.7-.6,1.33-1.28,1.98-1.94.31-.31.41-.69.26-1.11-.14-.39-.44-.62-.82-.6-.3.01-.64.14-.87.33-.39.33-.71.75-1.05,1.14-.05-.03-.09-.06-.14-.09,0-.51,0-1.02,0-1.54,0-.08.09-.18.16-.25.31-.31.63-.62.95-.93.5-.49.61-.96.35-1.42-.27-.45-.75-.57-1.47-.34,0-.35-.03-.68,0-1,.06-.63-.14-1.12-.71-1.42h-.55c-.58.27-.8.73-.76,1.36.02.36,0,.72,0,1.07-.28-.06-.53-.15-.78-.14-.39.02-.69.23-.83.61-.14.38-.11.75.18,1.06.4.41.82.8,1.21,1.22.12.13.2.33.21.51.03.43,0,.87-.08,1.35-.41-.41-.8-.83-1.22-1.24-.35-.34-.83-.4-1.22-.17-.38.21-.58.65-.45,1.11.06.21.21.42.36.58.78.8,1.58,1.58,2.37,2.38.38.38.35,1.18-.06,1.54-.88.77-.87,2.13.04,2.87.19.16.28.31.27.56-.02.39.02.78-.02,1.17-.01.12-.14.27-.25.35-.6.43-1.04.21-1.48-.32-.46-.56-1.03-1.03-1.52-1.57-.14-.15-.25-.4-.25-.6,0-1.2.04-2.4.02-3.59,0-.31-.15-.66-.34-.91-.24-.31-.62-.37-1-.21-.42.18-.65.52-.66.98-.01.66,0,1.33,0,2.06-.12-.1-.2-.15-.27-.22-.51-.5-1.01-1.02-1.52-1.51-.18-.17-.26-.35-.26-.61.02-1.08.01-2.16,0-3.24,0-.67-.4-1.13-.97-1.14-.6-.01-1.02.44-1.04,1.12-.01.48-.01.96-.02,1.44,0,.01,0,.02-.03.07-.09-.08-.18-.14-.25-.22-.62-.62-1.23-1.24-1.85-1.85-.47-.46-1.08-.5-1.49-.1-.42.41-.39,1.04.08,1.52.63.64,1.27,1.27,1.9,1.91.09.09.17.18.32.35-.69,0-1.3-.01-1.9,0-.48.01-.88.36-.98.81-.09.42.13.9.56,1.1.17.08.38.11.56.11,1.15,0,2.29-.02,3.44,0,.2,0,.45.11.6.25.46.41.89.87,1.4,1.38-.58,0-1.05,0-1.52,0-.49.01-.89.35-.98.8-.09.43.14.9.57,1.09.17.08.38.09.57.1,1.03.02,2.06.03,3.08.06.15,0,.35.05.45.15.86.83,1.7,1.69,2.55,2.54-.12.29-.22.58-.36.86-.04.08-.18.14-.27.14-.43.01-.86.02-1.29,0-.13,0-.29-.09-.38-.2-.84-.97-2.16-.97-2.98,0-.09.11-.27.17-.42.2-.57.11-1-.1-1.39-.54-.68-.75-1.42-1.45-2.14-2.17-.35-.34-.88-.39-1.26-.15-.37.23-.55.67-.4,1.12.06.19.19.37.33.52.37.38.76.75,1.12,1.21-.53,0-1.07,0-1.6,0-.08,0-.16-.12-.24-.19-.35-.35-.69-.7-1.04-1.05-.44-.44-.98-.53-1.4-.23-.42.29-.52.79-.27,1.36.01.03.02.07.04.15-.42,0-.82.02-1.22,0-.63-.04-1.08.19-1.35.77v.55c.31.57.8.77,1.43.71.36-.03.73,0,1.09,0-.05.25-.14.47-.13.7.02.39.22.7.6.84.39.15.77.1,1.09-.2.38-.37.74-.77,1.13-1.13.12-.11.31-.19.47-.2.45-.03.9,0,1.35,0,.03.05.06.09.1.14-.42.38-.85.75-1.26,1.15-.3.29-.32.68-.19,1.05.13.36.42.56.8.6.36.04.66-.09.91-.35.74-.75,1.5-1.49,2.22-2.25.25-.26.49-.36.85-.35.41.02.73.05,1.06.38.76.75,1.97.64,2.69-.15.11-.12.29-.2.45-.22.4-.03.81-.02,1.21,0,.11,0,.27.09.31.19.14.29.24.6.38.95-.59.59-1.23,1.17-1.81,1.82-.41.47-.86.66-1.49.62-.92-.05-1.85,0-2.77,0-.67,0-1.14.44-1.13,1.03.01.58.48.99,1.13.99.48,0,.96,0,1.44,0,.01,0,.03,0,.11.03-.3.3-.61.55-.85.86-.52.7-1.18.94-2.05.86-.81-.08-1.64-.02-2.46-.02-.69,0-1.16.41-1.16,1,0,.59.46.99,1.16,1,.51,0,1.03,0,1.58.09-.51.51-1.03,1.02-1.54,1.53-.21.21-.43.42-.63.64-.39.43-.38,1.02,0,1.41.38.38,1,.39,1.41,0,.66-.63,1.29-1.29,1.94-1.93.08-.08.17-.15.32-.29,0,.67-.01,1.25,0,1.83.01.5.37.91.83.99.43.08.88-.16,1.06-.61.07-.19.09-.41.09-.61,0-1.11-.01-2.21,0-3.32,0-.17.09-.38.21-.5.49-.52,1-1.02,1.5-1.52l.12.02c0,.58-.04,1.15.02,1.72.03.29.17.6.35.82.25.3.64.36,1,.19.39-.19.62-.51.62-.96,0-1.07,0-2.14-.04-3.2-.02-.49.11-.83.47-1.15.61-.56,1.19-1.17,1.77-1.77.14-.14.24-.13.44-.09.77.15.9.64.83,1.32-.04.36-.06.63-.37.9-.85.74-.77,2.1.1,2.82.34.28.38,1.11.07,1.43-.81.81-1.63,1.61-2.43,2.44-.16.17-.31.39-.37.62-.12.44.08.86.45,1.07.37.22.86.17,1.19-.14.34-.32.66-.66,1-.99.09-.09.18-.17.34-.32,0,.59,0,1.09,0,1.59,0,.1-.1.21-.18.29-.34.35-.68.68-1.02,1.02-.5.5-.61,1-.31,1.46.3.46.8.55,1.52.24,0,.46.02.89,0,1.32-.04.62.17,1.09.76,1.36h.55c.58-.3.77-.79.71-1.42-.03-.39,0-.78,0-1.21.12.04.21.07.31.1.46.14.93-.03,1.17-.4.23-.38.19-.88-.14-1.22-.37-.39-.76-.75-1.14-1.13-.08-.09-.18-.21-.19-.32-.02-.49,0-.98,0-1.58.42.41.75.74,1.09,1.07.13.12.27.25.43.33.44.22.99.07,1.26-.3.27-.38.23-.93-.13-1.29-.77-.78-1.54-1.55-2.33-2.31-.25-.24-.34-.48-.33-.82,0-.42.05-.76.39-1.1.75-.76.62-1.92-.17-2.69-.1-.1-.18-.27-.19-.42-.03-.38,0-.76-.02-1.13-.01-.23.12-.28.28-.39.61-.4,1-.14,1.42.33.61.68,1.29,1.29,1.92,1.94.12.12.21.33.22.5.04,1,.05,2,.07,3.01.01.71.41,1.15,1.05,1.15.58,0,.98-.48.97-1.18,0-.36,0-.73,0-1.19.35.35.62.67.95.93.43.35.58.76.55,1.31-.05,1.05-.03,2.11-.02,3.16,0,.47.35.87.77.96.46.09.92-.13,1.12-.58.07-.17.08-.38.09-.57.02-.52.02-1.04.02-1.56,0-.02.03-.04.08-.11.41.42.82.84,1.23,1.25.3.31.6.61.91.91.43.41,1.05.42,1.44.04.41-.4.4-1.02-.04-1.47-.67-.69-1.36-1.36-2.14-2.13.62,0,1.13.04,1.63-.02.3-.03.63-.17.86-.36.3-.25.34-.64.18-1.01-.18-.39-.48-.64-.94-.64-1.12,0-2.24,0-3.36.02-.27,0-.46-.07-.65-.27-.5-.52-1.03-1.03-1.6-1.59.17-.02.26-.05.35-.05.61-.02,1.22-.02,1.84-.04.52-.02.93-.42.96-.9.03-.51-.28-.9-.82-1.01-.15-.03-.31-.04-.46-.04-1.17,0-2.34.03-3.51.03-.18,0-.41-.09-.54-.21-.72-.69-1.42-1.41-2.14-2.11-.16-.16-.22-.28-.1-.5.14-.25.22-.52.33-.8.51,0,1.02-.01,1.52,0,.12,0,.26.09.35.18.82.9,2.11.91,2.92,0,.1-.11.27-.17.42-.2.64-.12,1.12.1,1.56.61.58.68,1.25,1.29,1.89,1.92.51.51,1.12.56,1.55.13.42-.42.37-1.04-.14-1.55-.33-.33-.66-.67-.99-1-.01-.02-.02-.04-.04-.11.52,0,1.02-.01,1.52,0,.11,0,.23.1.32.19.33.32.64.65.96.97.46.47.96.57,1.39.3.45-.28.56-.73.32-1.37,0-.02,0-.05,0-.1.36,0,.73-.03,1.09,0,.63.06,1.12-.14,1.43-.71v-.55c-.26-.58-.72-.81-1.35-.77Z" />
        </g>
    </g>
</svg>