<svg id="Calque_2" data-name="Calque 2" viewBox="-6 -3 71.429 71.429" version="1.1" width="1000" height="1000" xmlns="http://www.w3.org/2000/svg">
    <defs id="defs57160">
        <style id="style57158">
            
        </style>
    </defs>
    <g id="g1" transform="matrix(2.70565 0 0 2.70565 -.369 -.21)">
        <path id="path57299" style="color:#000;fill:#000;stroke-linecap:square;-inkscape-stroke:none" d="M9.09.498c-1.55-.019-3.117.534-4.297 1.686-1.18 1.151-1.932 2.893-1.932 5.064v16.064h2V7.248c0-1.725.553-2.876 1.328-3.633.776-.757 1.816-1.13 2.875-1.117 1.704.02 3.399.941 3.998 3.022-2.298.415-4.355 2.11-5.355 4.736a1 1 0 0 0 .934 1.355h11.423a1 1 0 0 0 .895-1.449c-1.385-2.756-3.587-4.335-5.86-4.674C14.376 2.336 11.73.53 9.09.498Zm4.943 6.924c1.43-.047 2.949.62 4.19 2.19h-7.676c.95-1.282 2.138-2.146 3.486-2.19Z"/>
        <path id="path59877" style="fill:#000;fill-opacity:1;stroke:none;stroke-width:3.96912;stroke-linecap:round;stroke-linejoin:round;stroke-dasharray:none" d="M11.637 12.484a2.742 2.742 0 0 0 2.675 2.172 2.742 2.742 0 0 0 2.676-2.172Z"/>
    </g>
</svg>
