<?xml version="1.0" encoding="utf-8"?>
<!-- Svg Vector Icons : http://www.onlinewebfonts.com/icon -->
<!DOCTYPE svg PUBLIC "-//W3C//DTD SVG 1.1//EN" "http://www.w3.org/Graphics/SVG/1.1/DTD/svg11.dtd">
<svg version="1.1" xmlns="http://www.w3.org/2000/svg" xmlns:xlink="http://www.w3.org/1999/xlink" x="0px" y="0px" viewBox="0 0 256 256" enable-background="new 0 0 256 256" xml:space="preserve">
<metadata> Svg Vector Icons : http://www.onlinewebfonts.com/icon </metadata>
<g><g><g><path fill="#000000" d="M89.1,11.1c-5.5,1.8-10.2,5.9-13,11.6l-1.4,2.9l-0.2,13.8l-0.2,13.7l10.6-0.1l10.6-0.2l0.2-10.6L96,31.6l10.6-0.1l10.6-0.2l0.2-10.6l0.1-10.6l-12.7,0.1C94.1,10.1,91.6,10.3,89.1,11.1z"/><path fill="#000000" d="M138.6,20.7l0.2,10.6l21.4,0.2l21.3,0.1V20.8V10.1H160h-21.5L138.6,20.7z"/><path fill="#000000" d="M203.1,20.7l0.2,10.6l10.6,0.2l10.6,0.1l0.1,10.6l0.2,10.6l10.6,0.2l10.6,0.1l-0.2-13.5l-0.2-13.5l-1.6-3.4c-2.8-5.9-6.7-9.5-12.7-11.5c-2.9-1-4.5-1.1-15.8-1.1H203L203.1,20.7z"/><path fill="#000000" d="M24.3,75.5c-6.5,2.4-11.6,7.7-13.5,14.2C10.1,92.3,10,100,10,160.3c0,74.6-0.2,70.5,3.3,75.9c2.2,3.4,5.2,6,9.3,8l3.5,1.6l68.6,0.2c61.6,0.1,69,0.1,71.6-0.7c5.8-1.6,10.7-5.9,13.5-11.7l1.5-2.9v-70.3V90l-1.7-3.5c-2.1-4.2-6.3-8.3-10.5-10.3l-3-1.4l-69.5-0.1C29.6,74.6,26.9,74.6,24.3,75.5z M160,160.3v64.2H95.7H31.5v-64.2V96h64.2H160V160.3L160,160.3z"/><path fill="#000000" d="M224.6,95.9l0.2,21.4l10.6,0.2l10.6,0.1V96V74.5h-10.7h-10.7L224.6,95.9z"/><path fill="#000000" d="M224.8,138.9c-0.2,0.2-0.4,5-0.4,10.7V160l-10.6,0.1l-10.6,0.2l-0.2,10.6l-0.1,10.6l13.7-0.2l13.8-0.2l2.9-1.5c5.8-2.8,10-7.7,11.7-13.4c0.7-2.3,0.8-5.5,0.8-15.4v-12.5h-10.4C229.9,138.5,225,138.7,224.8,138.9z"/></g></g></g>
</svg>