<?xml version="1.0" encoding="UTF-8" standalone="no"?>
<svg
   width="24"
   height="24"
   viewBox="0 0 24 24"
   fill="none"
   stroke="currentColor"
   stroke-width="2"
   stroke-linecap="round"
   stroke-linejoin="round"
   class="icon icon-tabler icons-tabler-outline icon-tabler-letter-case-upper"
   version="1.1"
   id="svg5"
   sodipodi:docname="icon-size-3.svg"
   inkscape:version="1.4.3 (0d15f75042, 2025-12-25)"
   xmlns:inkscape="http://www.inkscape.org/namespaces/inkscape"
   xmlns:sodipodi="http://sodipodi.sourceforge.net/DTD/sodipodi-0.dtd"
   xmlns="http://www.w3.org/2000/svg"
   xmlns:svg="http://www.w3.org/2000/svg">
  <defs
     id="defs5" />
  <sodipodi:namedview
     id="namedview5"
     pagecolor="#ffffff"
     bordercolor="#000000"
     borderopacity="0.25"
     inkscape:showpageshadow="2"
     inkscape:pageopacity="0.0"
     inkscape:pagecheckerboard="0"
     inkscape:deskcolor="#d1d1d1"
     inkscape:zoom="23.540763"
     inkscape:cx="9.2180528"
     inkscape:cy="12.467735"
     inkscape:window-width="1920"
     inkscape:window-height="1008"
     inkscape:window-x="0"
     inkscape:window-y="0"
     inkscape:window-maximized="1"
     inkscape:current-layer="svg5"
     showguides="true" />
  <path
     stroke="none"
     d="M0 0h24v24H0z"
     fill="none"
     id="path1" />
  <path
     style="fill:none;stroke:#000000;stroke-width:0.944882;stroke-linejoin:round"
     d="M 7.7496871,2.0125156 H 3.3942428 V 22.047559 h 4.3554443"
     id="path5"
     sodipodi:nodetypes="cccc" />
  <path
     style="fill:none;stroke:#000000;stroke-width:0.944882;stroke-linejoin:round"
     d="m 16.401102,2.0168715 h 4.355444 V 22.051915 h -4.355444"
     id="path5-6"
     sodipodi:nodetypes="cccc" />
  <path
     d="M 4.0827385,11.987428 H 4.9741477 M 12.105419,3.9647477 v 0.8914089 m 7.131271,7.1312714 h 0.891408 M 6.4004016,6.2824112 7.0243885,6.9063972 M 17.810435,6.2824112 17.186449,6.9063972 M 9.4311929,15.553064 a 4.4570443,4.4570443 0 1 1 5.3484531,0 3.1199309,3.1199309 0 0 0 -0.891409,2.674226 1.782818,1.782818 0 0 1 -3.565636,0 3.1199309,3.1199309 0 0 0 -0.8914081,-2.674226 m 0.6239861,0.891408 h 4.100481"
     id="path2"
     style="stroke-width:1.78282" />
</svg>
