<?xml version="1.0" encoding="UTF-8" standalone="no"?>
<svg
   width="24"
   height="24"
   viewBox="0 0 24 24"
   fill="none"
   stroke="currentColor"
   stroke-width="2"
   stroke-linecap="round"
   stroke-linejoin="round"
   class="icon icon-tabler icons-tabler-outline icon-tabler-letter-case-upper"
   version="1.1"
   id="svg5"
   sodipodi:docname="icon-size-1.svg"
   inkscape:version="1.4.3 (0d15f75042, 2025-12-25)"
   xmlns:inkscape="http://www.inkscape.org/namespaces/inkscape"
   xmlns:sodipodi="http://sodipodi.sourceforge.net/DTD/sodipodi-0.dtd"
   xmlns="http://www.w3.org/2000/svg"
   xmlns:svg="http://www.w3.org/2000/svg">
  <defs
     id="defs5" />
  <sodipodi:namedview
     id="namedview5"
     pagecolor="#ffffff"
     bordercolor="#000000"
     borderopacity="0.25"
     inkscape:showpageshadow="2"
     inkscape:pageopacity="0.0"
     inkscape:pagecheckerboard="0"
     inkscape:deskcolor="#d1d1d1"
     inkscape:zoom="23.540763"
     inkscape:cx="9.2180528"
     inkscape:cy="12.467735"
     inkscape:window-width="1920"
     inkscape:window-height="1008"
     inkscape:window-x="0"
     inkscape:window-y="0"
     inkscape:window-maximized="1"
     inkscape:current-layer="svg5"
     showguides="true" />
  <path
     stroke="none"
     d="M0 0h24v24H0z"
     fill="none"
     id="path1" />
  <path
     style="fill:none;stroke:#000000;stroke-width:0.944882;stroke-linejoin:round"
     d="M 7.7496871,2.0125156 H 3.3942428 V 22.047559 h 4.3554443"
     id="path5"
     sodipodi:nodetypes="cccc" />
  <path
     style="fill:none;stroke:#000000;stroke-width:0.944882;stroke-linejoin:round"
     d="m 16.401102,2.0168715 h 4.355444 V 22.051915 h -4.355444"
     id="path5-6"
     sodipodi:nodetypes="cccc" />
  <path
     d="M 7.4088838,11.987428 H 7.9307211 M 12.105419,7.290893 v 0.5218372 m 4.174697,4.1746978 h 0.521837 M 8.7656605,8.6476699 9.1309469,9.0129558 M 15.445176,8.6476699 15.07989,9.0129558 m -4.539982,5.0618212 a 2.6091858,2.6091858 0 1 1 3.131023,0 1.82643,1.82643 0 0 0 -0.521838,1.565511 1.0436745,1.0436745 0 0 1 -2.087349,0 1.82643,1.82643 0 0 0 -0.521836,-1.565511 m 0.365285,0.521836 h 2.400451"
     id="path2"
     style="stroke-width:1.04367" />
</svg>
