<?xml version="1.0" encoding="utf-8"?>
<!-- Svg Vector Icons : http://www.onlinewebfonts.com/icon -->
<!DOCTYPE svg PUBLIC "-//W3C//DTD SVG 1.1//EN" "http://www.w3.org/Graphics/SVG/1.1/DTD/svg11.dtd">
<svg version="1.1" xmlns="http://www.w3.org/2000/svg" xmlns:xlink="http://www.w3.org/1999/xlink" x="0px" y="0px" viewBox="0 0 256 256" enable-background="new 0 0 256 256" xml:space="preserve">
<metadata> Svg Vector Icons : http://www.onlinewebfonts.com/icon </metadata>
<g> <path fill="#000000" d="M211.2,113.3h-78c-19.1,0-34.8,15.6-34.8,34.8v63.2c0,19.1,15.6,34.8,34.8,34.8h78 c19.2,0,34.8-15.6,34.8-34.8V148C246,128.8,230.4,113.3,211.2,113.3z M231.2,211.2c0,11-9,20-20,20h-78c-11,0-20-9-20-20V148 c0-11,9-20,20-20h78c11,0,20,9,20,20L231.2,211.2L231.2,211.2L231.2,211.2z M75.7,201.7H39.8c-8.3,0-15-6.7-15-15V39.8 c0-8.3,6.7-15,15-15H172c8.3,0,15,6.7,15,15v51.6c0,4.1,3.3,7.4,7.4,7.4c4.1,0,7.4-3.3,7.4-7.4V39.8c0-16.4-13.4-29.8-29.8-29.8 H39.8C23.4,10,10,23.4,10,39.8v146.9c0,16.4,13.4,29.8,29.8,29.8h35.9c4.1,0,7.4-3.3,7.4-7.4C83.1,205,79.8,201.7,75.7,201.7z  M164.9,54.3h-118c-4.1,0-7.4,3.3-7.4,7.4s3.3,7.4,7.4,7.4h118c4.1,0,7.4-3.3,7.4-7.4S168.9,54.3,164.9,54.3z M91.1,98.5H46.9 c-4.1,0-7.4,3.3-7.4,7.4c0,4.1,3.3,7.4,7.4,7.4h44.2c4.1,0,7.4-3.3,7.4-7.4C98.5,101.8,95.2,98.5,91.1,98.5z M76.4,142.8H46.9 c-4.1,0-7.4,3.3-7.4,7.4s3.3,7.4,7.4,7.4h29.5c4.1,0,7.4-3.3,7.4-7.4S80.4,142.8,76.4,142.8z"/></g>
</svg>