<?xml version="1.0" encoding="UTF-8" standalone="no"?>
<svg
   version="1.1"
   viewBox="0 0 596.9912 478.64981"
   id="svg129"
   sodipodi:docname="logo-transparent.svg"
   width="596.99121"
   height="478.64981"
   inkscape:version="1.1.2 (0a00cf5339, 2022-02-04)"
   xmlns:inkscape="http://www.inkscape.org/namespaces/inkscape"
   xmlns:sodipodi="http://sodipodi.sourceforge.net/DTD/sodipodi-0.dtd"
   xmlns="http://www.w3.org/2000/svg"
   xmlns:svg="http://www.w3.org/2000/svg"
   xmlns:rdf="http://www.w3.org/1999/02/22-rdf-syntax-ns#"
   xmlns:cc="http://creativecommons.org/ns#"
   xmlns:dc="http://purl.org/dc/elements/1.1/">
  <title
     id="title419">AZ-RESO</title>
  <sodipodi:namedview
     id="namedview131"
     pagecolor="#ffffff"
     bordercolor="#666666"
     borderopacity="1.0"
     inkscape:pageshadow="2"
     inkscape:pageopacity="0.0"
     inkscape:pagecheckerboard="true"
     showgrid="false"
     inkscape:zoom="0.59113744"
     inkscape:cx="448.2883"
     inkscape:cy="363.7056"
     inkscape:window-width="1920"
     inkscape:window-height="1007"
     inkscape:window-x="0"
     inkscape:window-y="0"
     inkscape:window-maximized="1"
     inkscape:current-layer="svg129" />
  <g
     id="g96"
     transform="translate(3.531708,0.6139923)" />
  <g
     clip-path="url(#SvgjsClipPath1001)"
     id="g114"
     transform="matrix(232.18165,0,0,232.18165,689.86699,11.137561)">
    <g
       clip-path="url(#SvgjsClipPath1000)"
       id="g104">
      <path
         d="M -2.8249924,0.86015714 -1.8363109,0.54525087 V 1.3618213 l -0.9905068,0.1739363 z"
         fill="#ffc632"
         fill-rule="nonzero"
         id="path102" />
    </g>
    <g
       clip-path="url(#SvgjsClipPath1000)"
       id="g108">
      <path
         d="M -1.3712491,-0.04796917 V 1.5632237 l 0.83489006,0.3551961 V 0.58553844 Z"
         fill="#ffc632"
         fill-rule="nonzero"
         id="path106" />
    </g>
    <g
       clip-path="url(#a)"
       id="g112">
      <path
         d="m -1.4689392,0.07165896 c 0.012488,-0.0048749 0.026044,-0.0022482 0.035704,0.0056762 l 0.77786102,0.57476459 c 0.009506,0.007033 0.0149024,0.0183251 0.0144019,0.0301395 l 1.5581e-4,0.42351075 0.22272935,0.1271689 c 0.0121092,0.0069 0.0186758,0.019789 0.0180303,0.032833 l -4.0067e-4,0.5091879 c 9.6e-7,0.012082 -0.006116,0.023343 -0.0162513,0.029918 -0.0101356,0.00658 -0.0229115,0.00757 -0.0339441,0.00265 l -0.18996325,-0.085232 8.904e-5,0.2554732 c 0,0.0197 -0.0159824,0.03566 -0.0356599,0.03566 v 1.559e-4 h -0.5528385 c -0.019766,0 -0.035793,-0.016049 -0.035793,-0.035816 v -0.535521 l -0.1586217,-0.071164 c 0,0 -0.037396,-0.018075 -0.050106,-0.023373 -0.01941,-0.0081 -0.025888,-0.026712 -0.018253,-0.046322 0.00385,-0.00864 0.010985,-0.015401 0.019823,-0.018786 0.00884,-0.00339 0.018658,-0.00312 0.027301,7.336e-4 l 0.1798574,0.080691 V 0.81103313 c -6.7e-6,-0.013252 0.00731,-0.0254233 0.019015,-0.0316353 0.011706,-0.006212 0.025886,-0.005448 0.036857,0.001986 L -0.71215807,1.0650372 -0.71229162,0.69880033 -1.4611929,0.1454272 l -0.1571304,0.0619039 -0.00134,0.48657213 c 0,0.016205 -0.010818,0.0298724 -0.025621,0.034213 l 2.23e-5,4.452e-5 -0.9676462,0.28665885 v 0.554308 L -1.663154,1.4117079 c 0.010673,-0.00174 0.021556,0.00146 0.029598,0.00869 0.00804,0.00723 0.012374,0.017711 0.011783,0.028508 l -0.00145,0.5288431 c 0,0.0197 -0.015982,0.03566 -0.03566,0.03566 v 1.559e-4 h -0.9898167 c -0.019766,0 -0.035793,-0.016049 -0.035793,-0.035816 V 1.6533578 l -0.2453451,0.040668 v -2.23e-5 c -0.010328,0.00169 -0.020875,-0.00125 -0.028847,-0.00803 -0.00797,-0.00678 -0.012562,-0.016719 -0.012556,-0.027184 l 2.226e-4,-0.5836907 c -9.295e-4,-0.016567 0.00968,-0.03159 0.025599,-0.036261 L -2.6844903,0.9615524 V 0.57492578 c 0,-0.0159379 0.010418,-0.0294494 0.024842,-0.0340794 l 0.7092569,-0.27949127 0.2608823,-0.10279473 z m -0.2219725,0.59555503 0.0012,-0.43174679 -0.9231938,0.36376604 v 0.34108352 z m -0.9935786,0.36881901 -0.2152056,0.063751 -2.003e-4,0.5169119 0.2154059,-0.035704 z m 0.9912858,0.4530269 -0.919699,0.1524336 v 0.3004598 h 0.9184525 z m 1.05241064,-0.3010831 1.5582e-4,0.4560765 0.16890568,0.075794 3.339e-4,-0.4351302 z m -0.0710748,0.7539765 -8.904e-5,-0.2516668 -0.4812744,-0.2159402 v 0.467607 z m -1.113e-4,-0.3299092 -1.5582e-4,-0.46478 L -1.1932321,0.87258086 V 1.3961262 Z"
         fill="#002540"
         fill-rule="nonzero"
         id="path110" />
    </g>
  </g>
  <defs
     id="defs127">
    <clipPath
       id="SvgjsClipPath1001">
      <path
         d="M -2.9712382,-0.04796917 H -0.4 V 2.0135624 h -2.5712382 z"
         id="path118" />
    </clipPath>
    <clipPath
       id="SvgjsClipPath1000">
      <path
         d="M -2.9712382,-0.04796917 H -0.4 V 2.0135624 h -2.5712382 z"
         id="path121" />
    </clipPath>
    <clipPath
       id="a">
      <path
         d="m -2.9712382,2.0135624 h 2.57122621 V -0.04796402 H -2.9712382 Z"
         id="path124" />
    </clipPath>
  </defs>
  <metadata
     id="metadata417">
    <rdf:RDF>
      <cc:License
         rdf:about="http://creativecommons.org/licenses/by-nc-nd/4.0/">
        <cc:permits
           rdf:resource="http://creativecommons.org/ns#Reproduction" />
        <cc:permits
           rdf:resource="http://creativecommons.org/ns#Distribution" />
        <cc:requires
           rdf:resource="http://creativecommons.org/ns#Notice" />
        <cc:requires
           rdf:resource="http://creativecommons.org/ns#Attribution" />
        <cc:prohibits
           rdf:resource="http://creativecommons.org/ns#CommercialUse" />
      </cc:License>
      <cc:Work
         rdf:about="">
        <cc:license
           rdf:resource="http://creativecommons.org/licenses/by-nc-nd/4.0/" />
        <dc:title>AZ-RESO</dc:title>
        <dc:date>23/05/2023</dc:date>
        <dc:creator>
          <cc:Agent>
            <dc:title>Christophe LEMOINE</dc:title>
          </cc:Agent>
        </dc:creator>
        <dc:rights>
          <cc:Agent>
            <dc:title>CC Paternité - Pas d'utilisation commerciale - Pas de modification</dc:title>
          </cc:Agent>
        </dc:rights>
        <dc:publisher>
          <cc:Agent>
            <dc:title>Inkscape</dc:title>
          </cc:Agent>
        </dc:publisher>
        <dc:description>Logo identitaire</dc:description>
      </cc:Work>
    </rdf:RDF>
  </metadata>
  <text
     xml:space="preserve"
     style="font-style:normal;font-weight:normal;font-size:40px;line-height:1.25;font-family:sans-serif;fill:#000000;fill-opacity:1;stroke:none"
     x="3.4355123"
     y="0.67367327"
     id="text1388"><tspan
       sodipodi:role="line"
       id="tspan1386"
       x="3.4355123"
       y="0.67367327"></tspan></text>
</svg>
